<svg xmlns="http://www.w3.org/2000/svg" xmlns:xlink="http://www.w3.org/1999/xlink" version="1.1" x="0px" y="0px" viewBox="0 0 24 30" style="enable-background:new 0 0 24 24;" xml:space="preserve"><g><path d="M2.041,12c0,5.5,4.459,9.959,9.959,9.959c5.5,0,9.959-4.459,9.959-9.959c0-5.501-4.459-9.959-9.959-9.959   C6.499,2.041,2.041,6.499,2.041,12z M3.286,12c0-4.805,3.909-8.714,8.714-8.714c4.805,0,8.714,3.909,8.714,8.714   c0,4.805-3.909,8.714-8.714,8.714C7.195,20.714,3.286,16.805,3.286,12z"/><polygon points="9.788,8.888 10.668,8.008 14.657,11.997 10.663,15.991 9.782,15.111 12.897,11.997  "/></g><text x="0" y="39" fill="#000000" font-size="5px" font-weight="bold" font-family="'Helvetica Neue', Helvetica, Arial-Unicode, Arial, Sans-serif">Created by AlePio</text><text x="0" y="44" fill="#000000" font-size="5px" font-weight="bold" font-family="'Helvetica Neue', Helvetica, Arial-Unicode, Arial, Sans-serif">from the Noun Project</text></svg>