<svg width="800" height="228" viewBox="0 0 800 228" fill="none" xmlns="http://www.w3.org/2000/svg">
<rect width="800" height="228" fill="url(#paint0_radial)"/>
<path d="M130.344 100C130.344 100.032 130.408 100.011 130.536 99.936C130.664 99.8507 130.781 99.7013 130.888 99.488C130.995 99.264 131.048 98.9387 131.048 98.512V90.48C131.048 90.0533 130.995 89.7333 130.888 89.52C130.792 89.296 130.68 89.1467 130.552 89.072C130.424 88.9973 130.36 88.9707 130.36 88.992H132.904C132.904 88.9707 132.84 88.9973 132.712 89.072C132.584 89.1467 132.467 89.296 132.36 89.52C132.253 89.7333 132.2 90.0533 132.2 90.48V98.512C132.2 98.9387 132.253 99.264 132.36 99.488C132.467 99.7013 132.584 99.8453 132.712 99.92C132.84 99.9947 132.904 100.021 132.904 100H130.344ZM134.688 92.384C134.976 92.2773 135.216 92.032 135.408 91.648C135.611 91.264 135.712 90.8853 135.712 90.512C135.712 90.416 135.707 90.3467 135.696 90.304H135.584C135.318 90.304 135.115 90.2347 134.976 90.096C134.838 89.9573 134.768 89.7867 134.768 89.584C134.768 89.3707 134.838 89.1893 134.976 89.04C135.126 88.88 135.323 88.8 135.568 88.8C135.835 88.8 136.064 88.912 136.256 89.136C136.459 89.3493 136.56 89.664 136.56 90.08C136.56 90.4107 136.491 90.752 136.352 91.104C136.214 91.4453 136 91.7387 135.712 91.984C135.424 92.2293 135.083 92.3627 134.688 92.384ZM139.867 95.136C140.133 94.8053 140.432 94.544 140.763 94.352C141.093 94.1493 141.44 94.048 141.803 94.048C142.197 94.048 142.544 94.144 142.843 94.336C143.152 94.5173 143.376 94.784 143.515 95.136C143.803 94.7733 144.128 94.5013 144.491 94.32C144.864 94.1387 145.248 94.048 145.642 94.048C146.219 94.048 146.677 94.2347 147.019 94.608C147.371 94.9707 147.547 95.4987 147.547 96.192V98.416C147.547 99.0027 147.621 99.408 147.771 99.632C147.92 99.856 148.053 99.9787 148.171 100H145.899C146.027 99.9787 146.16 99.856 146.299 99.632C146.448 99.408 146.523 98.9973 146.523 98.4V96.576C146.523 96.2133 146.475 95.9253 146.378 95.712C146.283 95.4987 146.155 95.3227 145.995 95.184C145.749 94.9813 145.456 94.88 145.115 94.88C144.741 94.88 144.411 95.008 144.123 95.264C143.845 95.5093 143.707 95.856 143.707 96.304V98.4C143.707 98.9973 143.776 99.408 143.915 99.632C144.064 99.856 144.203 99.9787 144.331 100H142.059C142.187 99.9787 142.32 99.856 142.459 99.632C142.608 99.408 142.683 98.9973 142.683 98.4V96.576C142.683 96.2133 142.635 95.9253 142.539 95.712C142.443 95.4987 142.315 95.3227 142.155 95.184C141.909 94.9813 141.616 94.88 141.275 94.88C140.891 94.88 140.56 95.008 140.283 95.264C140.005 95.5093 139.867 95.856 139.867 96.304V98.4C139.867 99.008 139.941 99.424 140.091 99.648C140.24 99.8613 140.379 99.9787 140.507 100H138.235C138.363 99.9787 138.496 99.856 138.635 99.632C138.773 99.408 138.843 98.9973 138.843 98.4V95.984C138.843 95.536 138.768 95.232 138.618 95.072C138.48 94.9013 138.32 94.816 138.139 94.816L139.867 94.048V95.136ZM158.378 100.192C158.037 100.181 157.749 100.091 157.514 99.92C157.279 99.7493 157.146 99.552 157.114 99.328C156.922 99.6053 156.666 99.8187 156.346 99.968C156.037 100.117 155.727 100.192 155.418 100.192C154.927 100.192 154.517 100.053 154.186 99.776C153.855 99.488 153.69 99.1147 153.69 98.656C153.69 97.472 154.799 96.88 157.018 96.88V96.704C157.018 96.1173 156.933 95.6853 156.762 95.408C156.527 95.0133 156.143 94.816 155.61 94.816C155.194 94.816 154.847 94.9387 154.57 95.184C154.303 95.4293 154.17 95.7493 154.17 96.144C154.106 96.0373 154.053 95.9413 154.01 95.856C153.978 95.7707 153.962 95.6533 153.962 95.504C153.962 95.12 154.143 94.784 154.506 94.496C154.869 94.1973 155.343 94.048 155.93 94.048C156.762 94.048 157.354 94.3253 157.706 94.88C157.823 95.0507 157.909 95.264 157.962 95.52C158.015 95.776 158.042 96.112 158.042 96.528V98.432C158.042 98.7627 158.133 99.0187 158.314 99.2C158.506 99.3813 158.773 99.472 159.114 99.472H159.322L158.378 100.192ZM157.018 97.36C156.165 97.36 155.589 97.4667 155.29 97.68C154.991 97.8933 154.842 98.1813 154.842 98.544C154.842 98.8427 154.922 99.0773 155.082 99.248C155.242 99.4187 155.455 99.504 155.722 99.504C155.925 99.504 156.117 99.456 156.298 99.36C156.479 99.264 156.634 99.1307 156.762 98.96C156.933 98.736 157.018 98.432 157.018 98.048V97.36ZM164.688 89.552C164.496 89.36 164.261 89.2107 163.984 89.104C163.717 88.9867 163.445 88.928 163.168 88.928C162.635 88.928 162.245 89.12 162 89.504C161.755 89.8773 161.632 90.3627 161.632 90.96V94.176H163.296V94.816H161.632V98.4C161.632 98.8587 161.68 99.2107 161.776 99.456C161.872 99.6907 161.979 99.8507 162.096 99.936C162.213 100.011 162.272 100.032 162.272 100H159.952C159.952 100.032 160.011 100.011 160.128 99.936C160.256 99.8507 160.368 99.6907 160.464 99.456C160.56 99.2107 160.608 98.8587 160.608 98.4V94.816H159.712V94.176H160.608V91.952C160.608 91.2053 160.731 90.5493 160.976 89.984C161.232 89.408 161.584 88.96 162.032 88.64C162.491 88.32 163.013 88.16 163.6 88.16C164.059 88.16 164.421 88.208 164.688 88.304V89.552ZM165.726 95.504C165.886 95.1627 166.147 94.8373 166.51 94.528C166.883 94.208 167.257 94.048 167.63 94.048C167.865 94.048 168.041 94.08 168.158 94.144V95.456C167.923 95.168 167.593 95.024 167.166 95.024C166.718 95.024 166.366 95.2213 166.11 95.616C165.854 96 165.726 96.496 165.726 97.104V98.4C165.726 98.9973 165.795 99.408 165.934 99.632C166.073 99.856 166.206 99.9787 166.334 100H164.078C164.206 99.9787 164.339 99.8613 164.478 99.648C164.627 99.424 164.702 99.008 164.702 98.4V95.984C164.702 95.536 164.627 95.232 164.478 95.072C164.339 94.9013 164.179 94.816 163.998 94.816L165.726 94.048V95.504ZM174.003 100.192C173.662 100.181 173.374 100.091 173.139 99.92C172.904 99.7493 172.771 99.552 172.739 99.328C172.547 99.6053 172.291 99.8187 171.971 99.968C171.662 100.117 171.352 100.192 171.043 100.192C170.552 100.192 170.142 100.053 169.811 99.776C169.48 99.488 169.315 99.1147 169.315 98.656C169.315 97.472 170.424 96.88 172.643 96.88V96.704C172.643 96.1173 172.558 95.6853 172.387 95.408C172.152 95.0133 171.768 94.816 171.235 94.816C170.819 94.816 170.472 94.9387 170.195 95.184C169.928 95.4293 169.795 95.7493 169.795 96.144C169.731 96.0373 169.678 95.9413 169.635 95.856C169.603 95.7707 169.587 95.6533 169.587 95.504C169.587 95.12 169.768 94.784 170.131 94.496C170.494 94.1973 170.968 94.048 171.555 94.048C172.387 94.048 172.979 94.3253 173.331 94.88C173.448 95.0507 173.534 95.264 173.587 95.52C173.64 95.776 173.667 96.112 173.667 96.528V98.432C173.667 98.7627 173.758 99.0187 173.939 99.2C174.131 99.3813 174.398 99.472 174.739 99.472H174.947L174.003 100.192ZM172.643 97.36C171.79 97.36 171.214 97.4667 170.915 97.68C170.616 97.8933 170.467 98.1813 170.467 98.544C170.467 98.8427 170.547 99.0773 170.707 99.248C170.867 99.4187 171.08 99.504 171.347 99.504C171.55 99.504 171.742 99.456 171.923 99.36C172.104 99.264 172.259 99.1307 172.387 98.96C172.558 98.736 172.643 98.432 172.643 98.048V97.36ZM176.233 95.984C176.233 95.536 176.158 95.232 176.009 95.072C175.87 94.9013 175.71 94.816 175.529 94.816L177.257 94.048V98.4C177.257 98.8693 177.305 99.2213 177.401 99.456C177.497 99.6907 177.604 99.8507 177.721 99.936C177.838 100.011 177.897 100.032 177.897 100H175.593C175.593 100.032 175.652 100.011 175.769 99.936C175.886 99.8507 175.993 99.6907 176.089 99.456C176.185 99.2213 176.233 98.8693 176.233 98.4V95.984ZM176.729 92.112C176.494 92.112 176.308 92.0373 176.169 91.888C176.041 91.728 175.977 91.5467 175.977 91.344C175.977 91.1413 176.041 90.9653 176.169 90.816C176.308 90.656 176.494 90.576 176.729 90.576C176.964 90.576 177.145 90.656 177.273 90.816C177.412 90.9653 177.481 91.1413 177.481 91.344C177.481 91.5467 177.412 91.728 177.273 91.888C177.145 92.0373 176.964 92.112 176.729 92.112ZM183.651 90.16C183.651 89.712 183.577 89.408 183.427 89.248C183.289 89.0773 183.129 88.992 182.947 88.992H182.851L184.675 88.16V98.192C184.675 98.64 184.745 98.9493 184.883 99.12C185.033 99.28 185.198 99.36 185.379 99.36H185.475L183.651 100.192V99.152C183.523 99.3653 183.289 99.5947 182.947 99.84C182.617 100.075 182.179 100.192 181.635 100.192C181.166 100.192 180.745 100.075 180.371 99.84C179.998 99.6053 179.705 99.28 179.491 98.864C179.278 98.448 179.171 97.984 179.171 97.472C179.171 96.8213 179.305 96.2453 179.571 95.744C179.838 95.2427 180.185 94.8427 180.611 94.544C181.091 94.2133 181.614 94.048 182.179 94.048C182.553 94.048 182.862 94.1013 183.107 94.208C183.353 94.304 183.534 94.3947 183.651 94.48V90.16ZM180.323 96.992C180.323 97.664 180.478 98.2507 180.787 98.752C181.107 99.2427 181.566 99.488 182.163 99.488C182.387 99.488 182.617 99.4293 182.851 99.312C183.086 99.184 183.278 99.0133 183.427 98.8C183.577 98.5867 183.651 98.3467 183.651 98.08V96.192C183.651 95.8507 183.609 95.5733 183.523 95.36C183.449 95.1467 183.326 94.9867 183.155 94.88C182.889 94.7093 182.563 94.624 182.179 94.624C181.646 94.624 181.203 94.8427 180.851 95.28C180.499 95.7067 180.323 96.2773 180.323 96.992ZM192.911 100.192C192.388 100.192 191.994 100.016 191.727 99.664C191.46 99.3013 191.327 98.8693 191.327 98.368V94.816H190.431L192.351 92.64V94.176H194.399V94.816H192.351V98.192C192.351 98.5973 192.458 98.9067 192.671 99.12C192.884 99.3227 193.13 99.424 193.407 99.424C193.62 99.424 193.828 99.36 194.031 99.232C194.234 99.104 194.399 98.928 194.527 98.704C194.367 99.696 193.828 100.192 192.911 100.192ZM197.21 94.992C197.445 94.7147 197.733 94.4907 198.074 94.32C198.416 94.1387 198.773 94.048 199.146 94.048C199.722 94.048 200.181 94.2347 200.522 94.608C200.874 94.9707 201.05 95.4987 201.05 96.192V98.416C201.05 98.864 201.098 99.2053 201.194 99.44C201.29 99.6747 201.397 99.8347 201.514 99.92C201.632 100.005 201.69 100.032 201.69 100H199.386C199.386 100.032 199.445 100.011 199.562 99.936C199.68 99.8507 199.786 99.6907 199.882 99.456C199.978 99.2213 200.026 98.8693 200.026 98.4V96.576C200.026 96.2133 199.978 95.9253 199.882 95.712C199.786 95.4987 199.658 95.3227 199.498 95.184C199.253 94.9813 198.96 94.88 198.618 94.88C198.234 94.88 197.904 95.008 197.626 95.264C197.349 95.5093 197.21 95.856 197.21 96.304V98.4C197.21 98.8587 197.258 99.2053 197.354 99.44C197.45 99.6747 197.557 99.8347 197.674 99.92C197.802 100.005 197.866 100.032 197.866 100H195.562C195.562 100.032 195.621 100.011 195.738 99.936C195.856 99.8507 195.957 99.6907 196.042 99.456C196.138 99.2107 196.186 98.8587 196.186 98.4V90.16C196.186 89.712 196.112 89.408 195.962 89.248C195.824 89.0773 195.664 88.992 195.482 88.992H195.386L197.21 88.16V94.992ZM207.784 100.192C207.443 100.181 207.155 100.091 206.92 99.92C206.685 99.7493 206.552 99.552 206.52 99.328C206.328 99.6053 206.072 99.8187 205.752 99.968C205.443 100.117 205.133 100.192 204.824 100.192C204.333 100.192 203.923 100.053 203.592 99.776C203.261 99.488 203.096 99.1147 203.096 98.656C203.096 97.472 204.205 96.88 206.424 96.88V96.704C206.424 96.1173 206.339 95.6853 206.168 95.408C205.933 95.0133 205.549 94.816 205.016 94.816C204.6 94.816 204.253 94.9387 203.976 95.184C203.709 95.4293 203.576 95.7493 203.576 96.144C203.512 96.0373 203.459 95.9413 203.416 95.856C203.384 95.7707 203.368 95.6533 203.368 95.504C203.368 95.12 203.549 94.784 203.912 94.496C204.275 94.1973 204.749 94.048 205.336 94.048C206.168 94.048 206.76 94.3253 207.112 94.88C207.229 95.0507 207.315 95.264 207.368 95.52C207.421 95.776 207.448 96.112 207.448 96.528V98.432C207.448 98.7627 207.539 99.0187 207.72 99.2C207.912 99.3813 208.179 99.472 208.52 99.472H208.728L207.784 100.192ZM206.424 97.36C205.571 97.36 204.995 97.4667 204.696 97.68C204.397 97.8933 204.248 98.1813 204.248 98.544C204.248 98.8427 204.328 99.0773 204.488 99.248C204.648 99.4187 204.861 99.504 205.128 99.504C205.331 99.504 205.523 99.456 205.704 99.36C205.885 99.264 206.04 99.1307 206.168 98.96C206.339 98.736 206.424 98.432 206.424 98.048V97.36ZM211.598 100.192C211.076 100.192 210.681 100.016 210.414 99.664C210.148 99.3013 210.014 98.8693 210.014 98.368V94.816H209.118L211.038 92.64V94.176H213.086V94.816H211.038V98.192C211.038 98.5973 211.145 98.9067 211.358 99.12C211.572 99.3227 211.817 99.424 212.094 99.424C212.308 99.424 212.516 99.36 212.718 99.232C212.921 99.104 213.086 98.928 213.214 98.704C213.054 99.696 212.516 100.192 211.598 100.192ZM220.552 100.192C220.029 100.192 219.634 100.016 219.368 99.664C219.101 99.3013 218.968 98.8693 218.968 98.368V94.816H218.072L219.992 92.64V94.176H222.04V94.816H219.992V98.192C219.992 98.5973 220.098 98.9067 220.312 99.12C220.525 99.3227 220.77 99.424 221.048 99.424C221.261 99.424 221.469 99.36 221.672 99.232C221.874 99.104 222.04 98.928 222.168 98.704C222.008 99.696 221.469 100.192 220.552 100.192ZM224.851 94.992C225.086 94.7147 225.374 94.4907 225.715 94.32C226.056 94.1387 226.414 94.048 226.787 94.048C227.363 94.048 227.822 94.2347 228.163 94.608C228.515 94.9707 228.691 95.4987 228.691 96.192V98.416C228.691 98.864 228.739 99.2053 228.835 99.44C228.931 99.6747 229.038 99.8347 229.155 99.92C229.272 100.005 229.331 100.032 229.331 100H227.027C227.027 100.032 227.086 100.011 227.203 99.936C227.32 99.8507 227.427 99.6907 227.523 99.456C227.619 99.2213 227.667 98.8693 227.667 98.4V96.576C227.667 96.2133 227.619 95.9253 227.523 95.712C227.427 95.4987 227.299 95.3227 227.139 95.184C226.894 94.9813 226.6 94.88 226.259 94.88C225.875 94.88 225.544 95.008 225.267 95.264C224.99 95.5093 224.851 95.856 224.851 96.304V98.4C224.851 98.8587 224.899 99.2053 224.995 99.44C225.091 99.6747 225.198 99.8347 225.315 99.92C225.443 100.005 225.507 100.032 225.507 100H223.203C223.203 100.032 223.262 100.011 223.379 99.936C223.496 99.8507 223.598 99.6907 223.683 99.456C223.779 99.2107 223.827 98.8587 223.827 98.4V90.16C223.827 89.712 223.752 89.408 223.603 89.248C223.464 89.0773 223.304 88.992 223.123 88.992H223.027L224.851 88.16V94.992ZM233.377 100.192C232.801 100.192 232.305 100.053 231.889 99.776C231.473 99.488 231.153 99.12 230.929 98.672C230.715 98.2133 230.609 97.728 230.609 97.216C230.609 96.5547 230.737 95.984 230.993 95.504C231.259 95.024 231.601 94.6613 232.017 94.416C232.433 94.1707 232.865 94.048 233.313 94.048C233.953 94.048 234.502 94.2827 234.961 94.752C235.43 95.2107 235.686 95.8507 235.729 96.672H231.569C231.569 97.184 231.665 97.6373 231.857 98.032C232.049 98.416 232.305 98.7147 232.625 98.928C232.955 99.1307 233.313 99.232 233.697 99.232C234.699 99.232 235.377 98.912 235.729 98.272C235.633 98.848 235.371 99.312 234.945 99.664C234.518 100.016 233.995 100.192 233.377 100.192ZM233.201 94.576C232.785 94.576 232.427 94.7253 232.129 95.024C231.83 95.312 231.649 95.6907 231.585 96.16H234.497C234.497 95.6693 234.363 95.2853 234.097 95.008C233.841 94.72 233.542 94.576 233.201 94.576ZM243.941 100.192C243.365 100.192 242.858 100.053 242.421 99.776C241.994 99.4987 241.669 99.1307 241.445 98.672C241.221 98.2133 241.109 97.728 241.109 97.216C241.109 96.6827 241.221 96.176 241.445 95.696C241.679 95.2053 242.015 94.8107 242.453 94.512C242.89 94.2027 243.407 94.048 244.005 94.048C244.719 94.048 245.237 94.2027 245.557 94.512C245.877 94.8213 246.101 95.1467 246.229 95.488L245.173 96C245.109 95.616 244.949 95.2907 244.693 95.024C244.447 94.7573 244.143 94.624 243.781 94.624C243.258 94.624 242.853 94.8267 242.565 95.232C242.277 95.6373 242.133 96.1333 242.133 96.72C242.133 97.136 242.223 97.5413 242.405 97.936C242.597 98.32 242.863 98.6347 243.205 98.88C243.557 99.1253 243.967 99.248 244.437 99.248C244.821 99.248 245.183 99.1627 245.525 98.992C245.877 98.8107 246.154 98.5707 246.357 98.272C246.239 98.8693 245.962 99.3387 245.525 99.68C245.087 100.021 244.559 100.192 243.941 100.192ZM248.155 95.984C248.155 95.536 248.08 95.232 247.931 95.072C247.792 94.9013 247.632 94.816 247.451 94.816L249.179 94.048V98.4C249.179 98.8693 249.227 99.2213 249.323 99.456C249.419 99.6907 249.526 99.8507 249.643 99.936C249.76 100.011 249.819 100.032 249.819 100H247.515C247.515 100.032 247.574 100.011 247.691 99.936C247.808 99.8507 247.915 99.6907 248.011 99.456C248.107 99.2213 248.155 98.8693 248.155 98.4V95.984ZM248.651 92.112C248.416 92.112 248.23 92.0373 248.091 91.888C247.963 91.728 247.899 91.5467 247.899 91.344C247.899 91.1413 247.963 90.9653 248.091 90.816C248.23 90.656 248.416 90.576 248.651 90.576C248.886 90.576 249.067 90.656 249.195 90.816C249.334 90.9653 249.403 91.1413 249.403 91.344C249.403 91.5467 249.334 91.728 249.195 91.888C249.067 92.0373 248.886 92.112 248.651 92.112ZM252.757 95.136C253.002 94.8053 253.29 94.544 253.621 94.352C253.962 94.1493 254.32 94.048 254.693 94.048C255.269 94.048 255.728 94.2347 256.069 94.608C256.421 94.9707 256.597 95.4987 256.597 96.192V98.416C256.597 98.864 256.645 99.2053 256.741 99.44C256.837 99.6747 256.944 99.8347 257.061 99.92C257.178 100.005 257.237 100.032 257.237 100H254.933C254.933 100.032 254.992 100.011 255.109 99.936C255.226 99.8507 255.333 99.6907 255.429 99.456C255.525 99.2213 255.573 98.8693 255.573 98.4V96.576C255.573 96.2133 255.525 95.9253 255.429 95.712C255.333 95.4987 255.205 95.3227 255.045 95.184C254.8 94.9813 254.506 94.88 254.165 94.88C253.781 94.88 253.45 95.008 253.173 95.264C252.896 95.5093 252.757 95.856 252.757 96.304V98.4C252.757 98.8587 252.805 99.2053 252.901 99.44C252.997 99.6747 253.104 99.8347 253.221 99.92C253.349 100.005 253.413 100.032 253.413 100H251.109C251.109 100.032 251.168 100.011 251.285 99.936C251.402 99.8507 251.504 99.6907 251.589 99.456C251.685 99.2107 251.733 98.8587 251.733 98.4V95.984C251.733 95.536 251.658 95.232 251.509 95.072C251.37 94.9013 251.21 94.816 251.029 94.816L252.757 94.048V95.136ZM261.283 100.192C260.707 100.192 260.211 100.053 259.795 99.776C259.379 99.488 259.059 99.12 258.835 98.672C258.622 98.2133 258.515 97.728 258.515 97.216C258.515 96.5547 258.643 95.984 258.899 95.504C259.166 95.024 259.507 94.6613 259.923 94.416C260.339 94.1707 260.771 94.048 261.219 94.048C261.859 94.048 262.408 94.2827 262.867 94.752C263.336 95.2107 263.592 95.8507 263.635 96.672H259.475C259.475 97.184 259.571 97.6373 259.763 98.032C259.955 98.416 260.211 98.7147 260.531 98.928C260.862 99.1307 261.219 99.232 261.603 99.232C262.606 99.232 263.283 98.912 263.635 98.272C263.539 98.848 263.278 99.312 262.851 99.664C262.424 100.016 261.902 100.192 261.283 100.192ZM261.107 94.576C260.691 94.576 260.334 94.7253 260.035 95.024C259.736 95.312 259.555 95.6907 259.491 96.16H262.403C262.403 95.6693 262.27 95.2853 262.003 95.008C261.747 94.72 261.448 94.576 261.107 94.576ZM266.585 95.136C266.852 94.8053 267.151 94.544 267.481 94.352C267.812 94.1493 268.159 94.048 268.521 94.048C268.916 94.048 269.263 94.144 269.561 94.336C269.871 94.5173 270.095 94.784 270.233 95.136C270.521 94.7733 270.847 94.5013 271.209 94.32C271.583 94.1387 271.967 94.048 272.361 94.048C272.937 94.048 273.396 94.2347 273.737 94.608C274.089 94.9707 274.265 95.4987 274.265 96.192V98.416C274.265 99.0027 274.34 99.408 274.489 99.632C274.639 99.856 274.772 99.9787 274.889 100H272.617C272.745 99.9787 272.879 99.856 273.017 99.632C273.167 99.408 273.241 98.9973 273.241 98.4V96.576C273.241 96.2133 273.193 95.9253 273.097 95.712C273.001 95.4987 272.873 95.3227 272.713 95.184C272.468 94.9813 272.175 94.88 271.833 94.88C271.46 94.88 271.129 95.008 270.841 95.264C270.564 95.5093 270.425 95.856 270.425 96.304V98.4C270.425 98.9973 270.495 99.408 270.633 99.632C270.783 99.856 270.921 99.9787 271.049 100H268.777C268.905 99.9787 269.039 99.856 269.177 99.632C269.327 99.408 269.401 98.9973 269.401 98.4V96.576C269.401 96.2133 269.353 95.9253 269.257 95.712C269.161 95.4987 269.033 95.3227 268.873 95.184C268.628 94.9813 268.335 94.88 267.993 94.88C267.609 94.88 267.279 95.008 267.001 95.264C266.724 95.5093 266.585 95.856 266.585 96.304V98.4C266.585 99.008 266.66 99.424 266.809 99.648C266.959 99.8613 267.097 99.9787 267.225 100H264.953C265.081 99.9787 265.215 99.856 265.353 99.632C265.492 99.408 265.561 98.9973 265.561 98.4V95.984C265.561 95.536 265.487 95.232 265.337 95.072C265.199 94.9013 265.039 94.816 264.857 94.816L266.585 94.048V95.136ZM281.003 100.192C280.662 100.181 280.374 100.091 280.139 99.92C279.904 99.7493 279.771 99.552 279.739 99.328C279.547 99.6053 279.291 99.8187 278.971 99.968C278.662 100.117 278.352 100.192 278.043 100.192C277.552 100.192 277.142 100.053 276.811 99.776C276.48 99.488 276.315 99.1147 276.315 98.656C276.315 97.472 277.424 96.88 279.643 96.88V96.704C279.643 96.1173 279.558 95.6853 279.387 95.408C279.152 95.0133 278.768 94.816 278.235 94.816C277.819 94.816 277.472 94.9387 277.195 95.184C276.928 95.4293 276.795 95.7493 276.795 96.144C276.731 96.0373 276.678 95.9413 276.635 95.856C276.603 95.7707 276.587 95.6533 276.587 95.504C276.587 95.12 276.768 94.784 277.131 94.496C277.494 94.1973 277.968 94.048 278.555 94.048C279.387 94.048 279.979 94.3253 280.331 94.88C280.448 95.0507 280.534 95.264 280.587 95.52C280.64 95.776 280.667 96.112 280.667 96.528V98.432C280.667 98.7627 280.758 99.0187 280.939 99.2C281.131 99.3813 281.398 99.472 281.739 99.472H281.947L281.003 100.192ZM279.643 97.36C278.79 97.36 278.214 97.4667 277.915 97.68C277.616 97.8933 277.467 98.1813 277.467 98.544C277.467 98.8427 277.547 99.0773 277.707 99.248C277.867 99.4187 278.08 99.504 278.347 99.504C278.55 99.504 278.742 99.456 278.923 99.36C279.104 99.264 279.259 99.1307 279.387 98.96C279.558 98.736 279.643 98.432 279.643 98.048V97.36ZM284.817 100.192C284.294 100.192 283.9 100.016 283.633 99.664C283.366 99.3013 283.233 98.8693 283.233 98.368V94.816H282.337L284.257 92.64V94.176H286.305V94.816H284.257V98.192C284.257 98.5973 284.364 98.9067 284.577 99.12C284.79 99.3227 285.036 99.424 285.313 99.424C285.526 99.424 285.734 99.36 285.937 99.232C286.14 99.104 286.305 98.928 286.433 98.704C286.273 99.696 285.734 100.192 284.817 100.192ZM288.093 95.984C288.093 95.536 288.018 95.232 287.868 95.072C287.73 94.9013 287.57 94.816 287.389 94.816L289.117 94.048V98.4C289.117 98.8693 289.165 99.2213 289.261 99.456C289.357 99.6907 289.463 99.8507 289.581 99.936C289.698 100.011 289.757 100.032 289.757 100H287.453C287.453 100.032 287.511 100.011 287.629 99.936C287.746 99.8507 287.853 99.6907 287.949 99.456C288.045 99.2213 288.093 98.8693 288.093 98.4V95.984ZM288.589 92.112C288.354 92.112 288.167 92.0373 288.029 91.888C287.901 91.728 287.837 91.5467 287.837 91.344C287.837 91.1413 287.901 90.9653 288.029 90.816C288.167 90.656 288.354 90.576 288.589 90.576C288.823 90.576 289.005 90.656 289.133 90.816C289.271 90.9653 289.341 91.1413 289.341 91.344C289.341 91.5467 289.271 91.728 289.133 91.888C289.005 92.0373 288.823 92.112 288.589 92.112ZM293.863 100.192C293.287 100.192 292.78 100.053 292.343 99.776C291.916 99.4987 291.591 99.1307 291.367 98.672C291.143 98.2133 291.031 97.728 291.031 97.216C291.031 96.6827 291.143 96.176 291.367 95.696C291.601 95.2053 291.937 94.8107 292.375 94.512C292.812 94.2027 293.329 94.048 293.927 94.048C294.641 94.048 295.159 94.2027 295.479 94.512C295.799 94.8213 296.023 95.1467 296.151 95.488L295.095 96C295.031 95.616 294.871 95.2907 294.615 95.024C294.369 94.7573 294.065 94.624 293.703 94.624C293.18 94.624 292.775 94.8267 292.487 95.232C292.199 95.6373 292.055 96.1333 292.055 96.72C292.055 97.136 292.145 97.5413 292.327 97.936C292.519 98.32 292.785 98.6347 293.127 98.88C293.479 99.1253 293.889 99.248 294.359 99.248C294.743 99.248 295.105 99.1627 295.447 98.992C295.799 98.8107 296.076 98.5707 296.279 98.272C296.161 98.8693 295.884 99.3387 295.447 99.68C295.009 100.021 294.481 100.192 293.863 100.192ZM304.091 100.192L301.915 95.28C301.776 94.9707 301.632 94.736 301.483 94.576C301.344 94.4053 301.221 94.2933 301.115 94.24C301.008 94.1867 300.955 94.1653 300.955 94.176H303.371C303.349 94.176 303.301 94.192 303.227 94.224C303.152 94.2453 303.077 94.2987 303.003 94.384C302.939 94.4587 302.907 94.5707 302.907 94.72C302.907 94.9013 302.96 95.104 303.067 95.328L304.331 98.224L305.515 95.488C305.589 95.296 305.627 95.0987 305.627 94.896C305.627 94.704 305.584 94.544 305.499 94.416C305.424 94.288 305.296 94.208 305.115 94.176H307.243C307.243 94.1653 307.184 94.1867 307.067 94.24C306.96 94.2933 306.832 94.4107 306.683 94.592C306.544 94.7627 306.4 95.0133 306.251 95.344L304.091 100.192ZM307.937 97.264C307.937 96.7093 308.07 96.1867 308.337 95.696C308.614 95.1947 308.993 94.7947 309.473 94.496C309.953 94.1973 310.486 94.048 311.073 94.048C311.638 94.048 312.15 94.1813 312.609 94.448C313.068 94.704 313.425 95.056 313.681 95.504C313.948 95.952 314.081 96.4427 314.081 96.976C314.081 97.5307 313.942 98.0587 313.665 98.56C313.398 99.0507 313.025 99.4453 312.545 99.744C312.065 100.043 311.532 100.192 310.945 100.192C310.38 100.192 309.868 100.064 309.409 99.808C308.95 99.5413 308.588 99.184 308.321 98.736C308.065 98.288 307.937 97.7973 307.937 97.264ZM312.929 97.44C312.929 96.992 312.844 96.5493 312.673 96.112C312.502 95.6747 312.262 95.3173 311.953 95.04C311.644 94.7627 311.286 94.624 310.881 94.624C310.316 94.624 309.873 94.8373 309.553 95.264C309.244 95.6907 309.089 96.2027 309.089 96.8C309.089 97.248 309.174 97.6907 309.345 98.128C309.516 98.5653 309.756 98.9227 310.065 99.2C310.374 99.4773 310.732 99.616 311.137 99.616C311.702 99.616 312.14 99.4027 312.449 98.976C312.769 98.5493 312.929 98.0373 312.929 97.44ZM315.999 95.984C315.999 95.536 315.924 95.232 315.775 95.072C315.636 94.9013 315.476 94.816 315.295 94.816L317.023 94.048V98.4C317.023 98.8693 317.071 99.2213 317.167 99.456C317.263 99.6907 317.369 99.8507 317.487 99.936C317.604 100.011 317.663 100.032 317.663 100H315.359C315.359 100.032 315.417 100.011 315.535 99.936C315.652 99.8507 315.759 99.6907 315.855 99.456C315.951 99.2213 315.999 98.8693 315.999 98.4V95.984ZM316.495 92.112C316.26 92.112 316.073 92.0373 315.935 91.888C315.807 91.728 315.743 91.5467 315.743 91.344C315.743 91.1413 315.807 90.9653 315.935 90.816C316.073 90.656 316.26 90.576 316.495 90.576C316.729 90.576 316.911 90.656 317.039 90.816C317.177 90.9653 317.247 91.1413 317.247 91.344C317.247 91.5467 317.177 91.728 317.039 91.888C316.911 92.0373 316.729 92.112 316.495 92.112ZM321.769 100.192C321.193 100.192 320.686 100.053 320.249 99.776C319.822 99.4987 319.497 99.1307 319.273 98.672C319.049 98.2133 318.937 97.728 318.937 97.216C318.937 96.6827 319.049 96.176 319.273 95.696C319.508 95.2053 319.844 94.8107 320.281 94.512C320.718 94.2027 321.236 94.048 321.833 94.048C322.548 94.048 323.065 94.2027 323.385 94.512C323.705 94.8213 323.929 95.1467 324.057 95.488L323.001 96C322.937 95.616 322.777 95.2907 322.521 95.024C322.276 94.7573 321.972 94.624 321.609 94.624C321.086 94.624 320.681 94.8267 320.393 95.232C320.105 95.6373 319.961 96.1333 319.961 96.72C319.961 97.136 320.052 97.5413 320.233 97.936C320.425 98.32 320.692 98.6347 321.033 98.88C321.385 99.1253 321.796 99.248 322.265 99.248C322.649 99.248 323.012 99.1627 323.353 98.992C323.705 98.8107 323.982 98.5707 324.185 98.272C324.068 98.8693 323.79 99.3387 323.353 99.68C322.916 100.021 322.388 100.192 321.769 100.192ZM328.111 100.192C327.535 100.192 327.039 100.053 326.623 99.776C326.207 99.488 325.887 99.12 325.663 98.672C325.45 98.2133 325.343 97.728 325.343 97.216C325.343 96.5547 325.471 95.984 325.727 95.504C325.994 95.024 326.335 94.6613 326.751 94.416C327.167 94.1707 327.599 94.048 328.047 94.048C328.687 94.048 329.236 94.2827 329.695 94.752C330.164 95.2107 330.42 95.8507 330.463 96.672H326.303C326.303 97.184 326.399 97.6373 326.591 98.032C326.783 98.416 327.039 98.7147 327.359 98.928C327.69 99.1307 328.047 99.232 328.431 99.232C329.434 99.232 330.111 98.912 330.463 98.272C330.367 98.848 330.106 99.312 329.679 99.664C329.252 100.016 328.73 100.192 328.111 100.192ZM327.935 94.576C327.519 94.576 327.162 94.7253 326.863 95.024C326.564 95.312 326.383 95.6907 326.319 96.16H329.231C329.231 95.6693 329.098 95.2853 328.831 95.008C328.575 94.72 328.276 94.576 327.935 94.576ZM335.843 97.264C335.843 96.7093 335.976 96.1867 336.243 95.696C336.52 95.1947 336.899 94.7947 337.379 94.496C337.859 94.1973 338.392 94.048 338.979 94.048C339.544 94.048 340.056 94.1813 340.515 94.448C340.974 94.704 341.331 95.056 341.587 95.504C341.854 95.952 341.987 96.4427 341.987 96.976C341.987 97.5307 341.848 98.0587 341.571 98.56C341.304 99.0507 340.931 99.4453 340.451 99.744C339.971 100.043 339.438 100.192 338.851 100.192C338.286 100.192 337.774 100.064 337.315 99.808C336.856 99.5413 336.494 99.184 336.227 98.736C335.971 98.288 335.843 97.7973 335.843 97.264ZM340.835 97.44C340.835 96.992 340.75 96.5493 340.579 96.112C340.408 95.6747 340.168 95.3173 339.859 95.04C339.55 94.7627 339.192 94.624 338.787 94.624C338.222 94.624 337.779 94.8373 337.459 95.264C337.15 95.6907 336.995 96.2027 336.995 96.8C336.995 97.248 337.08 97.6907 337.251 98.128C337.422 98.5653 337.662 98.9227 337.971 99.2C338.28 99.4773 338.638 99.616 339.043 99.616C339.608 99.616 340.046 99.4027 340.355 98.976C340.675 98.5493 340.835 98.0373 340.835 97.44ZM347.985 89.552C347.793 89.36 347.558 89.2107 347.281 89.104C347.014 88.9867 346.742 88.928 346.465 88.928C345.932 88.928 345.542 89.12 345.297 89.504C345.052 89.8773 344.929 90.3627 344.929 90.96V94.176H346.593V94.816H344.929V98.4C344.929 98.8587 344.977 99.2107 345.073 99.456C345.169 99.6907 345.276 99.8507 345.393 99.936C345.51 100.011 345.569 100.032 345.569 100H343.249C343.249 100.032 343.308 100.011 343.425 99.936C343.553 99.8507 343.665 99.6907 343.761 99.456C343.857 99.2107 343.905 98.8587 343.905 98.4V94.816H343.009V94.176H343.905V91.952C343.905 91.2053 344.028 90.5493 344.273 89.984C344.529 89.408 344.881 88.96 345.329 88.64C345.788 88.32 346.31 88.16 346.897 88.16C347.356 88.16 347.718 88.208 347.985 88.304V89.552ZM351.453 97.264C351.453 96.7093 351.586 96.1867 351.853 95.696C352.13 95.1947 352.509 94.7947 352.989 94.496C353.469 94.1973 354.002 94.048 354.589 94.048C355.154 94.048 355.666 94.1813 356.125 94.448C356.583 94.704 356.941 95.056 357.197 95.504C357.463 95.952 357.597 96.4427 357.597 96.976C357.597 97.5307 357.458 98.0587 357.181 98.56C356.914 99.0507 356.541 99.4453 356.061 99.744C355.581 100.043 355.047 100.192 354.461 100.192C353.895 100.192 353.383 100.064 352.924 99.808C352.466 99.5413 352.103 99.184 351.837 98.736C351.581 98.288 351.453 97.7973 351.453 97.264ZM356.445 97.44C356.445 96.992 356.359 96.5493 356.189 96.112C356.018 95.6747 355.778 95.3173 355.469 95.04C355.159 94.7627 354.802 94.624 354.397 94.624C353.831 94.624 353.389 94.8373 353.069 95.264C352.759 95.6907 352.605 96.2027 352.605 96.8C352.605 97.248 352.69 97.6907 352.861 98.128C353.031 98.5653 353.271 98.9227 353.581 99.2C353.89 99.4773 354.247 99.616 354.653 99.616C355.218 99.616 355.655 99.4027 355.965 98.976C356.285 98.5493 356.445 98.0373 356.445 97.44ZM363.354 99.072C362.821 99.8187 362.165 100.192 361.386 100.192C360.842 100.192 360.394 100.016 360.042 99.664C359.69 99.3013 359.514 98.752 359.514 98.016V95.744C359.514 95.3067 359.445 94.9707 359.306 94.736C359.178 94.5013 359.029 94.3413 358.858 94.256C358.688 94.1707 358.602 94.144 358.602 94.176H360.538V97.776C360.538 98.2773 360.672 98.6613 360.938 98.928C361.216 99.1947 361.541 99.328 361.914 99.328C362.288 99.328 362.618 99.2053 362.906 98.96C363.205 98.704 363.354 98.3733 363.354 97.968V95.632C363.354 95.216 363.301 94.9013 363.194 94.688C363.088 94.4747 362.965 94.3307 362.826 94.256C362.688 94.1813 362.618 94.1547 362.618 94.176H364.378V98.192C364.378 98.64 364.448 98.9493 364.586 99.12C364.736 99.28 364.901 99.36 365.082 99.36H365.178L363.354 100.192V99.072ZM367.96 95.504C368.12 95.1627 368.382 94.8373 368.744 94.528C369.118 94.208 369.491 94.048 369.864 94.048C370.099 94.048 370.275 94.08 370.392 94.144V95.456C370.158 95.168 369.827 95.024 369.4 95.024C368.952 95.024 368.6 95.2213 368.344 95.616C368.088 96 367.96 96.496 367.96 97.104V98.4C367.96 98.9973 368.03 99.408 368.168 99.632C368.307 99.856 368.44 99.9787 368.568 100H366.312C366.44 99.9787 366.574 99.8613 366.712 99.648C366.862 99.424 366.936 99.008 366.936 98.4V95.984C366.936 95.536 366.862 95.232 366.712 95.072C366.574 94.9013 366.414 94.816 366.232 94.816L367.96 94.048V95.504ZM381.259 94.176V94.816H379.931C380.315 95.2853 380.507 95.7653 380.507 96.256C380.507 96.672 380.406 97.0613 380.203 97.424C380 97.776 379.707 98.0587 379.323 98.272C378.95 98.4853 378.512 98.592 378.011 98.592C377.755 98.592 377.499 98.5707 377.243 98.528C376.859 98.7413 376.667 98.9813 376.667 99.248C376.667 99.3547 376.694 99.456 376.747 99.552C376.8 99.648 376.88 99.7173 376.987 99.76C377.136 99.824 377.328 99.872 377.563 99.904C377.798 99.9253 378.043 99.9413 378.299 99.952C378.555 99.9627 378.736 99.968 378.843 99.968C379.675 100 380.267 100.16 380.619 100.448C380.971 100.736 381.147 101.083 381.147 101.488C381.147 101.915 381.008 102.304 380.731 102.656C380.464 103.019 380.075 103.301 379.563 103.504C379.051 103.717 378.459 103.824 377.787 103.824C377.296 103.824 376.87 103.755 376.507 103.616C376.144 103.477 375.867 103.296 375.675 103.072C375.483 102.848 375.387 102.608 375.387 102.352C375.387 102.011 375.531 101.691 375.819 101.392C376.118 101.104 376.486 100.885 376.923 100.736C376.571 100.715 376.288 100.597 376.075 100.384C375.872 100.171 375.771 99.9413 375.771 99.696C375.771 99.4293 375.862 99.2 376.043 99.008C376.224 98.8053 376.486 98.592 376.827 98.368C376.443 98.1973 376.15 97.9307 375.947 97.568C375.744 97.2053 375.643 96.8213 375.643 96.416C375.643 96.0213 375.739 95.6427 375.931 95.28C376.134 94.9173 376.427 94.624 376.811 94.4C377.206 94.1653 377.67 94.048 378.203 94.048C378.48 94.048 378.768 94.0907 379.067 94.176H381.259ZM378.027 94.624C377.632 94.624 377.307 94.768 377.051 95.056C376.795 95.3333 376.667 95.6907 376.667 96.128C376.667 96.672 376.806 97.12 377.083 97.472C377.371 97.8133 377.718 97.984 378.123 97.984C378.55 97.984 378.88 97.8453 379.115 97.568C379.36 97.28 379.483 96.9013 379.483 96.432C379.483 95.8987 379.339 95.4667 379.051 95.136C378.774 94.7947 378.432 94.624 378.027 94.624ZM377.755 100.928C377.36 100.928 377.035 101.051 376.779 101.296C376.534 101.541 376.411 101.813 376.411 102.112C376.411 102.4 376.571 102.645 376.891 102.848C377.222 103.061 377.659 103.168 378.203 103.168C378.854 103.168 379.355 103.045 379.707 102.8C380.07 102.555 380.251 102.251 380.251 101.888C380.251 101.568 380.08 101.328 379.739 101.168C379.398 101.008 378.848 100.928 378.091 100.928H377.755ZM384.939 100.192C384.363 100.192 383.867 100.053 383.451 99.776C383.035 99.488 382.715 99.12 382.491 98.672C382.278 98.2133 382.171 97.728 382.171 97.216C382.171 96.5547 382.299 95.984 382.555 95.504C382.822 95.024 383.163 94.6613 383.579 94.416C383.995 94.1707 384.427 94.048 384.875 94.048C385.515 94.048 386.065 94.2827 386.523 94.752C386.993 95.2107 387.249 95.8507 387.291 96.672H383.131C383.131 97.184 383.227 97.6373 383.419 98.032C383.611 98.416 383.867 98.7147 384.187 98.928C384.518 99.1307 384.875 99.232 385.259 99.232C386.262 99.232 386.939 98.912 387.291 98.272C387.195 98.848 386.934 99.312 386.507 99.664C386.081 100.016 385.558 100.192 384.939 100.192ZM384.763 94.576C384.347 94.576 383.99 94.7253 383.691 95.024C383.393 95.312 383.211 95.6907 383.147 96.16H386.059C386.059 95.6693 385.926 95.2853 385.659 95.008C385.403 94.72 385.105 94.576 384.763 94.576ZM390.242 95.136C390.487 94.8053 390.775 94.544 391.106 94.352C391.447 94.1493 391.804 94.048 392.178 94.048C392.754 94.048 393.212 94.2347 393.554 94.608C393.906 94.9707 394.082 95.4987 394.082 96.192V98.416C394.082 98.864 394.13 99.2053 394.226 99.44C394.322 99.6747 394.428 99.8347 394.546 99.92C394.663 100.005 394.722 100.032 394.722 100H392.418C392.418 100.032 392.476 100.011 392.594 99.936C392.711 99.8507 392.818 99.6907 392.914 99.456C393.01 99.2213 393.058 98.8693 393.058 98.4V96.576C393.058 96.2133 393.01 95.9253 392.914 95.712C392.818 95.4987 392.69 95.3227 392.53 95.184C392.284 94.9813 391.991 94.88 391.65 94.88C391.266 94.88 390.935 95.008 390.658 95.264C390.38 95.5093 390.242 95.856 390.242 96.304V98.4C390.242 98.8587 390.29 99.2053 390.386 99.44C390.482 99.6747 390.588 99.8347 390.706 99.92C390.834 100.005 390.898 100.032 390.898 100H388.594C388.594 100.032 388.652 100.011 388.77 99.936C388.887 99.8507 388.988 99.6907 389.074 99.456C389.17 99.2107 389.218 98.8587 389.218 98.4V95.984C389.218 95.536 389.143 95.232 388.993 95.072C388.855 94.9013 388.695 94.816 388.514 94.816L390.242 94.048V95.136ZM398.767 100.192C398.191 100.192 397.695 100.053 397.279 99.776C396.863 99.488 396.543 99.12 396.319 98.672C396.106 98.2133 395.999 97.728 395.999 97.216C395.999 96.5547 396.127 95.984 396.383 95.504C396.65 95.024 396.991 94.6613 397.407 94.416C397.823 94.1707 398.255 94.048 398.703 94.048C399.343 94.048 399.893 94.2827 400.351 94.752C400.821 95.2107 401.077 95.8507 401.119 96.672H396.959C396.959 97.184 397.055 97.6373 397.247 98.032C397.439 98.416 397.695 98.7147 398.015 98.928C398.346 99.1307 398.703 99.232 399.087 99.232C400.09 99.232 400.767 98.912 401.119 98.272C401.023 98.848 400.762 99.312 400.335 99.664C399.909 100.016 399.386 100.192 398.767 100.192ZM398.591 94.576C398.175 94.576 397.818 94.7253 397.519 95.024C397.221 95.312 397.039 95.6907 396.975 96.16H399.887C399.887 95.6693 399.754 95.2853 399.487 95.008C399.231 94.72 398.933 94.576 398.591 94.576ZM404.07 95.504C404.23 95.1627 404.491 94.8373 404.854 94.528C405.227 94.208 405.6 94.048 405.974 94.048C406.208 94.048 406.384 94.08 406.502 94.144V95.456C406.267 95.168 405.936 95.024 405.51 95.024C405.062 95.024 404.71 95.2213 404.454 95.616C404.198 96 404.07 96.496 404.07 97.104V98.4C404.07 98.9973 404.139 99.408 404.278 99.632C404.416 99.856 404.55 99.9787 404.678 100H402.422C402.55 99.9787 402.683 99.8613 402.822 99.648C402.971 99.424 403.046 99.008 403.046 98.4V95.984C403.046 95.536 402.971 95.232 402.822 95.072C402.683 94.9013 402.523 94.816 402.342 94.816L404.07 94.048V95.504ZM412.347 100.192C412.005 100.181 411.717 100.091 411.483 99.92C411.248 99.7493 411.115 99.552 411.083 99.328C410.891 99.6053 410.635 99.8187 410.315 99.968C410.005 100.117 409.696 100.192 409.387 100.192C408.896 100.192 408.485 100.053 408.155 99.776C407.824 99.488 407.659 99.1147 407.659 98.656C407.659 97.472 408.768 96.88 410.987 96.88V96.704C410.987 96.1173 410.901 95.6853 410.731 95.408C410.496 95.0133 410.112 94.816 409.579 94.816C409.163 94.816 408.816 94.9387 408.539 95.184C408.272 95.4293 408.139 95.7493 408.139 96.144C408.075 96.0373 408.021 95.9413 407.979 95.856C407.947 95.7707 407.931 95.6533 407.931 95.504C407.931 95.12 408.112 94.784 408.475 94.496C408.837 94.1973 409.312 94.048 409.899 94.048C410.731 94.048 411.323 94.3253 411.675 94.88C411.792 95.0507 411.877 95.264 411.931 95.52C411.984 95.776 412.011 96.112 412.011 96.528V98.432C412.011 98.7627 412.101 99.0187 412.283 99.2C412.475 99.3813 412.741 99.472 413.083 99.472H413.291L412.347 100.192ZM410.987 97.36C410.133 97.36 409.557 97.4667 409.259 97.68C408.96 97.8933 408.811 98.1813 408.811 98.544C408.811 98.8427 408.891 99.0773 409.051 99.248C409.211 99.4187 409.424 99.504 409.691 99.504C409.893 99.504 410.085 99.456 410.267 99.36C410.448 99.264 410.603 99.1307 410.731 98.96C410.901 98.736 410.987 98.432 410.987 98.048V97.36ZM416.161 100.192C415.638 100.192 415.244 100.016 414.977 99.664C414.71 99.3013 414.577 98.8693 414.577 98.368V94.816H413.681L415.601 92.64V94.176H417.649V94.816H415.601V98.192C415.601 98.5973 415.708 98.9067 415.921 99.12C416.134 99.3227 416.38 99.424 416.657 99.424C416.87 99.424 417.078 99.36 417.281 99.232C417.484 99.104 417.649 98.928 417.777 98.704C417.617 99.696 417.078 100.192 416.161 100.192ZM419.436 95.984C419.436 95.536 419.362 95.232 419.212 95.072C419.074 94.9013 418.914 94.816 418.732 94.816L420.46 94.048V98.4C420.46 98.8693 420.508 99.2213 420.604 99.456C420.7 99.6907 420.807 99.8507 420.924 99.936C421.042 100.011 421.1 100.032 421.1 100H418.796C418.796 100.032 418.855 100.011 418.972 99.936C419.09 99.8507 419.196 99.6907 419.292 99.456C419.388 99.2213 419.436 98.8693 419.436 98.4V95.984ZM419.932 92.112C419.698 92.112 419.511 92.0373 419.372 91.888C419.244 91.728 419.18 91.5467 419.18 91.344C419.18 91.1413 419.244 90.9653 419.372 90.816C419.511 90.656 419.698 90.576 419.932 90.576C420.167 90.576 420.348 90.656 420.476 90.816C420.615 90.9653 420.684 91.1413 420.684 91.344C420.684 91.5467 420.615 91.728 420.476 91.888C420.348 92.0373 420.167 92.112 419.932 92.112ZM422.374 97.264C422.374 96.7093 422.508 96.1867 422.774 95.696C423.052 95.1947 423.43 94.7947 423.91 94.496C424.39 94.1973 424.924 94.048 425.51 94.048C426.076 94.048 426.588 94.1813 427.046 94.448C427.505 94.704 427.862 95.056 428.118 95.504C428.385 95.952 428.518 96.4427 428.518 96.976C428.518 97.5307 428.38 98.0587 428.102 98.56C427.836 99.0507 427.462 99.4453 426.982 99.744C426.502 100.043 425.969 100.192 425.382 100.192C424.817 100.192 424.305 100.064 423.846 99.808C423.388 99.5413 423.025 99.184 422.758 98.736C422.502 98.288 422.374 97.7973 422.374 97.264ZM427.366 97.44C427.366 96.992 427.281 96.5493 427.11 96.112C426.94 95.6747 426.7 95.3173 426.39 95.04C426.081 94.7627 425.724 94.624 425.318 94.624C424.753 94.624 424.31 94.8373 423.99 95.264C423.681 95.6907 423.526 96.2027 423.526 96.8C423.526 97.248 423.612 97.6907 423.782 98.128C423.953 98.5653 424.193 98.9227 424.502 99.2C424.812 99.4773 425.169 99.616 425.574 99.616C426.14 99.616 426.577 99.4027 426.886 98.976C427.206 98.5493 427.366 98.0373 427.366 97.44ZM431.46 95.136C431.706 94.8053 431.994 94.544 432.324 94.352C432.666 94.1493 433.023 94.048 433.396 94.048C433.972 94.048 434.431 94.2347 434.772 94.608C435.124 94.9707 435.3 95.4987 435.3 96.192V98.416C435.3 98.864 435.348 99.2053 435.444 99.44C435.54 99.6747 435.647 99.8347 435.764 99.92C435.882 100.005 435.94 100.032 435.94 100H433.636C433.636 100.032 433.695 100.011 433.812 99.936C433.93 99.8507 434.036 99.6907 434.132 99.456C434.228 99.2213 434.276 98.8693 434.276 98.4V96.576C434.276 96.2133 434.228 95.9253 434.132 95.712C434.036 95.4987 433.908 95.3227 433.748 95.184C433.503 94.9813 433.21 94.88 432.868 94.88C432.484 94.88 432.154 95.008 431.876 95.264C431.599 95.5093 431.46 95.856 431.46 96.304V98.4C431.46 98.8587 431.508 99.2053 431.604 99.44C431.7 99.6747 431.807 99.8347 431.924 99.92C432.052 100.005 432.116 100.032 432.116 100H429.812C429.812 100.032 429.871 100.011 429.988 99.936C430.106 99.8507 430.207 99.6907 430.292 99.456C430.388 99.2107 430.436 98.8587 430.436 98.4V95.984C430.436 95.536 430.362 95.232 430.212 95.072C430.074 94.9013 429.914 94.816 429.732 94.816L431.46 94.048V95.136ZM441.952 95.984C441.952 95.536 441.877 95.232 441.728 95.072C441.589 94.9013 441.429 94.816 441.248 94.816L442.976 94.048V98.4C442.976 98.8693 443.024 99.2213 443.12 99.456C443.216 99.6907 443.323 99.8507 443.44 99.936C443.557 100.011 443.616 100.032 443.616 100H441.312C441.312 100.032 441.371 100.011 441.488 99.936C441.605 99.8507 441.712 99.6907 441.808 99.456C441.904 99.2213 441.952 98.8693 441.952 98.4V95.984ZM442.448 92.112C442.213 92.112 442.027 92.0373 441.888 91.888C441.76 91.728 441.696 91.5467 441.696 91.344C441.696 91.1413 441.76 90.9653 441.888 90.816C442.027 90.656 442.213 90.576 442.448 90.576C442.683 90.576 442.864 90.656 442.992 90.816C443.131 90.9653 443.2 91.1413 443.2 91.344C443.2 91.5467 443.131 91.728 442.992 91.888C442.864 92.0373 442.683 92.112 442.448 92.112ZM446.986 100.192C446.666 100.192 446.335 100.139 445.994 100.032C445.653 99.9253 445.37 99.7867 445.146 99.616V98.208C445.349 98.7093 445.621 99.072 445.962 99.296C446.314 99.5093 446.693 99.616 447.098 99.616C447.429 99.616 447.695 99.5253 447.898 99.344C448.111 99.1627 448.218 98.9653 448.218 98.752C448.218 98.5173 448.111 98.32 447.898 98.16C447.685 98 447.359 97.8187 446.922 97.616C446.357 97.3493 445.919 97.088 445.61 96.832C445.301 96.576 445.146 96.2293 445.146 95.792C445.146 95.312 445.327 94.9013 445.69 94.56C446.053 94.2187 446.527 94.048 447.114 94.048C447.519 94.048 447.871 94.096 448.17 94.192C448.469 94.288 448.693 94.3947 448.842 94.512L448.586 95.712C448.458 95.3493 448.245 95.0773 447.946 94.896C447.647 94.7147 447.333 94.624 447.002 94.624C446.714 94.624 446.474 94.7093 446.282 94.88C446.101 95.0507 446.01 95.2427 446.01 95.456C446.01 95.744 446.122 95.9733 446.346 96.144C446.581 96.3147 446.933 96.5013 447.402 96.704C447.957 96.9387 448.378 97.1787 448.666 97.424C448.965 97.6587 449.114 97.9947 449.114 98.432C449.114 98.7413 449.029 99.0293 448.858 99.296C448.687 99.5627 448.437 99.7813 448.106 99.952C447.786 100.112 447.413 100.192 446.986 100.192ZM460.228 94.176V94.816H458.9C459.284 95.2853 459.476 95.7653 459.476 96.256C459.476 96.672 459.374 97.0613 459.172 97.424C458.969 97.776 458.676 98.0587 458.292 98.272C457.918 98.4853 457.481 98.592 456.98 98.592C456.724 98.592 456.468 98.5707 456.212 98.528C455.828 98.7413 455.636 98.9813 455.636 99.248C455.636 99.3547 455.662 99.456 455.716 99.552C455.769 99.648 455.849 99.7173 455.956 99.76C456.105 99.824 456.297 99.872 456.532 99.904C456.766 99.9253 457.012 99.9413 457.268 99.952C457.524 99.9627 457.705 99.968 457.812 99.968C458.644 100 459.236 100.16 459.588 100.448C459.94 100.736 460.116 101.083 460.116 101.488C460.116 101.915 459.977 102.304 459.7 102.656C459.433 103.019 459.044 103.301 458.532 103.504C458.02 103.717 457.428 103.824 456.756 103.824C456.265 103.824 455.838 103.755 455.476 103.616C455.113 103.477 454.836 103.296 454.644 103.072C454.452 102.848 454.356 102.608 454.356 102.352C454.356 102.011 454.5 101.691 454.788 101.392C455.086 101.104 455.454 100.885 455.892 100.736C455.54 100.715 455.257 100.597 455.044 100.384C454.841 100.171 454.74 99.9413 454.74 99.696C454.74 99.4293 454.83 99.2 455.012 99.008C455.193 98.8053 455.454 98.592 455.796 98.368C455.412 98.1973 455.118 97.9307 454.916 97.568C454.713 97.2053 454.612 96.8213 454.612 96.416C454.612 96.0213 454.708 95.6427 454.9 95.28C455.102 94.9173 455.396 94.624 455.78 94.4C456.174 94.1653 456.638 94.048 457.172 94.048C457.449 94.048 457.737 94.0907 458.036 94.176H460.228ZM456.996 94.624C456.601 94.624 456.276 94.768 456.02 95.056C455.764 95.3333 455.636 95.6907 455.636 96.128C455.636 96.672 455.774 97.12 456.052 97.472C456.34 97.8133 456.686 97.984 457.092 97.984C457.518 97.984 457.849 97.8453 458.084 97.568C458.329 97.28 458.452 96.9013 458.452 96.432C458.452 95.8987 458.308 95.4667 458.02 95.136C457.742 94.7947 457.401 94.624 456.996 94.624ZM456.724 100.928C456.329 100.928 456.004 101.051 455.748 101.296C455.502 101.541 455.38 101.813 455.38 102.112C455.38 102.4 455.54 102.645 455.86 102.848C456.19 103.061 456.628 103.168 457.172 103.168C457.822 103.168 458.324 103.045 458.676 102.8C459.038 102.555 459.22 102.251 459.22 101.888C459.22 101.568 459.049 101.328 458.708 101.168C458.366 101.008 457.817 100.928 457.06 100.928H456.724ZM461.14 97.264C461.14 96.7093 461.273 96.1867 461.54 95.696C461.817 95.1947 462.196 94.7947 462.676 94.496C463.156 94.1973 463.689 94.048 464.276 94.048C464.841 94.048 465.353 94.1813 465.812 94.448C466.271 94.704 466.628 95.056 466.884 95.504C467.151 95.952 467.284 96.4427 467.284 96.976C467.284 97.5307 467.145 98.0587 466.868 98.56C466.601 99.0507 466.228 99.4453 465.748 99.744C465.268 100.043 464.735 100.192 464.148 100.192C463.583 100.192 463.071 100.064 462.612 99.808C462.153 99.5413 461.791 99.184 461.524 98.736C461.268 98.288 461.14 97.7973 461.14 97.264ZM466.132 97.44C466.132 96.992 466.047 96.5493 465.876 96.112C465.705 95.6747 465.465 95.3173 465.156 95.04C464.847 94.7627 464.489 94.624 464.084 94.624C463.519 94.624 463.076 94.8373 462.756 95.264C462.447 95.6907 462.292 96.2027 462.292 96.8C462.292 97.248 462.377 97.6907 462.548 98.128C462.719 98.5653 462.959 98.9227 463.268 99.2C463.577 99.4773 463.935 99.616 464.34 99.616C464.905 99.616 465.343 99.4027 465.652 98.976C465.972 98.5493 466.132 98.0373 466.132 97.44ZM469.202 95.984C469.202 95.536 469.127 95.232 468.978 95.072C468.839 94.9013 468.679 94.816 468.498 94.816L470.226 94.048V98.4C470.226 98.8693 470.274 99.2213 470.37 99.456C470.466 99.6907 470.573 99.8507 470.69 99.936C470.807 100.011 470.866 100.032 470.866 100H468.562C468.562 100.032 468.621 100.011 468.738 99.936C468.855 99.8507 468.962 99.6907 469.058 99.456C469.154 99.2213 469.202 98.8693 469.202 98.4V95.984ZM469.698 92.112C469.463 92.112 469.277 92.0373 469.138 91.888C469.01 91.728 468.946 91.5467 468.946 91.344C468.946 91.1413 469.01 90.9653 469.138 90.816C469.277 90.656 469.463 90.576 469.698 90.576C469.933 90.576 470.114 90.656 470.242 90.816C470.381 90.9653 470.45 91.1413 470.45 91.344C470.45 91.5467 470.381 91.728 470.242 91.888C470.114 92.0373 469.933 92.112 469.698 92.112ZM473.804 95.136C474.049 94.8053 474.337 94.544 474.668 94.352C475.009 94.1493 475.367 94.048 475.74 94.048C476.316 94.048 476.775 94.2347 477.116 94.608C477.468 94.9707 477.644 95.4987 477.644 96.192V98.416C477.644 98.864 477.692 99.2053 477.788 99.44C477.884 99.6747 477.991 99.8347 478.108 99.92C478.225 100.005 478.284 100.032 478.284 100H475.98C475.98 100.032 476.039 100.011 476.156 99.936C476.273 99.8507 476.38 99.6907 476.476 99.456C476.572 99.2213 476.62 98.8693 476.62 98.4V96.576C476.62 96.2133 476.572 95.9253 476.476 95.712C476.38 95.4987 476.252 95.3227 476.092 95.184C475.847 94.9813 475.553 94.88 475.212 94.88C474.828 94.88 474.497 95.008 474.22 95.264C473.943 95.5093 473.804 95.856 473.804 96.304V98.4C473.804 98.8587 473.852 99.2053 473.948 99.44C474.044 99.6747 474.151 99.8347 474.268 99.92C474.396 100.005 474.46 100.032 474.46 100H472.156C472.156 100.032 472.215 100.011 472.332 99.936C472.449 99.8507 472.551 99.6907 472.636 99.456C472.732 99.2107 472.78 98.8587 472.78 98.4V95.984C472.78 95.536 472.705 95.232 472.556 95.072C472.417 94.9013 472.257 94.816 472.076 94.816L473.804 94.048V95.136ZM485.306 94.176V94.816H483.978C484.362 95.2853 484.554 95.7653 484.554 96.256C484.554 96.672 484.453 97.0613 484.25 97.424C484.047 97.776 483.754 98.0587 483.37 98.272C482.997 98.4853 482.559 98.592 482.058 98.592C481.802 98.592 481.546 98.5707 481.29 98.528C480.906 98.7413 480.714 98.9813 480.714 99.248C480.714 99.3547 480.741 99.456 480.794 99.552C480.847 99.648 480.927 99.7173 481.034 99.76C481.183 99.824 481.375 99.872 481.61 99.904C481.845 99.9253 482.09 99.9413 482.346 99.952C482.602 99.9627 482.783 99.968 482.89 99.968C483.722 100 484.314 100.16 484.666 100.448C485.018 100.736 485.194 101.083 485.194 101.488C485.194 101.915 485.055 102.304 484.778 102.656C484.511 103.019 484.122 103.301 483.61 103.504C483.098 103.717 482.506 103.824 481.834 103.824C481.343 103.824 480.917 103.755 480.554 103.616C480.191 103.477 479.914 103.296 479.722 103.072C479.53 102.848 479.434 102.608 479.434 102.352C479.434 102.011 479.578 101.691 479.866 101.392C480.165 101.104 480.533 100.885 480.97 100.736C480.618 100.715 480.335 100.597 480.122 100.384C479.919 100.171 479.818 99.9413 479.818 99.696C479.818 99.4293 479.909 99.2 480.09 99.008C480.271 98.8053 480.533 98.592 480.874 98.368C480.49 98.1973 480.197 97.9307 479.994 97.568C479.791 97.2053 479.69 96.8213 479.69 96.416C479.69 96.0213 479.786 95.6427 479.978 95.28C480.181 94.9173 480.474 94.624 480.858 94.4C481.253 94.1653 481.717 94.048 482.25 94.048C482.527 94.048 482.815 94.0907 483.114 94.176H485.306ZM482.074 94.624C481.679 94.624 481.354 94.768 481.098 95.056C480.842 95.3333 480.714 95.6907 480.714 96.128C480.714 96.672 480.853 97.12 481.13 97.472C481.418 97.8133 481.765 97.984 482.17 97.984C482.597 97.984 482.927 97.8453 483.162 97.568C483.407 97.28 483.53 96.9013 483.53 96.432C483.53 95.8987 483.386 95.4667 483.098 95.136C482.821 94.7947 482.479 94.624 482.074 94.624ZM481.802 100.928C481.407 100.928 481.082 101.051 480.826 101.296C480.581 101.541 480.458 101.813 480.458 102.112C480.458 102.4 480.618 102.645 480.938 102.848C481.269 103.061 481.706 103.168 482.25 103.168C482.901 103.168 483.402 103.045 483.754 102.8C484.117 102.555 484.298 102.251 484.298 101.888C484.298 101.568 484.127 101.328 483.786 101.168C483.445 101.008 482.895 100.928 482.138 100.928H481.802ZM492.536 100.192C492.013 100.192 491.619 100.016 491.352 99.664C491.085 99.3013 490.952 98.8693 490.952 98.368V94.816H490.056L491.976 92.64V94.176H494.024V94.816H491.976V98.192C491.976 98.5973 492.083 98.9067 492.296 99.12C492.509 99.3227 492.755 99.424 493.032 99.424C493.245 99.424 493.453 99.36 493.656 99.232C493.859 99.104 494.024 98.928 494.152 98.704C493.992 99.696 493.453 100.192 492.536 100.192ZM495.171 97.264C495.171 96.7093 495.305 96.1867 495.571 95.696C495.849 95.1947 496.227 94.7947 496.707 94.496C497.187 94.1973 497.721 94.048 498.307 94.048C498.873 94.048 499.385 94.1813 499.843 94.448C500.302 94.704 500.659 95.056 500.915 95.504C501.182 95.952 501.315 96.4427 501.315 96.976C501.315 97.5307 501.177 98.0587 500.899 98.56C500.633 99.0507 500.259 99.4453 499.779 99.744C499.299 100.043 498.766 100.192 498.179 100.192C497.614 100.192 497.102 100.064 496.643 99.808C496.185 99.5413 495.822 99.184 495.555 98.736C495.299 98.288 495.171 97.7973 495.171 97.264ZM500.163 97.44C500.163 96.992 500.078 96.5493 499.907 96.112C499.737 95.6747 499.497 95.3173 499.187 95.04C498.878 94.7627 498.521 94.624 498.115 94.624C497.55 94.624 497.107 94.8373 496.787 95.264C496.478 95.6907 496.323 96.2027 496.323 96.8C496.323 97.248 496.409 97.6907 496.579 98.128C496.75 98.5653 496.99 98.9227 497.299 99.2C497.609 99.4773 497.966 99.616 498.371 99.616C498.937 99.616 499.374 99.4027 499.683 98.976C500.003 98.5493 500.163 98.0373 500.163 97.44ZM511.167 90.16C511.167 89.712 511.092 89.408 510.943 89.248C510.804 89.0773 510.644 88.992 510.463 88.992H510.367L512.191 88.16V98.192C512.191 98.64 512.26 98.9493 512.399 99.12C512.548 99.28 512.714 99.36 512.895 99.36H512.991L511.167 100.192V99.152C511.039 99.3653 510.804 99.5947 510.463 99.84C510.132 100.075 509.695 100.192 509.151 100.192C508.682 100.192 508.26 100.075 507.887 99.84C507.514 99.6053 507.22 99.28 507.007 98.864C506.794 98.448 506.687 97.984 506.687 97.472C506.687 96.8213 506.82 96.2453 507.087 95.744C507.354 95.2427 507.7 94.8427 508.127 94.544C508.607 94.2133 509.13 94.048 509.695 94.048C510.068 94.048 510.378 94.1013 510.623 94.208C510.868 94.304 511.05 94.3947 511.167 94.48V90.16ZM507.839 96.992C507.839 97.664 507.994 98.2507 508.303 98.752C508.623 99.2427 509.082 99.488 509.679 99.488C509.903 99.488 510.132 99.4293 510.367 99.312C510.602 99.184 510.794 99.0133 510.943 98.8C511.092 98.5867 511.167 98.3467 511.167 98.08V96.192C511.167 95.8507 511.124 95.5733 511.039 95.36C510.964 95.1467 510.842 94.9867 510.671 94.88C510.404 94.7093 510.079 94.624 509.695 94.624C509.162 94.624 508.719 94.8427 508.367 95.28C508.015 95.7067 507.839 96.2773 507.839 96.992ZM514.749 95.984C514.749 95.536 514.674 95.232 514.525 95.072C514.386 94.9013 514.226 94.816 514.045 94.816L515.773 94.048V98.4C515.773 98.8693 515.821 99.2213 515.917 99.456C516.013 99.6907 516.119 99.8507 516.237 99.936C516.354 100.011 516.413 100.032 516.413 100H514.109C514.109 100.032 514.167 100.011 514.285 99.936C514.402 99.8507 514.509 99.6907 514.605 99.456C514.701 99.2213 514.749 98.8693 514.749 98.4V95.984ZM515.245 92.112C515.01 92.112 514.823 92.0373 514.685 91.888C514.557 91.728 514.493 91.5467 514.493 91.344C514.493 91.1413 514.557 90.9653 514.685 90.816C514.823 90.656 515.01 90.576 515.245 90.576C515.479 90.576 515.661 90.656 515.789 90.816C515.927 90.9653 515.997 91.1413 515.997 91.344C515.997 91.5467 515.927 91.728 515.789 91.888C515.661 92.0373 515.479 92.112 515.245 92.112ZM519.783 100.192C519.463 100.192 519.132 100.139 518.791 100.032C518.45 99.9253 518.167 99.7867 517.943 99.616V98.208C518.146 98.7093 518.418 99.072 518.759 99.296C519.111 99.5093 519.49 99.616 519.895 99.616C520.226 99.616 520.492 99.5253 520.695 99.344C520.908 99.1627 521.015 98.9653 521.015 98.752C521.015 98.5173 520.908 98.32 520.695 98.16C520.482 98 520.156 97.8187 519.719 97.616C519.154 97.3493 518.716 97.088 518.407 96.832C518.098 96.576 517.943 96.2293 517.943 95.792C517.943 95.312 518.124 94.9013 518.487 94.56C518.85 94.2187 519.324 94.048 519.911 94.048C520.316 94.048 520.668 94.096 520.967 94.192C521.266 94.288 521.49 94.3947 521.639 94.512L521.383 95.712C521.255 95.3493 521.042 95.0773 520.743 94.896C520.444 94.7147 520.13 94.624 519.799 94.624C519.511 94.624 519.271 94.7093 519.079 94.88C518.898 95.0507 518.807 95.2427 518.807 95.456C518.807 95.744 518.919 95.9733 519.143 96.144C519.378 96.3147 519.73 96.5013 520.199 96.704C520.754 96.9387 521.175 97.1787 521.463 97.424C521.762 97.6587 521.911 97.9947 521.911 98.432C521.911 98.7413 521.826 99.0293 521.655 99.296C521.484 99.5627 521.234 99.7813 520.903 99.952C520.583 100.112 520.21 100.192 519.783 100.192ZM528.003 100.192C527.662 100.181 527.374 100.091 527.139 99.92C526.904 99.7493 526.771 99.552 526.739 99.328C526.547 99.6053 526.291 99.8187 525.971 99.968C525.662 100.117 525.352 100.192 525.043 100.192C524.552 100.192 524.142 100.053 523.811 99.776C523.48 99.488 523.315 99.1147 523.315 98.656C523.315 97.472 524.424 96.88 526.643 96.88V96.704C526.643 96.1173 526.558 95.6853 526.387 95.408C526.152 95.0133 525.768 94.816 525.235 94.816C524.819 94.816 524.472 94.9387 524.195 95.184C523.928 95.4293 523.795 95.7493 523.795 96.144C523.731 96.0373 523.678 95.9413 523.635 95.856C523.603 95.7707 523.587 95.6533 523.587 95.504C523.587 95.12 523.768 94.784 524.131 94.496C524.494 94.1973 524.968 94.048 525.555 94.048C526.387 94.048 526.979 94.3253 527.331 94.88C527.448 95.0507 527.534 95.264 527.587 95.52C527.64 95.776 527.667 96.112 527.667 96.528V98.432C527.667 98.7627 527.758 99.0187 527.939 99.2C528.131 99.3813 528.398 99.472 528.739 99.472H528.947L528.003 100.192ZM526.643 97.36C525.79 97.36 525.214 97.4667 524.915 97.68C524.616 97.8933 524.467 98.1813 524.467 98.544C524.467 98.8427 524.547 99.0773 524.707 99.248C524.867 99.4187 525.08 99.504 525.347 99.504C525.55 99.504 525.742 99.456 525.923 99.36C526.104 99.264 526.259 99.1307 526.387 98.96C526.558 98.736 526.643 98.432 526.643 98.048V97.36ZM531.257 102.112C531.257 102.581 531.305 102.933 531.401 103.168C531.497 103.403 531.604 103.557 531.721 103.632C531.838 103.717 531.897 103.744 531.897 103.712H529.593C529.593 103.744 529.652 103.717 529.769 103.632C529.886 103.557 529.993 103.397 530.089 103.152C530.185 102.917 530.233 102.571 530.233 102.112V95.984C530.233 95.536 530.158 95.232 530.009 95.072C529.87 94.9013 529.71 94.816 529.529 94.816L531.257 94.048V95.088C531.385 94.8747 531.614 94.6507 531.945 94.416C532.286 94.1707 532.729 94.048 533.273 94.048C533.742 94.048 534.164 94.1653 534.537 94.4C534.91 94.6347 535.204 94.96 535.417 95.376C535.63 95.792 535.737 96.256 535.737 96.768C535.737 97.4187 535.604 97.9947 535.337 98.496C535.07 98.9973 534.724 99.3973 534.297 99.696C533.817 100.027 533.294 100.192 532.729 100.192C532.356 100.192 532.046 100.139 531.801 100.032C531.556 99.936 531.374 99.8453 531.257 99.76V102.112ZM534.585 97.248C534.585 96.576 534.425 95.9947 534.105 95.504C533.796 95.0027 533.342 94.752 532.745 94.752C532.521 94.752 532.292 94.816 532.057 94.944C531.822 95.0613 531.63 95.2267 531.481 95.44C531.332 95.6533 531.257 95.8933 531.257 96.16V98.048C531.257 98.3893 531.294 98.6667 531.369 98.88C531.454 99.0933 531.582 99.2533 531.753 99.36C532.02 99.5307 532.345 99.616 532.729 99.616C533.262 99.616 533.705 99.4027 534.057 98.976C534.409 98.5387 534.585 97.9627 534.585 97.248ZM538.679 102.112C538.679 102.581 538.727 102.933 538.823 103.168C538.919 103.403 539.026 103.557 539.143 103.632C539.26 103.717 539.319 103.744 539.319 103.712H537.015C537.015 103.744 537.074 103.717 537.191 103.632C537.308 103.557 537.415 103.397 537.511 103.152C537.607 102.917 537.655 102.571 537.655 102.112V95.984C537.655 95.536 537.58 95.232 537.431 95.072C537.292 94.9013 537.132 94.816 536.951 94.816L538.679 94.048V95.088C538.807 94.8747 539.036 94.6507 539.367 94.416C539.708 94.1707 540.151 94.048 540.695 94.048C541.164 94.048 541.586 94.1653 541.959 94.4C542.332 94.6347 542.626 94.96 542.839 95.376C543.052 95.792 543.159 96.256 543.159 96.768C543.159 97.4187 543.026 97.9947 542.759 98.496C542.492 98.9973 542.146 99.3973 541.719 99.696C541.239 100.027 540.716 100.192 540.151 100.192C539.778 100.192 539.468 100.139 539.223 100.032C538.978 99.936 538.796 99.8453 538.679 99.76V102.112ZM542.007 97.248C542.007 96.576 541.847 95.9947 541.527 95.504C541.218 95.0027 540.764 94.752 540.167 94.752C539.943 94.752 539.714 94.816 539.479 94.944C539.244 95.0613 539.052 95.2267 538.903 95.44C538.754 95.6533 538.679 95.8933 538.679 96.16V98.048C538.679 98.3893 538.716 98.6667 538.791 98.88C538.876 99.0933 539.004 99.2533 539.175 99.36C539.442 99.5307 539.767 99.616 540.151 99.616C540.684 99.616 541.127 99.4027 541.479 98.976C541.831 98.5387 542.007 97.9627 542.007 97.248ZM547.205 100.192C546.629 100.192 546.133 100.053 545.717 99.776C545.301 99.488 544.981 99.12 544.757 98.672C544.544 98.2133 544.437 97.728 544.437 97.216C544.437 96.5547 544.565 95.984 544.821 95.504C545.088 95.024 545.429 94.6613 545.845 94.416C546.261 94.1707 546.693 94.048 547.141 94.048C547.781 94.048 548.33 94.2827 548.789 94.752C549.258 95.2107 549.514 95.8507 549.557 96.672H545.397C545.397 97.184 545.493 97.6373 545.685 98.032C545.877 98.416 546.133 98.7147 546.453 98.928C546.784 99.1307 547.141 99.232 547.525 99.232C548.528 99.232 549.205 98.912 549.557 98.272C549.461 98.848 549.2 99.312 548.773 99.664C548.346 100.016 547.824 100.192 547.205 100.192ZM547.029 94.576C546.613 94.576 546.256 94.7253 545.957 95.024C545.658 95.312 545.477 95.6907 545.413 96.16H548.325C548.325 95.6693 548.192 95.2853 547.925 95.008C547.669 94.72 547.37 94.576 547.029 94.576ZM555.659 100.192C555.318 100.181 555.03 100.091 554.795 99.92C554.56 99.7493 554.427 99.552 554.395 99.328C554.203 99.6053 553.947 99.8187 553.627 99.968C553.318 100.117 553.008 100.192 552.699 100.192C552.208 100.192 551.798 100.053 551.467 99.776C551.136 99.488 550.971 99.1147 550.971 98.656C550.971 97.472 552.08 96.88 554.299 96.88V96.704C554.299 96.1173 554.214 95.6853 554.043 95.408C553.808 95.0133 553.424 94.816 552.891 94.816C552.475 94.816 552.128 94.9387 551.851 95.184C551.584 95.4293 551.451 95.7493 551.451 96.144C551.387 96.0373 551.334 95.9413 551.291 95.856C551.259 95.7707 551.243 95.6533 551.243 95.504C551.243 95.12 551.424 94.784 551.787 94.496C552.15 94.1973 552.624 94.048 553.211 94.048C554.043 94.048 554.635 94.3253 554.987 94.88C555.104 95.0507 555.19 95.264 555.243 95.52C555.296 95.776 555.323 96.112 555.323 96.528V98.432C555.323 98.7627 555.414 99.0187 555.595 99.2C555.787 99.3813 556.054 99.472 556.395 99.472H556.603L555.659 100.192ZM554.299 97.36C553.446 97.36 552.87 97.4667 552.571 97.68C552.272 97.8933 552.123 98.1813 552.123 98.544C552.123 98.8427 552.203 99.0773 552.363 99.248C552.523 99.4187 552.736 99.504 553.003 99.504C553.206 99.504 553.398 99.456 553.579 99.36C553.76 99.264 553.915 99.1307 554.043 98.96C554.214 98.736 554.299 98.432 554.299 98.048V97.36ZM558.913 95.504C559.073 95.1627 559.335 94.8373 559.697 94.528C560.071 94.208 560.444 94.048 560.817 94.048C561.052 94.048 561.228 94.08 561.345 94.144V95.456C561.111 95.168 560.78 95.024 560.353 95.024C559.905 95.024 559.553 95.2213 559.297 95.616C559.041 96 558.913 96.496 558.913 97.104V98.4C558.913 98.9973 558.983 99.408 559.121 99.632C559.26 99.856 559.393 99.9787 559.521 100H557.265C557.393 99.9787 557.527 99.8613 557.665 99.648C557.815 99.424 557.889 99.008 557.889 98.4V95.984C557.889 95.536 557.815 95.232 557.665 95.072C557.527 94.9013 557.367 94.816 557.185 94.816L558.913 94.048V95.504ZM569.3 100.192C568.724 100.192 568.217 100.053 567.78 99.776C567.353 99.4987 567.028 99.1307 566.804 98.672C566.58 98.2133 566.468 97.728 566.468 97.216C566.468 96.6827 566.58 96.176 566.804 95.696C567.039 95.2053 567.375 94.8107 567.812 94.512C568.249 94.2027 568.767 94.048 569.364 94.048C570.079 94.048 570.596 94.2027 570.916 94.512C571.236 94.8213 571.46 95.1467 571.588 95.488L570.532 96C570.468 95.616 570.308 95.2907 570.052 95.024C569.807 94.7573 569.503 94.624 569.14 94.624C568.617 94.624 568.212 94.8267 567.924 95.232C567.636 95.6373 567.492 96.1333 567.492 96.72C567.492 97.136 567.583 97.5413 567.764 97.936C567.956 98.32 568.223 98.6347 568.564 98.88C568.916 99.1253 569.327 99.248 569.796 99.248C570.18 99.248 570.543 99.1627 570.884 98.992C571.236 98.8107 571.513 98.5707 571.716 98.272C571.599 98.8693 571.321 99.3387 570.884 99.68C570.447 100.021 569.919 100.192 569.3 100.192ZM572.874 97.264C572.874 96.7093 573.008 96.1867 573.274 95.696C573.552 95.1947 573.93 94.7947 574.41 94.496C574.89 94.1973 575.424 94.048 576.01 94.048C576.576 94.048 577.088 94.1813 577.546 94.448C578.005 94.704 578.362 95.056 578.618 95.504C578.885 95.952 579.018 96.4427 579.018 96.976C579.018 97.5307 578.88 98.0587 578.602 98.56C578.336 99.0507 577.962 99.4453 577.482 99.744C577.002 100.043 576.469 100.192 575.882 100.192C575.317 100.192 574.805 100.064 574.346 99.808C573.888 99.5413 573.525 99.184 573.258 98.736C573.002 98.288 572.874 97.7973 572.874 97.264ZM577.866 97.44C577.866 96.992 577.781 96.5493 577.61 96.112C577.44 95.6747 577.2 95.3173 576.89 95.04C576.581 94.7627 576.224 94.624 575.818 94.624C575.253 94.624 574.81 94.8373 574.49 95.264C574.181 95.6907 574.026 96.2027 574.026 96.8C574.026 97.248 574.112 97.6907 574.282 98.128C574.453 98.5653 574.693 98.9227 575.002 99.2C575.312 99.4773 575.669 99.616 576.074 99.616C576.64 99.616 577.077 99.4027 577.386 98.976C577.706 98.5493 577.866 98.0373 577.866 97.44ZM581.96 95.136C582.227 94.8053 582.526 94.544 582.856 94.352C583.187 94.1493 583.534 94.048 583.896 94.048C584.291 94.048 584.638 94.144 584.936 94.336C585.246 94.5173 585.47 94.784 585.608 95.136C585.896 94.7733 586.222 94.5013 586.584 94.32C586.958 94.1387 587.342 94.048 587.736 94.048C588.312 94.048 588.771 94.2347 589.112 94.608C589.464 94.9707 589.64 95.4987 589.64 96.192V98.416C589.64 99.0027 589.715 99.408 589.864 99.632C590.014 99.856 590.147 99.9787 590.264 100H587.992C588.12 99.9787 588.254 99.856 588.392 99.632C588.542 99.408 588.616 98.9973 588.616 98.4V96.576C588.616 96.2133 588.568 95.9253 588.472 95.712C588.376 95.4987 588.248 95.3227 588.088 95.184C587.843 94.9813 587.55 94.88 587.208 94.88C586.835 94.88 586.504 95.008 586.216 95.264C585.939 95.5093 585.8 95.856 585.8 96.304V98.4C585.8 98.9973 585.87 99.408 586.008 99.632C586.158 99.856 586.296 99.9787 586.424 100H584.152C584.28 99.9787 584.414 99.856 584.552 99.632C584.702 99.408 584.776 98.9973 584.776 98.4V96.576C584.776 96.2133 584.728 95.9253 584.632 95.712C584.536 95.4987 584.408 95.3227 584.248 95.184C584.003 94.9813 583.71 94.88 583.368 94.88C582.984 94.88 582.654 95.008 582.376 95.264C582.099 95.5093 581.96 95.856 581.96 96.304V98.4C581.96 99.008 582.035 99.424 582.184 99.648C582.334 99.8613 582.472 99.9787 582.6 100H580.328C580.456 99.9787 580.59 99.856 580.728 99.632C580.867 99.408 580.936 98.9973 580.936 98.4V95.984C580.936 95.536 580.862 95.232 580.712 95.072C580.574 94.9013 580.414 94.816 580.232 94.816L581.96 94.048V95.136ZM593.226 102.112C593.226 102.581 593.274 102.933 593.37 103.168C593.466 103.403 593.573 103.557 593.69 103.632C593.807 103.717 593.866 103.744 593.866 103.712H591.562C591.562 103.744 591.621 103.717 591.738 103.632C591.855 103.557 591.962 103.397 592.058 103.152C592.154 102.917 592.202 102.571 592.202 102.112V95.984C592.202 95.536 592.127 95.232 591.978 95.072C591.839 94.9013 591.679 94.816 591.498 94.816L593.226 94.048V95.088C593.354 94.8747 593.583 94.6507 593.914 94.416C594.255 94.1707 594.698 94.048 595.242 94.048C595.711 94.048 596.133 94.1653 596.506 94.4C596.879 94.6347 597.173 94.96 597.386 95.376C597.599 95.792 597.706 96.256 597.706 96.768C597.706 97.4187 597.573 97.9947 597.306 98.496C597.039 98.9973 596.693 99.3973 596.266 99.696C595.786 100.027 595.263 100.192 594.698 100.192C594.325 100.192 594.015 100.139 593.77 100.032C593.525 99.936 593.343 99.8453 593.226 99.76V102.112ZM596.554 97.248C596.554 96.576 596.394 95.9947 596.074 95.504C595.765 95.0027 595.311 94.752 594.714 94.752C594.49 94.752 594.261 94.816 594.026 94.944C593.791 95.0613 593.599 95.2267 593.45 95.44C593.301 95.6533 593.226 95.8933 593.226 96.16V98.048C593.226 98.3893 593.263 98.6667 593.338 98.88C593.423 99.0933 593.551 99.2533 593.722 99.36C593.989 99.5307 594.314 99.616 594.698 99.616C595.231 99.616 595.674 99.4027 596.026 98.976C596.378 98.5387 596.554 97.9627 596.554 97.248ZM599.624 90.16C599.624 89.712 599.549 89.408 599.4 89.248C599.261 89.0773 599.101 88.992 598.92 88.992H598.824L600.648 88.16V98.4C600.648 98.8693 600.696 99.2213 600.792 99.456C600.888 99.6907 600.994 99.8507 601.112 99.936C601.229 100.011 601.288 100.032 601.288 100H598.984C598.984 100.032 599.042 100.011 599.16 99.936C599.277 99.8507 599.384 99.6907 599.48 99.456C599.576 99.2107 599.624 98.8587 599.624 98.4V90.16ZM605.33 100.192C604.754 100.192 604.258 100.053 603.842 99.776C603.426 99.488 603.106 99.12 602.882 98.672C602.669 98.2133 602.562 97.728 602.562 97.216C602.562 96.5547 602.69 95.984 602.946 95.504C603.213 95.024 603.554 94.6613 603.97 94.416C604.386 94.1707 604.818 94.048 605.266 94.048C605.906 94.048 606.455 94.2827 606.914 94.752C607.383 95.2107 607.639 95.8507 607.682 96.672H603.522C603.522 97.184 603.618 97.6373 603.81 98.032C604.002 98.416 604.258 98.7147 604.578 98.928C604.909 99.1307 605.266 99.232 605.65 99.232C606.653 99.232 607.33 98.912 607.682 98.272C607.586 98.848 607.325 99.312 606.898 99.664C606.471 100.016 605.949 100.192 605.33 100.192ZM605.154 94.576C604.738 94.576 604.381 94.7253 604.082 95.024C603.783 95.312 603.602 95.6907 603.538 96.16H606.45C606.45 95.6693 606.317 95.2853 606.05 95.008C605.794 94.72 605.495 94.576 605.154 94.576ZM611.192 100.192C610.669 100.192 610.275 100.016 610.008 99.664C609.741 99.3013 609.608 98.8693 609.608 98.368V94.816H608.712L610.632 92.64V94.176H612.68V94.816H610.632V98.192C610.632 98.5973 610.739 98.9067 610.952 99.12C611.165 99.3227 611.411 99.424 611.688 99.424C611.901 99.424 612.109 99.36 612.312 99.232C612.515 99.104 612.68 98.928 612.808 98.704C612.648 99.696 612.109 100.192 611.192 100.192ZM616.596 100.192C616.02 100.192 615.524 100.053 615.108 99.776C614.692 99.488 614.372 99.12 614.148 98.672C613.934 98.2133 613.828 97.728 613.828 97.216C613.828 96.5547 613.956 95.984 614.212 95.504C614.478 95.024 614.82 94.6613 615.236 94.416C615.652 94.1707 616.084 94.048 616.532 94.048C617.172 94.048 617.721 94.2827 618.18 94.752C618.649 95.2107 618.905 95.8507 618.948 96.672H614.788C614.788 97.184 614.884 97.6373 615.076 98.032C615.268 98.416 615.524 98.7147 615.844 98.928C616.174 99.1307 616.532 99.232 616.916 99.232C617.918 99.232 618.596 98.912 618.948 98.272C618.852 98.848 618.59 99.312 618.164 99.664C617.737 100.016 617.214 100.192 616.596 100.192ZM616.42 94.576C616.004 94.576 615.646 94.7253 615.348 95.024C615.049 95.312 614.868 95.6907 614.804 96.16H617.716C617.716 95.6693 617.582 95.2853 617.316 95.008C617.06 94.72 616.761 94.576 616.42 94.576ZM620.874 90.16C620.874 89.712 620.799 89.408 620.65 89.248C620.511 89.0773 620.351 88.992 620.17 88.992H620.074L621.898 88.16V98.4C621.898 98.8693 621.946 99.2213 622.042 99.456C622.138 99.6907 622.244 99.8507 622.362 99.936C622.479 100.011 622.538 100.032 622.538 100H620.234C620.234 100.032 620.292 100.011 620.41 99.936C620.527 99.8507 620.634 99.6907 620.73 99.456C620.826 99.2107 620.874 98.8587 620.874 98.4V90.16ZM626.052 99.52L624.18 95.28C623.999 94.8747 623.823 94.5973 623.652 94.448C623.492 94.288 623.364 94.1973 623.268 94.176H625.604C625.508 94.1973 625.412 94.2453 625.316 94.32C625.22 94.3947 625.172 94.528 625.172 94.72C625.172 94.9013 625.225 95.104 625.332 95.328L626.628 98.32L627.78 95.488C627.855 95.296 627.892 95.0987 627.892 94.896C627.892 94.704 627.849 94.544 627.764 94.416C627.689 94.288 627.561 94.208 627.38 94.176H629.524C629.407 94.1973 629.252 94.288 629.06 94.448C628.879 94.608 628.697 94.9067 628.516 95.344L626.34 100.4C626.052 101.072 625.839 101.6 625.7 101.984C625.561 102.379 625.428 102.784 625.3 103.2C625.247 103.403 625.193 103.573 625.14 103.712H623.508C623.796 103.573 624.148 103.184 624.564 102.544C624.991 101.904 625.428 101.04 625.876 99.952L626.052 99.52ZM631.142 100.16C630.928 100.16 630.736 100.091 630.566 99.952C630.406 99.8027 630.326 99.6 630.326 99.344C630.326 99.088 630.406 98.8907 630.566 98.752C630.726 98.6133 630.918 98.544 631.142 98.544C631.366 98.544 631.558 98.6133 631.718 98.752C631.878 98.8907 631.958 99.088 631.958 99.344C631.958 99.6 631.872 99.8027 631.702 99.952C631.542 100.091 631.355 100.16 631.142 100.16ZM635.236 100.16C635.022 100.16 634.83 100.091 634.66 99.952C634.5 99.8027 634.42 99.6 634.42 99.344C634.42 99.088 634.5 98.8907 634.66 98.752C634.82 98.6133 635.012 98.544 635.236 98.544C635.46 98.544 635.652 98.6133 635.812 98.752C635.972 98.8907 636.052 99.088 636.052 99.344C636.052 99.6 635.966 99.8027 635.796 99.952C635.636 100.091 635.449 100.16 635.236 100.16ZM639.329 100.16C639.116 100.16 638.924 100.091 638.753 99.952C638.593 99.8027 638.513 99.6 638.513 99.344C638.513 99.088 638.593 98.8907 638.753 98.752C638.913 98.6133 639.105 98.544 639.329 98.544C639.553 98.544 639.745 98.6133 639.905 98.752C640.065 98.8907 640.145 99.088 640.145 99.344C640.145 99.6 640.06 99.8027 639.889 99.952C639.729 100.091 639.543 100.16 639.329 100.16ZM641.638 92.384C641.926 92.2773 642.166 92.032 642.358 91.648C642.561 91.264 642.662 90.8853 642.662 90.512C642.662 90.416 642.657 90.3467 642.646 90.304H642.534C642.267 90.304 642.065 90.2347 641.926 90.096C641.787 89.9573 641.718 89.7867 641.718 89.584C641.718 89.3707 641.787 89.1893 641.926 89.04C642.075 88.88 642.273 88.8 642.518 88.8C642.785 88.8 643.014 88.912 643.206 89.136C643.409 89.3493 643.51 89.664 643.51 90.08C643.51 90.4107 643.441 90.752 643.302 91.104C643.163 91.4453 642.95 91.7387 642.662 91.984C642.374 92.2293 642.033 92.3627 641.638 92.384ZM644.374 92.384C644.662 92.2773 644.902 92.032 645.094 91.648C645.297 91.264 645.398 90.8853 645.398 90.512C645.398 90.416 645.393 90.3467 645.382 90.304H645.27C645.003 90.304 644.801 90.2347 644.662 90.096C644.523 89.9573 644.454 89.7867 644.454 89.584C644.454 89.3707 644.523 89.1893 644.662 89.04C644.811 88.88 645.009 88.8 645.254 88.8C645.521 88.8 645.75 88.912 645.942 89.136C646.145 89.3493 646.246 89.664 646.246 90.08C646.246 90.4107 646.177 90.752 646.038 91.104C645.899 91.4453 645.686 91.7387 645.398 91.984C645.11 92.2293 644.769 92.3627 644.374 92.384Z" fill="#F5F7F9"/>
<path d="M133.72 127.136C133.683 127.509 133.555 127.827 133.336 128.088C133.123 128.344 132.829 128.472 132.456 128.472C132.227 128.472 132.019 128.429 131.832 128.344C131.651 128.253 131.509 128.157 131.408 128.056C131.312 127.949 131.192 127.853 131.048 127.768C130.909 127.677 130.763 127.632 130.608 127.632C130.395 127.632 130.227 127.704 130.104 127.848C129.981 127.987 129.907 128.163 129.88 128.376H129.288C129.325 127.997 129.451 127.68 129.664 127.424C129.883 127.168 130.181 127.04 130.56 127.04C130.784 127.04 130.987 127.085 131.168 127.176C131.355 127.261 131.496 127.357 131.592 127.464C131.693 127.565 131.813 127.661 131.952 127.752C132.091 127.837 132.237 127.88 132.392 127.88C132.605 127.88 132.773 127.811 132.896 127.672C133.024 127.528 133.101 127.349 133.128 127.136H133.72ZM135.923 130L134.059 126H134.827L136.331 129.288H136.387L137.891 126H138.651L136.795 130H135.923ZM140.029 125.224C139.939 125.315 139.829 125.36 139.701 125.36C139.573 125.36 139.461 125.315 139.365 125.224C139.275 125.133 139.229 125.024 139.229 124.896C139.229 124.768 139.275 124.659 139.365 124.568C139.461 124.477 139.573 124.432 139.701 124.432C139.829 124.432 139.939 124.477 140.029 124.568C140.12 124.653 140.165 124.763 140.165 124.896C140.165 125.024 140.12 125.133 140.029 125.224ZM139.349 130V126H140.053V130H139.349ZM145.424 129.504C145.541 129.504 145.659 129.48 145.776 129.432V129.952C145.6 130.011 145.435 130.04 145.28 130.04C144.741 130.04 144.424 129.819 144.328 129.376C143.992 129.845 143.416 130.08 142.6 130.08C142.12 130.08 141.736 129.984 141.448 129.792C141.16 129.595 141.016 129.304 141.016 128.92C141.016 128.557 141.144 128.277 141.4 128.08C141.656 127.877 142.003 127.76 142.44 127.728L144.232 127.592V127.416C144.232 127.123 144.131 126.896 143.928 126.736C143.731 126.576 143.443 126.496 143.064 126.496C142.403 126.496 142.019 126.752 141.912 127.264H141.2C141.253 126.853 141.443 126.528 141.768 126.288C142.093 126.043 142.525 125.92 143.064 125.92C143.629 125.92 144.083 126.051 144.424 126.312C144.771 126.573 144.944 126.944 144.944 127.424V129.024C144.944 129.344 145.104 129.504 145.424 129.504ZM144.232 128.392V128.104L142.632 128.224C142.024 128.277 141.72 128.501 141.72 128.896C141.72 129.312 142.037 129.52 142.672 129.52C143.093 129.52 143.459 129.429 143.768 129.248C144.077 129.061 144.232 128.776 144.232 128.392ZM148.318 130V126H148.95L149.022 126.568H149.078C149.222 126.36 149.393 126.2 149.59 126.088C149.793 125.976 150.059 125.92 150.39 125.92H150.678V126.64C150.582 126.624 150.443 126.616 150.262 126.616C149.899 126.616 149.601 126.733 149.366 126.968C149.137 127.203 149.022 127.531 149.022 127.952V130H148.318ZM155.401 127.912C155.401 127.96 155.396 128.048 155.385 128.176H151.737C151.764 128.576 151.916 128.896 152.193 129.136C152.471 129.376 152.849 129.496 153.329 129.496C154.044 129.496 154.492 129.275 154.673 128.832H155.369C155.268 129.221 155.036 129.528 154.673 129.752C154.316 129.971 153.868 130.08 153.329 130.08C152.631 130.08 152.073 129.893 151.657 129.52C151.241 129.147 151.033 128.651 151.033 128.032C151.033 127.397 151.241 126.888 151.657 126.504C152.073 126.115 152.612 125.92 153.273 125.92C153.881 125.92 154.385 126.093 154.785 126.44C155.191 126.787 155.396 127.277 155.401 127.912ZM153.273 126.504C152.841 126.504 152.492 126.611 152.225 126.824C151.959 127.037 151.801 127.312 151.753 127.648H154.697C154.681 127.301 154.545 127.024 154.289 126.816C154.039 126.608 153.7 126.504 153.273 126.504ZM159.958 124.32H160.662V130H160.078L160.006 129.392H159.95C159.598 129.851 159.068 130.08 158.358 130.08C157.702 130.08 157.172 129.891 156.766 129.512C156.366 129.128 156.166 128.621 156.166 127.992C156.166 127.363 156.369 126.861 156.774 126.488C157.185 126.109 157.713 125.92 158.358 125.92C159.062 125.92 159.596 126.144 159.958 126.592V124.32ZM157.302 129.056C157.59 129.317 157.969 129.448 158.438 129.448C158.908 129.448 159.278 129.317 159.55 129.056C159.822 128.789 159.958 128.435 159.958 127.992C159.958 127.555 159.822 127.205 159.55 126.944C159.278 126.683 158.908 126.552 158.438 126.552C157.969 126.552 157.59 126.685 157.302 126.952C157.02 127.213 156.878 127.56 156.878 127.992C156.878 128.435 157.02 128.789 157.302 129.056ZM165.388 124.32H166.092V130H165.508L165.436 129.392H165.38C165.028 129.851 164.497 130.08 163.788 130.08C163.132 130.08 162.601 129.891 162.196 129.512C161.796 129.128 161.596 128.621 161.596 127.992C161.596 127.363 161.799 126.861 162.204 126.488C162.615 126.109 163.143 125.92 163.788 125.92C164.492 125.92 165.025 126.144 165.388 126.592V124.32ZM162.732 129.056C163.02 129.317 163.399 129.448 163.868 129.448C164.337 129.448 164.708 129.317 164.98 129.056C165.252 128.789 165.388 128.435 165.388 127.992C165.388 127.555 165.252 127.205 164.98 126.944C164.708 126.683 164.337 126.552 163.868 126.552C163.399 126.552 163.02 126.685 162.732 126.952C162.449 127.213 162.308 127.56 162.308 127.992C162.308 128.435 162.449 128.789 162.732 129.056ZM167.896 125.224C167.806 125.315 167.696 125.36 167.568 125.36C167.44 125.36 167.328 125.315 167.232 125.224C167.142 125.133 167.096 125.024 167.096 124.896C167.096 124.768 167.142 124.659 167.232 124.568C167.328 124.477 167.44 124.432 167.568 124.432C167.696 124.432 167.806 124.477 167.896 124.568C167.987 124.653 168.032 124.763 168.032 124.896C168.032 125.024 167.987 125.133 167.896 125.224ZM167.216 130V126H167.92V130H167.216ZM170.677 130.08C170.309 130.08 170.034 129.989 169.853 129.808C169.672 129.627 169.581 129.376 169.581 129.056V126.576H168.613V126H168.989C169.229 126 169.397 125.955 169.493 125.864C169.589 125.773 169.637 125.613 169.637 125.384V124.88H170.285V126H171.437V126.576H170.285V128.928C170.285 129.307 170.482 129.496 170.877 129.496C171.021 129.496 171.168 129.477 171.317 129.44V129.992C171.12 130.051 170.906 130.08 170.677 130.08ZM176.118 127.136C176.081 127.509 175.953 127.827 175.734 128.088C175.521 128.344 175.228 128.472 174.854 128.472C174.625 128.472 174.417 128.429 174.23 128.344C174.049 128.253 173.908 128.157 173.806 128.056C173.71 127.949 173.59 127.853 173.446 127.768C173.308 127.677 173.161 127.632 173.006 127.632C172.793 127.632 172.625 127.704 172.502 127.848C172.38 127.987 172.305 128.163 172.278 128.376H171.686C171.724 127.997 171.849 127.68 172.062 127.424C172.281 127.168 172.58 127.04 172.958 127.04C173.182 127.04 173.385 127.085 173.566 127.176C173.753 127.261 173.894 127.357 173.99 127.464C174.092 127.565 174.212 127.661 174.35 127.752C174.489 127.837 174.636 127.88 174.79 127.88C175.004 127.88 175.172 127.811 175.294 127.672C175.422 127.528 175.5 127.349 175.526 127.136H176.118Z" fill="#F5F7F9"/>
<path d="M395.217 54.6575C394.197 54.6575 393.406 54.2708 392.844 53.4973C392.281 52.7237 392 51.7217 392 50.4911C392 46.9751 393.688 44.1448 397.063 42L398.329 43.6349C396.43 45.182 395.463 46.8169 395.428 48.5397C396.166 48.4694 396.834 48.7155 397.432 49.2781C398.03 49.8055 398.329 50.5438 398.329 51.4932C398.329 52.4425 398.03 53.216 397.432 53.8137C396.87 54.3763 396.131 54.6575 395.217 54.6575ZM404.236 54.6575C403.216 54.6575 402.425 54.2708 401.862 53.4973C401.3 52.7237 401.018 51.7217 401.018 50.4911C401.018 46.9751 402.706 44.1448 406.082 42L407.4 43.6349C405.466 45.182 404.482 46.8169 404.447 48.5397C405.22 48.4694 405.888 48.7155 406.451 49.2781C407.048 49.8055 407.347 50.5438 407.347 51.4932C407.347 52.4425 407.048 53.216 406.451 53.8137C405.888 54.3763 405.15 54.6575 404.236 54.6575Z" fill="#F5F7F9"/>
<defs>
<radialGradient id="paint0_radial" cx="0" cy="0" r="1" gradientUnits="userSpaceOnUse" gradientTransform="translate(410 195) rotate(90.8952) scale(640.078 1294.46)">
<stop offset="0.105788" stop-color="#4A7CE3"/>
<stop offset="0.33919" stop-color="#375492"/>
<stop offset="0.556528" stop-color="#222222"/>
</radialGradient>
</defs>
</svg>
