<svg width="800" height="228" viewBox="0 0 800 228" fill="none" xmlns="http://www.w3.org/2000/svg">
<rect width="800" height="228" fill="#222222"/>
<path d="M188.096 64.2V66.192H182.144V81H179.936V66.192H173.96V64.2H188.096ZM197.195 68.76C198.795 68.76 200.075 69.2 201.035 70.08C201.995 70.944 202.475 72.192 202.475 73.824V81H200.339V74.328C200.339 73.08 200.011 72.16 199.355 71.568C198.699 70.96 197.811 70.656 196.691 70.656C195.523 70.656 194.563 70.984 193.811 71.64C193.059 72.28 192.683 73.256 192.683 74.568V81H190.571V63.96H192.683V70.656H192.851C193.875 69.392 195.323 68.76 197.195 68.76ZM218.36 74.736C218.36 74.88 218.344 75.144 218.312 75.528H207.368C207.448 76.728 207.904 77.688 208.736 78.408C209.568 79.128 210.704 79.488 212.144 79.488C214.288 79.488 215.632 78.824 216.176 77.496H218.264C217.96 78.664 217.264 79.584 216.176 80.256C215.104 80.912 213.76 81.24 212.144 81.24C210.048 81.24 208.376 80.68 207.128 79.56C205.88 78.44 205.256 76.952 205.256 75.096C205.256 73.192 205.88 71.664 207.128 70.512C208.376 69.344 209.992 68.76 211.976 68.76C213.8 68.76 215.312 69.28 216.512 70.32C217.728 71.36 218.344 72.832 218.36 74.736ZM211.976 70.512C210.68 70.512 209.632 70.832 208.832 71.472C208.032 72.112 207.56 72.936 207.416 73.944H216.248C216.2 72.904 215.792 72.072 215.024 71.448C214.272 70.824 213.256 70.512 211.976 70.512ZM221.298 81V69H223.194L223.41 70.704H223.578C224.01 70.08 224.522 69.6 225.114 69.264C225.722 68.928 226.522 68.76 227.514 68.76H228.378V70.92C228.09 70.872 227.674 70.848 227.13 70.848C226.042 70.848 225.146 71.2 224.442 71.904C223.754 72.608 223.41 73.592 223.41 74.856V81H221.298ZM242.548 74.736C242.548 74.88 242.532 75.144 242.5 75.528H231.556C231.636 76.728 232.092 77.688 232.924 78.408C233.756 79.128 234.892 79.488 236.332 79.488C238.476 79.488 239.82 78.824 240.364 77.496H242.452C242.148 78.664 241.452 79.584 240.364 80.256C239.292 80.912 237.948 81.24 236.332 81.24C234.236 81.24 232.564 80.68 231.316 79.56C230.068 78.44 229.444 76.952 229.444 75.096C229.444 73.192 230.068 71.664 231.316 70.512C232.564 69.344 234.18 68.76 236.164 68.76C237.988 68.76 239.5 69.28 240.7 70.32C241.916 71.36 242.532 72.832 242.548 74.736ZM236.164 70.512C234.868 70.512 233.82 70.832 233.02 71.472C232.22 72.112 231.748 72.936 231.604 73.944H240.436C240.388 72.904 239.98 72.072 239.212 71.448C238.46 70.824 237.444 70.512 236.164 70.512ZM258.672 68.76C260.272 68.76 261.552 69.2 262.512 70.08C263.472 70.944 263.952 72.192 263.952 73.824V81H261.816V74.328C261.816 73.08 261.488 72.16 260.832 71.568C260.176 70.96 259.288 70.656 258.168 70.656C257 70.656 256.04 70.984 255.288 71.64C254.536 72.28 254.16 73.256 254.16 74.568V81H252.048V63.96H254.16V70.656H254.328C255.352 69.392 256.8 68.76 258.672 68.76ZM279.638 79.368H280.022V81H278.99C277.678 81 276.894 80.408 276.638 79.224C275.582 80.568 273.878 81.24 271.526 81.24C270.086 81.24 268.934 80.952 268.07 80.376C267.206 79.784 266.774 78.912 266.774 77.76C266.774 76.672 267.158 75.832 267.926 75.24C268.694 74.632 269.734 74.28 271.046 74.184L276.422 73.776V73.248C276.422 72.368 276.118 71.688 275.51 71.208C274.918 70.728 274.054 70.488 272.918 70.488C270.934 70.488 269.782 71.256 269.462 72.792H267.326C267.486 71.56 268.054 70.584 269.03 69.864C270.006 69.128 271.302 68.76 272.918 68.76C274.614 68.76 275.974 69.152 276.998 69.936C278.038 70.72 278.558 71.832 278.558 73.272V78.192C278.558 78.608 278.646 78.904 278.822 79.08C278.998 79.256 279.27 79.352 279.638 79.368ZM276.422 76.176V75.312L271.622 75.672C269.798 75.832 268.886 76.504 268.886 77.688C268.886 78.936 269.838 79.56 271.742 79.56C273.006 79.56 274.102 79.288 275.03 78.744C275.958 78.184 276.422 77.328 276.422 76.176ZM287.353 81.24C285.577 81.24 284.193 80.904 283.201 80.232C282.225 79.544 281.681 78.576 281.569 77.328H283.681C283.937 78.832 285.161 79.584 287.353 79.584C289.385 79.584 290.401 79 290.401 77.832C290.401 76.84 289.489 76.16 287.665 75.792L285.745 75.48C285.233 75.368 284.785 75.248 284.401 75.12C284.017 74.976 283.633 74.784 283.249 74.544C282.865 74.288 282.569 73.968 282.361 73.584C282.153 73.2 282.049 72.744 282.049 72.216C282.049 71.144 282.505 70.304 283.417 69.696C284.329 69.072 285.505 68.76 286.945 68.76C288.561 68.76 289.809 69.088 290.689 69.744C291.569 70.384 292.081 71.208 292.225 72.216H290.089C289.817 71.016 288.777 70.416 286.969 70.416C286.121 70.416 285.441 70.56 284.929 70.848C284.417 71.12 284.161 71.544 284.161 72.12C284.161 72.408 284.217 72.656 284.329 72.864C284.457 73.056 284.665 73.224 284.953 73.368C285.241 73.496 285.497 73.6 285.721 73.68C285.961 73.744 286.297 73.824 286.729 73.92L288.649 74.256C291.209 74.752 292.489 75.936 292.489 77.808C292.489 78.976 292.009 79.84 291.049 80.4C290.105 80.96 288.873 81.24 287.353 81.24ZM306.891 81.24C305.787 81.24 304.963 80.968 304.419 80.424C303.875 79.88 303.603 79.128 303.603 78.168V70.728H300.699V69H301.827C302.547 69 303.051 68.864 303.339 68.592C303.627 68.32 303.771 67.84 303.771 67.152V65.64H305.715V69H309.171V70.728H305.715V77.784C305.715 78.92 306.307 79.488 307.491 79.488C307.923 79.488 308.363 79.432 308.811 79.32V80.976C308.219 81.152 307.579 81.24 306.891 81.24ZM317.359 81.24C315.263 81.24 313.559 80.656 312.247 79.488C310.951 78.304 310.303 76.808 310.303 75C310.303 73.176 310.951 71.68 312.247 70.512C313.559 69.344 315.263 68.76 317.359 68.76C319.439 68.76 321.135 69.352 322.447 70.536C323.759 71.704 324.415 73.192 324.415 75C324.415 76.808 323.759 78.304 322.447 79.488C321.135 80.656 319.439 81.24 317.359 81.24ZM313.759 78.096C314.655 78.928 315.855 79.344 317.359 79.344C318.863 79.344 320.063 78.928 320.959 78.096C321.855 77.264 322.303 76.232 322.303 75C322.303 73.768 321.855 72.736 320.959 71.904C320.063 71.072 318.863 70.656 317.359 70.656C315.855 70.656 314.655 71.072 313.759 71.904C312.879 72.736 312.439 73.768 312.439 75C312.439 76.232 312.879 77.264 313.759 78.096ZM340.78 68.76C342.716 68.76 344.292 69.328 345.508 70.464C346.74 71.584 347.356 73.088 347.356 74.976C347.356 76.864 346.748 78.384 345.532 79.536C344.332 80.672 342.748 81.24 340.78 81.24C338.652 81.24 337.06 80.552 336.004 79.176H335.836L335.62 81H333.868V63.96H335.98V70.776C337.068 69.432 338.668 68.76 340.78 68.76ZM337.204 78.168C338.02 78.952 339.132 79.344 340.54 79.344C341.948 79.344 343.076 78.952 343.924 78.168C344.788 77.368 345.22 76.304 345.22 74.976C345.22 73.68 344.788 72.64 343.924 71.856C343.076 71.056 341.948 70.656 340.54 70.656C339.132 70.656 338.02 71.048 337.204 71.832C336.388 72.616 335.98 73.664 335.98 74.976C335.98 76.304 336.388 77.368 337.204 78.168ZM362.712 74.736C362.712 74.88 362.696 75.144 362.664 75.528H351.72C351.8 76.728 352.256 77.688 353.088 78.408C353.92 79.128 355.056 79.488 356.496 79.488C358.64 79.488 359.984 78.824 360.528 77.496H362.616C362.312 78.664 361.616 79.584 360.528 80.256C359.456 80.912 358.112 81.24 356.496 81.24C354.4 81.24 352.728 80.68 351.48 79.56C350.232 78.44 349.608 76.952 349.608 75.096C349.608 73.192 350.232 71.664 351.48 70.512C352.728 69.344 354.344 68.76 356.328 68.76C358.152 68.76 359.664 69.28 360.864 70.32C362.08 71.36 362.696 72.832 362.712 74.736ZM356.328 70.512C355.032 70.512 353.984 70.832 353.184 71.472C352.384 72.112 351.912 72.936 351.768 73.944H360.6C360.552 72.904 360.144 72.072 359.376 71.448C358.624 70.824 357.608 70.512 356.328 70.512ZM384.764 79.512C385.116 79.512 385.468 79.44 385.82 79.296V80.856C385.292 81.032 384.796 81.12 384.332 81.12C382.716 81.12 381.764 80.456 381.476 79.128C380.468 80.536 378.74 81.24 376.292 81.24C374.852 81.24 373.7 80.952 372.836 80.376C371.972 79.784 371.54 78.912 371.54 77.76C371.54 76.672 371.924 75.832 372.692 75.24C373.46 74.632 374.5 74.28 375.812 74.184L381.188 73.776V73.248C381.188 72.368 380.884 71.688 380.276 71.208C379.684 70.728 378.82 70.488 377.684 70.488C375.7 70.488 374.548 71.256 374.228 72.792H372.092C372.252 71.56 372.82 70.584 373.796 69.864C374.772 69.128 376.068 68.76 377.684 68.76C379.38 68.76 380.74 69.152 381.764 69.936C382.804 70.72 383.324 71.832 383.324 73.272V78.072C383.324 79.032 383.804 79.512 384.764 79.512ZM381.188 76.176V75.312L376.388 75.672C374.564 75.832 373.652 76.504 373.652 77.688C373.652 78.936 374.604 79.56 376.508 79.56C377.772 79.56 378.868 79.288 379.796 78.744C380.724 78.184 381.188 77.328 381.188 76.176ZM400.358 68.76C402.326 68.76 403.91 69.336 405.11 70.488C406.326 71.624 406.934 73.136 406.934 75.024C406.934 76.912 406.318 78.424 405.086 79.56C403.87 80.68 402.294 81.24 400.358 81.24C398.246 81.24 396.646 80.568 395.558 79.224V85.8H393.446V69H395.198L395.414 70.824H395.582C396.638 69.448 398.23 68.76 400.358 68.76ZM396.782 78.168C397.598 78.952 398.71 79.344 400.118 79.344C401.526 79.344 402.654 78.952 403.502 78.168C404.366 77.368 404.798 76.32 404.798 75.024C404.798 73.696 404.366 72.64 403.502 71.856C402.654 71.056 401.526 70.656 400.118 70.656C398.71 70.656 397.598 71.056 396.782 71.856C395.966 72.64 395.558 73.696 395.558 75.024C395.558 76.336 395.966 77.384 396.782 78.168ZM409.782 81V63.96H411.894V81H409.782ZM427.646 79.368H428.03V81H426.998C425.686 81 424.902 80.408 424.646 79.224C423.59 80.568 421.886 81.24 419.534 81.24C418.094 81.24 416.942 80.952 416.078 80.376C415.214 79.784 414.782 78.912 414.782 77.76C414.782 76.672 415.166 75.832 415.934 75.24C416.702 74.632 417.742 74.28 419.054 74.184L424.43 73.776V73.248C424.43 72.368 424.126 71.688 423.518 71.208C422.926 70.728 422.062 70.488 420.926 70.488C418.942 70.488 417.79 71.256 417.47 72.792H415.334C415.494 71.56 416.062 70.584 417.038 69.864C418.014 69.128 419.31 68.76 420.926 68.76C422.622 68.76 423.982 69.152 425.006 69.936C426.046 70.72 426.566 71.832 426.566 73.272V78.192C426.566 78.608 426.654 78.904 426.83 79.08C427.006 79.256 427.278 79.352 427.646 79.368ZM424.43 76.176V75.312L419.63 75.672C417.806 75.832 416.894 76.504 416.894 77.688C416.894 78.936 417.846 79.56 419.75 79.56C421.014 79.56 422.11 79.288 423.038 78.744C423.966 78.184 424.43 77.328 424.43 76.176ZM436.515 81.24C434.339 81.24 432.619 80.664 431.355 79.512C430.107 78.344 429.483 76.864 429.483 75.072C429.483 73.232 430.131 71.72 431.427 70.536C432.723 69.352 434.419 68.76 436.515 68.76C438.179 68.76 439.587 69.144 440.739 69.912C441.907 70.664 442.619 71.72 442.875 73.08H440.739C440.515 72.376 440.027 71.8 439.275 71.352C438.539 70.888 437.619 70.656 436.515 70.656C435.027 70.656 433.835 71.072 432.939 71.904C432.059 72.736 431.619 73.792 431.619 75.072C431.619 76.336 432.043 77.368 432.891 78.168C433.755 78.952 434.963 79.344 436.515 79.344C437.619 79.344 438.539 79.152 439.275 78.768C440.011 78.384 440.515 77.824 440.787 77.088H442.947C442.675 78.368 441.963 79.384 440.811 80.136C439.675 80.872 438.243 81.24 436.515 81.24ZM458.056 74.736C458.056 74.88 458.04 75.144 458.008 75.528H447.064C447.144 76.728 447.6 77.688 448.432 78.408C449.264 79.128 450.4 79.488 451.84 79.488C453.984 79.488 455.328 78.824 455.872 77.496H457.96C457.656 78.664 456.96 79.584 455.872 80.256C454.8 80.912 453.456 81.24 451.84 81.24C449.744 81.24 448.072 80.68 446.824 79.56C445.576 78.44 444.952 76.952 444.952 75.096C444.952 73.192 445.576 71.664 446.824 70.512C448.072 69.344 449.688 68.76 451.672 68.76C453.496 68.76 455.008 69.28 456.208 70.32C457.424 71.36 458.04 72.832 458.056 74.736ZM451.672 70.512C450.376 70.512 449.328 70.832 448.528 71.472C447.728 72.112 447.256 72.936 447.112 73.944H455.944C455.896 72.904 455.488 72.072 454.72 71.448C453.968 70.824 452.952 70.512 451.672 70.512ZM470.148 81L466.356 69H468.492L471.396 78.6H471.564L474.828 69.864H477.204L480.444 78.6H480.588L483.516 69H485.652L481.836 81H479.364L476.1 72.12H475.932L472.62 81H470.148ZM494.383 68.76C495.983 68.76 497.263 69.2 498.223 70.08C499.183 70.944 499.663 72.192 499.663 73.824V81H497.527V74.328C497.527 73.08 497.199 72.16 496.543 71.568C495.887 70.96 494.999 70.656 493.879 70.656C492.711 70.656 491.751 70.984 490.999 71.64C490.247 72.28 489.871 73.256 489.871 74.568V81H487.759V63.96H489.871V70.656H490.039C491.063 69.392 492.511 68.76 494.383 68.76ZM515.548 74.736C515.548 74.88 515.532 75.144 515.5 75.528H504.556C504.636 76.728 505.092 77.688 505.924 78.408C506.756 79.128 507.892 79.488 509.332 79.488C511.476 79.488 512.82 78.824 513.364 77.496H515.452C515.148 78.664 514.452 79.584 513.364 80.256C512.292 80.912 510.948 81.24 509.332 81.24C507.236 81.24 505.564 80.68 504.316 79.56C503.068 78.44 502.444 76.952 502.444 75.096C502.444 73.192 503.068 71.664 504.316 70.512C505.564 69.344 507.18 68.76 509.164 68.76C510.988 68.76 512.5 69.28 513.7 70.32C514.916 71.36 515.532 72.832 515.548 74.736ZM509.164 70.512C507.868 70.512 506.82 70.832 506.02 71.472C505.22 72.112 504.748 72.936 504.604 73.944H513.436C513.388 72.904 512.98 72.072 512.212 71.448C511.46 70.824 510.444 70.512 509.164 70.512ZM518.485 81V69H520.381L520.597 70.704H520.765C521.197 70.08 521.709 69.6 522.301 69.264C522.909 68.928 523.709 68.76 524.701 68.76H525.565V70.92C525.277 70.872 524.861 70.848 524.317 70.848C523.229 70.848 522.333 71.2 521.629 71.904C520.941 72.608 520.597 73.592 520.597 74.856V81H518.485ZM539.735 74.736C539.735 74.88 539.719 75.144 539.687 75.528H528.743C528.823 76.728 529.279 77.688 530.111 78.408C530.943 79.128 532.079 79.488 533.519 79.488C535.663 79.488 537.007 78.824 537.551 77.496H539.639C539.335 78.664 538.639 79.584 537.551 80.256C536.479 80.912 535.135 81.24 533.519 81.24C531.423 81.24 529.751 80.68 528.503 79.56C527.255 78.44 526.631 76.952 526.631 75.096C526.631 73.192 527.255 71.664 528.503 70.512C529.751 69.344 531.367 68.76 533.351 68.76C535.175 68.76 536.687 69.28 537.887 70.32C539.103 71.36 539.719 72.832 539.735 74.736ZM533.351 70.512C532.055 70.512 531.007 70.832 530.207 71.472C529.407 72.112 528.935 72.936 528.791 73.944H537.623C537.575 72.904 537.167 72.072 536.399 71.448C535.647 70.824 534.631 70.512 533.351 70.512ZM554.203 81.24C553.099 81.24 552.275 80.968 551.731 80.424C551.187 79.88 550.915 79.128 550.915 78.168V70.728H548.011V69H549.139C549.859 69 550.363 68.864 550.651 68.592C550.939 68.32 551.083 67.84 551.083 67.152V65.64H553.027V69H556.483V70.728H553.027V77.784C553.027 78.92 553.619 79.488 554.803 79.488C555.235 79.488 555.675 79.432 556.123 79.32V80.976C555.531 81.152 554.891 81.24 554.203 81.24ZM565.351 68.76C566.951 68.76 568.231 69.2 569.191 70.08C570.151 70.944 570.631 72.192 570.631 73.824V81H568.495V74.328C568.495 73.08 568.167 72.16 567.511 71.568C566.855 70.96 565.967 70.656 564.847 70.656C563.679 70.656 562.719 70.984 561.967 71.64C561.215 72.28 560.839 73.256 560.839 74.568V81H558.727V63.96H560.839V70.656H561.007C562.031 69.392 563.479 68.76 565.351 68.76ZM586.517 74.736C586.517 74.88 586.501 75.144 586.469 75.528H575.525C575.605 76.728 576.061 77.688 576.893 78.408C577.725 79.128 578.861 79.488 580.301 79.488C582.445 79.488 583.789 78.824 584.333 77.496H586.421C586.117 78.664 585.421 79.584 584.333 80.256C583.261 80.912 581.917 81.24 580.301 81.24C578.205 81.24 576.533 80.68 575.285 79.56C574.037 78.44 573.413 76.952 573.413 75.096C573.413 73.192 574.037 71.664 575.285 70.512C576.533 69.344 578.149 68.76 580.133 68.76C581.957 68.76 583.469 69.28 584.669 70.32C585.885 71.36 586.501 72.832 586.517 74.736ZM580.133 70.512C578.837 70.512 577.789 70.832 576.989 71.472C576.189 72.112 575.717 72.936 575.573 73.944H584.405C584.357 72.904 583.949 72.072 583.181 71.448C582.429 70.824 581.413 70.512 580.133 70.512ZM181.304 108.24C179.128 108.24 177.408 107.664 176.144 106.512C174.896 105.344 174.272 103.864 174.272 102.072C174.272 100.232 174.92 98.72 176.216 97.536C177.512 96.352 179.208 95.76 181.304 95.76C182.968 95.76 184.376 96.144 185.528 96.912C186.696 97.664 187.408 98.72 187.664 100.08H185.528C185.304 99.376 184.816 98.8 184.064 98.352C183.328 97.888 182.408 97.656 181.304 97.656C179.816 97.656 178.624 98.072 177.728 98.904C176.848 99.736 176.408 100.792 176.408 102.072C176.408 103.336 176.832 104.368 177.68 105.168C178.544 105.952 179.752 106.344 181.304 106.344C182.408 106.344 183.328 106.152 184.064 105.768C184.8 105.384 185.304 104.824 185.576 104.088H187.736C187.464 105.368 186.752 106.384 185.6 107.136C184.464 107.872 183.032 108.24 181.304 108.24ZM190.384 108V96H192.28L192.496 97.704H192.664C193.096 97.08 193.608 96.6 194.2 96.264C194.808 95.928 195.608 95.76 196.6 95.76H197.464V97.92C197.176 97.872 196.76 97.848 196.216 97.848C195.128 97.848 194.232 98.2 193.528 98.904C192.84 99.608 192.496 100.592 192.496 101.856V108H190.384ZM211.634 101.736C211.634 101.88 211.618 102.144 211.586 102.528H200.642C200.722 103.728 201.178 104.688 202.01 105.408C202.842 106.128 203.978 106.488 205.418 106.488C207.562 106.488 208.906 105.824 209.45 104.496H211.538C211.234 105.664 210.538 106.584 209.45 107.256C208.378 107.912 207.034 108.24 205.418 108.24C203.322 108.24 201.65 107.68 200.402 106.56C199.154 105.44 198.53 103.952 198.53 102.096C198.53 100.192 199.154 98.664 200.402 97.512C201.65 96.344 203.266 95.76 205.25 95.76C207.074 95.76 208.586 96.28 209.786 97.32C211.002 98.36 211.618 99.832 211.634 101.736ZM205.25 97.512C203.954 97.512 202.906 97.832 202.106 98.472C201.306 99.112 200.834 99.936 200.69 100.944H209.522C209.474 99.904 209.066 99.072 208.298 98.448C207.546 97.824 206.53 97.512 205.25 97.512ZM226.81 106.368H227.194V108H226.162C224.85 108 224.066 107.408 223.81 106.224C222.754 107.568 221.05 108.24 218.698 108.24C217.258 108.24 216.106 107.952 215.242 107.376C214.378 106.784 213.946 105.912 213.946 104.76C213.946 103.672 214.33 102.832 215.098 102.24C215.866 101.632 216.906 101.28 218.218 101.184L223.594 100.776V100.248C223.594 99.368 223.29 98.688 222.682 98.208C222.09 97.728 221.226 97.488 220.09 97.488C218.106 97.488 216.954 98.256 216.634 99.792H214.498C214.658 98.56 215.226 97.584 216.202 96.864C217.178 96.128 218.474 95.76 220.09 95.76C221.786 95.76 223.146 96.152 224.17 96.936C225.21 97.72 225.73 98.832 225.73 100.272V105.192C225.73 105.608 225.818 105.904 225.994 106.08C226.17 106.256 226.442 106.352 226.81 106.368ZM223.594 103.176V102.312L218.794 102.672C216.97 102.832 216.058 103.504 216.058 104.688C216.058 105.936 217.01 106.56 218.914 106.56C220.178 106.56 221.274 106.288 222.202 105.744C223.13 105.184 223.594 104.328 223.594 103.176ZM229.407 108V96H231.327L231.519 97.512H231.687C232.583 96.344 233.823 95.76 235.407 95.76C236.415 95.76 237.231 95.976 237.855 96.408C238.479 96.84 238.927 97.352 239.199 97.944H239.367C240.279 96.488 241.671 95.76 243.543 95.76C244.919 95.76 246.015 96.136 246.831 96.888C247.647 97.624 248.055 98.728 248.055 100.2V108H245.943V100.608C245.943 99.616 245.663 98.872 245.103 98.376C244.559 97.88 243.863 97.632 243.015 97.632C242.071 97.632 241.295 97.928 240.687 98.52C240.095 99.112 239.799 99.936 239.799 100.992V108H237.663V100.776C237.663 99.752 237.383 98.976 236.823 98.448C236.279 97.904 235.583 97.632 234.735 97.632C233.871 97.632 233.119 97.912 232.479 98.472C231.839 99.016 231.519 99.832 231.519 100.92V108H229.407ZM264.531 108.24C262.355 108.24 260.635 107.664 259.371 106.512C258.123 105.344 257.499 103.864 257.499 102.072C257.499 100.232 258.147 98.72 259.443 97.536C260.739 96.352 262.435 95.76 264.531 95.76C266.195 95.76 267.603 96.144 268.755 96.912C269.923 97.664 270.635 98.72 270.891 100.08H268.755C268.531 99.376 268.043 98.8 267.291 98.352C266.555 97.888 265.635 97.656 264.531 97.656C263.043 97.656 261.851 98.072 260.955 98.904C260.075 99.736 259.635 100.792 259.635 102.072C259.635 103.336 260.059 104.368 260.907 105.168C261.771 105.952 262.979 106.344 264.531 106.344C265.635 106.344 266.555 106.152 267.291 105.768C268.027 105.384 268.531 104.824 268.803 104.088H270.963C270.691 105.368 269.979 106.384 268.827 107.136C267.691 107.872 266.259 108.24 264.531 108.24ZM285.99 106.368H286.374V108H285.342C284.03 108 283.246 107.408 282.99 106.224C281.934 107.568 280.23 108.24 277.878 108.24C276.438 108.24 275.286 107.952 274.422 107.376C273.558 106.784 273.126 105.912 273.126 104.76C273.126 103.672 273.51 102.832 274.278 102.24C275.046 101.632 276.086 101.28 277.398 101.184L282.774 100.776V100.248C282.774 99.368 282.47 98.688 281.862 98.208C281.27 97.728 280.406 97.488 279.27 97.488C277.286 97.488 276.134 98.256 275.814 99.792H273.678C273.838 98.56 274.406 97.584 275.382 96.864C276.358 96.128 277.654 95.76 279.27 95.76C280.966 95.76 282.326 96.152 283.35 96.936C284.39 97.72 284.91 98.832 284.91 100.272V105.192C284.91 105.608 284.998 105.904 285.174 106.08C285.35 106.256 285.622 106.352 285.99 106.368ZM282.774 103.176V102.312L277.974 102.672C276.15 102.832 275.238 103.504 275.238 104.688C275.238 105.936 276.19 106.56 278.094 106.56C279.358 106.56 280.454 106.288 281.382 105.744C282.31 105.184 282.774 104.328 282.774 103.176ZM288.587 108V96H290.507L290.699 97.656H290.867C291.891 96.392 293.339 95.76 295.211 95.76C296.811 95.76 298.091 96.2 299.051 97.08C300.011 97.944 300.491 99.192 300.491 100.824V108H298.355V101.328C298.355 100.08 298.027 99.16 297.371 98.568C296.715 97.96 295.827 97.656 294.707 97.656C293.539 97.656 292.579 97.984 291.827 98.64C291.075 99.28 290.699 100.256 290.699 101.568V108H288.587ZM310.36 108V96H312.256L312.472 97.704H312.64C313.072 97.08 313.584 96.6 314.176 96.264C314.784 95.928 315.584 95.76 316.576 95.76H317.44V97.92C317.152 97.872 316.736 97.848 316.192 97.848C315.104 97.848 314.208 98.2 313.504 98.904C312.816 99.608 312.472 100.592 312.472 101.856V108H310.36ZM321.588 93.672C321.316 93.944 320.988 94.08 320.604 94.08C320.22 94.08 319.884 93.944 319.596 93.672C319.324 93.4 319.188 93.072 319.188 92.688C319.188 92.304 319.324 91.976 319.596 91.704C319.884 91.432 320.22 91.296 320.604 91.296C320.988 91.296 321.316 91.432 321.588 91.704C321.86 91.96 321.996 92.288 321.996 92.688C321.996 93.072 321.86 93.4 321.588 93.672ZM319.548 108V96H321.66V108H319.548ZM330.243 108.24C328.468 108.24 327.084 107.904 326.092 107.232C325.116 106.544 324.572 105.576 324.46 104.328H326.572C326.828 105.832 328.052 106.584 330.243 106.584C332.276 106.584 333.292 106 333.292 104.832C333.292 103.84 332.38 103.16 330.556 102.792L328.636 102.48C328.124 102.368 327.676 102.248 327.292 102.12C326.908 101.976 326.524 101.784 326.14 101.544C325.756 101.288 325.46 100.968 325.252 100.584C325.044 100.2 324.94 99.744 324.94 99.216C324.94 98.144 325.396 97.304 326.308 96.696C327.22 96.072 328.396 95.76 329.836 95.76C331.452 95.76 332.7 96.088 333.58 96.744C334.46 97.384 334.972 98.208 335.116 99.216H332.98C332.708 98.016 331.668 97.416 329.86 97.416C329.012 97.416 328.332 97.56 327.82 97.848C327.308 98.12 327.052 98.544 327.052 99.12C327.052 99.408 327.108 99.656 327.22 99.864C327.348 100.056 327.556 100.224 327.844 100.368C328.132 100.496 328.388 100.6 328.612 100.68C328.852 100.744 329.188 100.824 329.62 100.92L331.54 101.256C334.1 101.752 335.38 102.936 335.38 104.808C335.38 105.976 334.9 106.84 333.94 107.4C332.996 107.96 331.764 108.24 330.243 108.24ZM350.595 101.736C350.595 101.88 350.579 102.144 350.547 102.528H339.603C339.683 103.728 340.139 104.688 340.971 105.408C341.803 106.128 342.939 106.488 344.379 106.488C346.523 106.488 347.867 105.824 348.411 104.496H350.499C350.195 105.664 349.499 106.584 348.411 107.256C347.339 107.912 345.995 108.24 344.379 108.24C342.283 108.24 340.611 107.68 339.363 106.56C338.115 105.44 337.491 103.952 337.491 102.096C337.491 100.192 338.115 98.664 339.363 97.512C340.611 96.344 342.227 95.76 344.211 95.76C346.035 95.76 347.547 96.28 348.747 97.32C349.963 98.36 350.579 99.832 350.595 101.736ZM344.211 97.512C342.915 97.512 341.867 97.832 341.067 98.472C340.267 99.112 339.795 99.936 339.651 100.944H348.483C348.435 99.904 348.027 99.072 347.259 98.448C346.507 97.824 345.491 97.512 344.211 97.512ZM372.287 106.368H372.671V108H371.639C370.327 108 369.543 107.408 369.287 106.224C368.231 107.568 366.527 108.24 364.175 108.24C362.735 108.24 361.583 107.952 360.719 107.376C359.855 106.784 359.423 105.912 359.423 104.76C359.423 103.672 359.807 102.832 360.575 102.24C361.343 101.632 362.383 101.28 363.695 101.184L369.071 100.776V100.248C369.071 99.368 368.767 98.688 368.159 98.208C367.567 97.728 366.703 97.488 365.567 97.488C363.583 97.488 362.431 98.256 362.111 99.792H359.975C360.135 98.56 360.703 97.584 361.679 96.864C362.655 96.128 363.951 95.76 365.567 95.76C367.263 95.76 368.623 96.152 369.647 96.936C370.687 97.72 371.207 98.832 371.207 100.272V105.192C371.207 105.608 371.295 105.904 371.471 106.08C371.647 106.256 371.919 106.352 372.287 106.368ZM369.071 103.176V102.312L364.271 102.672C362.447 102.832 361.535 103.504 361.535 104.688C361.535 105.936 362.487 106.56 364.391 106.56C365.655 106.56 366.751 106.288 367.679 105.744C368.607 105.184 369.071 104.328 369.071 103.176ZM374.884 108V96H376.804L376.996 97.656H377.164C378.188 96.392 379.636 95.76 381.508 95.76C383.108 95.76 384.388 96.2 385.348 97.08C386.308 97.944 386.788 99.192 386.788 100.824V108H384.652V101.328C384.652 100.08 384.324 99.16 383.668 98.568C383.012 97.96 382.124 97.656 381.004 97.656C379.836 97.656 378.876 97.984 378.124 98.64C377.372 99.28 376.996 100.256 376.996 101.568V108H374.884ZM400.945 90.96H403.057V108H401.305L401.089 106.176H400.921C399.865 107.552 398.273 108.24 396.145 108.24C394.177 108.24 392.585 107.672 391.369 106.536C390.169 105.384 389.569 103.864 389.569 101.976C389.569 100.088 390.177 98.584 391.393 97.464C392.625 96.328 394.209 95.76 396.145 95.76C398.257 95.76 399.857 96.432 400.945 97.776V90.96ZM392.977 105.168C393.841 105.952 394.977 106.344 396.385 106.344C397.793 106.344 398.905 105.952 399.721 105.168C400.537 104.368 400.945 103.304 400.945 101.976C400.945 100.664 400.537 99.616 399.721 98.832C398.905 98.048 397.793 97.656 396.385 97.656C394.977 97.656 393.841 98.056 392.977 98.856C392.129 99.64 391.705 100.68 391.705 101.976C391.705 103.304 392.129 104.368 392.977 105.168ZM412.923 108V96H414.819L415.035 97.704H415.203C415.635 97.08 416.147 96.6 416.739 96.264C417.347 95.928 418.147 95.76 419.139 95.76H420.003V97.92C419.715 97.872 419.299 97.848 418.755 97.848C417.667 97.848 416.771 98.2 416.067 98.904C415.379 99.608 415.035 100.592 415.035 101.856V108H412.923ZM424.15 93.672C423.878 93.944 423.55 94.08 423.166 94.08C422.782 94.08 422.446 93.944 422.158 93.672C421.886 93.4 421.75 93.072 421.75 92.688C421.75 92.304 421.886 91.976 422.158 91.704C422.446 91.432 422.782 91.296 423.166 91.296C423.55 91.296 423.878 91.432 424.15 91.704C424.422 91.96 424.558 92.288 424.558 92.688C424.558 93.072 424.422 93.4 424.15 93.672ZM422.11 108V96H424.222V108H422.11ZM435.208 105.744C436.6 105.744 437.672 106.04 438.424 106.632C439.176 107.208 439.552 108.024 439.552 109.08C439.552 110.344 439 111.32 437.896 112.008C436.792 112.696 435.264 113.04 433.312 113.04C431.36 113.04 429.856 112.664 428.8 111.912C427.76 111.176 427.136 110.216 426.928 109.032L429.016 107.256C428.488 107.08 428.072 106.792 427.768 106.392C427.48 105.976 427.336 105.504 427.336 104.976C427.336 103.984 427.88 103.224 428.968 102.696C428.072 101.96 427.624 101.024 427.624 99.888C427.624 98.672 428.128 97.68 429.136 96.912C430.16 96.144 431.512 95.76 433.192 95.76C434.488 95.76 435.608 96.008 436.552 96.504C437.432 96.168 438.216 95.608 438.904 94.824L440.056 96.144C439.528 96.672 438.792 97.128 437.848 97.512C438.472 98.184 438.784 98.976 438.784 99.888C438.784 101.152 438.264 102.152 437.224 102.888C436.184 103.608 434.856 103.968 433.24 103.968C432.104 103.968 431.096 103.784 430.216 103.416C429.608 103.72 429.304 104.112 429.304 104.592C429.304 104.96 429.472 105.248 429.808 105.456C430.144 105.648 430.576 105.744 431.104 105.744H435.208ZM433.24 97.392C432.184 97.392 431.336 97.624 430.696 98.088C430.056 98.536 429.736 99.136 429.736 99.888C429.736 100.592 430.056 101.176 430.696 101.64C431.336 102.088 432.184 102.312 433.24 102.312C434.296 102.312 435.136 102.088 435.76 101.64C436.384 101.192 436.696 100.608 436.696 99.888C436.696 99.136 436.384 98.536 435.76 98.088C435.152 97.624 434.312 97.392 433.24 97.392ZM430.456 110.76C431.16 111.16 432.128 111.36 433.36 111.36C434.592 111.36 435.584 111.176 436.336 110.808C437.088 110.44 437.464 109.896 437.464 109.176C437.464 108.552 437.208 108.112 436.696 107.856C436.2 107.584 435.632 107.448 434.992 107.448H431.152L429.064 109.224C429.288 109.848 429.752 110.36 430.456 110.76ZM448.797 95.76C450.397 95.76 451.677 96.2 452.637 97.08C453.597 97.944 454.077 99.192 454.077 100.824V108H451.941V101.328C451.941 100.08 451.613 99.16 450.957 98.568C450.301 97.96 449.413 97.656 448.293 97.656C447.125 97.656 446.165 97.984 445.413 98.64C444.661 99.28 444.285 100.256 444.285 101.568V108H442.173V90.96H444.285V97.656H444.453C445.477 96.392 446.925 95.76 448.797 95.76ZM461.93 108.24C460.826 108.24 460.002 107.968 459.458 107.424C458.914 106.88 458.642 106.128 458.642 105.168V97.728H455.738V96H456.866C457.586 96 458.09 95.864 458.378 95.592C458.666 95.32 458.81 94.84 458.81 94.152V92.64H460.754V96H464.21V97.728H460.754V104.784C460.754 105.92 461.346 106.488 462.53 106.488C462.962 106.488 463.402 106.432 463.85 106.32V107.976C463.258 108.152 462.618 108.24 461.93 108.24ZM472.876 108V96H474.796L474.988 97.656H475.156C476.18 96.392 477.628 95.76 479.5 95.76C481.1 95.76 482.38 96.2 483.34 97.08C484.3 97.944 484.78 99.192 484.78 100.824V108H482.644V101.328C482.644 100.08 482.316 99.16 481.66 98.568C481.004 97.96 480.116 97.656 478.996 97.656C477.828 97.656 476.868 97.984 476.116 98.64C475.364 99.28 474.988 100.256 474.988 101.568V108H472.876ZM494.617 108.24C492.521 108.24 490.817 107.656 489.505 106.488C488.209 105.304 487.561 103.808 487.561 102C487.561 100.176 488.209 98.68 489.505 97.512C490.817 96.344 492.521 95.76 494.617 95.76C496.697 95.76 498.393 96.352 499.705 97.536C501.017 98.704 501.673 100.192 501.673 102C501.673 103.808 501.017 105.304 499.705 106.488C498.393 107.656 496.697 108.24 494.617 108.24ZM491.017 105.096C491.913 105.928 493.113 106.344 494.617 106.344C496.121 106.344 497.321 105.928 498.217 105.096C499.113 104.264 499.561 103.232 499.561 102C499.561 100.768 499.113 99.736 498.217 98.904C497.321 98.072 496.121 97.656 494.617 97.656C493.113 97.656 491.913 98.072 491.017 98.904C490.137 99.736 489.697 100.768 489.697 102C489.697 103.232 490.137 104.264 491.017 105.096ZM506.687 108L502.895 96H505.031L507.935 105.6H508.103L511.367 96.864H513.743L516.983 105.6H517.127L520.055 96H522.191L518.375 108H515.903L512.639 99.12H512.471L509.159 108H506.687ZM533.476 91.2V108H531.268V91.2H533.476ZM554.695 90.96H556.807V108H555.055L554.839 106.176H554.671C553.615 107.552 552.023 108.24 549.895 108.24C547.927 108.24 546.335 107.672 545.119 106.536C543.919 105.384 543.319 103.864 543.319 101.976C543.319 100.088 543.927 98.584 545.143 97.464C546.375 96.328 547.959 95.76 549.895 95.76C552.007 95.76 553.607 96.432 554.695 97.776V90.96ZM546.727 105.168C547.591 105.952 548.727 106.344 550.135 106.344C551.543 106.344 552.655 105.952 553.471 105.168C554.287 104.368 554.695 103.304 554.695 101.976C554.695 100.664 554.287 99.616 553.471 98.832C552.655 98.048 551.543 97.656 550.135 97.656C548.727 97.656 547.591 98.056 546.727 98.856C545.879 99.64 545.455 100.68 545.455 101.976C545.455 103.304 545.879 104.368 546.727 105.168ZM566.664 108.24C564.568 108.24 562.864 107.656 561.552 106.488C560.256 105.304 559.608 103.808 559.608 102C559.608 100.176 560.256 98.68 561.552 97.512C562.864 96.344 564.568 95.76 566.664 95.76C568.744 95.76 570.44 96.352 571.752 97.536C573.064 98.704 573.72 100.192 573.72 102C573.72 103.808 573.064 105.304 571.752 106.488C570.44 107.656 568.744 108.24 566.664 108.24ZM563.064 105.096C563.96 105.928 565.16 106.344 566.664 106.344C568.168 106.344 569.368 105.928 570.264 105.096C571.16 104.264 571.608 103.232 571.608 102C571.608 100.768 571.16 99.736 570.264 98.904C569.368 98.072 568.168 97.656 566.664 97.656C565.16 97.656 563.96 98.072 563.064 98.904C562.184 99.736 561.744 100.768 561.744 102C561.744 103.232 562.184 104.264 563.064 105.096ZM576.563 108V96H578.483L578.675 97.656H578.843C579.867 96.392 581.315 95.76 583.187 95.76C584.787 95.76 586.067 96.2 587.027 97.08C587.987 97.944 588.467 99.192 588.467 100.824V108H586.331V101.328C586.331 100.08 586.003 99.16 585.347 98.568C584.691 97.96 583.803 97.656 582.683 97.656C581.515 97.656 580.555 97.984 579.803 98.64C579.051 99.28 578.675 100.256 578.675 101.568V108H576.563ZM593.428 93.936L593.044 97.32H591.988L591.604 93.936C591.492 93.072 591.436 92.528 591.436 92.304C591.436 91.92 591.532 91.624 591.724 91.416C591.916 91.192 592.172 91.08 592.492 91.08C592.828 91.08 593.092 91.192 593.284 91.416C593.492 91.624 593.596 91.92 593.596 92.304C593.596 92.528 593.54 93.072 593.428 93.936ZM601.547 108.24C600.443 108.24 599.619 107.968 599.075 107.424C598.531 106.88 598.259 106.128 598.259 105.168V97.728H595.355V96H596.483C597.203 96 597.707 95.864 597.995 95.592C598.283 95.32 598.427 94.84 598.427 94.152V92.64H600.371V96H603.827V97.728H600.371V104.784C600.371 105.92 600.963 106.488 602.147 106.488C602.579 106.488 603.019 106.432 603.467 106.32V107.976C602.875 108.152 602.235 108.24 601.547 108.24ZM617.845 108.24C616.069 108.24 614.685 107.904 613.693 107.232C612.717 106.544 612.173 105.576 612.061 104.328H614.173C614.429 105.832 615.653 106.584 617.845 106.584C619.877 106.584 620.893 106 620.893 104.832C620.893 103.84 619.981 103.16 618.157 102.792L616.237 102.48C615.725 102.368 615.277 102.248 614.893 102.12C614.509 101.976 614.125 101.784 613.741 101.544C613.357 101.288 613.061 100.968 612.853 100.584C612.645 100.2 612.541 99.744 612.541 99.216C612.541 98.144 612.997 97.304 613.909 96.696C614.821 96.072 615.997 95.76 617.437 95.76C619.053 95.76 620.301 96.088 621.181 96.744C622.061 97.384 622.573 98.208 622.717 99.216H620.581C620.309 98.016 619.269 97.416 617.461 97.416C616.613 97.416 615.933 97.56 615.421 97.848C614.909 98.12 614.653 98.544 614.653 99.12C614.653 99.408 614.709 99.656 614.821 99.864C614.949 100.056 615.157 100.224 615.445 100.368C615.733 100.496 615.989 100.6 616.213 100.68C616.453 100.744 616.789 100.824 617.221 100.92L619.141 101.256C621.701 101.752 622.981 102.936 622.981 104.808C622.981 105.976 622.501 106.84 621.541 107.4C620.597 107.96 619.365 108.24 617.845 108.24ZM638.196 101.736C638.196 101.88 638.18 102.144 638.148 102.528H627.204C627.284 103.728 627.74 104.688 628.572 105.408C629.404 106.128 630.54 106.488 631.98 106.488C634.124 106.488 635.468 105.824 636.012 104.496H638.1C637.796 105.664 637.1 106.584 636.012 107.256C634.94 107.912 633.596 108.24 631.98 108.24C629.884 108.24 628.212 107.68 626.964 106.56C625.716 105.44 625.092 103.952 625.092 102.096C625.092 100.192 625.716 98.664 626.964 97.512C628.212 96.344 629.828 95.76 631.812 95.76C633.636 95.76 635.148 96.28 636.348 97.32C637.564 98.36 638.18 99.832 638.196 101.736ZM631.812 97.512C630.516 97.512 629.468 97.832 628.668 98.472C627.868 99.112 627.396 99.936 627.252 100.944H636.084C636.036 99.904 635.628 99.072 634.86 98.448C634.108 97.824 633.092 97.512 631.812 97.512ZM653.595 101.736C653.595 101.88 653.579 102.144 653.547 102.528H642.603C642.683 103.728 643.139 104.688 643.971 105.408C644.803 106.128 645.939 106.488 647.379 106.488C649.523 106.488 650.867 105.824 651.411 104.496H653.499C653.195 105.664 652.499 106.584 651.411 107.256C650.339 107.912 648.995 108.24 647.379 108.24C645.283 108.24 643.611 107.68 642.363 106.56C641.115 105.44 640.491 103.952 640.491 102.096C640.491 100.192 641.115 98.664 642.363 97.512C643.611 96.344 645.227 95.76 647.211 95.76C649.035 95.76 650.547 96.28 651.747 97.32C652.963 98.36 653.579 99.832 653.595 101.736ZM647.211 97.512C645.915 97.512 644.867 97.832 644.067 98.472C643.267 99.112 642.795 99.936 642.651 100.944H651.483C651.435 99.904 651.027 99.072 650.259 98.448C649.507 97.824 648.491 97.512 647.211 97.512ZM187.256 133.512C187.608 133.512 187.96 133.44 188.312 133.296V134.856C187.784 135.032 187.288 135.12 186.824 135.12C185.208 135.12 184.256 134.456 183.968 133.128C182.96 134.536 181.232 135.24 178.784 135.24C177.344 135.24 176.192 134.952 175.328 134.376C174.464 133.784 174.032 132.912 174.032 131.76C174.032 130.672 174.416 129.832 175.184 129.24C175.952 128.632 176.992 128.28 178.304 128.184L183.68 127.776V127.248C183.68 126.368 183.376 125.688 182.768 125.208C182.176 124.728 181.312 124.488 180.176 124.488C178.192 124.488 177.04 125.256 176.72 126.792H174.584C174.744 125.56 175.312 124.584 176.288 123.864C177.264 123.128 178.56 122.76 180.176 122.76C181.872 122.76 183.232 123.152 184.256 123.936C185.296 124.72 185.816 125.832 185.816 127.272V132.072C185.816 133.032 186.296 133.512 187.256 133.512ZM183.68 130.176V129.312L178.88 129.672C177.056 129.832 176.144 130.504 176.144 131.688C176.144 132.936 177.096 133.56 179 133.56C180.264 133.56 181.36 133.288 182.288 132.744C183.216 132.184 183.68 131.328 183.68 130.176ZM195.938 135V117.96H198.05V135H195.938ZM207.93 135.24C205.834 135.24 204.13 134.656 202.818 133.488C201.522 132.304 200.874 130.808 200.874 129C200.874 127.176 201.522 125.68 202.818 124.512C204.13 123.344 205.834 122.76 207.93 122.76C210.01 122.76 211.706 123.352 213.018 124.536C214.33 125.704 214.986 127.192 214.986 129C214.986 130.808 214.33 132.304 213.018 133.488C211.706 134.656 210.01 135.24 207.93 135.24ZM204.33 132.096C205.226 132.928 206.426 133.344 207.93 133.344C209.434 133.344 210.634 132.928 211.53 132.096C212.426 131.264 212.874 130.232 212.874 129C212.874 127.768 212.426 126.736 211.53 125.904C210.634 125.072 209.434 124.656 207.93 124.656C206.426 124.656 205.226 125.072 204.33 125.904C203.45 126.736 203.01 127.768 203.01 129C203.01 130.232 203.45 131.264 204.33 132.096ZM222.281 135.24C221.177 135.24 220.353 134.968 219.809 134.424C219.265 133.88 218.993 133.128 218.993 132.168V124.728H216.089V123H217.217C217.937 123 218.441 122.864 218.729 122.592C219.017 122.32 219.161 121.84 219.161 121.152V119.64H221.105V123H224.561V124.728H221.105V131.784C221.105 132.92 221.697 133.488 222.881 133.488C223.313 133.488 223.753 133.432 224.201 133.32V134.976C223.609 135.152 222.969 135.24 222.281 135.24ZM239.851 135.24C237.755 135.24 236.051 134.656 234.739 133.488C233.443 132.304 232.795 130.808 232.795 129C232.795 127.176 233.443 125.68 234.739 124.512C236.051 123.344 237.755 122.76 239.851 122.76C241.931 122.76 243.627 123.352 244.939 124.536C246.251 125.704 246.907 127.192 246.907 129C246.907 130.808 246.251 132.304 244.939 133.488C243.627 134.656 241.931 135.24 239.851 135.24ZM236.251 132.096C237.147 132.928 238.347 133.344 239.851 133.344C241.355 133.344 242.555 132.928 243.451 132.096C244.347 131.264 244.795 130.232 244.795 129C244.795 127.768 244.347 126.736 243.451 125.904C242.555 125.072 241.355 124.656 239.851 124.656C238.347 124.656 237.147 125.072 236.251 125.904C235.371 126.736 234.931 127.768 234.931 129C234.931 130.232 235.371 131.264 236.251 132.096ZM256.386 123V124.728H252.978V135H250.842V124.728H248.058V123H250.842V121.2C250.842 120.16 251.162 119.36 251.802 118.8C252.442 118.24 253.29 117.96 254.346 117.96C255.05 117.96 255.714 118.088 256.338 118.344L255.93 119.952C255.562 119.808 255.146 119.736 254.682 119.736C253.546 119.736 252.978 120.288 252.978 121.392V123H256.386ZM271.773 135.24C269.677 135.24 267.973 134.656 266.661 133.488C265.365 132.304 264.717 130.808 264.717 129C264.717 127.176 265.365 125.68 266.661 124.512C267.973 123.344 269.677 122.76 271.773 122.76C273.853 122.76 275.549 123.352 276.861 124.536C278.173 125.704 278.829 127.192 278.829 129C278.829 130.808 278.173 132.304 276.861 133.488C275.549 134.656 273.853 135.24 271.773 135.24ZM268.173 132.096C269.069 132.928 270.269 133.344 271.773 133.344C273.277 133.344 274.477 132.928 275.373 132.096C276.269 131.264 276.717 130.232 276.717 129C276.717 127.768 276.269 126.736 275.373 125.904C274.477 125.072 273.277 124.656 271.773 124.656C270.269 124.656 269.069 125.072 268.173 125.904C267.293 126.736 266.853 127.768 266.853 129C266.853 130.232 267.293 131.264 268.173 132.096ZM288.585 122.76C290.553 122.76 292.137 123.336 293.337 124.488C294.553 125.624 295.161 127.136 295.161 129.024C295.161 130.912 294.545 132.424 293.313 133.56C292.097 134.68 290.521 135.24 288.585 135.24C286.473 135.24 284.873 134.568 283.785 133.224V139.8H281.673V123H283.425L283.641 124.824H283.809C284.865 123.448 286.457 122.76 288.585 122.76ZM285.009 132.168C285.825 132.952 286.937 133.344 288.345 133.344C289.753 133.344 290.881 132.952 291.729 132.168C292.593 131.368 293.025 130.32 293.025 129.024C293.025 127.696 292.593 126.64 291.729 125.856C290.881 125.056 289.753 124.656 288.345 124.656C286.937 124.656 285.825 125.056 285.009 125.856C284.193 126.64 283.785 127.696 283.785 129.024C283.785 130.336 284.193 131.384 285.009 132.168ZM304.897 122.76C306.865 122.76 308.449 123.336 309.649 124.488C310.865 125.624 311.473 127.136 311.473 129.024C311.473 130.912 310.857 132.424 309.625 133.56C308.409 134.68 306.833 135.24 304.897 135.24C302.785 135.24 301.185 134.568 300.097 133.224V139.8H297.985V123H299.737L299.953 124.824H300.121C301.177 123.448 302.769 122.76 304.897 122.76ZM301.321 132.168C302.137 132.952 303.249 133.344 304.657 133.344C306.065 133.344 307.193 132.952 308.041 132.168C308.905 131.368 309.337 130.32 309.337 129.024C309.337 127.696 308.905 126.64 308.041 125.856C307.193 125.056 306.065 124.656 304.657 124.656C303.249 124.656 302.137 125.056 301.321 125.856C300.505 126.64 300.097 127.696 300.097 129.024C300.097 130.336 300.505 131.384 301.321 132.168ZM320.781 135.24C318.685 135.24 316.981 134.656 315.669 133.488C314.373 132.304 313.725 130.808 313.725 129C313.725 127.176 314.373 125.68 315.669 124.512C316.981 123.344 318.685 122.76 320.781 122.76C322.861 122.76 324.557 123.352 325.869 124.536C327.181 125.704 327.837 127.192 327.837 129C327.837 130.808 327.181 132.304 325.869 133.488C324.557 134.656 322.861 135.24 320.781 135.24ZM317.181 132.096C318.077 132.928 319.277 133.344 320.781 133.344C322.285 133.344 323.485 132.928 324.381 132.096C325.277 131.264 325.725 130.232 325.725 129C325.725 127.768 325.277 126.736 324.381 125.904C323.485 125.072 322.285 124.656 320.781 124.656C319.277 124.656 318.077 125.072 317.181 125.904C316.301 126.736 315.861 127.768 315.861 129C315.861 130.232 316.301 131.264 317.181 132.096ZM330.681 135V123H332.577L332.793 124.704H332.961C333.393 124.08 333.905 123.6 334.497 123.264C335.105 122.928 335.905 122.76 336.897 122.76H337.761V124.92C337.473 124.872 337.057 124.848 336.513 124.848C335.425 124.848 334.529 125.2 333.825 125.904C333.137 126.608 332.793 127.592 332.793 128.856V135H330.681ZM345.422 135.24C344.318 135.24 343.494 134.968 342.95 134.424C342.406 133.88 342.134 133.128 342.134 132.168V124.728H339.23V123H340.358C341.078 123 341.582 122.864 341.87 122.592C342.158 122.32 342.302 121.84 342.302 121.152V119.64H344.246V123H347.702V124.728H344.246V131.784C344.246 132.92 344.838 133.488 346.022 133.488C346.454 133.488 346.894 133.432 347.342 133.32V134.976C346.75 135.152 346.11 135.24 345.422 135.24ZM361.803 123V135H359.883L359.691 133.344H359.523C358.499 134.608 357.051 135.24 355.179 135.24C353.579 135.24 352.299 134.808 351.339 133.944C350.379 133.064 349.899 131.808 349.899 130.176V123H352.035V129.672C352.035 130.92 352.363 131.848 353.019 132.456C353.675 133.048 354.563 133.344 355.683 133.344C356.851 133.344 357.811 133.024 358.563 132.384C359.315 131.728 359.691 130.744 359.691 129.432V123H361.803ZM365.227 135V123H367.147L367.339 124.656H367.507C368.531 123.392 369.979 122.76 371.851 122.76C373.451 122.76 374.731 123.2 375.691 124.08C376.651 124.944 377.131 126.192 377.131 127.824V135H374.995V128.328C374.995 127.08 374.667 126.16 374.011 125.568C373.355 124.96 372.467 124.656 371.347 124.656C370.179 124.656 369.219 124.984 368.467 125.64C367.715 126.28 367.339 127.256 367.339 128.568V135H365.227ZM382.549 120.672C382.277 120.944 381.949 121.08 381.565 121.08C381.181 121.08 380.845 120.944 380.557 120.672C380.285 120.4 380.149 120.072 380.149 119.688C380.149 119.304 380.285 118.976 380.557 118.704C380.845 118.432 381.181 118.296 381.565 118.296C381.949 118.296 382.277 118.432 382.549 118.704C382.821 118.96 382.957 119.288 382.957 119.688C382.957 120.072 382.821 120.4 382.549 120.672ZM380.509 135V123H382.621V135H380.509ZM390.891 135.24C389.787 135.24 388.963 134.968 388.419 134.424C387.875 133.88 387.603 133.128 387.603 132.168V124.728H384.699V123H385.827C386.547 123 387.051 122.864 387.339 122.592C387.627 122.32 387.771 121.84 387.771 121.152V119.64H389.715V123H393.171V124.728H389.715V131.784C389.715 132.92 390.307 133.488 391.491 133.488C391.923 133.488 392.363 133.432 392.811 133.32V134.976C392.219 135.152 391.579 135.24 390.891 135.24ZM397.455 120.672C397.183 120.944 396.855 121.08 396.471 121.08C396.087 121.08 395.751 120.944 395.463 120.672C395.191 120.4 395.055 120.072 395.055 119.688C395.055 119.304 395.191 118.976 395.463 118.704C395.751 118.432 396.087 118.296 396.471 118.296C396.855 118.296 397.183 118.432 397.455 118.704C397.727 118.96 397.863 119.288 397.863 119.688C397.863 120.072 397.727 120.4 397.455 120.672ZM395.415 135V123H397.527V135H395.415ZM413.454 128.736C413.454 128.88 413.438 129.144 413.406 129.528H402.462C402.542 130.728 402.998 131.688 403.83 132.408C404.662 133.128 405.798 133.488 407.238 133.488C409.382 133.488 410.726 132.824 411.27 131.496H413.358C413.054 132.664 412.358 133.584 411.27 134.256C410.198 134.912 408.854 135.24 407.238 135.24C405.142 135.24 403.47 134.68 402.222 133.56C400.974 132.44 400.35 130.952 400.35 129.096C400.35 127.192 400.974 125.664 402.222 124.512C403.47 123.344 405.086 122.76 407.07 122.76C408.894 122.76 410.406 123.28 411.606 124.32C412.822 125.36 413.438 126.832 413.454 128.736ZM407.07 124.512C405.774 124.512 404.726 124.832 403.926 125.472C403.126 126.112 402.654 126.936 402.51 127.944H411.342C411.294 126.904 410.886 126.072 410.118 125.448C409.366 124.824 408.35 124.512 407.07 124.512ZM421.509 135.24C419.733 135.24 418.349 134.904 417.357 134.232C416.381 133.544 415.837 132.576 415.725 131.328H417.837C418.093 132.832 419.317 133.584 421.509 133.584C423.541 133.584 424.557 133 424.557 131.832C424.557 130.84 423.645 130.16 421.821 129.792L419.901 129.48C419.389 129.368 418.941 129.248 418.557 129.12C418.173 128.976 417.789 128.784 417.405 128.544C417.021 128.288 416.725 127.968 416.517 127.584C416.309 127.2 416.205 126.744 416.205 126.216C416.205 125.144 416.661 124.304 417.573 123.696C418.485 123.072 419.661 122.76 421.101 122.76C422.717 122.76 423.965 123.088 424.845 123.744C425.725 124.384 426.237 125.208 426.381 126.216H424.245C423.973 125.016 422.933 124.416 421.125 124.416C420.277 124.416 419.597 124.56 419.085 124.848C418.573 125.12 418.317 125.544 418.317 126.12C418.317 126.408 418.373 126.656 418.485 126.864C418.613 127.056 418.821 127.224 419.109 127.368C419.397 127.496 419.653 127.6 419.877 127.68C420.117 127.744 420.453 127.824 420.885 127.92L422.805 128.256C425.365 128.752 426.645 129.936 426.645 131.808C426.645 132.976 426.165 133.84 425.205 134.4C424.261 134.96 423.029 135.24 421.509 135.24ZM443.183 123V124.728H439.775V135H437.639V124.728H434.855V123H437.639V121.2C437.639 120.16 437.959 119.36 438.599 118.8C439.239 118.24 440.087 117.96 441.143 117.96C441.847 117.96 442.511 118.088 443.135 118.344L442.727 119.952C442.359 119.808 441.943 119.736 441.479 119.736C440.343 119.736 439.775 120.288 439.775 121.392V123H443.183ZM451.375 135.24C449.279 135.24 447.575 134.656 446.263 133.488C444.967 132.304 444.319 130.808 444.319 129C444.319 127.176 444.967 125.68 446.263 124.512C447.575 123.344 449.279 122.76 451.375 122.76C453.455 122.76 455.151 123.352 456.463 124.536C457.775 125.704 458.431 127.192 458.431 129C458.431 130.808 457.775 132.304 456.463 133.488C455.151 134.656 453.455 135.24 451.375 135.24ZM447.775 132.096C448.671 132.928 449.871 133.344 451.375 133.344C452.879 133.344 454.079 132.928 454.975 132.096C455.871 131.264 456.319 130.232 456.319 129C456.319 127.768 455.871 126.736 454.975 125.904C454.079 125.072 452.879 124.656 451.375 124.656C449.871 124.656 448.671 125.072 447.775 125.904C446.895 126.736 446.455 127.768 446.455 129C446.455 130.232 446.895 131.264 447.775 132.096ZM461.274 135V123H463.17L463.386 124.704H463.554C463.986 124.08 464.498 123.6 465.09 123.264C465.698 122.928 466.498 122.76 467.49 122.76H468.354V124.92C468.066 124.872 467.65 124.848 467.106 124.848C466.018 124.848 465.122 125.2 464.418 125.904C463.73 126.608 463.386 127.592 463.386 128.856V135H461.274ZM481.969 135.24C480.865 135.24 480.041 134.968 479.497 134.424C478.953 133.88 478.681 133.128 478.681 132.168V124.728H475.777V123H476.905C477.625 123 478.129 122.864 478.417 122.592C478.705 122.32 478.849 121.84 478.849 121.152V119.64H480.793V123H484.249V124.728H480.793V131.784C480.793 132.92 481.385 133.488 482.569 133.488C483.001 133.488 483.441 133.432 483.889 133.32V134.976C483.297 135.152 482.657 135.24 481.969 135.24ZM493.117 122.76C494.717 122.76 495.997 123.2 496.957 124.08C497.917 124.944 498.397 126.192 498.397 127.824V135H496.261V128.328C496.261 127.08 495.933 126.16 495.277 125.568C494.621 124.96 493.733 124.656 492.613 124.656C491.445 124.656 490.485 124.984 489.733 125.64C488.981 126.28 488.605 127.256 488.605 128.568V135H486.493V117.96H488.605V124.656H488.773C489.797 123.392 491.245 122.76 493.117 122.76ZM514.084 133.368H514.468V135H513.436C512.124 135 511.34 134.408 511.084 133.224C510.028 134.568 508.324 135.24 505.972 135.24C504.532 135.24 503.38 134.952 502.516 134.376C501.652 133.784 501.22 132.912 501.22 131.76C501.22 130.672 501.604 129.832 502.372 129.24C503.14 128.632 504.18 128.28 505.492 128.184L510.868 127.776V127.248C510.868 126.368 510.564 125.688 509.956 125.208C509.364 124.728 508.5 124.488 507.364 124.488C505.38 124.488 504.228 125.256 503.908 126.792H501.771C501.932 125.56 502.5 124.584 503.476 123.864C504.452 123.128 505.748 122.76 507.364 122.76C509.06 122.76 510.42 123.152 511.444 123.936C512.484 124.72 513.004 125.832 513.004 127.272V132.192C513.004 132.608 513.092 132.904 513.268 133.08C513.444 133.256 513.716 133.352 514.084 133.368ZM510.868 130.176V129.312L506.068 129.672C504.244 129.832 503.332 130.504 503.332 131.688C503.332 132.936 504.284 133.56 506.188 133.56C507.452 133.56 508.548 133.288 509.476 132.744C510.404 132.184 510.868 131.328 510.868 130.176ZM521.016 135.24C519.912 135.24 519.088 134.968 518.544 134.424C518 133.88 517.728 133.128 517.728 132.168V124.728H514.824V123H515.952C516.672 123 517.176 122.864 517.464 122.592C517.752 122.32 517.896 121.84 517.896 121.152V119.64H519.84V123H523.296V124.728H519.84V131.784C519.84 132.92 520.432 133.488 521.616 133.488C522.048 133.488 522.488 133.432 522.936 133.32V134.976C522.344 135.152 521.704 135.24 521.016 135.24ZM536.93 135.24C535.826 135.24 535.002 134.968 534.458 134.424C533.914 133.88 533.642 133.128 533.642 132.168V124.728H530.738V123H531.866C532.586 123 533.09 122.864 533.378 122.592C533.666 122.32 533.81 121.84 533.81 121.152V119.64H535.754V123H539.21V124.728H535.754V131.784C535.754 132.92 536.346 133.488 537.53 133.488C537.962 133.488 538.402 133.432 538.85 133.32V134.976C538.258 135.152 537.618 135.24 536.93 135.24ZM547.398 135.24C545.302 135.24 543.598 134.656 542.286 133.488C540.99 132.304 540.342 130.808 540.342 129C540.342 127.176 540.99 125.68 542.286 124.512C543.598 123.344 545.302 122.76 547.398 122.76C549.478 122.76 551.174 123.352 552.486 124.536C553.798 125.704 554.454 127.192 554.454 129C554.454 130.808 553.798 132.304 552.486 133.488C551.174 134.656 549.478 135.24 547.398 135.24ZM543.798 132.096C544.694 132.928 545.894 133.344 547.398 133.344C548.902 133.344 550.102 132.928 550.998 132.096C551.894 131.264 552.342 130.232 552.342 129C552.342 127.768 551.894 126.736 550.998 125.904C550.102 125.072 548.902 124.656 547.398 124.656C545.894 124.656 544.694 125.072 543.798 125.904C542.918 126.736 542.478 127.768 542.478 129C542.478 130.232 542.918 131.264 543.798 132.096ZM570.531 122.76C572.131 122.76 573.411 123.2 574.371 124.08C575.331 124.944 575.811 126.192 575.811 127.824V135H573.675V128.328C573.675 127.08 573.347 126.16 572.691 125.568C572.035 124.96 571.147 124.656 570.027 124.656C568.859 124.656 567.899 124.984 567.147 125.64C566.395 126.28 566.019 127.256 566.019 128.568V135H563.907V117.96H566.019V124.656H566.187C567.211 123.392 568.659 122.76 570.531 122.76ZM591.498 133.368H591.882V135H590.85C589.538 135 588.754 134.408 588.498 133.224C587.442 134.568 585.738 135.24 583.386 135.24C581.946 135.24 580.794 134.952 579.93 134.376C579.066 133.784 578.634 132.912 578.634 131.76C578.634 130.672 579.018 129.832 579.786 129.24C580.554 128.632 581.594 128.28 582.906 128.184L588.282 127.776V127.248C588.282 126.368 587.978 125.688 587.37 125.208C586.778 124.728 585.914 124.488 584.778 124.488C582.794 124.488 581.642 125.256 581.322 126.792H579.186C579.346 125.56 579.914 124.584 580.89 123.864C581.866 123.128 583.162 122.76 584.778 122.76C586.474 122.76 587.834 123.152 588.858 123.936C589.898 124.72 590.418 125.832 590.418 127.272V132.192C590.418 132.608 590.506 132.904 590.682 133.08C590.858 133.256 591.13 133.352 591.498 133.368ZM588.282 130.176V129.312L583.482 129.672C581.658 129.832 580.746 130.504 580.746 131.688C580.746 132.936 581.698 133.56 583.602 133.56C584.866 133.56 585.962 133.288 586.89 132.744C587.818 132.184 588.282 131.328 588.282 130.176ZM601.007 122.76C602.975 122.76 604.559 123.336 605.759 124.488C606.975 125.624 607.583 127.136 607.583 129.024C607.583 130.912 606.967 132.424 605.735 133.56C604.519 134.68 602.943 135.24 601.007 135.24C598.895 135.24 597.295 134.568 596.207 133.224V139.8H594.095V123H595.847L596.063 124.824H596.231C597.287 123.448 598.879 122.76 601.007 122.76ZM597.431 132.168C598.247 132.952 599.359 133.344 600.767 133.344C602.175 133.344 603.303 132.952 604.151 132.168C605.015 131.368 605.447 130.32 605.447 129.024C605.447 127.696 605.015 126.64 604.151 125.856C603.303 125.056 602.175 124.656 600.767 124.656C599.359 124.656 598.247 125.056 597.431 125.856C596.615 126.64 596.207 127.696 596.207 129.024C596.207 130.336 596.615 131.384 597.431 132.168ZM617.319 122.76C619.287 122.76 620.871 123.336 622.071 124.488C623.287 125.624 623.895 127.136 623.895 129.024C623.895 130.912 623.279 132.424 622.047 133.56C620.831 134.68 619.255 135.24 617.319 135.24C615.207 135.24 613.607 134.568 612.519 133.224V139.8H610.407V123H612.159L612.375 124.824H612.543C613.599 123.448 615.191 122.76 617.319 122.76ZM613.743 132.168C614.559 132.952 615.671 133.344 617.079 133.344C618.487 133.344 619.615 132.952 620.463 132.168C621.327 131.368 621.759 130.32 621.759 129.024C621.759 127.696 621.327 126.64 620.463 125.856C619.615 125.056 618.487 124.656 617.079 124.656C615.671 124.656 614.559 125.056 613.743 125.856C612.927 126.64 612.519 127.696 612.519 129.024C612.519 130.336 612.927 131.384 613.743 132.168ZM639.251 128.736C639.251 128.88 639.235 129.144 639.203 129.528H628.259C628.339 130.728 628.795 131.688 629.627 132.408C630.459 133.128 631.595 133.488 633.035 133.488C635.179 133.488 636.523 132.824 637.067 131.496H639.155C638.851 132.664 638.155 133.584 637.067 134.256C635.995 134.912 634.651 135.24 633.035 135.24C630.939 135.24 629.267 134.68 628.019 133.56C626.771 132.44 626.147 130.952 626.147 129.096C626.147 127.192 626.771 125.664 628.019 124.512C629.267 123.344 630.883 122.76 632.867 122.76C634.691 122.76 636.203 123.28 637.403 124.32C638.619 125.36 639.235 126.832 639.251 128.736ZM632.867 124.512C631.571 124.512 630.523 124.832 629.723 125.472C628.923 126.112 628.451 126.936 628.307 127.944H637.139C637.091 126.904 636.683 126.072 635.915 125.448C635.163 124.824 634.147 124.512 632.867 124.512ZM642.188 135V123H644.108L644.3 124.656H644.468C645.492 123.392 646.94 122.76 648.812 122.76C650.412 122.76 651.692 123.2 652.652 124.08C653.612 124.944 654.092 126.192 654.092 127.824V135H651.956V128.328C651.956 127.08 651.628 126.16 650.972 125.568C650.316 124.96 649.428 124.656 648.308 124.656C647.14 124.656 646.18 124.984 645.428 125.64C644.676 126.28 644.3 127.256 644.3 128.568V135H642.188ZM186.896 160.368H187.28V162H186.248C184.936 162 184.152 161.408 183.896 160.224C182.84 161.568 181.136 162.24 178.784 162.24C177.344 162.24 176.192 161.952 175.328 161.376C174.464 160.784 174.032 159.912 174.032 158.76C174.032 157.672 174.416 156.832 175.184 156.24C175.952 155.632 176.992 155.28 178.304 155.184L183.68 154.776V154.248C183.68 153.368 183.376 152.688 182.768 152.208C182.176 151.728 181.312 151.488 180.176 151.488C178.192 151.488 177.04 152.256 176.72 153.792H174.584C174.744 152.56 175.312 151.584 176.288 150.864C177.264 150.128 178.56 149.76 180.176 149.76C181.872 149.76 183.232 150.152 184.256 150.936C185.296 151.72 185.816 152.832 185.816 154.272V159.192C185.816 159.608 185.904 159.904 186.08 160.08C186.256 160.256 186.528 160.352 186.896 160.368ZM183.68 157.176V156.312L178.88 156.672C177.056 156.832 176.144 157.504 176.144 158.688C176.144 159.936 177.096 160.56 179 160.56C180.264 160.56 181.36 160.288 182.288 159.744C183.216 159.184 183.68 158.328 183.68 157.176ZM189.493 162V150H191.413L191.605 151.656H191.773C192.797 150.392 194.245 149.76 196.117 149.76C197.717 149.76 198.997 150.2 199.957 151.08C200.917 151.944 201.397 153.192 201.397 154.824V162H199.261V155.328C199.261 154.08 198.933 153.16 198.277 152.568C197.621 151.96 196.733 151.656 195.613 151.656C194.445 151.656 193.485 151.984 192.733 152.64C191.981 153.28 191.605 154.256 191.605 155.568V162H189.493ZM206.041 167.04C205.513 167.04 204.897 166.952 204.193 166.776V165.144C204.705 165.272 205.177 165.336 205.609 165.336C206.921 165.336 207.881 164.704 208.489 163.44L209.185 162H208.417L202.801 150H205.129L209.737 159.912H209.905L214.273 150H216.577L210.529 163.776C210.337 164.192 210.161 164.528 210.001 164.784C209.857 165.04 209.609 165.368 209.257 165.768C208.905 166.184 208.457 166.496 207.913 166.704C207.369 166.928 206.745 167.04 206.041 167.04ZM218.673 162V150H220.593L220.785 151.512H220.953C221.849 150.344 223.089 149.76 224.673 149.76C225.681 149.76 226.497 149.976 227.121 150.408C227.745 150.84 228.193 151.352 228.465 151.944H228.633C229.545 150.488 230.937 149.76 232.809 149.76C234.185 149.76 235.281 150.136 236.097 150.888C236.913 151.624 237.321 152.728 237.321 154.2V162H235.209V154.608C235.209 153.616 234.929 152.872 234.369 152.376C233.825 151.88 233.129 151.632 232.281 151.632C231.337 151.632 230.561 151.928 229.953 152.52C229.361 153.112 229.065 153.936 229.065 154.992V162H226.929V154.776C226.929 153.752 226.649 152.976 226.089 152.448C225.545 151.904 224.849 151.632 224.001 151.632C223.137 151.632 222.385 151.912 221.745 152.472C221.105 153.016 220.785 153.832 220.785 154.92V162H218.673ZM247.164 162.24C245.068 162.24 243.364 161.656 242.052 160.488C240.756 159.304 240.108 157.808 240.108 156C240.108 154.176 240.756 152.68 242.052 151.512C243.364 150.344 245.068 149.76 247.164 149.76C249.244 149.76 250.94 150.352 252.252 151.536C253.564 152.704 254.22 154.192 254.22 156C254.22 157.808 253.564 159.304 252.252 160.488C250.94 161.656 249.244 162.24 247.164 162.24ZM243.564 159.096C244.46 159.928 245.66 160.344 247.164 160.344C248.668 160.344 249.868 159.928 250.764 159.096C251.66 158.264 252.108 157.232 252.108 156C252.108 154.768 251.66 153.736 250.764 152.904C249.868 152.072 248.668 151.656 247.164 151.656C245.66 151.656 244.46 152.072 243.564 152.904C242.684 153.736 242.244 154.768 242.244 156C242.244 157.232 242.684 158.264 243.564 159.096ZM257.063 162V150H258.959L259.175 151.704H259.343C259.775 151.08 260.287 150.6 260.879 150.264C261.487 149.928 262.287 149.76 263.279 149.76H264.143V151.92C263.855 151.872 263.439 151.848 262.895 151.848C261.807 151.848 260.911 152.2 260.207 152.904C259.519 153.608 259.175 154.592 259.175 155.856V162H257.063ZM278.314 155.736C278.314 155.88 278.298 156.144 278.266 156.528H267.322C267.402 157.728 267.858 158.688 268.69 159.408C269.522 160.128 270.658 160.488 272.098 160.488C274.242 160.488 275.586 159.824 276.13 158.496H278.218C277.914 159.664 277.218 160.584 276.13 161.256C275.058 161.912 273.714 162.24 272.098 162.24C270.002 162.24 268.33 161.68 267.082 160.56C265.834 159.44 265.21 157.952 265.21 156.096C265.21 154.192 265.834 152.664 267.082 151.512C268.33 150.344 269.946 149.76 271.93 149.76C273.754 149.76 275.266 150.28 276.466 151.32C277.682 152.36 278.298 153.832 278.314 155.736ZM271.93 151.512C270.634 151.512 269.586 151.832 268.786 152.472C267.986 153.112 267.514 153.936 267.37 154.944H276.202C276.154 153.904 275.746 153.072 274.978 152.448C274.226 151.824 273.21 151.512 271.93 151.512ZM283.342 161.712C283.07 161.984 282.734 162.12 282.334 162.12C281.934 162.12 281.59 161.984 281.302 161.712C281.03 161.424 280.894 161.088 280.894 160.704C280.894 160.288 281.03 159.944 281.302 159.672C281.59 159.384 281.934 159.24 282.334 159.24C282.734 159.24 283.07 159.384 283.342 159.672C283.63 159.944 283.774 160.288 283.774 160.704C283.774 161.088 283.63 161.424 283.342 161.712Z" fill="#F5F7F9"/>
<path d="M309.144 159.408C308.824 159.408 308.52 159.355 308.232 159.248C307.955 159.131 307.603 158.955 307.176 158.72C306.845 158.539 306.584 158.405 306.392 158.32C306.211 158.235 306.029 158.192 305.848 158.192C305.4 158.192 305.171 158.565 305.16 159.312H304.248C304.248 158.619 304.408 158.101 304.728 157.76C305.059 157.419 305.464 157.248 305.944 157.248C306.243 157.248 306.525 157.307 306.792 157.424C307.069 157.531 307.411 157.696 307.816 157.92C308.125 158.101 308.376 158.235 308.568 158.32C308.76 158.405 308.947 158.448 309.128 158.448C309.544 158.448 309.763 158.075 309.784 157.328H310.68C310.68 158.011 310.547 158.528 310.28 158.88C310.024 159.232 309.645 159.408 309.144 159.408ZM315.153 162.192L312.977 157.28C312.838 156.971 312.694 156.736 312.545 156.576C312.406 156.405 312.284 156.293 312.177 156.24C312.07 156.187 312.017 156.165 312.017 156.176H314.433C314.412 156.176 314.364 156.192 314.289 156.224C314.214 156.245 314.14 156.299 314.065 156.384C314.001 156.459 313.969 156.571 313.969 156.72C313.969 156.901 314.022 157.104 314.129 157.328L315.393 160.224L316.577 157.488C316.652 157.296 316.689 157.099 316.689 156.896C316.689 156.704 316.646 156.544 316.561 156.416C316.486 156.288 316.358 156.208 316.177 156.176H318.305C318.305 156.165 318.246 156.187 318.129 156.24C318.022 156.293 317.894 156.411 317.745 156.592C317.606 156.763 317.462 157.013 317.313 157.344L315.153 162.192ZM319.639 157.984C319.639 157.536 319.565 157.232 319.415 157.072C319.277 156.901 319.117 156.816 318.935 156.816L320.663 156.048V160.4C320.663 160.869 320.711 161.221 320.807 161.456C320.903 161.691 321.01 161.851 321.127 161.936C321.245 162.011 321.303 162.032 321.303 162H318.999C318.999 162.032 319.058 162.011 319.175 161.936C319.293 161.851 319.399 161.691 319.495 161.456C319.591 161.221 319.639 160.869 319.639 160.4V157.984ZM320.135 154.112C319.901 154.112 319.714 154.037 319.575 153.888C319.447 153.728 319.383 153.547 319.383 153.344C319.383 153.141 319.447 152.965 319.575 152.816C319.714 152.656 319.901 152.576 320.135 152.576C320.37 152.576 320.551 152.656 320.679 152.816C320.818 152.965 320.887 153.141 320.887 153.344C320.887 153.547 320.818 153.728 320.679 153.888C320.551 154.037 320.37 154.112 320.135 154.112ZM327.394 162.192C327.052 162.181 326.764 162.091 326.53 161.92C326.295 161.749 326.162 161.552 326.13 161.328C325.938 161.605 325.682 161.819 325.362 161.968C325.052 162.117 324.743 162.192 324.434 162.192C323.943 162.192 323.532 162.053 323.202 161.776C322.871 161.488 322.706 161.115 322.706 160.656C322.706 159.472 323.815 158.88 326.034 158.88V158.704C326.034 158.117 325.948 157.685 325.778 157.408C325.543 157.013 325.159 156.816 324.626 156.816C324.21 156.816 323.863 156.939 323.586 157.184C323.319 157.429 323.186 157.749 323.186 158.144C323.122 158.037 323.068 157.941 323.026 157.856C322.994 157.771 322.978 157.653 322.978 157.504C322.978 157.12 323.159 156.784 323.522 156.496C323.884 156.197 324.359 156.048 324.946 156.048C325.778 156.048 326.37 156.325 326.722 156.88C326.839 157.051 326.924 157.264 326.978 157.52C327.031 157.776 327.058 158.112 327.058 158.528V160.432C327.058 160.763 327.148 161.019 327.33 161.2C327.522 161.381 327.788 161.472 328.13 161.472H328.338L327.394 162.192ZM326.034 159.36C325.18 159.36 324.604 159.467 324.306 159.68C324.007 159.893 323.858 160.181 323.858 160.544C323.858 160.843 323.938 161.077 324.098 161.248C324.258 161.419 324.471 161.504 324.738 161.504C324.94 161.504 325.132 161.456 325.314 161.36C325.495 161.264 325.65 161.131 325.778 160.96C325.948 160.736 326.034 160.432 326.034 160.048V159.36ZM333.718 157.984C333.718 157.536 333.643 157.232 333.493 157.072C333.355 156.901 333.195 156.816 333.014 156.816L334.742 156.048V160.4C334.742 160.869 334.79 161.221 334.886 161.456C334.982 161.691 335.088 161.851 335.206 161.936C335.323 162.011 335.382 162.032 335.382 162H333.078C333.078 162.032 333.136 162.011 333.254 161.936C333.371 161.851 333.478 161.691 333.574 161.456C333.67 161.221 333.718 160.869 333.718 160.4V157.984ZM334.214 154.112C333.979 154.112 333.792 154.037 333.654 153.888C333.526 153.728 333.462 153.547 333.462 153.344C333.462 153.141 333.526 152.965 333.654 152.816C333.792 152.656 333.979 152.576 334.214 152.576C334.448 152.576 334.63 152.656 334.758 152.816C334.896 152.965 334.966 153.141 334.966 153.344C334.966 153.547 334.896 153.728 334.758 153.888C334.63 154.037 334.448 154.112 334.214 154.112ZM338.32 157.136C338.565 156.805 338.853 156.544 339.184 156.352C339.525 156.149 339.882 156.048 340.256 156.048C340.832 156.048 341.29 156.235 341.632 156.608C341.984 156.971 342.16 157.499 342.16 158.192V160.416C342.16 160.864 342.208 161.205 342.304 161.44C342.4 161.675 342.506 161.835 342.624 161.92C342.741 162.005 342.8 162.032 342.8 162H340.496C340.496 162.032 340.554 162.011 340.672 161.936C340.789 161.851 340.896 161.691 340.992 161.456C341.088 161.221 341.136 160.869 341.136 160.4V158.576C341.136 158.213 341.088 157.925 340.992 157.712C340.896 157.499 340.768 157.323 340.608 157.184C340.362 156.981 340.069 156.88 339.728 156.88C339.344 156.88 339.013 157.008 338.736 157.264C338.458 157.509 338.32 157.856 338.32 158.304V160.4C338.32 160.859 338.368 161.205 338.464 161.44C338.56 161.675 338.666 161.835 338.784 161.92C338.912 162.005 338.976 162.032 338.976 162H336.672C336.672 162.032 336.73 162.011 336.848 161.936C336.965 161.851 337.066 161.691 337.152 161.456C337.248 161.211 337.296 160.859 337.296 160.4V157.984C337.296 157.536 337.221 157.232 337.072 157.072C336.933 156.901 336.773 156.816 336.592 156.816L338.32 156.048V157.136ZM348.558 152.16C348.558 151.712 348.483 151.408 348.334 151.248C348.195 151.077 348.035 150.992 347.854 150.992H347.758L349.582 150.16V160.192C349.582 160.64 349.651 160.949 349.79 161.12C349.939 161.28 350.104 161.36 350.286 161.36H350.382L348.558 162.192V161.152C348.43 161.365 348.195 161.595 347.854 161.84C347.523 162.075 347.086 162.192 346.542 162.192C346.072 162.192 345.651 162.075 345.278 161.84C344.904 161.605 344.611 161.28 344.398 160.864C344.184 160.448 344.078 159.984 344.078 159.472C344.078 158.821 344.211 158.245 344.478 157.744C344.744 157.243 345.091 156.843 345.518 156.544C345.998 156.213 346.52 156.048 347.086 156.048C347.459 156.048 347.768 156.101 348.014 156.208C348.259 156.304 348.44 156.395 348.558 156.48V152.16ZM345.23 158.992C345.23 159.664 345.384 160.251 345.694 160.752C346.014 161.243 346.472 161.488 347.07 161.488C347.294 161.488 347.523 161.429 347.758 161.312C347.992 161.184 348.184 161.013 348.334 160.8C348.483 160.587 348.558 160.347 348.558 160.08V158.192C348.558 157.851 348.515 157.573 348.43 157.36C348.355 157.147 348.232 156.987 348.062 156.88C347.795 156.709 347.47 156.624 347.086 156.624C346.552 156.624 346.11 156.843 345.758 157.28C345.406 157.707 345.23 158.277 345.23 158.992ZM352.139 157.984C352.139 157.536 352.065 157.232 351.915 157.072C351.777 156.901 351.617 156.816 351.435 156.816L353.163 156.048V160.4C353.163 160.869 353.211 161.221 353.307 161.456C353.403 161.691 353.51 161.851 353.627 161.936C353.745 162.011 353.803 162.032 353.803 162H351.499C351.499 162.032 351.558 162.011 351.675 161.936C351.793 161.851 351.899 161.691 351.995 161.456C352.091 161.221 352.139 160.869 352.139 160.4V157.984ZM352.635 154.112C352.401 154.112 352.214 154.037 352.075 153.888C351.947 153.728 351.883 153.547 351.883 153.344C351.883 153.141 351.947 152.965 352.075 152.816C352.214 152.656 352.401 152.576 352.635 152.576C352.87 152.576 353.051 152.656 353.179 152.816C353.318 152.965 353.387 153.141 353.387 153.344C353.387 153.547 353.318 153.728 353.179 153.888C353.051 154.037 352.87 154.112 352.635 154.112ZM357.846 162.192C357.27 162.192 356.774 162.053 356.358 161.776C355.942 161.488 355.622 161.12 355.398 160.672C355.184 160.213 355.078 159.728 355.078 159.216C355.078 158.555 355.206 157.984 355.462 157.504C355.728 157.024 356.07 156.661 356.486 156.416C356.902 156.171 357.334 156.048 357.782 156.048C358.422 156.048 358.971 156.283 359.43 156.752C359.899 157.211 360.155 157.851 360.198 158.672H356.038C356.038 159.184 356.134 159.637 356.326 160.032C356.518 160.416 356.774 160.715 357.094 160.928C357.424 161.131 357.782 161.232 358.166 161.232C359.168 161.232 359.846 160.912 360.198 160.272C360.102 160.848 359.84 161.312 359.414 161.664C358.987 162.016 358.464 162.192 357.846 162.192ZM357.67 156.576C357.254 156.576 356.896 156.725 356.598 157.024C356.299 157.312 356.118 157.691 356.054 158.16H358.966C358.966 157.669 358.832 157.285 358.566 157.008C358.31 156.72 358.011 156.576 357.67 156.576ZM369.132 157.504C369.206 157.312 369.244 157.115 369.244 156.912C369.244 156.72 369.201 156.56 369.116 156.432C369.041 156.304 368.913 156.224 368.732 156.192H370.876C370.758 156.213 370.604 156.304 370.412 156.464C370.23 156.624 370.049 156.923 369.868 157.36L367.82 162.208L365.852 158.064L363.964 162.192L361.836 157.28C361.654 156.875 361.478 156.597 361.308 156.448C361.148 156.288 361.02 156.197 360.924 156.176H363.26C362.982 156.229 362.844 156.411 362.844 156.72C362.844 156.891 362.892 157.093 362.988 157.328L364.204 160.288L366.108 156.048L368.06 160.304L369.132 157.504ZM372.233 157.984C372.233 157.536 372.158 157.232 372.009 157.072C371.87 156.901 371.71 156.816 371.529 156.816L373.257 156.048V160.4C373.257 160.869 373.305 161.221 373.401 161.456C373.497 161.691 373.604 161.851 373.721 161.936C373.838 162.011 373.897 162.032 373.897 162H371.593C371.593 162.032 371.652 162.011 371.769 161.936C371.886 161.851 371.993 161.691 372.089 161.456C372.185 161.221 372.233 160.869 372.233 160.4V157.984ZM372.729 154.112C372.494 154.112 372.308 154.037 372.169 153.888C372.041 153.728 371.977 153.547 371.977 153.344C371.977 153.141 372.041 152.965 372.169 152.816C372.308 152.656 372.494 152.576 372.729 152.576C372.964 152.576 373.145 152.656 373.273 152.816C373.412 152.965 373.481 153.141 373.481 153.344C373.481 153.547 373.412 153.728 373.273 153.888C373.145 154.037 372.964 154.112 372.729 154.112ZM376.835 157.504C376.995 157.163 377.257 156.837 377.619 156.528C377.993 156.208 378.366 156.048 378.739 156.048C378.974 156.048 379.15 156.08 379.267 156.144V157.456C379.033 157.168 378.702 157.024 378.275 157.024C377.827 157.024 377.475 157.221 377.219 157.616C376.963 158 376.835 158.496 376.835 159.104V160.4C376.835 160.997 376.905 161.408 377.043 161.632C377.182 161.856 377.315 161.979 377.443 162H375.187C375.315 161.979 375.449 161.861 375.587 161.648C375.737 161.424 375.811 161.008 375.811 160.4V157.984C375.811 157.536 375.737 157.232 375.587 157.072C375.449 156.901 375.289 156.816 375.107 156.816L376.835 156.048V157.504ZM383.064 162.192C382.488 162.192 381.992 162.053 381.576 161.776C381.16 161.488 380.84 161.12 380.616 160.672C380.403 160.213 380.296 159.728 380.296 159.216C380.296 158.555 380.424 157.984 380.68 157.504C380.947 157.024 381.288 156.661 381.704 156.416C382.12 156.171 382.552 156.048 383 156.048C383.64 156.048 384.19 156.283 384.648 156.752C385.118 157.211 385.374 157.851 385.416 158.672H381.256C381.256 159.184 381.352 159.637 381.544 160.032C381.736 160.416 381.992 160.715 382.312 160.928C382.643 161.131 383 161.232 383.384 161.232C384.387 161.232 385.064 160.912 385.416 160.272C385.32 160.848 385.059 161.312 384.632 161.664C384.206 162.016 383.683 162.192 383.064 162.192ZM382.888 156.576C382.472 156.576 382.115 156.725 381.816 157.024C381.518 157.312 381.336 157.691 381.272 158.16H384.184C384.184 157.669 384.051 157.285 383.784 157.008C383.528 156.72 383.23 156.576 382.888 156.576ZM388.111 162.16C387.897 162.16 387.705 162.091 387.535 161.952C387.375 161.803 387.295 161.6 387.295 161.344C387.295 161.088 387.375 160.891 387.535 160.752C387.695 160.613 387.887 160.544 388.111 160.544C388.335 160.544 388.527 160.613 388.687 160.752C388.847 160.891 388.927 161.088 388.927 161.344C388.927 161.6 388.841 161.803 388.671 161.952C388.511 162.091 388.324 162.16 388.111 162.16ZM393.628 162.192C393.052 162.192 392.546 162.053 392.108 161.776C391.682 161.499 391.356 161.131 391.132 160.672C390.908 160.213 390.796 159.728 390.796 159.216C390.796 158.683 390.908 158.176 391.132 157.696C391.367 157.205 391.703 156.811 392.14 156.512C392.578 156.203 393.095 156.048 393.692 156.048C394.407 156.048 394.924 156.203 395.244 156.512C395.564 156.821 395.788 157.147 395.916 157.488L394.86 158C394.796 157.616 394.636 157.291 394.38 157.024C394.135 156.757 393.831 156.624 393.468 156.624C392.946 156.624 392.54 156.827 392.252 157.232C391.964 157.637 391.82 158.133 391.82 158.72C391.82 159.136 391.911 159.541 392.092 159.936C392.284 160.32 392.551 160.635 392.892 160.88C393.244 161.125 393.655 161.248 394.124 161.248C394.508 161.248 394.871 161.163 395.212 160.992C395.564 160.811 395.842 160.571 396.044 160.272C395.927 160.869 395.65 161.339 395.212 161.68C394.775 162.021 394.247 162.192 393.628 162.192ZM397.203 159.264C397.203 158.709 397.336 158.187 397.603 157.696C397.88 157.195 398.259 156.795 398.739 156.496C399.219 156.197 399.752 156.048 400.339 156.048C400.904 156.048 401.416 156.181 401.875 156.448C402.333 156.704 402.691 157.056 402.947 157.504C403.213 157.952 403.347 158.443 403.347 158.976C403.347 159.531 403.208 160.059 402.931 160.56C402.664 161.051 402.291 161.445 401.811 161.744C401.331 162.043 400.797 162.192 400.211 162.192C399.645 162.192 399.133 162.064 398.674 161.808C398.216 161.541 397.853 161.184 397.587 160.736C397.331 160.288 397.203 159.797 397.203 159.264ZM402.195 159.44C402.195 158.992 402.109 158.549 401.939 158.112C401.768 157.675 401.528 157.317 401.219 157.04C400.909 156.763 400.552 156.624 400.147 156.624C399.581 156.624 399.139 156.837 398.819 157.264C398.509 157.691 398.355 158.203 398.355 158.8C398.355 159.248 398.44 159.691 398.611 160.128C398.781 160.565 399.021 160.923 399.331 161.2C399.64 161.477 399.997 161.616 400.403 161.616C400.968 161.616 401.405 161.403 401.715 160.976C402.035 160.549 402.195 160.037 402.195 159.44ZM406.288 157.136C406.555 156.805 406.854 156.544 407.184 156.352C407.515 156.149 407.862 156.048 408.224 156.048C408.619 156.048 408.966 156.144 409.264 156.336C409.574 156.517 409.798 156.784 409.936 157.136C410.224 156.773 410.55 156.501 410.912 156.32C411.286 156.139 411.67 156.048 412.064 156.048C412.64 156.048 413.099 156.235 413.44 156.608C413.792 156.971 413.968 157.499 413.968 158.192V160.416C413.968 161.003 414.043 161.408 414.192 161.632C414.342 161.856 414.475 161.979 414.592 162H412.32C412.448 161.979 412.582 161.856 412.72 161.632C412.87 161.408 412.944 160.997 412.944 160.4V158.576C412.944 158.213 412.896 157.925 412.8 157.712C412.704 157.499 412.576 157.323 412.416 157.184C412.171 156.981 411.878 156.88 411.536 156.88C411.163 156.88 410.832 157.008 410.544 157.264C410.267 157.509 410.128 157.856 410.128 158.304V160.4C410.128 160.997 410.198 161.408 410.336 161.632C410.486 161.856 410.624 161.979 410.752 162H408.48C408.608 161.979 408.742 161.856 408.88 161.632C409.03 161.408 409.104 160.997 409.104 160.4V158.576C409.104 158.213 409.056 157.925 408.96 157.712C408.864 157.499 408.736 157.323 408.576 157.184C408.331 156.981 408.038 156.88 407.696 156.88C407.312 156.88 406.982 157.008 406.704 157.264C406.427 157.509 406.288 157.856 406.288 158.304V160.4C406.288 161.008 406.363 161.424 406.512 161.648C406.662 161.861 406.8 161.979 406.928 162H404.656C404.784 161.979 404.918 161.856 405.056 161.632C405.195 161.408 405.264 160.997 405.264 160.4V157.984C405.264 157.536 405.19 157.232 405.04 157.072C404.902 156.901 404.742 156.816 404.56 156.816L406.288 156.048V157.136ZM421.394 159.408C421.074 159.408 420.77 159.355 420.482 159.248C420.205 159.131 419.853 158.955 419.426 158.72C419.095 158.539 418.834 158.405 418.642 158.32C418.461 158.235 418.279 158.192 418.098 158.192C417.65 158.192 417.421 158.565 417.41 159.312H416.498C416.498 158.619 416.658 158.101 416.978 157.76C417.309 157.419 417.714 157.248 418.194 157.248C418.493 157.248 418.775 157.307 419.042 157.424C419.319 157.531 419.661 157.696 420.066 157.92C420.375 158.101 420.626 158.235 420.818 158.32C421.01 158.405 421.197 158.448 421.378 158.448C421.794 158.448 422.013 158.075 422.034 157.328H422.93C422.93 158.011 422.797 158.528 422.53 158.88C422.274 159.232 421.895 159.408 421.394 159.408Z" fill="#F5F7F9"/>
<path d="M144.119 55.201C142.901 55.201 141.956 54.739 141.284 53.815C140.612 52.891 140.276 51.694 140.276 50.224C140.276 46.024 142.292 42.643 146.324 40.081L147.836 42.034C145.568 43.882 144.413 45.835 144.371 47.893C145.253 47.809 146.051 48.103 146.765 48.775C147.479 49.405 147.836 50.287 147.836 51.421C147.836 52.555 147.479 53.479 146.765 54.193C146.093 54.865 145.211 55.201 144.119 55.201ZM154.892 55.201C153.674 55.201 152.729 54.739 152.057 53.815C151.385 52.891 151.049 51.694 151.049 50.224C151.049 46.024 153.065 42.643 157.097 40.081L158.672 42.034C156.362 43.882 155.186 45.835 155.144 47.893C156.068 47.809 156.866 48.103 157.538 48.775C158.252 49.405 158.609 50.287 158.609 51.421C158.609 52.555 158.252 53.479 157.538 54.193C156.866 54.865 155.984 55.201 154.892 55.201Z" fill="#F5F7F9"/>
<path d="M445.717 151C446.935 151 447.88 151.462 448.552 152.386C449.266 153.31 449.623 154.486 449.623 155.914C449.623 158.224 449.014 160.24 447.796 161.962C446.62 163.684 445.192 165.049 443.512 166.057L442 164.167C444.268 162.235 445.423 160.282 445.465 158.308C444.583 158.392 443.785 158.119 443.071 157.489C442.399 156.817 442.063 155.914 442.063 154.78C442.063 153.646 442.399 152.743 443.071 152.071C443.785 151.357 444.667 151 445.717 151ZM456.553 151C457.771 151 458.716 151.462 459.388 152.386C460.06 153.31 460.396 154.486 460.396 155.914C460.396 158.224 459.787 160.24 458.569 161.962C457.393 163.684 455.986 165.049 454.348 166.057L452.773 164.167C455.083 162.235 456.259 160.282 456.301 158.308C455.377 158.392 454.558 158.119 453.844 157.489C453.172 156.817 452.836 155.914 452.836 154.78C452.836 153.646 453.172 152.743 453.844 152.071C454.558 151.357 455.461 151 456.553 151Z" fill="#F5F7F9"/>
</svg>
