<svg width="868" height="296" viewBox="0 0 868 296" fill="none" xmlns="http://www.w3.org/2000/svg">
<g filter="url(#filter0_d)">
<rect width="800" height="228" transform="translate(34 30)" fill="#222222"/>
<path d="M165.016 137C165.016 137.048 165.112 137.016 165.304 136.904C165.496 136.776 165.672 136.552 165.832 136.232C165.992 135.896 166.072 135.408 166.072 134.768V122.72C166.072 122.08 165.992 121.6 165.832 121.28C165.688 120.944 165.52 120.72 165.328 120.608C165.136 120.496 165.04 120.456 165.04 120.488H168.856C168.856 120.456 168.76 120.496 168.568 120.608C168.376 120.72 168.2 120.944 168.04 121.28C167.88 121.6 167.8 122.08 167.8 122.72V134.768C167.8 135.408 167.88 135.896 168.04 136.232C168.2 136.552 168.376 136.768 168.568 136.88C168.76 136.992 168.856 137.032 168.856 137H165.016ZM171.533 125.576C171.965 125.416 172.325 125.048 172.613 124.472C172.917 123.896 173.069 123.328 173.069 122.768C173.069 122.624 173.061 122.52 173.045 122.456H172.877C172.477 122.456 172.173 122.352 171.965 122.144C171.757 121.936 171.653 121.68 171.653 121.376C171.653 121.056 171.757 120.784 171.965 120.56C172.189 120.32 172.485 120.2 172.853 120.2C173.253 120.2 173.597 120.368 173.885 120.704C174.189 121.024 174.341 121.496 174.341 122.12C174.341 122.616 174.237 123.128 174.029 123.656C173.821 124.168 173.501 124.608 173.069 124.976C172.637 125.344 172.125 125.544 171.533 125.576ZM179.3 129.704C179.7 129.208 180.148 128.816 180.644 128.528C181.14 128.224 181.66 128.072 182.204 128.072C182.796 128.072 183.316 128.216 183.764 128.504C184.228 128.776 184.564 129.176 184.772 129.704C185.204 129.16 185.692 128.752 186.236 128.48C186.796 128.208 187.372 128.072 187.964 128.072C188.828 128.072 189.516 128.352 190.028 128.912C190.556 129.456 190.82 130.248 190.82 131.288V134.624C190.82 135.504 190.932 136.112 191.156 136.448C191.38 136.784 191.58 136.968 191.756 137H188.348C188.54 136.968 188.74 136.784 188.948 136.448C189.172 136.112 189.284 135.496 189.284 134.6V131.864C189.284 131.32 189.212 130.888 189.068 130.568C188.924 130.248 188.732 129.984 188.492 129.776C188.124 129.472 187.684 129.32 187.172 129.32C186.612 129.32 186.116 129.512 185.684 129.896C185.268 130.264 185.06 130.784 185.06 131.456V134.6C185.06 135.496 185.164 136.112 185.372 136.448C185.596 136.784 185.804 136.968 185.996 137H182.588C182.78 136.968 182.98 136.784 183.188 136.448C183.412 136.112 183.524 135.496 183.524 134.6V131.864C183.524 131.32 183.452 130.888 183.308 130.568C183.164 130.248 182.972 129.984 182.732 129.776C182.364 129.472 181.924 129.32 181.412 129.32C180.836 129.32 180.34 129.512 179.924 129.896C179.508 130.264 179.3 130.784 179.3 131.456V134.6C179.3 135.512 179.412 136.136 179.636 136.472C179.86 136.792 180.068 136.968 180.26 137H176.852C177.044 136.968 177.244 136.784 177.452 136.448C177.66 136.112 177.764 135.496 177.764 134.6V130.976C177.764 130.304 177.652 129.848 177.428 129.608C177.22 129.352 176.98 129.224 176.708 129.224L179.3 128.072V129.704ZM207.067 137.288C206.555 137.272 206.123 137.136 205.771 136.88C205.419 136.624 205.219 136.328 205.171 135.992C204.883 136.408 204.499 136.728 204.019 136.952C203.555 137.176 203.091 137.288 202.627 137.288C201.891 137.288 201.275 137.08 200.779 136.664C200.283 136.232 200.035 135.672 200.035 134.984C200.035 133.208 201.699 132.32 205.027 132.32V132.056C205.027 131.176 204.899 130.528 204.643 130.112C204.291 129.52 203.715 129.224 202.915 129.224C202.291 129.224 201.771 129.408 201.355 129.776C200.955 130.144 200.755 130.624 200.755 131.216C200.659 131.056 200.579 130.912 200.515 130.784C200.467 130.656 200.443 130.48 200.443 130.256C200.443 129.68 200.715 129.176 201.259 128.744C201.803 128.296 202.515 128.072 203.395 128.072C204.643 128.072 205.531 128.488 206.059 129.32C206.235 129.576 206.363 129.896 206.443 130.28C206.523 130.664 206.563 131.168 206.563 131.792V134.648C206.563 135.144 206.699 135.528 206.971 135.8C207.259 136.072 207.659 136.208 208.171 136.208H208.483L207.067 137.288ZM205.027 133.04C203.747 133.04 202.883 133.2 202.435 133.52C201.987 133.84 201.763 134.272 201.763 134.816C201.763 135.264 201.883 135.616 202.123 135.872C202.363 136.128 202.683 136.256 203.083 136.256C203.387 136.256 203.675 136.184 203.947 136.04C204.219 135.896 204.451 135.696 204.643 135.44C204.899 135.104 205.027 134.648 205.027 134.072V133.04ZM216.532 121.328C216.244 121.04 215.892 120.816 215.476 120.656C215.076 120.48 214.668 120.392 214.252 120.392C213.452 120.392 212.868 120.68 212.5 121.256C212.132 121.816 211.948 122.544 211.948 123.44V128.264H214.444V129.224H211.948V134.6C211.948 135.288 212.02 135.816 212.164 136.184C212.308 136.536 212.468 136.776 212.644 136.904C212.82 137.016 212.908 137.048 212.908 137H209.428C209.428 137.048 209.516 137.016 209.692 136.904C209.884 136.776 210.052 136.536 210.196 136.184C210.34 135.816 210.412 135.288 210.412 134.6V129.224H209.068V128.264H210.412V124.928C210.412 123.808 210.596 122.824 210.964 121.976C211.348 121.112 211.876 120.44 212.548 119.96C213.236 119.48 214.02 119.24 214.9 119.24C215.588 119.24 216.132 119.312 216.532 119.456V121.328ZM218.089 130.256C218.329 129.744 218.721 129.256 219.265 128.792C219.825 128.312 220.385 128.072 220.945 128.072C221.297 128.072 221.561 128.12 221.737 128.216V130.184C221.385 129.752 220.889 129.536 220.249 129.536C219.577 129.536 219.049 129.832 218.665 130.424C218.281 131 218.089 131.744 218.089 132.656V134.6C218.089 135.496 218.193 136.112 218.401 136.448C218.609 136.784 218.809 136.968 219.001 137H215.617C215.809 136.968 216.009 136.792 216.217 136.472C216.441 136.136 216.553 135.512 216.553 134.6V130.976C216.553 130.304 216.441 129.848 216.217 129.608C216.009 129.352 215.769 129.224 215.497 129.224L218.089 128.072V130.256ZM230.504 137.288C229.992 137.272 229.56 137.136 229.208 136.88C228.856 136.624 228.656 136.328 228.608 135.992C228.32 136.408 227.936 136.728 227.456 136.952C226.992 137.176 226.528 137.288 226.064 137.288C225.328 137.288 224.712 137.08 224.216 136.664C223.72 136.232 223.472 135.672 223.472 134.984C223.472 133.208 225.136 132.32 228.464 132.32V132.056C228.464 131.176 228.336 130.528 228.08 130.112C227.728 129.52 227.152 129.224 226.352 129.224C225.728 129.224 225.208 129.408 224.792 129.776C224.392 130.144 224.192 130.624 224.192 131.216C224.096 131.056 224.016 130.912 223.952 130.784C223.904 130.656 223.88 130.48 223.88 130.256C223.88 129.68 224.152 129.176 224.696 128.744C225.24 128.296 225.952 128.072 226.832 128.072C228.08 128.072 228.968 128.488 229.496 129.32C229.672 129.576 229.8 129.896 229.88 130.28C229.96 130.664 230 131.168 230 131.792V134.648C230 135.144 230.136 135.528 230.408 135.8C230.696 136.072 231.096 136.208 231.608 136.208H231.92L230.504 137.288ZM228.464 133.04C227.184 133.04 226.32 133.2 225.872 133.52C225.424 133.84 225.2 134.272 225.2 134.816C225.2 135.264 225.32 135.616 225.56 135.872C225.8 136.128 226.12 136.256 226.52 136.256C226.824 136.256 227.112 136.184 227.384 136.04C227.656 135.896 227.888 135.696 228.08 135.44C228.336 135.104 228.464 134.648 228.464 134.072V133.04ZM233.85 130.976C233.85 130.304 233.738 129.848 233.514 129.608C233.306 129.352 233.066 129.224 232.794 129.224L235.386 128.072V134.6C235.386 135.304 235.458 135.832 235.602 136.184C235.746 136.536 235.906 136.776 236.082 136.904C236.258 137.016 236.346 137.048 236.346 137H232.89C232.89 137.048 232.978 137.016 233.154 136.904C233.33 136.776 233.49 136.536 233.634 136.184C233.778 135.832 233.85 135.304 233.85 134.6V130.976ZM234.594 125.168C234.242 125.168 233.962 125.056 233.754 124.832C233.562 124.592 233.466 124.32 233.466 124.016C233.466 123.712 233.562 123.448 233.754 123.224C233.962 122.984 234.242 122.864 234.594 122.864C234.946 122.864 235.218 122.984 235.41 123.224C235.618 123.448 235.722 123.712 235.722 124.016C235.722 124.32 235.618 124.592 235.41 124.832C235.218 125.056 234.946 125.168 234.594 125.168ZM244.977 122.24C244.977 121.568 244.865 121.112 244.641 120.872C244.433 120.616 244.193 120.488 243.921 120.488H243.777L246.513 119.24V134.288C246.513 134.96 246.617 135.424 246.825 135.68C247.049 135.92 247.297 136.04 247.569 136.04H247.713L244.977 137.288V135.728C244.785 136.048 244.433 136.392 243.921 136.76C243.425 137.112 242.769 137.288 241.953 137.288C241.249 137.288 240.617 137.112 240.057 136.76C239.497 136.408 239.057 135.92 238.737 135.296C238.417 134.672 238.257 133.976 238.257 133.208C238.257 132.232 238.457 131.368 238.857 130.616C239.257 129.864 239.777 129.264 240.417 128.816C241.137 128.32 241.921 128.072 242.769 128.072C243.329 128.072 243.793 128.152 244.161 128.312C244.529 128.456 244.801 128.592 244.977 128.72V122.24ZM239.985 132.488C239.985 133.496 240.217 134.376 240.681 135.128C241.161 135.864 241.849 136.232 242.745 136.232C243.081 136.232 243.425 136.144 243.777 135.968C244.129 135.776 244.417 135.52 244.641 135.2C244.865 134.88 244.977 134.52 244.977 134.12V131.288C244.977 130.776 244.913 130.36 244.785 130.04C244.673 129.72 244.489 129.48 244.233 129.32C243.833 129.064 243.345 128.936 242.769 128.936C241.969 128.936 241.305 129.264 240.777 129.92C240.249 130.56 239.985 131.416 239.985 132.488ZM258.866 137.288C258.082 137.288 257.49 137.024 257.09 136.496C256.69 135.952 256.49 135.304 256.49 134.552V129.224H255.146L258.026 125.96V128.264H261.098V129.224H258.026V134.288C258.026 134.896 258.186 135.36 258.506 135.68C258.826 135.984 259.194 136.136 259.61 136.136C259.93 136.136 260.242 136.04 260.546 135.848C260.85 135.656 261.098 135.392 261.29 135.056C261.05 136.544 260.242 137.288 258.866 137.288ZM265.315 129.488C265.667 129.072 266.099 128.736 266.611 128.48C267.123 128.208 267.659 128.072 268.219 128.072C269.083 128.072 269.771 128.352 270.283 128.912C270.811 129.456 271.075 130.248 271.075 131.288V134.624C271.075 135.296 271.147 135.808 271.291 136.16C271.435 136.512 271.595 136.752 271.771 136.88C271.947 137.008 272.035 137.048 272.035 137H268.579C268.579 137.048 268.667 137.016 268.843 136.904C269.019 136.776 269.179 136.536 269.323 136.184C269.467 135.832 269.539 135.304 269.539 134.6V131.864C269.539 131.32 269.467 130.888 269.323 130.568C269.179 130.248 268.987 129.984 268.747 129.776C268.379 129.472 267.939 129.32 267.427 129.32C266.851 129.32 266.355 129.512 265.939 129.896C265.523 130.264 265.315 130.784 265.315 131.456V134.6C265.315 135.288 265.387 135.808 265.531 136.16C265.675 136.512 265.835 136.752 266.011 136.88C266.203 137.008 266.299 137.048 266.299 137H262.843C262.843 137.048 262.931 137.016 263.107 136.904C263.283 136.776 263.435 136.536 263.563 136.184C263.707 135.816 263.779 135.288 263.779 134.6V122.24C263.779 121.568 263.667 121.112 263.443 120.872C263.235 120.616 262.995 120.488 262.723 120.488H262.579L265.315 119.24V129.488ZM281.176 137.288C280.664 137.272 280.232 137.136 279.88 136.88C279.528 136.624 279.328 136.328 279.28 135.992C278.992 136.408 278.608 136.728 278.128 136.952C277.664 137.176 277.2 137.288 276.736 137.288C276 137.288 275.384 137.08 274.888 136.664C274.392 136.232 274.144 135.672 274.144 134.984C274.144 133.208 275.808 132.32 279.136 132.32V132.056C279.136 131.176 279.008 130.528 278.752 130.112C278.4 129.52 277.824 129.224 277.024 129.224C276.4 129.224 275.88 129.408 275.464 129.776C275.064 130.144 274.864 130.624 274.864 131.216C274.768 131.056 274.688 130.912 274.624 130.784C274.576 130.656 274.552 130.48 274.552 130.256C274.552 129.68 274.824 129.176 275.368 128.744C275.912 128.296 276.624 128.072 277.504 128.072C278.752 128.072 279.64 128.488 280.168 129.32C280.344 129.576 280.472 129.896 280.552 130.28C280.632 130.664 280.672 131.168 280.672 131.792V134.648C280.672 135.144 280.808 135.528 281.08 135.8C281.368 136.072 281.768 136.208 282.28 136.208H282.592L281.176 137.288ZM279.136 133.04C277.856 133.04 276.992 133.2 276.544 133.52C276.096 133.84 275.872 134.272 275.872 134.816C275.872 135.264 275.992 135.616 276.232 135.872C276.472 136.128 276.792 136.256 277.192 136.256C277.496 136.256 277.784 136.184 278.056 136.04C278.328 135.896 278.56 135.696 278.752 135.44C279.008 135.104 279.136 134.648 279.136 134.072V133.04ZM286.898 137.288C286.114 137.288 285.522 137.024 285.122 136.496C284.722 135.952 284.522 135.304 284.522 134.552V129.224H283.178L286.058 125.96V128.264H289.13V129.224H286.058V134.288C286.058 134.896 286.218 135.36 286.538 135.68C286.858 135.984 287.226 136.136 287.642 136.136C287.962 136.136 288.274 136.04 288.578 135.848C288.882 135.656 289.13 135.392 289.322 135.056C289.082 136.544 288.274 137.288 286.898 137.288ZM300.327 137.288C299.543 137.288 298.951 137.024 298.551 136.496C298.151 135.952 297.951 135.304 297.951 134.552V129.224H296.607L299.487 125.96V128.264H302.559V129.224H299.487V134.288C299.487 134.896 299.647 135.36 299.967 135.68C300.287 135.984 300.655 136.136 301.071 136.136C301.391 136.136 301.703 136.04 302.007 135.848C302.311 135.656 302.559 135.392 302.751 135.056C302.511 136.544 301.703 137.288 300.327 137.288ZM306.776 129.488C307.128 129.072 307.56 128.736 308.072 128.48C308.584 128.208 309.12 128.072 309.68 128.072C310.544 128.072 311.232 128.352 311.744 128.912C312.272 129.456 312.536 130.248 312.536 131.288V134.624C312.536 135.296 312.608 135.808 312.752 136.16C312.896 136.512 313.056 136.752 313.232 136.88C313.408 137.008 313.496 137.048 313.496 137H310.04C310.04 137.048 310.128 137.016 310.304 136.904C310.48 136.776 310.64 136.536 310.784 136.184C310.928 135.832 311 135.304 311 134.6V131.864C311 131.32 310.928 130.888 310.784 130.568C310.64 130.248 310.448 129.984 310.208 129.776C309.84 129.472 309.4 129.32 308.888 129.32C308.312 129.32 307.816 129.512 307.4 129.896C306.984 130.264 306.776 130.784 306.776 131.456V134.6C306.776 135.288 306.848 135.808 306.992 136.16C307.136 136.512 307.296 136.752 307.472 136.88C307.664 137.008 307.76 137.048 307.76 137H304.304C304.304 137.048 304.392 137.016 304.568 136.904C304.744 136.776 304.896 136.536 305.024 136.184C305.168 135.816 305.24 135.288 305.24 134.6V122.24C305.24 121.568 305.128 121.112 304.904 120.872C304.696 120.616 304.456 120.488 304.184 120.488H304.04L306.776 119.24V129.488ZM319.565 137.288C318.701 137.288 317.957 137.08 317.333 136.664C316.709 136.232 316.229 135.68 315.893 135.008C315.573 134.32 315.413 133.592 315.413 132.824C315.413 131.832 315.605 130.976 315.989 130.256C316.389 129.536 316.901 128.992 317.525 128.624C318.149 128.256 318.797 128.072 319.469 128.072C320.429 128.072 321.253 128.424 321.941 129.128C322.645 129.816 323.029 130.776 323.093 132.008H316.853C316.853 132.776 316.997 133.456 317.285 134.048C317.573 134.624 317.957 135.072 318.437 135.392C318.933 135.696 319.469 135.848 320.045 135.848C321.549 135.848 322.565 135.368 323.093 134.408C322.949 135.272 322.557 135.968 321.917 136.496C321.277 137.024 320.493 137.288 319.565 137.288ZM319.301 128.864C318.677 128.864 318.141 129.088 317.693 129.536C317.245 129.968 316.973 130.536 316.877 131.24H321.245C321.245 130.504 321.045 129.928 320.645 129.512C320.261 129.08 319.813 128.864 319.301 128.864ZM335.411 137.288C334.547 137.288 333.787 137.08 333.131 136.664C332.491 136.248 332.003 135.696 331.667 135.008C331.331 134.32 331.163 133.592 331.163 132.824C331.163 132.024 331.331 131.264 331.667 130.544C332.019 129.808 332.523 129.216 333.179 128.768C333.835 128.304 334.611 128.072 335.507 128.072C336.579 128.072 337.355 128.304 337.835 128.768C338.315 129.232 338.651 129.72 338.843 130.232L337.259 131C337.163 130.424 336.923 129.936 336.539 129.536C336.171 129.136 335.715 128.936 335.171 128.936C334.387 128.936 333.779 129.24 333.347 129.848C332.915 130.456 332.699 131.2 332.699 132.08C332.699 132.704 332.835 133.312 333.107 133.904C333.395 134.48 333.795 134.952 334.307 135.32C334.835 135.688 335.451 135.872 336.155 135.872C336.731 135.872 337.275 135.744 337.787 135.488C338.315 135.216 338.731 134.856 339.035 134.408C338.859 135.304 338.443 136.008 337.787 136.52C337.131 137.032 336.339 137.288 335.411 137.288ZM341.733 130.976C341.733 130.304 341.621 129.848 341.396 129.608C341.189 129.352 340.949 129.224 340.677 129.224L343.269 128.072V134.6C343.269 135.304 343.341 135.832 343.485 136.184C343.629 136.536 343.789 136.776 343.965 136.904C344.141 137.016 344.229 137.048 344.229 137H340.773C340.773 137.048 340.861 137.016 341.037 136.904C341.213 136.776 341.373 136.536 341.517 136.184C341.661 135.832 341.733 135.304 341.733 134.6V130.976ZM342.477 125.168C342.125 125.168 341.845 125.056 341.637 124.832C341.445 124.592 341.349 124.32 341.349 124.016C341.349 123.712 341.445 123.448 341.637 123.224C341.845 122.984 342.125 122.864 342.477 122.864C342.829 122.864 343.101 122.984 343.293 123.224C343.501 123.448 343.605 123.712 343.605 124.016C343.605 124.32 343.501 124.592 343.293 124.832C343.101 125.056 342.829 125.168 342.477 125.168ZM348.636 129.704C349.004 129.208 349.436 128.816 349.932 128.528C350.444 128.224 350.98 128.072 351.54 128.072C352.404 128.072 353.092 128.352 353.604 128.912C354.132 129.456 354.396 130.248 354.396 131.288V134.624C354.396 135.296 354.468 135.808 354.612 136.16C354.756 136.512 354.916 136.752 355.092 136.88C355.268 137.008 355.356 137.048 355.356 137H351.9C351.9 137.048 351.988 137.016 352.164 136.904C352.34 136.776 352.5 136.536 352.644 136.184C352.788 135.832 352.86 135.304 352.86 134.6V131.864C352.86 131.32 352.788 130.888 352.644 130.568C352.5 130.248 352.308 129.984 352.068 129.776C351.7 129.472 351.26 129.32 350.748 129.32C350.172 129.32 349.676 129.512 349.26 129.896C348.844 130.264 348.636 130.784 348.636 131.456V134.6C348.636 135.288 348.708 135.808 348.852 136.16C348.996 136.512 349.156 136.752 349.332 136.88C349.524 137.008 349.62 137.048 349.62 137H346.164C346.164 137.048 346.252 137.016 346.428 136.904C346.604 136.776 346.756 136.536 346.884 136.184C347.028 135.816 347.1 135.288 347.1 134.6V130.976C347.1 130.304 346.988 129.848 346.764 129.608C346.556 129.352 346.316 129.224 346.044 129.224L348.636 128.072V129.704ZM361.425 137.288C360.561 137.288 359.817 137.08 359.193 136.664C358.569 136.232 358.089 135.68 357.753 135.008C357.433 134.32 357.273 133.592 357.273 132.824C357.273 131.832 357.465 130.976 357.849 130.256C358.249 129.536 358.761 128.992 359.385 128.624C360.009 128.256 360.657 128.072 361.329 128.072C362.289 128.072 363.113 128.424 363.801 129.128C364.505 129.816 364.889 130.776 364.953 132.008H358.713C358.713 132.776 358.857 133.456 359.145 134.048C359.433 134.624 359.817 135.072 360.297 135.392C360.793 135.696 361.329 135.848 361.905 135.848C363.409 135.848 364.425 135.368 364.953 134.408C364.809 135.272 364.417 135.968 363.777 136.496C363.137 137.024 362.353 137.288 361.425 137.288ZM361.161 128.864C360.537 128.864 360.001 129.088 359.553 129.536C359.105 129.968 358.833 130.536 358.737 131.24H363.105C363.105 130.504 362.905 129.928 362.505 129.512C362.121 129.08 361.673 128.864 361.161 128.864ZM369.378 129.704C369.778 129.208 370.226 128.816 370.722 128.528C371.218 128.224 371.738 128.072 372.282 128.072C372.874 128.072 373.394 128.216 373.842 128.504C374.306 128.776 374.642 129.176 374.85 129.704C375.282 129.16 375.77 128.752 376.314 128.48C376.874 128.208 377.45 128.072 378.042 128.072C378.906 128.072 379.594 128.352 380.106 128.912C380.634 129.456 380.898 130.248 380.898 131.288V134.624C380.898 135.504 381.01 136.112 381.234 136.448C381.458 136.784 381.658 136.968 381.834 137H378.426C378.618 136.968 378.818 136.784 379.026 136.448C379.25 136.112 379.362 135.496 379.362 134.6V131.864C379.362 131.32 379.29 130.888 379.146 130.568C379.002 130.248 378.81 129.984 378.57 129.776C378.202 129.472 377.762 129.32 377.25 129.32C376.69 129.32 376.194 129.512 375.762 129.896C375.346 130.264 375.138 130.784 375.138 131.456V134.6C375.138 135.496 375.242 136.112 375.45 136.448C375.674 136.784 375.882 136.968 376.074 137H372.666C372.858 136.968 373.058 136.784 373.266 136.448C373.49 136.112 373.602 135.496 373.602 134.6V131.864C373.602 131.32 373.53 130.888 373.386 130.568C373.242 130.248 373.05 129.984 372.81 129.776C372.442 129.472 372.002 129.32 371.49 129.32C370.914 129.32 370.418 129.512 370.002 129.896C369.586 130.264 369.378 130.784 369.378 131.456V134.6C369.378 135.512 369.49 136.136 369.714 136.472C369.938 136.792 370.146 136.968 370.338 137H366.93C367.122 136.968 367.322 136.784 367.53 136.448C367.738 136.112 367.842 135.496 367.842 134.6V130.976C367.842 130.304 367.73 129.848 367.506 129.608C367.298 129.352 367.058 129.224 366.786 129.224L369.378 128.072V129.704ZM391.004 137.288C390.492 137.272 390.06 137.136 389.708 136.88C389.356 136.624 389.156 136.328 389.108 135.992C388.82 136.408 388.436 136.728 387.956 136.952C387.492 137.176 387.028 137.288 386.564 137.288C385.828 137.288 385.212 137.08 384.716 136.664C384.22 136.232 383.972 135.672 383.972 134.984C383.972 133.208 385.636 132.32 388.964 132.32V132.056C388.964 131.176 388.836 130.528 388.58 130.112C388.228 129.52 387.652 129.224 386.852 129.224C386.228 129.224 385.708 129.408 385.292 129.776C384.892 130.144 384.692 130.624 384.692 131.216C384.596 131.056 384.516 130.912 384.452 130.784C384.404 130.656 384.38 130.48 384.38 130.256C384.38 129.68 384.652 129.176 385.196 128.744C385.74 128.296 386.452 128.072 387.332 128.072C388.58 128.072 389.468 128.488 389.996 129.32C390.172 129.576 390.3 129.896 390.38 130.28C390.46 130.664 390.5 131.168 390.5 131.792V134.648C390.5 135.144 390.636 135.528 390.908 135.8C391.196 136.072 391.596 136.208 392.108 136.208H392.42L391.004 137.288ZM388.964 133.04C387.684 133.04 386.82 133.2 386.372 133.52C385.924 133.84 385.7 134.272 385.7 134.816C385.7 135.264 385.82 135.616 386.06 135.872C386.3 136.128 386.62 136.256 387.02 136.256C387.324 136.256 387.612 136.184 387.884 136.04C388.156 135.896 388.388 135.696 388.58 135.44C388.836 135.104 388.964 134.648 388.964 134.072V133.04ZM396.726 137.288C395.942 137.288 395.35 137.024 394.95 136.496C394.55 135.952 394.35 135.304 394.35 134.552V129.224H393.006L395.886 125.96V128.264H398.958V129.224H395.886V134.288C395.886 134.896 396.046 135.36 396.366 135.68C396.686 135.984 397.054 136.136 397.47 136.136C397.79 136.136 398.102 136.04 398.406 135.848C398.71 135.656 398.958 135.392 399.15 135.056C398.91 136.544 398.102 137.288 396.726 137.288ZM401.639 130.976C401.639 130.304 401.527 129.848 401.303 129.608C401.095 129.352 400.855 129.224 400.583 129.224L403.175 128.072V134.6C403.175 135.304 403.247 135.832 403.391 136.184C403.535 136.536 403.695 136.776 403.871 136.904C404.047 137.016 404.135 137.048 404.135 137H400.679C400.679 137.048 400.767 137.016 400.943 136.904C401.119 136.776 401.279 136.536 401.423 136.184C401.567 135.832 401.639 135.304 401.639 134.6V130.976ZM402.383 125.168C402.031 125.168 401.751 125.056 401.543 124.832C401.351 124.592 401.255 124.32 401.255 124.016C401.255 123.712 401.351 123.448 401.543 123.224C401.751 122.984 402.031 122.864 402.383 122.864C402.735 122.864 403.007 122.984 403.199 123.224C403.407 123.448 403.511 123.712 403.511 124.016C403.511 124.32 403.407 124.592 403.199 124.832C403.007 125.056 402.735 125.168 402.383 125.168ZM410.294 137.288C409.43 137.288 408.67 137.08 408.014 136.664C407.374 136.248 406.886 135.696 406.55 135.008C406.214 134.32 406.046 133.592 406.046 132.824C406.046 132.024 406.214 131.264 406.55 130.544C406.902 129.808 407.406 129.216 408.062 128.768C408.718 128.304 409.494 128.072 410.39 128.072C411.462 128.072 412.238 128.304 412.718 128.768C413.198 129.232 413.534 129.72 413.726 130.232L412.142 131C412.046 130.424 411.806 129.936 411.422 129.536C411.054 129.136 410.598 128.936 410.054 128.936C409.27 128.936 408.662 129.24 408.23 129.848C407.798 130.456 407.582 131.2 407.582 132.08C407.582 132.704 407.718 133.312 407.99 133.904C408.278 134.48 408.678 134.952 409.19 135.32C409.718 135.688 410.334 135.872 411.038 135.872C411.614 135.872 412.158 135.744 412.67 135.488C413.198 135.216 413.614 134.856 413.918 134.408C413.742 135.304 413.326 136.008 412.67 136.52C412.014 137.032 411.222 137.288 410.294 137.288ZM425.636 137.288L422.372 129.92C422.164 129.456 421.948 129.104 421.724 128.864C421.516 128.608 421.332 128.44 421.172 128.36C421.012 128.28 420.932 128.248 420.932 128.264H424.556C424.524 128.264 424.452 128.288 424.34 128.336C424.228 128.368 424.116 128.448 424.004 128.576C423.908 128.688 423.86 128.856 423.86 129.08C423.86 129.352 423.94 129.656 424.1 129.992L425.996 134.336L427.772 130.232C427.884 129.944 427.94 129.648 427.94 129.344C427.94 129.056 427.876 128.816 427.748 128.624C427.636 128.432 427.444 128.312 427.172 128.264H430.364C430.364 128.248 430.276 128.28 430.1 128.36C429.94 128.44 429.748 128.616 429.524 128.888C429.316 129.144 429.1 129.52 428.876 130.016L425.636 137.288ZM431.405 132.896C431.405 132.064 431.605 131.28 432.005 130.544C432.421 129.792 432.989 129.192 433.709 128.744C434.429 128.296 435.229 128.072 436.109 128.072C436.957 128.072 437.725 128.272 438.413 128.672C439.101 129.056 439.637 129.584 440.021 130.256C440.421 130.928 440.621 131.664 440.621 132.464C440.621 133.296 440.413 134.088 439.997 134.84C439.597 135.576 439.037 136.168 438.317 136.616C437.597 137.064 436.797 137.288 435.917 137.288C435.069 137.288 434.301 137.096 433.613 136.712C432.925 136.312 432.381 135.776 431.981 135.104C431.597 134.432 431.405 133.696 431.405 132.896ZM438.893 133.16C438.893 132.488 438.765 131.824 438.509 131.168C438.253 130.512 437.893 129.976 437.429 129.56C436.965 129.144 436.429 128.936 435.821 128.936C434.973 128.936 434.309 129.256 433.829 129.896C433.365 130.536 433.133 131.304 433.133 132.2C433.133 132.872 433.261 133.536 433.517 134.192C433.773 134.848 434.133 135.384 434.597 135.8C435.061 136.216 435.597 136.424 436.205 136.424C437.053 136.424 437.709 136.104 438.173 135.464C438.653 134.824 438.893 134.056 438.893 133.16ZM443.498 130.976C443.498 130.304 443.386 129.848 443.162 129.608C442.954 129.352 442.714 129.224 442.442 129.224L445.034 128.072V134.6C445.034 135.304 445.106 135.832 445.25 136.184C445.394 136.536 445.554 136.776 445.73 136.904C445.906 137.016 445.994 137.048 445.994 137H442.538C442.538 137.048 442.626 137.016 442.802 136.904C442.978 136.776 443.138 136.536 443.282 136.184C443.426 135.832 443.498 135.304 443.498 134.6V130.976ZM444.242 125.168C443.89 125.168 443.61 125.056 443.402 124.832C443.21 124.592 443.114 124.32 443.114 124.016C443.114 123.712 443.21 123.448 443.402 123.224C443.61 122.984 443.89 122.864 444.242 122.864C444.594 122.864 444.866 122.984 445.058 123.224C445.266 123.448 445.37 123.712 445.37 124.016C445.37 124.32 445.266 124.592 445.058 124.832C444.866 125.056 444.594 125.168 444.242 125.168ZM452.153 137.288C451.289 137.288 450.529 137.08 449.873 136.664C449.233 136.248 448.745 135.696 448.409 135.008C448.073 134.32 447.905 133.592 447.905 132.824C447.905 132.024 448.073 131.264 448.409 130.544C448.761 129.808 449.265 129.216 449.921 128.768C450.577 128.304 451.353 128.072 452.249 128.072C453.321 128.072 454.097 128.304 454.577 128.768C455.057 129.232 455.393 129.72 455.585 130.232L454.001 131C453.905 130.424 453.665 129.936 453.281 129.536C452.913 129.136 452.457 128.936 451.913 128.936C451.129 128.936 450.521 129.24 450.089 129.848C449.657 130.456 449.441 131.2 449.441 132.08C449.441 132.704 449.577 133.312 449.849 133.904C450.137 134.48 450.537 134.952 451.049 135.32C451.577 135.688 452.193 135.872 452.897 135.872C453.473 135.872 454.017 135.744 454.529 135.488C455.057 135.216 455.473 134.856 455.777 134.408C455.601 135.304 455.185 136.008 454.529 136.52C453.873 137.032 453.081 137.288 452.153 137.288ZM461.667 137.288C460.803 137.288 460.059 137.08 459.435 136.664C458.811 136.232 458.331 135.68 457.995 135.008C457.675 134.32 457.515 133.592 457.515 132.824C457.515 131.832 457.707 130.976 458.091 130.256C458.491 129.536 459.003 128.992 459.627 128.624C460.251 128.256 460.899 128.072 461.571 128.072C462.531 128.072 463.355 128.424 464.043 129.128C464.747 129.816 465.131 130.776 465.195 132.008H458.955C458.955 132.776 459.099 133.456 459.387 134.048C459.675 134.624 460.059 135.072 460.539 135.392C461.035 135.696 461.571 135.848 462.147 135.848C463.651 135.848 464.667 135.368 465.195 134.408C465.051 135.272 464.659 135.968 464.019 136.496C463.379 137.024 462.595 137.288 461.667 137.288ZM461.403 128.864C460.779 128.864 460.243 129.088 459.795 129.536C459.347 129.968 459.075 130.536 458.979 131.24H463.347C463.347 130.504 463.147 129.928 462.747 129.512C462.363 129.08 461.915 128.864 461.403 128.864ZM473.265 132.896C473.265 132.064 473.465 131.28 473.865 130.544C474.281 129.792 474.849 129.192 475.569 128.744C476.289 128.296 477.089 128.072 477.969 128.072C478.817 128.072 479.585 128.272 480.273 128.672C480.961 129.056 481.497 129.584 481.881 130.256C482.281 130.928 482.481 131.664 482.481 132.464C482.481 133.296 482.273 134.088 481.857 134.84C481.457 135.576 480.897 136.168 480.177 136.616C479.457 137.064 478.657 137.288 477.777 137.288C476.929 137.288 476.161 137.096 475.473 136.712C474.785 136.312 474.241 135.776 473.841 135.104C473.457 134.432 473.265 133.696 473.265 132.896ZM480.753 133.16C480.753 132.488 480.625 131.824 480.369 131.168C480.113 130.512 479.753 129.976 479.289 129.56C478.825 129.144 478.289 128.936 477.681 128.936C476.833 128.936 476.169 129.256 475.689 129.896C475.225 130.536 474.993 131.304 474.993 132.2C474.993 132.872 475.121 133.536 475.377 134.192C475.633 134.848 475.993 135.384 476.457 135.8C476.921 136.216 477.457 136.424 478.065 136.424C478.913 136.424 479.569 136.104 480.033 135.464C480.513 134.824 480.753 134.056 480.753 133.16ZM491.478 121.328C491.19 121.04 490.838 120.816 490.422 120.656C490.022 120.48 489.614 120.392 489.198 120.392C488.398 120.392 487.814 120.68 487.446 121.256C487.078 121.816 486.894 122.544 486.894 123.44V128.264H489.39V129.224H486.894V134.6C486.894 135.288 486.966 135.816 487.11 136.184C487.254 136.536 487.414 136.776 487.59 136.904C487.766 137.016 487.854 137.048 487.854 137H484.374C484.374 137.048 484.462 137.016 484.638 136.904C484.83 136.776 484.998 136.536 485.142 136.184C485.286 135.816 485.358 135.288 485.358 134.6V129.224H484.014V128.264H485.358V124.928C485.358 123.808 485.542 122.824 485.91 121.976C486.294 121.112 486.822 120.44 487.494 119.96C488.182 119.48 488.966 119.24 489.846 119.24C490.534 119.24 491.078 119.312 491.478 119.456V121.328ZM496.679 132.896C496.679 132.064 496.879 131.28 497.279 130.544C497.695 129.792 498.263 129.192 498.983 128.744C499.703 128.296 500.503 128.072 501.383 128.072C502.231 128.072 502.999 128.272 503.687 128.672C504.375 129.056 504.911 129.584 505.295 130.256C505.695 130.928 505.895 131.664 505.895 132.464C505.895 133.296 505.687 134.088 505.271 134.84C504.871 135.576 504.311 136.168 503.591 136.616C502.871 137.064 502.071 137.288 501.191 137.288C500.343 137.288 499.575 137.096 498.887 136.712C498.199 136.312 497.655 135.776 497.255 135.104C496.871 134.432 496.679 133.696 496.679 132.896ZM504.167 133.16C504.167 132.488 504.039 131.824 503.783 131.168C503.527 130.512 503.167 129.976 502.703 129.56C502.239 129.144 501.703 128.936 501.095 128.936C500.247 128.936 499.583 129.256 499.103 129.896C498.639 130.536 498.407 131.304 498.407 132.2C498.407 132.872 498.535 133.536 498.791 134.192C499.047 134.848 499.407 135.384 499.871 135.8C500.335 136.216 500.871 136.424 501.479 136.424C502.327 136.424 502.983 136.104 503.447 135.464C503.927 134.824 504.167 134.056 504.167 133.16ZM514.532 135.608C513.732 136.728 512.748 137.288 511.58 137.288C510.764 137.288 510.092 137.024 509.564 136.496C509.036 135.952 508.772 135.128 508.772 134.024V130.616C508.772 129.96 508.668 129.456 508.46 129.104C508.268 128.752 508.044 128.512 507.788 128.384C507.532 128.256 507.404 128.216 507.404 128.264H510.308V133.664C510.308 134.416 510.508 134.992 510.908 135.392C511.324 135.792 511.812 135.992 512.372 135.992C512.932 135.992 513.428 135.808 513.86 135.44C514.308 135.056 514.532 134.56 514.532 133.952V130.448C514.532 129.824 514.452 129.352 514.292 129.032C514.132 128.712 513.948 128.496 513.74 128.384C513.532 128.272 513.428 128.232 513.428 128.264H516.068V134.288C516.068 134.96 516.172 135.424 516.38 135.68C516.604 135.92 516.852 136.04 517.124 136.04H517.268L514.532 137.288V135.608ZM521.44 130.256C521.68 129.744 522.072 129.256 522.616 128.792C523.176 128.312 523.736 128.072 524.296 128.072C524.648 128.072 524.912 128.12 525.088 128.216V130.184C524.736 129.752 524.24 129.536 523.6 129.536C522.928 129.536 522.4 129.832 522.016 130.424C521.632 131 521.44 131.744 521.44 132.656V134.6C521.44 135.496 521.544 136.112 521.752 136.448C521.96 136.784 522.16 136.968 522.352 137H518.968C519.16 136.968 519.36 136.792 519.568 136.472C519.792 136.136 519.904 135.512 519.904 134.6V130.976C519.904 130.304 519.792 129.848 519.568 129.608C519.36 129.352 519.12 129.224 518.848 129.224L521.44 128.072V130.256ZM541.389 128.264V129.224H539.397C539.973 129.928 540.261 130.648 540.261 131.384C540.261 132.008 540.109 132.592 539.805 133.136C539.501 133.664 539.061 134.088 538.485 134.408C537.925 134.728 537.269 134.888 536.517 134.888C536.133 134.888 535.749 134.856 535.365 134.792C534.789 135.112 534.501 135.472 534.501 135.872C534.501 136.032 534.541 136.184 534.621 136.328C534.701 136.472 534.821 136.576 534.98 136.64C535.205 136.736 535.493 136.808 535.845 136.856C536.197 136.888 536.565 136.912 536.949 136.928C537.333 136.944 537.605 136.952 537.765 136.952C539.013 137 539.901 137.24 540.429 137.672C540.957 138.104 541.221 138.624 541.221 139.232C541.221 139.872 541.013 140.456 540.597 140.984C540.197 141.528 539.613 141.952 538.845 142.256C538.077 142.576 537.189 142.736 536.181 142.736C535.445 142.736 534.805 142.632 534.261 142.424C533.717 142.216 533.301 141.944 533.013 141.608C532.725 141.272 532.581 140.912 532.581 140.528C532.581 140.016 532.797 139.536 533.229 139.088C533.677 138.656 534.229 138.328 534.885 138.104C534.357 138.072 533.933 137.896 533.613 137.576C533.309 137.256 533.157 136.912 533.157 136.544C533.157 136.144 533.293 135.8 533.565 135.512C533.837 135.208 534.229 134.888 534.741 134.552C534.165 134.296 533.725 133.896 533.421 133.352C533.117 132.808 532.965 132.232 532.965 131.624C532.965 131.032 533.109 130.464 533.396 129.92C533.701 129.376 534.141 128.936 534.717 128.6C535.309 128.248 536.005 128.072 536.805 128.072C537.221 128.072 537.653 128.136 538.101 128.264H541.389ZM536.541 128.936C535.949 128.936 535.461 129.152 535.077 129.584C534.693 130 534.501 130.536 534.501 131.192C534.501 132.008 534.709 132.68 535.125 133.208C535.557 133.72 536.077 133.976 536.685 133.976C537.325 133.976 537.821 133.768 538.173 133.352C538.541 132.92 538.725 132.352 538.725 131.648C538.725 130.848 538.509 130.2 538.077 129.704C537.661 129.192 537.149 128.936 536.541 128.936ZM536.133 138.392C535.541 138.392 535.053 138.576 534.669 138.944C534.301 139.312 534.117 139.72 534.117 140.168C534.117 140.6 534.357 140.968 534.837 141.272C535.333 141.592 535.989 141.752 536.805 141.752C537.781 141.752 538.533 141.568 539.061 141.2C539.605 140.832 539.877 140.376 539.877 139.832C539.877 139.352 539.621 138.992 539.109 138.752C538.597 138.512 537.773 138.392 536.637 138.392H536.133ZM546.909 137.288C546.045 137.288 545.301 137.08 544.677 136.664C544.053 136.232 543.573 135.68 543.237 135.008C542.917 134.32 542.757 133.592 542.757 132.824C542.757 131.832 542.949 130.976 543.333 130.256C543.733 129.536 544.245 128.992 544.869 128.624C545.493 128.256 546.141 128.072 546.813 128.072C547.773 128.072 548.597 128.424 549.285 129.128C549.989 129.816 550.373 130.776 550.437 132.008H544.197C544.197 132.776 544.341 133.456 544.629 134.048C544.917 134.624 545.301 135.072 545.781 135.392C546.277 135.696 546.813 135.848 547.389 135.848C548.893 135.848 549.909 135.368 550.437 134.408C550.293 135.272 549.901 135.968 549.261 136.496C548.621 137.024 547.837 137.288 546.909 137.288ZM546.645 128.864C546.021 128.864 545.485 129.088 545.037 129.536C544.589 129.968 544.317 130.536 544.221 131.24H548.589C548.589 130.504 548.389 129.928 547.989 129.512C547.605 129.08 547.157 128.864 546.645 128.864ZM554.862 129.704C555.23 129.208 555.662 128.816 556.158 128.528C556.67 128.224 557.206 128.072 557.766 128.072C558.63 128.072 559.318 128.352 559.83 128.912C560.358 129.456 560.622 130.248 560.622 131.288V134.624C560.622 135.296 560.694 135.808 560.838 136.16C560.982 136.512 561.142 136.752 561.318 136.88C561.494 137.008 561.582 137.048 561.582 137H558.126C558.126 137.048 558.214 137.016 558.39 136.904C558.566 136.776 558.726 136.536 558.87 136.184C559.014 135.832 559.086 135.304 559.086 134.6V131.864C559.086 131.32 559.014 130.888 558.87 130.568C558.726 130.248 558.534 129.984 558.294 129.776C557.926 129.472 557.486 129.32 556.974 129.32C556.398 129.32 555.902 129.512 555.486 129.896C555.07 130.264 554.862 130.784 554.862 131.456V134.6C554.862 135.288 554.934 135.808 555.078 136.16C555.222 136.512 555.382 136.752 555.558 136.88C555.75 137.008 555.846 137.048 555.846 137H552.39C552.39 137.048 552.478 137.016 552.654 136.904C552.83 136.776 552.982 136.536 553.11 136.184C553.254 135.816 553.326 135.288 553.326 134.6V130.976C553.326 130.304 553.214 129.848 552.99 129.608C552.782 129.352 552.542 129.224 552.27 129.224L554.862 128.072V129.704ZM567.651 137.288C566.787 137.288 566.043 137.08 565.419 136.664C564.795 136.232 564.315 135.68 563.979 135.008C563.659 134.32 563.499 133.592 563.499 132.824C563.499 131.832 563.691 130.976 564.075 130.256C564.475 129.536 564.987 128.992 565.611 128.624C566.235 128.256 566.883 128.072 567.555 128.072C568.515 128.072 569.339 128.424 570.027 129.128C570.731 129.816 571.115 130.776 571.179 132.008H564.939C564.939 132.776 565.083 133.456 565.371 134.048C565.659 134.624 566.043 135.072 566.523 135.392C567.019 135.696 567.555 135.848 568.131 135.848C569.635 135.848 570.651 135.368 571.179 134.408C571.035 135.272 570.643 135.968 570.003 136.496C569.363 137.024 568.579 137.288 567.651 137.288ZM567.387 128.864C566.763 128.864 566.227 129.088 565.779 129.536C565.331 129.968 565.059 130.536 564.963 131.24H569.331C569.331 130.504 569.131 129.928 568.731 129.512C568.347 129.08 567.899 128.864 567.387 128.864ZM575.604 130.256C575.844 129.744 576.236 129.256 576.78 128.792C577.34 128.312 577.9 128.072 578.46 128.072C578.812 128.072 579.076 128.12 579.252 128.216V130.184C578.9 129.752 578.404 129.536 577.764 129.536C577.092 129.536 576.564 129.832 576.18 130.424C575.796 131 575.604 131.744 575.604 132.656V134.6C575.604 135.496 575.708 136.112 575.916 136.448C576.124 136.784 576.324 136.968 576.516 137H573.132C573.324 136.968 573.524 136.792 573.732 136.472C573.956 136.136 574.068 135.512 574.068 134.6V130.976C574.068 130.304 573.956 129.848 573.732 129.608C573.524 129.352 573.284 129.224 573.012 129.224L575.604 128.072V130.256ZM588.02 137.288C587.508 137.272 587.076 137.136 586.724 136.88C586.372 136.624 586.172 136.328 586.124 135.992C585.836 136.408 585.452 136.728 584.972 136.952C584.508 137.176 584.044 137.288 583.58 137.288C582.844 137.288 582.228 137.08 581.732 136.664C581.236 136.232 580.988 135.672 580.988 134.984C580.988 133.208 582.652 132.32 585.98 132.32V132.056C585.98 131.176 585.852 130.528 585.596 130.112C585.244 129.52 584.668 129.224 583.868 129.224C583.244 129.224 582.724 129.408 582.308 129.776C581.908 130.144 581.708 130.624 581.708 131.216C581.612 131.056 581.532 130.912 581.468 130.784C581.42 130.656 581.396 130.48 581.396 130.256C581.396 129.68 581.668 129.176 582.212 128.744C582.756 128.296 583.468 128.072 584.348 128.072C585.596 128.072 586.484 128.488 587.012 129.32C587.188 129.576 587.316 129.896 587.396 130.28C587.476 130.664 587.516 131.168 587.516 131.792V134.648C587.516 135.144 587.652 135.528 587.924 135.8C588.212 136.072 588.612 136.208 589.124 136.208H589.436L588.02 137.288ZM585.98 133.04C584.7 133.04 583.836 133.2 583.388 133.52C582.94 133.84 582.716 134.272 582.716 134.816C582.716 135.264 582.836 135.616 583.076 135.872C583.316 136.128 583.636 136.256 584.036 136.256C584.34 136.256 584.628 136.184 584.9 136.04C585.172 135.896 585.404 135.696 585.596 135.44C585.852 135.104 585.98 134.648 585.98 134.072V133.04ZM593.741 137.288C592.957 137.288 592.365 137.024 591.965 136.496C591.565 135.952 591.365 135.304 591.365 134.552V129.224H590.021L592.901 125.96V128.264H595.973V129.224H592.901V134.288C592.901 134.896 593.061 135.36 593.381 135.68C593.701 135.984 594.069 136.136 594.485 136.136C594.805 136.136 595.117 136.04 595.421 135.848C595.725 135.656 595.973 135.392 596.165 135.056C595.925 136.544 595.117 137.288 593.741 137.288ZM598.654 130.976C598.654 130.304 598.542 129.848 598.318 129.608C598.11 129.352 597.87 129.224 597.598 129.224L600.19 128.072V134.6C600.19 135.304 600.262 135.832 600.406 136.184C600.55 136.536 600.71 136.776 600.886 136.904C601.062 137.016 601.15 137.048 601.15 137H597.694C597.694 137.048 597.782 137.016 597.958 136.904C598.134 136.776 598.294 136.536 598.438 136.184C598.582 135.832 598.654 135.304 598.654 134.6V130.976ZM599.398 125.168C599.046 125.168 598.766 125.056 598.558 124.832C598.366 124.592 598.27 124.32 598.27 124.016C598.27 123.712 598.366 123.448 598.558 123.224C598.766 122.984 599.046 122.864 599.398 122.864C599.75 122.864 600.022 122.984 600.214 123.224C600.422 123.448 600.526 123.712 600.526 124.016C600.526 124.32 600.422 124.592 600.214 124.832C600.022 125.056 599.75 125.168 599.398 125.168ZM603.062 132.896C603.062 132.064 603.262 131.28 603.662 130.544C604.078 129.792 604.646 129.192 605.366 128.744C606.086 128.296 606.886 128.072 607.766 128.072C608.614 128.072 609.382 128.272 610.07 128.672C610.758 129.056 611.294 129.584 611.678 130.256C612.078 130.928 612.278 131.664 612.278 132.464C612.278 133.296 612.07 134.088 611.654 134.84C611.254 135.576 610.694 136.168 609.974 136.616C609.254 137.064 608.454 137.288 607.574 137.288C606.726 137.288 605.958 137.096 605.27 136.712C604.582 136.312 604.038 135.776 603.638 135.104C603.254 134.432 603.062 133.696 603.062 132.896ZM610.55 133.16C610.55 132.488 610.422 131.824 610.166 131.168C609.91 130.512 609.55 129.976 609.086 129.56C608.622 129.144 608.086 128.936 607.478 128.936C606.63 128.936 605.966 129.256 605.486 129.896C605.022 130.536 604.79 131.304 604.79 132.2C604.79 132.872 604.918 133.536 605.174 134.192C605.43 134.848 605.79 135.384 606.254 135.8C606.718 136.216 607.254 136.424 607.862 136.424C608.71 136.424 609.366 136.104 609.83 135.464C610.31 134.824 610.55 134.056 610.55 133.16ZM616.69 129.704C617.058 129.208 617.49 128.816 617.986 128.528C618.498 128.224 619.034 128.072 619.594 128.072C620.458 128.072 621.146 128.352 621.658 128.912C622.186 129.456 622.45 130.248 622.45 131.288V134.624C622.45 135.296 622.522 135.808 622.666 136.16C622.81 136.512 622.97 136.752 623.146 136.88C623.322 137.008 623.41 137.048 623.41 137H619.954C619.954 137.048 620.042 137.016 620.218 136.904C620.394 136.776 620.554 136.536 620.698 136.184C620.842 135.832 620.914 135.304 620.914 134.6V131.864C620.914 131.32 620.842 130.888 620.698 130.568C620.554 130.248 620.362 129.984 620.122 129.776C619.754 129.472 619.314 129.32 618.802 129.32C618.226 129.32 617.73 129.512 617.314 129.896C616.898 130.264 616.69 130.784 616.69 131.456V134.6C616.69 135.288 616.762 135.808 616.906 136.16C617.05 136.512 617.21 136.752 617.386 136.88C617.578 137.008 617.674 137.048 617.674 137H614.218C614.218 137.048 614.306 137.016 614.482 136.904C614.658 136.776 614.81 136.536 614.938 136.184C615.082 135.816 615.154 135.288 615.154 134.6V130.976C615.154 130.304 615.042 129.848 614.818 129.608C614.61 129.352 614.37 129.224 614.098 129.224L616.69 128.072V129.704ZM632.428 130.976C632.428 130.304 632.316 129.848 632.092 129.608C631.884 129.352 631.644 129.224 631.372 129.224L633.964 128.072V134.6C633.964 135.304 634.036 135.832 634.18 136.184C634.324 136.536 634.484 136.776 634.66 136.904C634.836 137.016 634.924 137.048 634.924 137H631.468C631.468 137.048 631.556 137.016 631.732 136.904C631.908 136.776 632.068 136.536 632.212 136.184C632.356 135.832 632.428 135.304 632.428 134.6V130.976ZM633.172 125.168C632.82 125.168 632.54 125.056 632.332 124.832C632.14 124.592 632.044 124.32 632.044 124.016C632.044 123.712 632.14 123.448 632.332 123.224C632.54 122.984 632.82 122.864 633.172 122.864C633.524 122.864 633.796 122.984 633.988 123.224C634.196 123.448 634.3 123.712 634.3 124.016C634.3 124.32 634.196 124.592 633.988 124.832C633.796 125.056 633.524 125.168 633.172 125.168ZM639.979 137.288C639.499 137.288 639.003 137.208 638.491 137.048C637.979 136.888 637.555 136.68 637.219 136.424V134.312C637.523 135.064 637.931 135.608 638.443 135.944C638.971 136.264 639.539 136.424 640.147 136.424C640.643 136.424 641.043 136.288 641.347 136.016C641.667 135.744 641.827 135.448 641.827 135.128C641.827 134.776 641.667 134.48 641.347 134.24C641.027 134 640.539 133.728 639.883 133.424C639.035 133.024 638.379 132.632 637.915 132.248C637.451 131.864 637.219 131.344 637.219 130.688C637.219 129.968 637.491 129.352 638.035 128.84C638.579 128.328 639.291 128.072 640.171 128.072C640.779 128.072 641.307 128.144 641.755 128.288C642.203 128.432 642.539 128.592 642.763 128.768L642.379 130.568C642.187 130.024 641.867 129.616 641.419 129.344C640.971 129.072 640.499 128.936 640.003 128.936C639.571 128.936 639.211 129.064 638.923 129.32C638.651 129.576 638.515 129.864 638.515 130.184C638.515 130.616 638.683 130.96 639.019 131.216C639.371 131.472 639.899 131.752 640.603 132.056C641.435 132.408 642.067 132.768 642.499 133.136C642.947 133.488 643.171 133.992 643.171 134.648C643.171 135.112 643.043 135.544 642.787 135.944C642.531 136.344 642.155 136.672 641.659 136.928C641.179 137.168 640.619 137.288 639.979 137.288ZM659.842 128.264V129.224H657.85C658.426 129.928 658.714 130.648 658.714 131.384C658.714 132.008 658.562 132.592 658.258 133.136C657.954 133.664 657.514 134.088 656.938 134.408C656.378 134.728 655.722 134.888 654.97 134.888C654.586 134.888 654.202 134.856 653.818 134.792C653.242 135.112 652.954 135.472 652.954 135.872C652.954 136.032 652.994 136.184 653.074 136.328C653.154 136.472 653.274 136.576 653.434 136.64C653.658 136.736 653.946 136.808 654.298 136.856C654.65 136.888 655.018 136.912 655.402 136.928C655.786 136.944 656.058 136.952 656.218 136.952C657.466 137 658.354 137.24 658.882 137.672C659.41 138.104 659.674 138.624 659.674 139.232C659.674 139.872 659.466 140.456 659.05 140.984C658.65 141.528 658.066 141.952 657.298 142.256C656.53 142.576 655.642 142.736 654.634 142.736C653.898 142.736 653.258 142.632 652.714 142.424C652.17 142.216 651.754 141.944 651.466 141.608C651.178 141.272 651.034 140.912 651.034 140.528C651.034 140.016 651.25 139.536 651.682 139.088C652.13 138.656 652.682 138.328 653.338 138.104C652.81 138.072 652.386 137.896 652.066 137.576C651.762 137.256 651.61 136.912 651.61 136.544C651.61 136.144 651.746 135.8 652.018 135.512C652.29 135.208 652.682 134.888 653.194 134.552C652.618 134.296 652.178 133.896 651.874 133.352C651.57 132.808 651.418 132.232 651.418 131.624C651.418 131.032 651.562 130.464 651.85 129.92C652.154 129.376 652.594 128.936 653.17 128.6C653.762 128.248 654.458 128.072 655.258 128.072C655.674 128.072 656.106 128.136 656.554 128.264H659.842ZM654.994 128.936C654.402 128.936 653.914 129.152 653.53 129.584C653.146 130 652.954 130.536 652.954 131.192C652.954 132.008 653.162 132.68 653.578 133.208C654.01 133.72 654.53 133.976 655.138 133.976C655.778 133.976 656.274 133.768 656.626 133.352C656.994 132.92 657.178 132.352 657.178 131.648C657.178 130.848 656.962 130.2 656.53 129.704C656.114 129.192 655.602 128.936 654.994 128.936ZM654.586 138.392C653.994 138.392 653.506 138.576 653.122 138.944C652.754 139.312 652.57 139.72 652.57 140.168C652.57 140.6 652.81 140.968 653.29 141.272C653.786 141.592 654.442 141.752 655.258 141.752C656.234 141.752 656.986 141.568 657.514 141.2C658.058 140.832 658.33 140.376 658.33 139.832C658.33 139.352 658.074 138.992 657.562 138.752C657.05 138.512 656.226 138.392 655.09 138.392H654.586ZM661.21 132.896C661.21 132.064 661.41 131.28 661.81 130.544C662.226 129.792 662.794 129.192 663.514 128.744C664.234 128.296 665.034 128.072 665.914 128.072C666.762 128.072 667.53 128.272 668.218 128.672C668.906 129.056 669.442 129.584 669.826 130.256C670.226 130.928 670.426 131.664 670.426 132.464C670.426 133.296 670.218 134.088 669.802 134.84C669.402 135.576 668.842 136.168 668.122 136.616C667.402 137.064 666.602 137.288 665.722 137.288C664.874 137.288 664.106 137.096 663.418 136.712C662.73 136.312 662.186 135.776 661.786 135.104C661.402 134.432 661.21 133.696 661.21 132.896ZM668.698 133.16C668.698 132.488 668.57 131.824 668.314 131.168C668.058 130.512 667.698 129.976 667.234 129.56C666.77 129.144 666.234 128.936 665.626 128.936C664.778 128.936 664.114 129.256 663.634 129.896C663.17 130.536 662.938 131.304 662.938 132.2C662.938 132.872 663.066 133.536 663.322 134.192C663.578 134.848 663.938 135.384 664.402 135.8C664.866 136.216 665.402 136.424 666.01 136.424C666.858 136.424 667.514 136.104 667.978 135.464C668.458 134.824 668.698 134.056 668.698 133.16ZM673.303 130.976C673.303 130.304 673.191 129.848 672.967 129.608C672.759 129.352 672.519 129.224 672.247 129.224L674.839 128.072V134.6C674.839 135.304 674.911 135.832 675.055 136.184C675.199 136.536 675.359 136.776 675.535 136.904C675.711 137.016 675.799 137.048 675.799 137H672.343C672.343 137.048 672.431 137.016 672.607 136.904C672.783 136.776 672.943 136.536 673.087 136.184C673.231 135.832 673.303 135.304 673.303 134.6V130.976ZM674.047 125.168C673.695 125.168 673.415 125.056 673.207 124.832C673.015 124.592 672.919 124.32 672.919 124.016C672.919 123.712 673.015 123.448 673.207 123.224C673.415 122.984 673.695 122.864 674.047 122.864C674.399 122.864 674.671 122.984 674.863 123.224C675.071 123.448 675.175 123.712 675.175 124.016C675.175 124.32 675.071 124.592 674.863 124.832C674.671 125.056 674.399 125.168 674.047 125.168ZM680.206 129.704C680.574 129.208 681.006 128.816 681.502 128.528C682.014 128.224 682.55 128.072 683.11 128.072C683.974 128.072 684.662 128.352 685.174 128.912C685.702 129.456 685.966 130.248 685.966 131.288V134.624C685.966 135.296 686.038 135.808 686.182 136.16C686.326 136.512 686.486 136.752 686.662 136.88C686.838 137.008 686.926 137.048 686.926 137H683.47C683.47 137.048 683.558 137.016 683.734 136.904C683.91 136.776 684.07 136.536 684.214 136.184C684.358 135.832 684.43 135.304 684.43 134.6V131.864C684.43 131.32 684.358 130.888 684.214 130.568C684.07 130.248 683.878 129.984 683.638 129.776C683.27 129.472 682.83 129.32 682.318 129.32C681.742 129.32 681.246 129.512 680.83 129.896C680.414 130.264 680.206 130.784 680.206 131.456V134.6C680.206 135.288 680.278 135.808 680.422 136.16C680.566 136.512 680.726 136.752 680.902 136.88C681.094 137.008 681.19 137.048 681.19 137H677.734C677.734 137.048 677.822 137.016 677.998 136.904C678.174 136.776 678.326 136.536 678.454 136.184C678.598 135.816 678.67 135.288 678.67 134.6V130.976C678.67 130.304 678.558 129.848 678.334 129.608C678.126 129.352 677.886 129.224 677.614 129.224L680.206 128.072V129.704ZM697.459 128.264V129.224H695.467C696.043 129.928 696.331 130.648 696.331 131.384C696.331 132.008 696.179 132.592 695.875 133.136C695.571 133.664 695.131 134.088 694.555 134.408C693.995 134.728 693.339 134.888 692.587 134.888C692.203 134.888 691.819 134.856 691.435 134.792C690.859 135.112 690.571 135.472 690.571 135.872C690.571 136.032 690.611 136.184 690.691 136.328C690.771 136.472 690.891 136.576 691.051 136.64C691.275 136.736 691.563 136.808 691.915 136.856C692.267 136.888 692.635 136.912 693.019 136.928C693.403 136.944 693.675 136.952 693.835 136.952C695.083 137 695.971 137.24 696.499 137.672C697.027 138.104 697.291 138.624 697.291 139.232C697.291 139.872 697.083 140.456 696.667 140.984C696.267 141.528 695.683 141.952 694.915 142.256C694.147 142.576 693.259 142.736 692.251 142.736C691.515 142.736 690.875 142.632 690.331 142.424C689.787 142.216 689.371 141.944 689.083 141.608C688.795 141.272 688.651 140.912 688.651 140.528C688.651 140.016 688.867 139.536 689.299 139.088C689.747 138.656 690.299 138.328 690.955 138.104C690.427 138.072 690.003 137.896 689.683 137.576C689.379 137.256 689.227 136.912 689.227 136.544C689.227 136.144 689.363 135.8 689.635 135.512C689.907 135.208 690.299 134.888 690.811 134.552C690.235 134.296 689.795 133.896 689.491 133.352C689.187 132.808 689.035 132.232 689.035 131.624C689.035 131.032 689.179 130.464 689.467 129.92C689.771 129.376 690.211 128.936 690.787 128.6C691.379 128.248 692.075 128.072 692.875 128.072C693.291 128.072 693.723 128.136 694.171 128.264H697.459ZM692.611 128.936C692.019 128.936 691.531 129.152 691.147 129.584C690.763 130 690.571 130.536 690.571 131.192C690.571 132.008 690.779 132.68 691.195 133.208C691.627 133.72 692.147 133.976 692.755 133.976C693.395 133.976 693.891 133.768 694.243 133.352C694.611 132.92 694.795 132.352 694.795 131.648C694.795 130.848 694.579 130.2 694.147 129.704C693.731 129.192 693.219 128.936 692.611 128.936ZM692.203 138.392C691.611 138.392 691.123 138.576 690.739 138.944C690.371 139.312 690.187 139.72 690.187 140.168C690.187 140.6 690.427 140.968 690.907 141.272C691.403 141.592 692.059 141.752 692.875 141.752C693.851 141.752 694.603 141.568 695.131 141.2C695.675 140.832 695.947 140.376 695.947 139.832C695.947 139.352 695.691 138.992 695.179 138.752C694.667 138.512 693.843 138.392 692.707 138.392H692.203ZM167.296 165.288C166.512 165.288 165.92 165.024 165.52 164.496C165.12 163.952 164.92 163.304 164.92 162.552V157.224H163.576L166.456 153.96V156.264H169.528V157.224H166.456V162.288C166.456 162.896 166.616 163.36 166.936 163.68C167.256 163.984 167.624 164.136 168.04 164.136C168.36 164.136 168.672 164.04 168.976 163.848C169.28 163.656 169.528 163.392 169.72 163.056C169.48 164.544 168.672 165.288 167.296 165.288ZM171.249 160.896C171.249 160.064 171.449 159.28 171.849 158.544C172.265 157.792 172.833 157.192 173.553 156.744C174.273 156.296 175.073 156.072 175.953 156.072C176.801 156.072 177.569 156.272 178.257 156.672C178.945 157.056 179.481 157.584 179.865 158.256C180.265 158.928 180.465 159.664 180.465 160.464C180.465 161.296 180.257 162.088 179.841 162.84C179.441 163.576 178.881 164.168 178.161 164.616C177.441 165.064 176.641 165.288 175.761 165.288C174.913 165.288 174.145 165.096 173.457 164.712C172.769 164.312 172.225 163.776 171.825 163.104C171.441 162.432 171.249 161.696 171.249 160.896ZM178.737 161.16C178.737 160.488 178.609 159.824 178.353 159.168C178.097 158.512 177.737 157.976 177.273 157.56C176.809 157.144 176.273 156.936 175.665 156.936C174.817 156.936 174.153 157.256 173.673 157.896C173.209 158.536 172.977 159.304 172.977 160.2C172.977 160.872 173.105 161.536 173.361 162.192C173.617 162.848 173.977 163.384 174.441 163.8C174.905 164.216 175.441 164.424 176.049 164.424C176.897 164.424 177.553 164.104 178.017 163.464C178.497 162.824 178.737 162.056 178.737 161.16ZM195.243 150.24C195.243 149.568 195.131 149.112 194.907 148.872C194.699 148.616 194.459 148.488 194.187 148.488H194.043L196.779 147.24V162.288C196.779 162.96 196.883 163.424 197.091 163.68C197.315 163.92 197.563 164.04 197.835 164.04H197.979L195.243 165.288V163.728C195.051 164.048 194.699 164.392 194.187 164.76C193.691 165.112 193.035 165.288 192.219 165.288C191.515 165.288 190.883 165.112 190.323 164.76C189.763 164.408 189.323 163.92 189.003 163.296C188.683 162.672 188.523 161.976 188.523 161.208C188.523 160.232 188.723 159.368 189.123 158.616C189.523 157.864 190.043 157.264 190.683 156.816C191.403 156.32 192.187 156.072 193.035 156.072C193.595 156.072 194.059 156.152 194.427 156.312C194.795 156.456 195.067 156.592 195.243 156.72V150.24ZM190.251 160.488C190.251 161.496 190.483 162.376 190.947 163.128C191.427 163.864 192.115 164.232 193.011 164.232C193.347 164.232 193.691 164.144 194.043 163.968C194.395 163.776 194.683 163.52 194.907 163.2C195.131 162.88 195.243 162.52 195.243 162.12V159.288C195.243 158.776 195.179 158.36 195.051 158.04C194.939 157.72 194.755 157.48 194.499 157.32C194.099 157.064 193.611 156.936 193.035 156.936C192.235 156.936 191.571 157.264 191.043 157.92C190.515 158.56 190.251 159.416 190.251 160.488ZM200.615 158.976C200.615 158.304 200.503 157.848 200.279 157.608C200.071 157.352 199.831 157.224 199.559 157.224L202.151 156.072V162.6C202.151 163.304 202.223 163.832 202.367 164.184C202.511 164.536 202.671 164.776 202.847 164.904C203.023 165.016 203.111 165.048 203.111 165H199.655C199.655 165.048 199.743 165.016 199.919 164.904C200.095 164.776 200.255 164.536 200.399 164.184C200.543 163.832 200.615 163.304 200.615 162.6V158.976ZM201.359 153.168C201.007 153.168 200.727 153.056 200.519 152.832C200.327 152.592 200.231 152.32 200.231 152.016C200.231 151.712 200.327 151.448 200.519 151.224C200.727 150.984 201.007 150.864 201.359 150.864C201.711 150.864 201.983 150.984 202.175 151.224C202.383 151.448 202.487 151.712 202.487 152.016C202.487 152.32 202.383 152.592 202.175 152.832C201.983 153.056 201.711 153.168 201.359 153.168ZM208.167 165.288C207.687 165.288 207.191 165.208 206.679 165.048C206.167 164.888 205.743 164.68 205.407 164.424V162.312C205.711 163.064 206.119 163.608 206.631 163.944C207.159 164.264 207.727 164.424 208.335 164.424C208.831 164.424 209.231 164.288 209.535 164.016C209.855 163.744 210.015 163.448 210.015 163.128C210.015 162.776 209.855 162.48 209.535 162.24C209.215 162 208.727 161.728 208.071 161.424C207.223 161.024 206.567 160.632 206.103 160.248C205.639 159.864 205.407 159.344 205.407 158.688C205.407 157.968 205.679 157.352 206.223 156.84C206.767 156.328 207.479 156.072 208.359 156.072C208.967 156.072 209.495 156.144 209.943 156.288C210.391 156.432 210.727 156.592 210.951 156.768L210.567 158.568C210.375 158.024 210.055 157.616 209.607 157.344C209.159 157.072 208.687 156.936 208.191 156.936C207.759 156.936 207.399 157.064 207.111 157.32C206.839 157.576 206.703 157.864 206.703 158.184C206.703 158.616 206.871 158.96 207.207 159.216C207.559 159.472 208.087 159.752 208.791 160.056C209.623 160.408 210.255 160.768 210.687 161.136C211.135 161.488 211.359 161.992 211.359 162.648C211.359 163.112 211.231 163.544 210.975 163.944C210.719 164.344 210.343 164.672 209.847 164.928C209.367 165.168 208.807 165.288 208.167 165.288ZM220.497 165.288C219.985 165.272 219.553 165.136 219.201 164.88C218.849 164.624 218.649 164.328 218.601 163.992C218.313 164.408 217.929 164.728 217.449 164.952C216.985 165.176 216.521 165.288 216.057 165.288C215.321 165.288 214.705 165.08 214.209 164.664C213.713 164.232 213.465 163.672 213.465 162.984C213.465 161.208 215.129 160.32 218.457 160.32V160.056C218.457 159.176 218.329 158.528 218.073 158.112C217.721 157.52 217.145 157.224 216.345 157.224C215.721 157.224 215.201 157.408 214.785 157.776C214.385 158.144 214.185 158.624 214.185 159.216C214.089 159.056 214.009 158.912 213.945 158.784C213.897 158.656 213.873 158.48 213.873 158.256C213.873 157.68 214.145 157.176 214.689 156.744C215.233 156.296 215.945 156.072 216.825 156.072C218.073 156.072 218.961 156.488 219.489 157.32C219.665 157.576 219.793 157.896 219.873 158.28C219.953 158.664 219.993 159.168 219.993 159.792V162.648C219.993 163.144 220.129 163.528 220.401 163.8C220.689 164.072 221.089 164.208 221.601 164.208H221.913L220.497 165.288ZM218.457 161.04C217.177 161.04 216.313 161.2 215.865 161.52C215.417 161.84 215.193 162.272 215.193 162.816C215.193 163.264 215.313 163.616 215.553 163.872C215.793 164.128 216.113 164.256 216.513 164.256C216.817 164.256 217.105 164.184 217.377 164.04C217.649 163.896 217.881 163.696 218.073 163.44C218.329 163.104 218.457 162.648 218.457 162.072V161.04ZM225.378 168.168C225.378 168.872 225.45 169.4 225.594 169.752C225.738 170.104 225.898 170.336 226.074 170.448C226.25 170.576 226.338 170.616 226.338 170.568H222.882C222.882 170.616 222.97 170.576 223.146 170.448C223.322 170.336 223.482 170.096 223.626 169.728C223.77 169.376 223.842 168.856 223.842 168.168V158.976C223.842 158.304 223.73 157.848 223.506 157.608C223.298 157.352 223.058 157.224 222.786 157.224L225.378 156.072V157.632C225.57 157.312 225.914 156.976 226.41 156.624C226.922 156.256 227.586 156.072 228.402 156.072C229.106 156.072 229.738 156.248 230.298 156.6C230.858 156.952 231.298 157.44 231.618 158.064C231.938 158.688 232.098 159.384 232.098 160.152C232.098 161.128 231.898 161.992 231.498 162.744C231.098 163.496 230.578 164.096 229.938 164.544C229.218 165.04 228.434 165.288 227.586 165.288C227.026 165.288 226.562 165.208 226.194 165.048C225.826 164.904 225.554 164.768 225.378 164.64V168.168ZM230.37 160.872C230.37 159.864 230.13 158.992 229.65 158.256C229.186 157.504 228.506 157.128 227.61 157.128C227.274 157.128 226.93 157.224 226.578 157.416C226.226 157.592 225.938 157.84 225.714 158.16C225.49 158.48 225.378 158.84 225.378 159.24V162.072C225.378 162.584 225.434 163 225.546 163.32C225.674 163.64 225.866 163.88 226.122 164.04C226.522 164.296 227.01 164.424 227.586 164.424C228.386 164.424 229.05 164.104 229.578 163.464C230.106 162.808 230.37 161.944 230.37 160.872ZM236.511 168.168C236.511 168.872 236.583 169.4 236.727 169.752C236.871 170.104 237.031 170.336 237.207 170.448C237.383 170.576 237.471 170.616 237.471 170.568H234.015C234.015 170.616 234.103 170.576 234.279 170.448C234.455 170.336 234.615 170.096 234.759 169.728C234.903 169.376 234.975 168.856 234.975 168.168V158.976C234.975 158.304 234.863 157.848 234.639 157.608C234.431 157.352 234.191 157.224 233.919 157.224L236.511 156.072V157.632C236.703 157.312 237.047 156.976 237.543 156.624C238.055 156.256 238.719 156.072 239.535 156.072C240.239 156.072 240.871 156.248 241.431 156.6C241.991 156.952 242.431 157.44 242.751 158.064C243.071 158.688 243.231 159.384 243.231 160.152C243.231 161.128 243.031 161.992 242.631 162.744C242.231 163.496 241.711 164.096 241.071 164.544C240.351 165.04 239.567 165.288 238.719 165.288C238.159 165.288 237.695 165.208 237.327 165.048C236.959 164.904 236.687 164.768 236.511 164.64V168.168ZM241.503 160.872C241.503 159.864 241.263 158.992 240.783 158.256C240.319 157.504 239.639 157.128 238.743 157.128C238.407 157.128 238.063 157.224 237.711 157.416C237.359 157.592 237.071 157.84 236.847 158.16C236.623 158.48 236.511 158.84 236.511 159.24V162.072C236.511 162.584 236.567 163 236.679 163.32C236.807 163.64 236.999 163.88 237.255 164.04C237.655 164.296 238.143 164.424 238.719 164.424C239.519 164.424 240.183 164.104 240.711 163.464C241.239 162.808 241.503 161.944 241.503 160.872ZM249.3 165.288C248.436 165.288 247.692 165.08 247.068 164.664C246.444 164.232 245.964 163.68 245.628 163.008C245.308 162.32 245.148 161.592 245.148 160.824C245.148 159.832 245.34 158.976 245.724 158.256C246.124 157.536 246.636 156.992 247.26 156.624C247.884 156.256 248.532 156.072 249.204 156.072C250.164 156.072 250.988 156.424 251.676 157.128C252.38 157.816 252.764 158.776 252.828 160.008H246.588C246.588 160.776 246.732 161.456 247.02 162.048C247.308 162.624 247.692 163.072 248.172 163.392C248.668 163.696 249.204 163.848 249.78 163.848C251.284 163.848 252.3 163.368 252.828 162.408C252.684 163.272 252.292 163.968 251.652 164.496C251.012 165.024 250.228 165.288 249.3 165.288ZM249.036 156.864C248.412 156.864 247.876 157.088 247.428 157.536C246.98 157.968 246.708 158.536 246.612 159.24H250.98C250.98 158.504 250.78 157.928 250.38 157.512C249.996 157.08 249.548 156.864 249.036 156.864ZM261.981 165.288C261.469 165.272 261.037 165.136 260.685 164.88C260.333 164.624 260.133 164.328 260.085 163.992C259.797 164.408 259.413 164.728 258.933 164.952C258.469 165.176 258.005 165.288 257.541 165.288C256.805 165.288 256.189 165.08 255.693 164.664C255.197 164.232 254.949 163.672 254.949 162.984C254.949 161.208 256.613 160.32 259.941 160.32V160.056C259.941 159.176 259.813 158.528 259.557 158.112C259.205 157.52 258.629 157.224 257.829 157.224C257.205 157.224 256.685 157.408 256.269 157.776C255.869 158.144 255.669 158.624 255.669 159.216C255.573 159.056 255.493 158.912 255.429 158.784C255.381 158.656 255.357 158.48 255.357 158.256C255.357 157.68 255.629 157.176 256.173 156.744C256.717 156.296 257.429 156.072 258.309 156.072C259.557 156.072 260.445 156.488 260.973 157.32C261.149 157.576 261.277 157.896 261.357 158.28C261.437 158.664 261.477 159.168 261.477 159.792V162.648C261.477 163.144 261.613 163.528 261.885 163.8C262.173 164.072 262.573 164.208 263.085 164.208H263.397L261.981 165.288ZM259.941 161.04C258.661 161.04 257.797 161.2 257.349 161.52C256.901 161.84 256.677 162.272 256.677 162.816C256.677 163.264 256.797 163.616 257.037 163.872C257.277 164.128 257.597 164.256 257.997 164.256C258.301 164.256 258.589 164.184 258.861 164.04C259.133 163.896 259.365 163.696 259.557 163.44C259.813 163.104 259.941 162.648 259.941 162.072V161.04ZM266.862 158.256C267.102 157.744 267.494 157.256 268.038 156.792C268.598 156.312 269.158 156.072 269.718 156.072C270.07 156.072 270.334 156.12 270.51 156.216V158.184C270.158 157.752 269.662 157.536 269.022 157.536C268.35 157.536 267.822 157.832 267.438 158.424C267.054 159 266.862 159.744 266.862 160.656V162.6C266.862 163.496 266.966 164.112 267.174 164.448C267.382 164.784 267.582 164.968 267.774 165H264.39C264.582 164.968 264.782 164.792 264.99 164.472C265.214 164.136 265.326 163.512 265.326 162.6V158.976C265.326 158.304 265.214 157.848 264.99 157.608C264.782 157.352 264.542 157.224 264.27 157.224L266.862 156.072V158.256ZM282.442 165.288C281.578 165.288 280.818 165.08 280.162 164.664C279.522 164.248 279.034 163.696 278.698 163.008C278.362 162.32 278.194 161.592 278.194 160.824C278.194 160.024 278.362 159.264 278.698 158.544C279.05 157.808 279.554 157.216 280.21 156.768C280.866 156.304 281.642 156.072 282.538 156.072C283.61 156.072 284.386 156.304 284.866 156.768C285.346 157.232 285.682 157.72 285.874 158.232L284.29 159C284.194 158.424 283.954 157.936 283.57 157.536C283.202 157.136 282.746 156.936 282.202 156.936C281.418 156.936 280.81 157.24 280.378 157.848C279.946 158.456 279.73 159.2 279.73 160.08C279.73 160.704 279.866 161.312 280.138 161.904C280.426 162.48 280.826 162.952 281.338 163.32C281.866 163.688 282.482 163.872 283.186 163.872C283.762 163.872 284.306 163.744 284.818 163.488C285.346 163.216 285.762 162.856 286.066 162.408C285.89 163.304 285.474 164.008 284.818 164.52C284.162 165.032 283.37 165.288 282.442 165.288ZM287.804 160.896C287.804 160.064 288.004 159.28 288.404 158.544C288.82 157.792 289.388 157.192 290.108 156.744C290.828 156.296 291.628 156.072 292.508 156.072C293.356 156.072 294.124 156.272 294.812 156.672C295.5 157.056 296.036 157.584 296.42 158.256C296.82 158.928 297.02 159.664 297.02 160.464C297.02 161.296 296.812 162.088 296.396 162.84C295.996 163.576 295.436 164.168 294.716 164.616C293.996 165.064 293.196 165.288 292.316 165.288C291.468 165.288 290.7 165.096 290.012 164.712C289.324 164.312 288.78 163.776 288.38 163.104C287.996 162.432 287.804 161.696 287.804 160.896ZM295.292 161.16C295.292 160.488 295.164 159.824 294.908 159.168C294.652 158.512 294.292 157.976 293.828 157.56C293.364 157.144 292.828 156.936 292.22 156.936C291.372 156.936 290.708 157.256 290.228 157.896C289.764 158.536 289.532 159.304 289.532 160.2C289.532 160.872 289.66 161.536 289.916 162.192C290.172 162.848 290.532 163.384 290.996 163.8C291.46 164.216 291.996 164.424 292.604 164.424C293.452 164.424 294.108 164.104 294.572 163.464C295.052 162.824 295.292 162.056 295.292 161.16ZM301.433 157.704C301.833 157.208 302.281 156.816 302.777 156.528C303.273 156.224 303.793 156.072 304.337 156.072C304.929 156.072 305.449 156.216 305.897 156.504C306.361 156.776 306.697 157.176 306.905 157.704C307.337 157.16 307.825 156.752 308.369 156.48C308.929 156.208 309.505 156.072 310.097 156.072C310.961 156.072 311.649 156.352 312.161 156.912C312.689 157.456 312.953 158.248 312.953 159.288V162.624C312.953 163.504 313.065 164.112 313.289 164.448C313.513 164.784 313.713 164.968 313.889 165H310.481C310.673 164.968 310.873 164.784 311.081 164.448C311.305 164.112 311.417 163.496 311.417 162.6V159.864C311.417 159.32 311.345 158.888 311.201 158.568C311.057 158.248 310.865 157.984 310.625 157.776C310.257 157.472 309.817 157.32 309.305 157.32C308.745 157.32 308.249 157.512 307.817 157.896C307.401 158.264 307.193 158.784 307.193 159.456V162.6C307.193 163.496 307.297 164.112 307.505 164.448C307.729 164.784 307.937 164.968 308.129 165H304.721C304.913 164.968 305.113 164.784 305.321 164.448C305.545 164.112 305.657 163.496 305.657 162.6V159.864C305.657 159.32 305.585 158.888 305.441 158.568C305.297 158.248 305.105 157.984 304.865 157.776C304.497 157.472 304.057 157.32 303.545 157.32C302.969 157.32 302.473 157.512 302.057 157.896C301.641 158.264 301.433 158.784 301.433 159.456V162.6C301.433 163.512 301.545 164.136 301.769 164.472C301.993 164.792 302.201 164.968 302.393 165H298.985C299.177 164.968 299.377 164.784 299.585 164.448C299.793 164.112 299.897 163.496 299.897 162.6V158.976C299.897 158.304 299.785 157.848 299.561 157.608C299.353 157.352 299.113 157.224 298.841 157.224L301.433 156.072V157.704ZM318.331 168.168C318.331 168.872 318.403 169.4 318.547 169.752C318.691 170.104 318.851 170.336 319.027 170.448C319.203 170.576 319.291 170.616 319.291 170.568H315.835C315.835 170.616 315.923 170.576 316.099 170.448C316.275 170.336 316.435 170.096 316.579 169.728C316.723 169.376 316.795 168.856 316.795 168.168V158.976C316.795 158.304 316.683 157.848 316.459 157.608C316.251 157.352 316.011 157.224 315.739 157.224L318.331 156.072V157.632C318.523 157.312 318.867 156.976 319.363 156.624C319.875 156.256 320.539 156.072 321.355 156.072C322.059 156.072 322.691 156.248 323.251 156.6C323.811 156.952 324.251 157.44 324.571 158.064C324.891 158.688 325.051 159.384 325.051 160.152C325.051 161.128 324.851 161.992 324.451 162.744C324.051 163.496 323.531 164.096 322.891 164.544C322.171 165.04 321.387 165.288 320.539 165.288C319.979 165.288 319.515 165.208 319.147 165.048C318.779 164.904 318.507 164.768 318.331 164.64V168.168ZM323.323 160.872C323.323 159.864 323.083 158.992 322.603 158.256C322.139 157.504 321.459 157.128 320.563 157.128C320.227 157.128 319.883 157.224 319.531 157.416C319.179 157.592 318.891 157.84 318.667 158.16C318.443 158.48 318.331 158.84 318.331 159.24V162.072C318.331 162.584 318.387 163 318.499 163.32C318.627 163.64 318.819 163.88 319.075 164.04C319.475 164.296 319.963 164.424 320.539 164.424C321.339 164.424 322.003 164.104 322.531 163.464C323.059 162.808 323.323 161.944 323.323 160.872ZM327.928 150.24C327.928 149.568 327.816 149.112 327.592 148.872C327.384 148.616 327.144 148.488 326.872 148.488H326.728L329.464 147.24V162.6C329.464 163.304 329.536 163.832 329.68 164.184C329.824 164.536 329.984 164.776 330.16 164.904C330.336 165.016 330.424 165.048 330.424 165H326.968C326.968 165.048 327.056 165.016 327.232 164.904C327.408 164.776 327.568 164.536 327.712 164.184C327.856 163.816 327.928 163.288 327.928 162.6V150.24ZM336.487 165.288C335.623 165.288 334.879 165.08 334.255 164.664C333.631 164.232 333.151 163.68 332.815 163.008C332.495 162.32 332.335 161.592 332.335 160.824C332.335 159.832 332.527 158.976 332.911 158.256C333.311 157.536 333.823 156.992 334.447 156.624C335.071 156.256 335.719 156.072 336.391 156.072C337.351 156.072 338.175 156.424 338.863 157.128C339.567 157.816 339.951 158.776 340.015 160.008H333.775C333.775 160.776 333.919 161.456 334.207 162.048C334.495 162.624 334.879 163.072 335.359 163.392C335.855 163.696 336.391 163.848 336.967 163.848C338.471 163.848 339.487 163.368 340.015 162.408C339.871 163.272 339.479 163.968 338.839 164.496C338.199 165.024 337.415 165.288 336.487 165.288ZM336.223 156.864C335.599 156.864 335.063 157.088 334.615 157.536C334.167 157.968 333.895 158.536 333.799 159.24H338.167C338.167 158.504 337.967 157.928 337.567 157.512C337.183 157.08 336.735 156.864 336.223 156.864ZM345.28 165.288C344.496 165.288 343.904 165.024 343.504 164.496C343.104 163.952 342.904 163.304 342.904 162.552V157.224H341.56L344.44 153.96V156.264H347.512V157.224H344.44V162.288C344.44 162.896 344.6 163.36 344.92 163.68C345.24 163.984 345.608 164.136 346.024 164.136C346.344 164.136 346.656 164.04 346.96 163.848C347.264 163.656 347.512 163.392 347.704 163.056C347.464 164.544 346.656 165.288 345.28 165.288ZM353.385 165.288C352.521 165.288 351.777 165.08 351.153 164.664C350.529 164.232 350.049 163.68 349.713 163.008C349.393 162.32 349.233 161.592 349.233 160.824C349.233 159.832 349.425 158.976 349.809 158.256C350.209 157.536 350.721 156.992 351.345 156.624C351.969 156.256 352.617 156.072 353.289 156.072C354.249 156.072 355.073 156.424 355.761 157.128C356.465 157.816 356.849 158.776 356.913 160.008H350.673C350.673 160.776 350.817 161.456 351.105 162.048C351.393 162.624 351.777 163.072 352.257 163.392C352.753 163.696 353.289 163.848 353.865 163.848C355.369 163.848 356.385 163.368 356.913 162.408C356.769 163.272 356.377 163.968 355.737 164.496C355.097 165.024 354.313 165.288 353.385 165.288ZM353.121 156.864C352.497 156.864 351.961 157.088 351.513 157.536C351.065 157.968 350.793 158.536 350.697 159.24H355.065C355.065 158.504 354.865 157.928 354.465 157.512C354.081 157.08 353.633 156.864 353.121 156.864ZM359.803 150.24C359.803 149.568 359.691 149.112 359.467 148.872C359.259 148.616 359.019 148.488 358.747 148.488H358.603L361.339 147.24V162.6C361.339 163.304 361.411 163.832 361.555 164.184C361.699 164.536 361.859 164.776 362.035 164.904C362.211 165.016 362.299 165.048 362.299 165H358.843C358.843 165.048 358.931 165.016 359.107 164.904C359.283 164.776 359.443 164.536 359.587 164.184C359.731 163.816 359.803 163.288 359.803 162.6V150.24ZM367.57 164.28L364.762 157.92C364.49 157.312 364.226 156.896 363.97 156.672C363.73 156.432 363.538 156.296 363.394 156.264H366.898C366.754 156.296 366.61 156.368 366.466 156.48C366.322 156.592 366.25 156.792 366.25 157.08C366.25 157.352 366.33 157.656 366.49 157.992L368.434 162.48L370.162 158.232C370.274 157.944 370.33 157.648 370.33 157.344C370.33 157.056 370.266 156.816 370.138 156.624C370.026 156.432 369.834 156.312 369.562 156.264H372.778C372.602 156.296 372.37 156.432 372.082 156.672C371.81 156.912 371.538 157.36 371.266 158.016L368.002 165.6C367.57 166.608 367.25 167.4 367.042 167.976C366.834 168.568 366.634 169.176 366.442 169.8C366.362 170.104 366.282 170.36 366.202 170.568H363.754C364.186 170.36 364.714 169.776 365.338 168.816C365.978 167.856 366.634 166.56 367.306 164.928L367.57 164.28ZM375.205 165.24C374.885 165.24 374.597 165.136 374.341 164.928C374.101 164.704 373.981 164.4 373.981 164.016C373.981 163.632 374.101 163.336 374.341 163.128C374.581 162.92 374.869 162.816 375.205 162.816C375.541 162.816 375.829 162.92 376.069 163.128C376.309 163.336 376.429 163.632 376.429 164.016C376.429 164.4 376.301 164.704 376.045 164.928C375.805 165.136 375.525 165.24 375.205 165.24ZM381.345 165.24C381.025 165.24 380.737 165.136 380.481 164.928C380.241 164.704 380.121 164.4 380.121 164.016C380.121 163.632 380.241 163.336 380.481 163.128C380.721 162.92 381.009 162.816 381.345 162.816C381.681 162.816 381.969 162.92 382.209 163.128C382.449 163.336 382.569 163.632 382.569 164.016C382.569 164.4 382.441 164.704 382.185 164.928C381.945 165.136 381.665 165.24 381.345 165.24ZM387.486 165.24C387.166 165.24 386.878 165.136 386.622 164.928C386.382 164.704 386.262 164.4 386.262 164.016C386.262 163.632 386.382 163.336 386.622 163.128C386.862 162.92 387.15 162.816 387.486 162.816C387.822 162.816 388.11 162.92 388.35 163.128C388.59 163.336 388.71 163.632 388.71 164.016C388.71 164.4 388.582 164.704 388.326 164.928C388.086 165.136 387.806 165.24 387.486 165.24ZM390.949 153.576C391.381 153.416 391.741 153.048 392.029 152.472C392.333 151.896 392.485 151.328 392.485 150.768C392.485 150.624 392.477 150.52 392.461 150.456H392.293C391.893 150.456 391.589 150.352 391.381 150.144C391.173 149.936 391.069 149.68 391.069 149.376C391.069 149.056 391.173 148.784 391.381 148.56C391.605 148.32 391.901 148.2 392.269 148.2C392.669 148.2 393.013 148.368 393.301 148.704C393.605 149.024 393.757 149.496 393.757 150.12C393.757 150.616 393.653 151.128 393.445 151.656C393.237 152.168 392.917 152.608 392.485 152.976C392.053 153.344 391.541 153.544 390.949 153.576ZM395.053 153.576C395.485 153.416 395.845 153.048 396.133 152.472C396.437 151.896 396.589 151.328 396.589 150.768C396.589 150.624 396.581 150.52 396.565 150.456H396.397C395.997 150.456 395.693 150.352 395.485 150.144C395.277 149.936 395.173 149.68 395.173 149.376C395.173 149.056 395.277 148.784 395.485 148.56C395.709 148.32 396.005 148.2 396.373 148.2C396.773 148.2 397.117 148.368 397.405 148.704C397.709 149.024 397.861 149.496 397.861 150.12C397.861 150.616 397.757 151.128 397.549 151.656C397.341 152.168 397.021 152.608 396.589 152.976C396.157 153.344 395.645 153.544 395.053 153.576Z" fill="#F5F7F9"/>
<path d="M167.72 192.136C167.683 192.509 167.555 192.827 167.336 193.088C167.123 193.344 166.829 193.472 166.456 193.472C166.227 193.472 166.019 193.429 165.832 193.344C165.651 193.253 165.509 193.157 165.408 193.056C165.312 192.949 165.192 192.853 165.048 192.768C164.909 192.677 164.763 192.632 164.608 192.632C164.395 192.632 164.227 192.704 164.104 192.848C163.981 192.987 163.907 193.163 163.88 193.376H163.288C163.325 192.997 163.451 192.68 163.664 192.424C163.883 192.168 164.181 192.04 164.56 192.04C164.784 192.04 164.987 192.085 165.168 192.176C165.355 192.261 165.496 192.357 165.592 192.464C165.693 192.565 165.813 192.661 165.952 192.752C166.091 192.837 166.237 192.88 166.392 192.88C166.605 192.88 166.773 192.811 166.896 192.672C167.024 192.528 167.101 192.349 167.128 192.136H167.72ZM169.923 195L168.059 191H168.827L170.331 194.288H170.387L171.891 191H172.651L170.795 195H169.923ZM174.029 190.224C173.939 190.315 173.829 190.36 173.701 190.36C173.573 190.36 173.461 190.315 173.365 190.224C173.275 190.133 173.229 190.024 173.229 189.896C173.229 189.768 173.275 189.659 173.365 189.568C173.461 189.477 173.573 189.432 173.701 189.432C173.829 189.432 173.939 189.477 174.029 189.568C174.12 189.653 174.165 189.763 174.165 189.896C174.165 190.024 174.12 190.133 174.029 190.224ZM173.349 195V191H174.053V195H173.349ZM179.424 194.504C179.541 194.504 179.659 194.48 179.776 194.432V194.952C179.6 195.011 179.435 195.04 179.28 195.04C178.741 195.04 178.424 194.819 178.328 194.376C177.992 194.845 177.416 195.08 176.6 195.08C176.12 195.08 175.736 194.984 175.448 194.792C175.16 194.595 175.016 194.304 175.016 193.92C175.016 193.557 175.144 193.277 175.4 193.08C175.656 192.877 176.003 192.76 176.44 192.728L178.232 192.592V192.416C178.232 192.123 178.131 191.896 177.928 191.736C177.731 191.576 177.443 191.496 177.064 191.496C176.403 191.496 176.019 191.752 175.912 192.264H175.2C175.253 191.853 175.443 191.528 175.768 191.288C176.093 191.043 176.525 190.92 177.064 190.92C177.629 190.92 178.083 191.051 178.424 191.312C178.771 191.573 178.944 191.944 178.944 192.424V194.024C178.944 194.344 179.104 194.504 179.424 194.504ZM178.232 193.392V193.104L176.632 193.224C176.024 193.277 175.72 193.501 175.72 193.896C175.72 194.312 176.037 194.52 176.672 194.52C177.093 194.52 177.459 194.429 177.768 194.248C178.077 194.061 178.232 193.776 178.232 193.392ZM182.318 195V191H182.95L183.022 191.568H183.078C183.222 191.36 183.393 191.2 183.59 191.088C183.793 190.976 184.059 190.92 184.39 190.92H184.678V191.64C184.582 191.624 184.443 191.616 184.262 191.616C183.899 191.616 183.601 191.733 183.366 191.968C183.137 192.203 183.022 192.531 183.022 192.952V195H182.318ZM189.401 192.912C189.401 192.96 189.396 193.048 189.385 193.176H185.737C185.764 193.576 185.916 193.896 186.193 194.136C186.471 194.376 186.849 194.496 187.329 194.496C188.044 194.496 188.492 194.275 188.673 193.832H189.369C189.268 194.221 189.036 194.528 188.673 194.752C188.316 194.971 187.868 195.08 187.329 195.08C186.631 195.08 186.073 194.893 185.657 194.52C185.241 194.147 185.033 193.651 185.033 193.032C185.033 192.397 185.241 191.888 185.657 191.504C186.073 191.115 186.612 190.92 187.273 190.92C187.881 190.92 188.385 191.093 188.785 191.44C189.191 191.787 189.396 192.277 189.401 192.912ZM187.273 191.504C186.841 191.504 186.492 191.611 186.225 191.824C185.959 192.037 185.801 192.312 185.753 192.648H188.697C188.681 192.301 188.545 192.024 188.289 191.816C188.039 191.608 187.7 191.504 187.273 191.504ZM193.958 189.32H194.662V195H194.078L194.006 194.392H193.95C193.598 194.851 193.068 195.08 192.358 195.08C191.702 195.08 191.172 194.891 190.766 194.512C190.366 194.128 190.166 193.621 190.166 192.992C190.166 192.363 190.369 191.861 190.774 191.488C191.185 191.109 191.713 190.92 192.358 190.92C193.062 190.92 193.596 191.144 193.958 191.592V189.32ZM191.302 194.056C191.59 194.317 191.969 194.448 192.438 194.448C192.908 194.448 193.278 194.317 193.55 194.056C193.822 193.789 193.958 193.435 193.958 192.992C193.958 192.555 193.822 192.205 193.55 191.944C193.278 191.683 192.908 191.552 192.438 191.552C191.969 191.552 191.59 191.685 191.302 191.952C191.02 192.213 190.878 192.56 190.878 192.992C190.878 193.435 191.02 193.789 191.302 194.056ZM199.388 189.32H200.092V195H199.508L199.436 194.392H199.38C199.028 194.851 198.497 195.08 197.788 195.08C197.132 195.08 196.601 194.891 196.196 194.512C195.796 194.128 195.596 193.621 195.596 192.992C195.596 192.363 195.799 191.861 196.204 191.488C196.615 191.109 197.143 190.92 197.788 190.92C198.492 190.92 199.025 191.144 199.388 191.592V189.32ZM196.732 194.056C197.02 194.317 197.399 194.448 197.868 194.448C198.337 194.448 198.708 194.317 198.98 194.056C199.252 193.789 199.388 193.435 199.388 192.992C199.388 192.555 199.252 192.205 198.98 191.944C198.708 191.683 198.337 191.552 197.868 191.552C197.399 191.552 197.02 191.685 196.732 191.952C196.449 192.213 196.308 192.56 196.308 192.992C196.308 193.435 196.449 193.789 196.732 194.056ZM201.896 190.224C201.806 190.315 201.696 190.36 201.568 190.36C201.44 190.36 201.328 190.315 201.232 190.224C201.142 190.133 201.096 190.024 201.096 189.896C201.096 189.768 201.142 189.659 201.232 189.568C201.328 189.477 201.44 189.432 201.568 189.432C201.696 189.432 201.806 189.477 201.896 189.568C201.987 189.653 202.032 189.763 202.032 189.896C202.032 190.024 201.987 190.133 201.896 190.224ZM201.216 195V191H201.92V195H201.216ZM204.677 195.08C204.309 195.08 204.034 194.989 203.853 194.808C203.672 194.627 203.581 194.376 203.581 194.056V191.576H202.613V191H202.989C203.229 191 203.397 190.955 203.493 190.864C203.589 190.773 203.637 190.613 203.637 190.384V189.88H204.285V191H205.437V191.576H204.285V193.928C204.285 194.307 204.482 194.496 204.877 194.496C205.021 194.496 205.168 194.477 205.317 194.44V194.992C205.12 195.051 204.906 195.08 204.677 195.08ZM210.118 192.136C210.081 192.509 209.953 192.827 209.734 193.088C209.521 193.344 209.228 193.472 208.854 193.472C208.625 193.472 208.417 193.429 208.23 193.344C208.049 193.253 207.908 193.157 207.806 193.056C207.71 192.949 207.59 192.853 207.446 192.768C207.308 192.677 207.161 192.632 207.006 192.632C206.793 192.632 206.625 192.704 206.502 192.848C206.38 192.987 206.305 193.163 206.278 193.376H205.686C205.724 192.997 205.849 192.68 206.062 192.424C206.281 192.168 206.58 192.04 206.958 192.04C207.182 192.04 207.385 192.085 207.566 192.176C207.753 192.261 207.894 192.357 207.99 192.464C208.092 192.565 208.212 192.661 208.35 192.752C208.489 192.837 208.636 192.88 208.79 192.88C209.004 192.88 209.172 192.811 209.294 192.672C209.422 192.528 209.5 192.349 209.526 192.136H210.118Z" fill="#F5F7F9"/>
<path d="M428.217 85.6575C427.197 85.6575 426.406 85.2708 425.844 84.4973C425.281 83.7237 425 82.7217 425 81.4911C425 77.9751 426.688 75.1448 430.063 73L431.329 74.6349C429.43 76.182 428.463 77.8169 428.428 79.5397C429.166 79.4694 429.834 79.7155 430.432 80.2781C431.03 80.8055 431.329 81.5438 431.329 82.4932C431.329 83.4425 431.03 84.216 430.432 84.8137C429.87 85.3763 429.131 85.6575 428.217 85.6575ZM437.236 85.6575C436.216 85.6575 435.425 85.2708 434.862 84.4973C434.3 83.7237 434.018 82.7217 434.018 81.4911C434.018 77.9751 435.706 75.1448 439.082 73L440.4 74.6349C438.466 76.182 437.482 77.8169 437.447 79.5397C438.22 79.4694 438.888 79.7155 439.451 80.2781C440.048 80.8055 440.347 81.5438 440.347 82.4932C440.347 83.4425 440.048 84.216 439.451 84.8137C438.888 85.3763 438.15 85.6575 437.236 85.6575Z" fill="#F5F7F9"/>
</g>
<defs>
<filter id="filter0_d" x="0" y="0" width="868" height="296" filterUnits="userSpaceOnUse" color-interpolation-filters="sRGB">
<feFlood flood-opacity="0" result="BackgroundImageFix"/>
<feColorMatrix in="SourceAlpha" type="matrix" values="0 0 0 0 0 0 0 0 0 0 0 0 0 0 0 0 0 0 127 0"/>
<feOffset dy="4"/>
<feGaussianBlur stdDeviation="17"/>
<feColorMatrix type="matrix" values="0 0 0 0 0 0 0 0 0 0 0 0 0 0 0 0 0 0 0.25 0"/>
<feBlend mode="normal" in2="BackgroundImageFix" result="effect1_dropShadow"/>
<feBlend mode="normal" in="SourceGraphic" in2="effect1_dropShadow" result="shape"/>
</filter>
</defs>
</svg>
