<svg width="800" height="228" viewBox="0 0 800 228" fill="none" xmlns="http://www.w3.org/2000/svg">
<rect width="800" height="228" fill="url(#paint0_radial)"/>
<path d="M131.016 93C131.016 93.048 131.112 93.016 131.304 92.904C131.496 92.776 131.672 92.552 131.832 92.232C131.992 91.896 132.072 91.408 132.072 90.768V78.72C132.072 78.08 131.992 77.6 131.832 77.28C131.688 76.944 131.52 76.72 131.328 76.608C131.136 76.496 131.04 76.456 131.04 76.488H134.856C134.856 76.456 134.76 76.496 134.568 76.608C134.376 76.72 134.2 76.944 134.04 77.28C133.88 77.6 133.8 78.08 133.8 78.72V90.768C133.8 91.408 133.88 91.896 134.04 92.232C134.2 92.552 134.376 92.768 134.568 92.88C134.76 92.992 134.856 93.032 134.856 93H131.016ZM137.533 81.576C137.965 81.416 138.325 81.048 138.613 80.472C138.917 79.896 139.069 79.328 139.069 78.768C139.069 78.624 139.061 78.52 139.045 78.456H138.877C138.477 78.456 138.173 78.352 137.965 78.144C137.757 77.936 137.653 77.68 137.653 77.376C137.653 77.056 137.757 76.784 137.965 76.56C138.189 76.32 138.485 76.2 138.853 76.2C139.253 76.2 139.597 76.368 139.885 76.704C140.189 77.024 140.341 77.496 140.341 78.12C140.341 78.616 140.237 79.128 140.029 79.656C139.821 80.168 139.501 80.608 139.069 80.976C138.637 81.344 138.125 81.544 137.533 81.576ZM145.3 85.704C145.7 85.208 146.148 84.816 146.644 84.528C147.14 84.224 147.66 84.072 148.204 84.072C148.796 84.072 149.316 84.216 149.764 84.504C150.228 84.776 150.564 85.176 150.772 85.704C151.204 85.16 151.692 84.752 152.236 84.48C152.796 84.208 153.372 84.072 153.964 84.072C154.828 84.072 155.516 84.352 156.028 84.912C156.556 85.456 156.82 86.248 156.82 87.288V90.624C156.82 91.504 156.932 92.112 157.156 92.448C157.38 92.784 157.58 92.968 157.756 93H154.348C154.54 92.968 154.74 92.784 154.948 92.448C155.172 92.112 155.284 91.496 155.284 90.6V87.864C155.284 87.32 155.212 86.888 155.068 86.568C154.924 86.248 154.732 85.984 154.492 85.776C154.124 85.472 153.684 85.32 153.172 85.32C152.612 85.32 152.116 85.512 151.684 85.896C151.268 86.264 151.06 86.784 151.06 87.456V90.6C151.06 91.496 151.164 92.112 151.372 92.448C151.596 92.784 151.804 92.968 151.996 93H148.588C148.78 92.968 148.98 92.784 149.188 92.448C149.412 92.112 149.524 91.496 149.524 90.6V87.864C149.524 87.32 149.452 86.888 149.308 86.568C149.164 86.248 148.972 85.984 148.732 85.776C148.364 85.472 147.924 85.32 147.412 85.32C146.836 85.32 146.34 85.512 145.924 85.896C145.508 86.264 145.3 86.784 145.3 87.456V90.6C145.3 91.512 145.412 92.136 145.636 92.472C145.86 92.792 146.068 92.968 146.26 93H142.852C143.044 92.968 143.244 92.784 143.452 92.448C143.66 92.112 143.764 91.496 143.764 90.6V86.976C143.764 86.304 143.652 85.848 143.428 85.608C143.22 85.352 142.98 85.224 142.708 85.224L145.3 84.072V85.704ZM173.067 93.288C172.555 93.272 172.123 93.136 171.771 92.88C171.419 92.624 171.219 92.328 171.171 91.992C170.883 92.408 170.499 92.728 170.019 92.952C169.555 93.176 169.091 93.288 168.627 93.288C167.891 93.288 167.275 93.08 166.779 92.664C166.283 92.232 166.035 91.672 166.035 90.984C166.035 89.208 167.699 88.32 171.027 88.32V88.056C171.027 87.176 170.899 86.528 170.643 86.112C170.291 85.52 169.715 85.224 168.915 85.224C168.291 85.224 167.771 85.408 167.355 85.776C166.955 86.144 166.755 86.624 166.755 87.216C166.659 87.056 166.579 86.912 166.515 86.784C166.467 86.656 166.443 86.48 166.443 86.256C166.443 85.68 166.715 85.176 167.259 84.744C167.803 84.296 168.515 84.072 169.395 84.072C170.643 84.072 171.531 84.488 172.059 85.32C172.235 85.576 172.363 85.896 172.443 86.28C172.523 86.664 172.563 87.168 172.563 87.792V90.648C172.563 91.144 172.699 91.528 172.971 91.8C173.259 92.072 173.659 92.208 174.171 92.208H174.483L173.067 93.288ZM171.027 89.04C169.747 89.04 168.883 89.2 168.435 89.52C167.987 89.84 167.763 90.272 167.763 90.816C167.763 91.264 167.883 91.616 168.123 91.872C168.363 92.128 168.683 92.256 169.083 92.256C169.387 92.256 169.675 92.184 169.947 92.04C170.219 91.896 170.451 91.696 170.643 91.44C170.899 91.104 171.027 90.648 171.027 90.072V89.04ZM182.532 77.328C182.244 77.04 181.892 76.816 181.476 76.656C181.076 76.48 180.668 76.392 180.252 76.392C179.452 76.392 178.868 76.68 178.5 77.256C178.132 77.816 177.948 78.544 177.948 79.44V84.264H180.444V85.224H177.948V90.6C177.948 91.288 178.02 91.816 178.164 92.184C178.308 92.536 178.468 92.776 178.644 92.904C178.82 93.016 178.908 93.048 178.908 93H175.428C175.428 93.048 175.516 93.016 175.692 92.904C175.884 92.776 176.052 92.536 176.196 92.184C176.34 91.816 176.412 91.288 176.412 90.6V85.224H175.068V84.264H176.412V80.928C176.412 79.808 176.596 78.824 176.964 77.976C177.348 77.112 177.876 76.44 178.548 75.96C179.236 75.48 180.02 75.24 180.9 75.24C181.588 75.24 182.132 75.312 182.532 75.456V77.328ZM184.089 86.256C184.329 85.744 184.721 85.256 185.265 84.792C185.825 84.312 186.385 84.072 186.945 84.072C187.297 84.072 187.561 84.12 187.737 84.216V86.184C187.385 85.752 186.889 85.536 186.249 85.536C185.577 85.536 185.049 85.832 184.665 86.424C184.281 87 184.089 87.744 184.089 88.656V90.6C184.089 91.496 184.193 92.112 184.401 92.448C184.609 92.784 184.809 92.968 185.001 93H181.617C181.809 92.968 182.009 92.792 182.217 92.472C182.441 92.136 182.553 91.512 182.553 90.6V86.976C182.553 86.304 182.441 85.848 182.217 85.608C182.009 85.352 181.769 85.224 181.497 85.224L184.089 84.072V86.256ZM196.504 93.288C195.992 93.272 195.56 93.136 195.208 92.88C194.856 92.624 194.656 92.328 194.608 91.992C194.32 92.408 193.936 92.728 193.456 92.952C192.992 93.176 192.528 93.288 192.064 93.288C191.328 93.288 190.712 93.08 190.216 92.664C189.72 92.232 189.472 91.672 189.472 90.984C189.472 89.208 191.136 88.32 194.464 88.32V88.056C194.464 87.176 194.336 86.528 194.08 86.112C193.728 85.52 193.152 85.224 192.352 85.224C191.728 85.224 191.208 85.408 190.792 85.776C190.392 86.144 190.192 86.624 190.192 87.216C190.096 87.056 190.016 86.912 189.952 86.784C189.904 86.656 189.88 86.48 189.88 86.256C189.88 85.68 190.152 85.176 190.696 84.744C191.24 84.296 191.952 84.072 192.832 84.072C194.08 84.072 194.968 84.488 195.496 85.32C195.672 85.576 195.8 85.896 195.88 86.28C195.96 86.664 196 87.168 196 87.792V90.648C196 91.144 196.136 91.528 196.408 91.8C196.696 92.072 197.096 92.208 197.608 92.208H197.92L196.504 93.288ZM194.464 89.04C193.184 89.04 192.32 89.2 191.872 89.52C191.424 89.84 191.2 90.272 191.2 90.816C191.2 91.264 191.32 91.616 191.56 91.872C191.8 92.128 192.12 92.256 192.52 92.256C192.824 92.256 193.112 92.184 193.384 92.04C193.656 91.896 193.888 91.696 194.08 91.44C194.336 91.104 194.464 90.648 194.464 90.072V89.04ZM199.85 86.976C199.85 86.304 199.738 85.848 199.514 85.608C199.306 85.352 199.066 85.224 198.794 85.224L201.386 84.072V90.6C201.386 91.304 201.458 91.832 201.602 92.184C201.746 92.536 201.906 92.776 202.082 92.904C202.258 93.016 202.346 93.048 202.346 93H198.89C198.89 93.048 198.978 93.016 199.154 92.904C199.33 92.776 199.49 92.536 199.634 92.184C199.778 91.832 199.85 91.304 199.85 90.6V86.976ZM200.594 81.168C200.242 81.168 199.962 81.056 199.754 80.832C199.562 80.592 199.466 80.32 199.466 80.016C199.466 79.712 199.562 79.448 199.754 79.224C199.962 78.984 200.242 78.864 200.594 78.864C200.946 78.864 201.218 78.984 201.41 79.224C201.618 79.448 201.722 79.712 201.722 80.016C201.722 80.32 201.618 80.592 201.41 80.832C201.218 81.056 200.946 81.168 200.594 81.168ZM210.977 78.24C210.977 77.568 210.865 77.112 210.641 76.872C210.433 76.616 210.193 76.488 209.921 76.488H209.777L212.513 75.24V90.288C212.513 90.96 212.617 91.424 212.825 91.68C213.049 91.92 213.297 92.04 213.569 92.04H213.713L210.977 93.288V91.728C210.785 92.048 210.433 92.392 209.921 92.76C209.425 93.112 208.769 93.288 207.953 93.288C207.249 93.288 206.617 93.112 206.057 92.76C205.497 92.408 205.057 91.92 204.737 91.296C204.417 90.672 204.257 89.976 204.257 89.208C204.257 88.232 204.457 87.368 204.857 86.616C205.257 85.864 205.777 85.264 206.417 84.816C207.137 84.32 207.921 84.072 208.769 84.072C209.329 84.072 209.793 84.152 210.161 84.312C210.529 84.456 210.801 84.592 210.977 84.72V78.24ZM205.985 88.488C205.985 89.496 206.217 90.376 206.681 91.128C207.161 91.864 207.849 92.232 208.745 92.232C209.081 92.232 209.425 92.144 209.777 91.968C210.129 91.776 210.417 91.52 210.641 91.2C210.865 90.88 210.977 90.52 210.977 90.12V87.288C210.977 86.776 210.913 86.36 210.785 86.04C210.673 85.72 210.489 85.48 210.233 85.32C209.833 85.064 209.345 84.936 208.769 84.936C207.969 84.936 207.305 85.264 206.777 85.92C206.249 86.56 205.985 87.416 205.985 88.488ZM224.866 93.288C224.082 93.288 223.49 93.024 223.09 92.496C222.69 91.952 222.49 91.304 222.49 90.552V85.224H221.146L224.026 81.96V84.264H227.098V85.224H224.026V90.288C224.026 90.896 224.186 91.36 224.506 91.68C224.826 91.984 225.194 92.136 225.61 92.136C225.93 92.136 226.242 92.04 226.546 91.848C226.85 91.656 227.098 91.392 227.29 91.056C227.05 92.544 226.242 93.288 224.866 93.288ZM231.315 85.488C231.667 85.072 232.099 84.736 232.611 84.48C233.123 84.208 233.659 84.072 234.219 84.072C235.083 84.072 235.771 84.352 236.283 84.912C236.811 85.456 237.075 86.248 237.075 87.288V90.624C237.075 91.296 237.147 91.808 237.291 92.16C237.435 92.512 237.595 92.752 237.771 92.88C237.947 93.008 238.035 93.048 238.035 93H234.579C234.579 93.048 234.667 93.016 234.843 92.904C235.019 92.776 235.179 92.536 235.323 92.184C235.467 91.832 235.539 91.304 235.539 90.6V87.864C235.539 87.32 235.467 86.888 235.323 86.568C235.179 86.248 234.987 85.984 234.747 85.776C234.379 85.472 233.939 85.32 233.427 85.32C232.851 85.32 232.355 85.512 231.939 85.896C231.523 86.264 231.315 86.784 231.315 87.456V90.6C231.315 91.288 231.387 91.808 231.531 92.16C231.675 92.512 231.835 92.752 232.011 92.88C232.203 93.008 232.299 93.048 232.299 93H228.843C228.843 93.048 228.931 93.016 229.107 92.904C229.283 92.776 229.435 92.536 229.563 92.184C229.707 91.816 229.779 91.288 229.779 90.6V78.24C229.779 77.568 229.667 77.112 229.443 76.872C229.235 76.616 228.995 76.488 228.723 76.488H228.579L231.315 75.24V85.488ZM247.176 93.288C246.664 93.272 246.232 93.136 245.88 92.88C245.528 92.624 245.328 92.328 245.28 91.992C244.992 92.408 244.608 92.728 244.128 92.952C243.664 93.176 243.2 93.288 242.736 93.288C242 93.288 241.384 93.08 240.888 92.664C240.392 92.232 240.144 91.672 240.144 90.984C240.144 89.208 241.808 88.32 245.136 88.32V88.056C245.136 87.176 245.008 86.528 244.752 86.112C244.4 85.52 243.824 85.224 243.024 85.224C242.4 85.224 241.88 85.408 241.464 85.776C241.064 86.144 240.864 86.624 240.864 87.216C240.768 87.056 240.688 86.912 240.624 86.784C240.576 86.656 240.552 86.48 240.552 86.256C240.552 85.68 240.824 85.176 241.368 84.744C241.912 84.296 242.624 84.072 243.504 84.072C244.752 84.072 245.64 84.488 246.168 85.32C246.344 85.576 246.472 85.896 246.552 86.28C246.632 86.664 246.672 87.168 246.672 87.792V90.648C246.672 91.144 246.808 91.528 247.08 91.8C247.368 92.072 247.768 92.208 248.28 92.208H248.592L247.176 93.288ZM245.136 89.04C243.856 89.04 242.992 89.2 242.544 89.52C242.096 89.84 241.872 90.272 241.872 90.816C241.872 91.264 241.992 91.616 242.232 91.872C242.472 92.128 242.792 92.256 243.192 92.256C243.496 92.256 243.784 92.184 244.056 92.04C244.328 91.896 244.56 91.696 244.752 91.44C245.008 91.104 245.136 90.648 245.136 90.072V89.04ZM252.898 93.288C252.114 93.288 251.522 93.024 251.122 92.496C250.722 91.952 250.522 91.304 250.522 90.552V85.224H249.178L252.058 81.96V84.264H255.13V85.224H252.058V90.288C252.058 90.896 252.218 91.36 252.538 91.68C252.858 91.984 253.226 92.136 253.642 92.136C253.962 92.136 254.274 92.04 254.578 91.848C254.882 91.656 255.13 91.392 255.322 91.056C255.082 92.544 254.274 93.288 252.898 93.288ZM266.327 93.288C265.543 93.288 264.951 93.024 264.551 92.496C264.151 91.952 263.951 91.304 263.951 90.552V85.224H262.607L265.487 81.96V84.264H268.559V85.224H265.487V90.288C265.487 90.896 265.647 91.36 265.967 91.68C266.287 91.984 266.655 92.136 267.071 92.136C267.391 92.136 267.703 92.04 268.007 91.848C268.311 91.656 268.559 91.392 268.751 91.056C268.511 92.544 267.703 93.288 266.327 93.288ZM272.776 85.488C273.128 85.072 273.56 84.736 274.072 84.48C274.584 84.208 275.12 84.072 275.68 84.072C276.544 84.072 277.232 84.352 277.744 84.912C278.272 85.456 278.536 86.248 278.536 87.288V90.624C278.536 91.296 278.608 91.808 278.752 92.16C278.896 92.512 279.056 92.752 279.232 92.88C279.408 93.008 279.496 93.048 279.496 93H276.04C276.04 93.048 276.128 93.016 276.304 92.904C276.48 92.776 276.64 92.536 276.784 92.184C276.928 91.832 277 91.304 277 90.6V87.864C277 87.32 276.928 86.888 276.784 86.568C276.64 86.248 276.448 85.984 276.208 85.776C275.84 85.472 275.4 85.32 274.888 85.32C274.312 85.32 273.816 85.512 273.4 85.896C272.984 86.264 272.776 86.784 272.776 87.456V90.6C272.776 91.288 272.848 91.808 272.992 92.16C273.136 92.512 273.296 92.752 273.472 92.88C273.664 93.008 273.76 93.048 273.76 93H270.304C270.304 93.048 270.392 93.016 270.568 92.904C270.744 92.776 270.896 92.536 271.024 92.184C271.168 91.816 271.24 91.288 271.24 90.6V78.24C271.24 77.568 271.128 77.112 270.904 76.872C270.696 76.616 270.456 76.488 270.184 76.488H270.04L272.776 75.24V85.488ZM285.565 93.288C284.701 93.288 283.957 93.08 283.333 92.664C282.709 92.232 282.229 91.68 281.893 91.008C281.573 90.32 281.413 89.592 281.413 88.824C281.413 87.832 281.605 86.976 281.989 86.256C282.389 85.536 282.901 84.992 283.525 84.624C284.149 84.256 284.797 84.072 285.469 84.072C286.429 84.072 287.253 84.424 287.941 85.128C288.645 85.816 289.029 86.776 289.093 88.008H282.853C282.853 88.776 282.997 89.456 283.285 90.048C283.573 90.624 283.957 91.072 284.437 91.392C284.933 91.696 285.469 91.848 286.045 91.848C287.549 91.848 288.565 91.368 289.093 90.408C288.949 91.272 288.557 91.968 287.917 92.496C287.277 93.024 286.493 93.288 285.565 93.288ZM285.301 84.864C284.677 84.864 284.141 85.088 283.693 85.536C283.245 85.968 282.973 86.536 282.877 87.24H287.245C287.245 86.504 287.045 85.928 286.645 85.512C286.261 85.08 285.813 84.864 285.301 84.864ZM301.411 93.288C300.547 93.288 299.787 93.08 299.131 92.664C298.491 92.248 298.003 91.696 297.667 91.008C297.331 90.32 297.163 89.592 297.163 88.824C297.163 88.024 297.331 87.264 297.667 86.544C298.019 85.808 298.523 85.216 299.179 84.768C299.835 84.304 300.611 84.072 301.507 84.072C302.579 84.072 303.355 84.304 303.835 84.768C304.315 85.232 304.651 85.72 304.843 86.232L303.259 87C303.163 86.424 302.923 85.936 302.539 85.536C302.171 85.136 301.715 84.936 301.171 84.936C300.387 84.936 299.779 85.24 299.347 85.848C298.915 86.456 298.699 87.2 298.699 88.08C298.699 88.704 298.835 89.312 299.107 89.904C299.395 90.48 299.795 90.952 300.307 91.32C300.835 91.688 301.451 91.872 302.155 91.872C302.731 91.872 303.275 91.744 303.787 91.488C304.315 91.216 304.731 90.856 305.035 90.408C304.859 91.304 304.443 92.008 303.787 92.52C303.131 93.032 302.339 93.288 301.411 93.288ZM307.733 86.976C307.733 86.304 307.621 85.848 307.396 85.608C307.189 85.352 306.949 85.224 306.677 85.224L309.269 84.072V90.6C309.269 91.304 309.341 91.832 309.485 92.184C309.629 92.536 309.789 92.776 309.965 92.904C310.141 93.016 310.229 93.048 310.229 93H306.773C306.773 93.048 306.861 93.016 307.037 92.904C307.213 92.776 307.373 92.536 307.517 92.184C307.661 91.832 307.733 91.304 307.733 90.6V86.976ZM308.477 81.168C308.125 81.168 307.845 81.056 307.637 80.832C307.445 80.592 307.349 80.32 307.349 80.016C307.349 79.712 307.445 79.448 307.637 79.224C307.845 78.984 308.125 78.864 308.477 78.864C308.829 78.864 309.101 78.984 309.293 79.224C309.501 79.448 309.605 79.712 309.605 80.016C309.605 80.32 309.501 80.592 309.293 80.832C309.101 81.056 308.829 81.168 308.477 81.168ZM314.636 85.704C315.004 85.208 315.436 84.816 315.932 84.528C316.444 84.224 316.98 84.072 317.54 84.072C318.404 84.072 319.092 84.352 319.604 84.912C320.132 85.456 320.396 86.248 320.396 87.288V90.624C320.396 91.296 320.468 91.808 320.612 92.16C320.756 92.512 320.916 92.752 321.092 92.88C321.268 93.008 321.356 93.048 321.356 93H317.9C317.9 93.048 317.988 93.016 318.164 92.904C318.34 92.776 318.5 92.536 318.644 92.184C318.788 91.832 318.86 91.304 318.86 90.6V87.864C318.86 87.32 318.788 86.888 318.644 86.568C318.5 86.248 318.308 85.984 318.068 85.776C317.7 85.472 317.26 85.32 316.748 85.32C316.172 85.32 315.676 85.512 315.26 85.896C314.844 86.264 314.636 86.784 314.636 87.456V90.6C314.636 91.288 314.708 91.808 314.852 92.16C314.996 92.512 315.156 92.752 315.332 92.88C315.524 93.008 315.62 93.048 315.62 93H312.164C312.164 93.048 312.252 93.016 312.428 92.904C312.604 92.776 312.756 92.536 312.884 92.184C313.028 91.816 313.1 91.288 313.1 90.6V86.976C313.1 86.304 312.988 85.848 312.764 85.608C312.556 85.352 312.316 85.224 312.044 85.224L314.636 84.072V85.704ZM327.425 93.288C326.561 93.288 325.817 93.08 325.193 92.664C324.569 92.232 324.089 91.68 323.753 91.008C323.433 90.32 323.273 89.592 323.273 88.824C323.273 87.832 323.465 86.976 323.849 86.256C324.249 85.536 324.761 84.992 325.385 84.624C326.009 84.256 326.657 84.072 327.329 84.072C328.289 84.072 329.113 84.424 329.801 85.128C330.505 85.816 330.889 86.776 330.953 88.008H324.713C324.713 88.776 324.857 89.456 325.145 90.048C325.433 90.624 325.817 91.072 326.297 91.392C326.793 91.696 327.329 91.848 327.905 91.848C329.409 91.848 330.425 91.368 330.953 90.408C330.809 91.272 330.417 91.968 329.777 92.496C329.137 93.024 328.353 93.288 327.425 93.288ZM327.161 84.864C326.537 84.864 326.001 85.088 325.553 85.536C325.105 85.968 324.833 86.536 324.737 87.24H329.105C329.105 86.504 328.905 85.928 328.505 85.512C328.121 85.08 327.673 84.864 327.161 84.864ZM335.378 85.704C335.778 85.208 336.226 84.816 336.722 84.528C337.218 84.224 337.738 84.072 338.282 84.072C338.874 84.072 339.394 84.216 339.842 84.504C340.306 84.776 340.642 85.176 340.85 85.704C341.282 85.16 341.77 84.752 342.314 84.48C342.874 84.208 343.45 84.072 344.042 84.072C344.906 84.072 345.594 84.352 346.106 84.912C346.634 85.456 346.898 86.248 346.898 87.288V90.624C346.898 91.504 347.01 92.112 347.234 92.448C347.458 92.784 347.658 92.968 347.834 93H344.426C344.618 92.968 344.818 92.784 345.026 92.448C345.25 92.112 345.362 91.496 345.362 90.6V87.864C345.362 87.32 345.29 86.888 345.146 86.568C345.002 86.248 344.81 85.984 344.57 85.776C344.202 85.472 343.762 85.32 343.25 85.32C342.69 85.32 342.194 85.512 341.762 85.896C341.346 86.264 341.138 86.784 341.138 87.456V90.6C341.138 91.496 341.242 92.112 341.45 92.448C341.674 92.784 341.882 92.968 342.074 93H338.666C338.858 92.968 339.058 92.784 339.266 92.448C339.49 92.112 339.602 91.496 339.602 90.6V87.864C339.602 87.32 339.53 86.888 339.386 86.568C339.242 86.248 339.05 85.984 338.81 85.776C338.442 85.472 338.002 85.32 337.49 85.32C336.914 85.32 336.418 85.512 336.002 85.896C335.586 86.264 335.378 86.784 335.378 87.456V90.6C335.378 91.512 335.49 92.136 335.714 92.472C335.938 92.792 336.146 92.968 336.338 93H332.93C333.122 92.968 333.322 92.784 333.53 92.448C333.738 92.112 333.842 91.496 333.842 90.6V86.976C333.842 86.304 333.73 85.848 333.506 85.608C333.298 85.352 333.058 85.224 332.786 85.224L335.378 84.072V85.704ZM357.004 93.288C356.492 93.272 356.06 93.136 355.708 92.88C355.356 92.624 355.156 92.328 355.108 91.992C354.82 92.408 354.436 92.728 353.956 92.952C353.492 93.176 353.028 93.288 352.564 93.288C351.828 93.288 351.212 93.08 350.716 92.664C350.22 92.232 349.972 91.672 349.972 90.984C349.972 89.208 351.636 88.32 354.964 88.32V88.056C354.964 87.176 354.836 86.528 354.58 86.112C354.228 85.52 353.652 85.224 352.852 85.224C352.228 85.224 351.708 85.408 351.292 85.776C350.892 86.144 350.692 86.624 350.692 87.216C350.596 87.056 350.516 86.912 350.452 86.784C350.404 86.656 350.38 86.48 350.38 86.256C350.38 85.68 350.652 85.176 351.196 84.744C351.74 84.296 352.452 84.072 353.332 84.072C354.58 84.072 355.468 84.488 355.996 85.32C356.172 85.576 356.3 85.896 356.38 86.28C356.46 86.664 356.5 87.168 356.5 87.792V90.648C356.5 91.144 356.636 91.528 356.908 91.8C357.196 92.072 357.596 92.208 358.108 92.208H358.42L357.004 93.288ZM354.964 89.04C353.684 89.04 352.82 89.2 352.372 89.52C351.924 89.84 351.7 90.272 351.7 90.816C351.7 91.264 351.82 91.616 352.06 91.872C352.3 92.128 352.62 92.256 353.02 92.256C353.324 92.256 353.612 92.184 353.884 92.04C354.156 91.896 354.388 91.696 354.58 91.44C354.836 91.104 354.964 90.648 354.964 90.072V89.04ZM362.726 93.288C361.942 93.288 361.35 93.024 360.95 92.496C360.55 91.952 360.35 91.304 360.35 90.552V85.224H359.006L361.886 81.96V84.264H364.958V85.224H361.886V90.288C361.886 90.896 362.046 91.36 362.366 91.68C362.686 91.984 363.054 92.136 363.47 92.136C363.79 92.136 364.102 92.04 364.406 91.848C364.71 91.656 364.958 91.392 365.15 91.056C364.91 92.544 364.102 93.288 362.726 93.288ZM367.639 86.976C367.639 86.304 367.527 85.848 367.303 85.608C367.095 85.352 366.855 85.224 366.583 85.224L369.175 84.072V90.6C369.175 91.304 369.247 91.832 369.391 92.184C369.535 92.536 369.695 92.776 369.871 92.904C370.047 93.016 370.135 93.048 370.135 93H366.679C366.679 93.048 366.767 93.016 366.943 92.904C367.119 92.776 367.279 92.536 367.423 92.184C367.567 91.832 367.639 91.304 367.639 90.6V86.976ZM368.383 81.168C368.031 81.168 367.751 81.056 367.543 80.832C367.351 80.592 367.255 80.32 367.255 80.016C367.255 79.712 367.351 79.448 367.543 79.224C367.751 78.984 368.031 78.864 368.383 78.864C368.735 78.864 369.007 78.984 369.199 79.224C369.407 79.448 369.511 79.712 369.511 80.016C369.511 80.32 369.407 80.592 369.199 80.832C369.007 81.056 368.735 81.168 368.383 81.168ZM376.294 93.288C375.43 93.288 374.67 93.08 374.014 92.664C373.374 92.248 372.886 91.696 372.55 91.008C372.214 90.32 372.046 89.592 372.046 88.824C372.046 88.024 372.214 87.264 372.55 86.544C372.902 85.808 373.406 85.216 374.062 84.768C374.718 84.304 375.494 84.072 376.39 84.072C377.462 84.072 378.238 84.304 378.718 84.768C379.198 85.232 379.534 85.72 379.726 86.232L378.142 87C378.046 86.424 377.806 85.936 377.422 85.536C377.054 85.136 376.598 84.936 376.054 84.936C375.27 84.936 374.662 85.24 374.23 85.848C373.798 86.456 373.582 87.2 373.582 88.08C373.582 88.704 373.718 89.312 373.99 89.904C374.278 90.48 374.678 90.952 375.19 91.32C375.718 91.688 376.334 91.872 377.038 91.872C377.614 91.872 378.158 91.744 378.67 91.488C379.198 91.216 379.614 90.856 379.918 90.408C379.742 91.304 379.326 92.008 378.67 92.52C378.014 93.032 377.222 93.288 376.294 93.288ZM391.636 93.288L388.372 85.92C388.164 85.456 387.948 85.104 387.724 84.864C387.516 84.608 387.332 84.44 387.172 84.36C387.012 84.28 386.932 84.248 386.932 84.264H390.556C390.524 84.264 390.452 84.288 390.34 84.336C390.228 84.368 390.116 84.448 390.004 84.576C389.908 84.688 389.86 84.856 389.86 85.08C389.86 85.352 389.94 85.656 390.1 85.992L391.996 90.336L393.772 86.232C393.884 85.944 393.94 85.648 393.94 85.344C393.94 85.056 393.876 84.816 393.748 84.624C393.636 84.432 393.444 84.312 393.172 84.264H396.364C396.364 84.248 396.276 84.28 396.1 84.36C395.94 84.44 395.748 84.616 395.524 84.888C395.316 85.144 395.1 85.52 394.876 86.016L391.636 93.288ZM397.405 88.896C397.405 88.064 397.605 87.28 398.005 86.544C398.421 85.792 398.989 85.192 399.709 84.744C400.429 84.296 401.229 84.072 402.109 84.072C402.957 84.072 403.725 84.272 404.413 84.672C405.101 85.056 405.637 85.584 406.021 86.256C406.421 86.928 406.621 87.664 406.621 88.464C406.621 89.296 406.413 90.088 405.997 90.84C405.597 91.576 405.037 92.168 404.317 92.616C403.597 93.064 402.797 93.288 401.917 93.288C401.069 93.288 400.301 93.096 399.613 92.712C398.925 92.312 398.381 91.776 397.981 91.104C397.597 90.432 397.405 89.696 397.405 88.896ZM404.893 89.16C404.893 88.488 404.765 87.824 404.509 87.168C404.253 86.512 403.893 85.976 403.429 85.56C402.965 85.144 402.429 84.936 401.821 84.936C400.973 84.936 400.309 85.256 399.829 85.896C399.365 86.536 399.133 87.304 399.133 88.2C399.133 88.872 399.261 89.536 399.517 90.192C399.773 90.848 400.133 91.384 400.597 91.8C401.061 92.216 401.597 92.424 402.205 92.424C403.053 92.424 403.709 92.104 404.173 91.464C404.653 90.824 404.893 90.056 404.893 89.16ZM409.498 86.976C409.498 86.304 409.386 85.848 409.162 85.608C408.954 85.352 408.714 85.224 408.442 85.224L411.034 84.072V90.6C411.034 91.304 411.106 91.832 411.25 92.184C411.394 92.536 411.554 92.776 411.73 92.904C411.906 93.016 411.994 93.048 411.994 93H408.538C408.538 93.048 408.626 93.016 408.802 92.904C408.978 92.776 409.138 92.536 409.282 92.184C409.426 91.832 409.498 91.304 409.498 90.6V86.976ZM410.242 81.168C409.89 81.168 409.61 81.056 409.402 80.832C409.21 80.592 409.114 80.32 409.114 80.016C409.114 79.712 409.21 79.448 409.402 79.224C409.61 78.984 409.89 78.864 410.242 78.864C410.594 78.864 410.866 78.984 411.058 79.224C411.266 79.448 411.37 79.712 411.37 80.016C411.37 80.32 411.266 80.592 411.058 80.832C410.866 81.056 410.594 81.168 410.242 81.168ZM418.153 93.288C417.289 93.288 416.529 93.08 415.873 92.664C415.233 92.248 414.745 91.696 414.409 91.008C414.073 90.32 413.905 89.592 413.905 88.824C413.905 88.024 414.073 87.264 414.409 86.544C414.761 85.808 415.265 85.216 415.921 84.768C416.577 84.304 417.353 84.072 418.249 84.072C419.321 84.072 420.097 84.304 420.577 84.768C421.057 85.232 421.393 85.72 421.585 86.232L420.001 87C419.905 86.424 419.665 85.936 419.281 85.536C418.913 85.136 418.457 84.936 417.913 84.936C417.129 84.936 416.521 85.24 416.089 85.848C415.657 86.456 415.441 87.2 415.441 88.08C415.441 88.704 415.577 89.312 415.849 89.904C416.137 90.48 416.537 90.952 417.049 91.32C417.577 91.688 418.193 91.872 418.897 91.872C419.473 91.872 420.017 91.744 420.529 91.488C421.057 91.216 421.473 90.856 421.777 90.408C421.601 91.304 421.185 92.008 420.529 92.52C419.873 93.032 419.081 93.288 418.153 93.288ZM427.667 93.288C426.803 93.288 426.059 93.08 425.435 92.664C424.811 92.232 424.331 91.68 423.995 91.008C423.675 90.32 423.515 89.592 423.515 88.824C423.515 87.832 423.707 86.976 424.091 86.256C424.491 85.536 425.003 84.992 425.627 84.624C426.251 84.256 426.899 84.072 427.571 84.072C428.531 84.072 429.355 84.424 430.043 85.128C430.747 85.816 431.131 86.776 431.195 88.008H424.955C424.955 88.776 425.099 89.456 425.387 90.048C425.675 90.624 426.059 91.072 426.539 91.392C427.035 91.696 427.571 91.848 428.147 91.848C429.651 91.848 430.667 91.368 431.195 90.408C431.051 91.272 430.659 91.968 430.019 92.496C429.379 93.024 428.595 93.288 427.667 93.288ZM427.403 84.864C426.779 84.864 426.243 85.088 425.795 85.536C425.347 85.968 425.075 86.536 424.979 87.24H429.347C429.347 86.504 429.147 85.928 428.747 85.512C428.363 85.08 427.915 84.864 427.403 84.864ZM439.265 88.896C439.265 88.064 439.465 87.28 439.865 86.544C440.281 85.792 440.849 85.192 441.569 84.744C442.289 84.296 443.089 84.072 443.969 84.072C444.817 84.072 445.585 84.272 446.273 84.672C446.961 85.056 447.497 85.584 447.881 86.256C448.281 86.928 448.481 87.664 448.481 88.464C448.481 89.296 448.273 90.088 447.857 90.84C447.457 91.576 446.897 92.168 446.177 92.616C445.457 93.064 444.657 93.288 443.777 93.288C442.929 93.288 442.161 93.096 441.473 92.712C440.785 92.312 440.241 91.776 439.841 91.104C439.457 90.432 439.265 89.696 439.265 88.896ZM446.753 89.16C446.753 88.488 446.625 87.824 446.369 87.168C446.113 86.512 445.753 85.976 445.289 85.56C444.825 85.144 444.289 84.936 443.681 84.936C442.833 84.936 442.169 85.256 441.689 85.896C441.225 86.536 440.993 87.304 440.993 88.2C440.993 88.872 441.121 89.536 441.377 90.192C441.633 90.848 441.993 91.384 442.457 91.8C442.921 92.216 443.457 92.424 444.065 92.424C444.913 92.424 445.569 92.104 446.033 91.464C446.513 90.824 446.753 90.056 446.753 89.16ZM457.478 77.328C457.19 77.04 456.838 76.816 456.422 76.656C456.022 76.48 455.614 76.392 455.198 76.392C454.398 76.392 453.814 76.68 453.446 77.256C453.078 77.816 452.894 78.544 452.894 79.44V84.264H455.39V85.224H452.894V90.6C452.894 91.288 452.966 91.816 453.11 92.184C453.254 92.536 453.414 92.776 453.59 92.904C453.766 93.016 453.854 93.048 453.854 93H450.374C450.374 93.048 450.462 93.016 450.638 92.904C450.83 92.776 450.998 92.536 451.142 92.184C451.286 91.816 451.358 91.288 451.358 90.6V85.224H450.014V84.264H451.358V80.928C451.358 79.808 451.542 78.824 451.91 77.976C452.294 77.112 452.822 76.44 453.494 75.96C454.182 75.48 454.966 75.24 455.846 75.24C456.534 75.24 457.078 75.312 457.478 75.456V77.328ZM462.679 88.896C462.679 88.064 462.879 87.28 463.279 86.544C463.695 85.792 464.263 85.192 464.983 84.744C465.703 84.296 466.503 84.072 467.383 84.072C468.231 84.072 468.999 84.272 469.687 84.672C470.375 85.056 470.911 85.584 471.295 86.256C471.695 86.928 471.895 87.664 471.895 88.464C471.895 89.296 471.687 90.088 471.271 90.84C470.871 91.576 470.311 92.168 469.591 92.616C468.871 93.064 468.071 93.288 467.191 93.288C466.343 93.288 465.575 93.096 464.887 92.712C464.199 92.312 463.655 91.776 463.255 91.104C462.871 90.432 462.679 89.696 462.679 88.896ZM470.167 89.16C470.167 88.488 470.039 87.824 469.783 87.168C469.527 86.512 469.167 85.976 468.703 85.56C468.239 85.144 467.703 84.936 467.095 84.936C466.247 84.936 465.583 85.256 465.103 85.896C464.639 86.536 464.407 87.304 464.407 88.2C464.407 88.872 464.535 89.536 464.791 90.192C465.047 90.848 465.407 91.384 465.871 91.8C466.335 92.216 466.871 92.424 467.479 92.424C468.327 92.424 468.983 92.104 469.447 91.464C469.927 90.824 470.167 90.056 470.167 89.16ZM480.532 91.608C479.732 92.728 478.748 93.288 477.58 93.288C476.764 93.288 476.092 93.024 475.564 92.496C475.036 91.952 474.772 91.128 474.772 90.024V86.616C474.772 85.96 474.668 85.456 474.46 85.104C474.268 84.752 474.044 84.512 473.788 84.384C473.532 84.256 473.404 84.216 473.404 84.264H476.308V89.664C476.308 90.416 476.508 90.992 476.908 91.392C477.324 91.792 477.812 91.992 478.372 91.992C478.932 91.992 479.428 91.808 479.86 91.44C480.308 91.056 480.532 90.56 480.532 89.952V86.448C480.532 85.824 480.452 85.352 480.292 85.032C480.132 84.712 479.948 84.496 479.74 84.384C479.532 84.272 479.428 84.232 479.428 84.264H482.068V90.288C482.068 90.96 482.172 91.424 482.38 91.68C482.604 91.92 482.852 92.04 483.124 92.04H483.268L480.532 93.288V91.608ZM487.44 86.256C487.68 85.744 488.072 85.256 488.616 84.792C489.176 84.312 489.736 84.072 490.296 84.072C490.648 84.072 490.912 84.12 491.088 84.216V86.184C490.736 85.752 490.24 85.536 489.6 85.536C488.928 85.536 488.4 85.832 488.016 86.424C487.632 87 487.44 87.744 487.44 88.656V90.6C487.44 91.496 487.544 92.112 487.752 92.448C487.96 92.784 488.16 92.968 488.352 93H484.968C485.16 92.968 485.36 92.792 485.568 92.472C485.792 92.136 485.904 91.512 485.904 90.6V86.976C485.904 86.304 485.792 85.848 485.568 85.608C485.36 85.352 485.12 85.224 484.848 85.224L487.44 84.072V86.256ZM507.389 84.264V85.224H505.397C505.973 85.928 506.261 86.648 506.261 87.384C506.261 88.008 506.109 88.592 505.805 89.136C505.501 89.664 505.061 90.088 504.485 90.408C503.925 90.728 503.269 90.888 502.517 90.888C502.133 90.888 501.749 90.856 501.365 90.792C500.789 91.112 500.501 91.472 500.501 91.872C500.501 92.032 500.541 92.184 500.621 92.328C500.701 92.472 500.821 92.576 500.98 92.64C501.205 92.736 501.493 92.808 501.845 92.856C502.197 92.888 502.565 92.912 502.949 92.928C503.333 92.944 503.605 92.952 503.765 92.952C505.013 93 505.901 93.24 506.429 93.672C506.957 94.104 507.221 94.624 507.221 95.232C507.221 95.872 507.013 96.456 506.597 96.984C506.197 97.528 505.613 97.952 504.845 98.256C504.077 98.576 503.189 98.736 502.181 98.736C501.445 98.736 500.805 98.632 500.261 98.424C499.717 98.216 499.301 97.944 499.013 97.608C498.725 97.272 498.581 96.912 498.581 96.528C498.581 96.016 498.797 95.536 499.229 95.088C499.677 94.656 500.229 94.328 500.885 94.104C500.357 94.072 499.933 93.896 499.613 93.576C499.309 93.256 499.157 92.912 499.157 92.544C499.157 92.144 499.293 91.8 499.565 91.512C499.837 91.208 500.229 90.888 500.741 90.552C500.165 90.296 499.725 89.896 499.421 89.352C499.117 88.808 498.965 88.232 498.965 87.624C498.965 87.032 499.109 86.464 499.396 85.92C499.701 85.376 500.141 84.936 500.717 84.6C501.309 84.248 502.005 84.072 502.805 84.072C503.221 84.072 503.653 84.136 504.101 84.264H507.389ZM502.541 84.936C501.949 84.936 501.461 85.152 501.077 85.584C500.693 86 500.501 86.536 500.501 87.192C500.501 88.008 500.709 88.68 501.125 89.208C501.557 89.72 502.077 89.976 502.685 89.976C503.325 89.976 503.821 89.768 504.173 89.352C504.541 88.92 504.725 88.352 504.725 87.648C504.725 86.848 504.509 86.2 504.077 85.704C503.661 85.192 503.149 84.936 502.541 84.936ZM502.133 94.392C501.541 94.392 501.053 94.576 500.669 94.944C500.301 95.312 500.117 95.72 500.117 96.168C500.117 96.6 500.357 96.968 500.837 97.272C501.333 97.592 501.989 97.752 502.805 97.752C503.781 97.752 504.533 97.568 505.061 97.2C505.605 96.832 505.877 96.376 505.877 95.832C505.877 95.352 505.621 94.992 505.109 94.752C504.597 94.512 503.773 94.392 502.637 94.392H502.133ZM512.909 93.288C512.045 93.288 511.301 93.08 510.677 92.664C510.053 92.232 509.573 91.68 509.237 91.008C508.917 90.32 508.757 89.592 508.757 88.824C508.757 87.832 508.949 86.976 509.333 86.256C509.733 85.536 510.245 84.992 510.869 84.624C511.493 84.256 512.141 84.072 512.813 84.072C513.773 84.072 514.597 84.424 515.285 85.128C515.989 85.816 516.373 86.776 516.437 88.008H510.197C510.197 88.776 510.341 89.456 510.629 90.048C510.917 90.624 511.301 91.072 511.781 91.392C512.277 91.696 512.813 91.848 513.389 91.848C514.893 91.848 515.909 91.368 516.437 90.408C516.293 91.272 515.901 91.968 515.261 92.496C514.621 93.024 513.837 93.288 512.909 93.288ZM512.645 84.864C512.021 84.864 511.485 85.088 511.037 85.536C510.589 85.968 510.317 86.536 510.221 87.24H514.589C514.589 86.504 514.389 85.928 513.989 85.512C513.605 85.08 513.157 84.864 512.645 84.864ZM520.862 85.704C521.23 85.208 521.662 84.816 522.158 84.528C522.67 84.224 523.206 84.072 523.766 84.072C524.63 84.072 525.318 84.352 525.83 84.912C526.358 85.456 526.622 86.248 526.622 87.288V90.624C526.622 91.296 526.694 91.808 526.838 92.16C526.982 92.512 527.142 92.752 527.318 92.88C527.494 93.008 527.582 93.048 527.582 93H524.126C524.126 93.048 524.214 93.016 524.39 92.904C524.566 92.776 524.726 92.536 524.87 92.184C525.014 91.832 525.086 91.304 525.086 90.6V87.864C525.086 87.32 525.014 86.888 524.87 86.568C524.726 86.248 524.534 85.984 524.294 85.776C523.926 85.472 523.486 85.32 522.974 85.32C522.398 85.32 521.902 85.512 521.486 85.896C521.07 86.264 520.862 86.784 520.862 87.456V90.6C520.862 91.288 520.934 91.808 521.078 92.16C521.222 92.512 521.382 92.752 521.558 92.88C521.75 93.008 521.846 93.048 521.846 93H518.39C518.39 93.048 518.478 93.016 518.654 92.904C518.83 92.776 518.982 92.536 519.11 92.184C519.254 91.816 519.326 91.288 519.326 90.6V86.976C519.326 86.304 519.214 85.848 518.99 85.608C518.782 85.352 518.542 85.224 518.27 85.224L520.862 84.072V85.704ZM533.651 93.288C532.787 93.288 532.043 93.08 531.419 92.664C530.795 92.232 530.315 91.68 529.979 91.008C529.659 90.32 529.499 89.592 529.499 88.824C529.499 87.832 529.691 86.976 530.075 86.256C530.475 85.536 530.987 84.992 531.611 84.624C532.235 84.256 532.883 84.072 533.555 84.072C534.515 84.072 535.339 84.424 536.027 85.128C536.731 85.816 537.115 86.776 537.179 88.008H530.939C530.939 88.776 531.083 89.456 531.371 90.048C531.659 90.624 532.043 91.072 532.523 91.392C533.019 91.696 533.555 91.848 534.131 91.848C535.635 91.848 536.651 91.368 537.179 90.408C537.035 91.272 536.643 91.968 536.003 92.496C535.363 93.024 534.579 93.288 533.651 93.288ZM533.387 84.864C532.763 84.864 532.227 85.088 531.779 85.536C531.331 85.968 531.059 86.536 530.963 87.24H535.331C535.331 86.504 535.131 85.928 534.731 85.512C534.347 85.08 533.899 84.864 533.387 84.864ZM541.604 86.256C541.844 85.744 542.236 85.256 542.78 84.792C543.34 84.312 543.9 84.072 544.46 84.072C544.812 84.072 545.076 84.12 545.252 84.216V86.184C544.9 85.752 544.404 85.536 543.764 85.536C543.092 85.536 542.564 85.832 542.18 86.424C541.796 87 541.604 87.744 541.604 88.656V90.6C541.604 91.496 541.708 92.112 541.916 92.448C542.124 92.784 542.324 92.968 542.516 93H539.132C539.324 92.968 539.524 92.792 539.732 92.472C539.956 92.136 540.068 91.512 540.068 90.6V86.976C540.068 86.304 539.956 85.848 539.732 85.608C539.524 85.352 539.284 85.224 539.012 85.224L541.604 84.072V86.256ZM554.02 93.288C553.508 93.272 553.076 93.136 552.724 92.88C552.372 92.624 552.172 92.328 552.124 91.992C551.836 92.408 551.452 92.728 550.972 92.952C550.508 93.176 550.044 93.288 549.58 93.288C548.844 93.288 548.228 93.08 547.732 92.664C547.236 92.232 546.988 91.672 546.988 90.984C546.988 89.208 548.652 88.32 551.98 88.32V88.056C551.98 87.176 551.852 86.528 551.596 86.112C551.244 85.52 550.668 85.224 549.868 85.224C549.244 85.224 548.724 85.408 548.308 85.776C547.908 86.144 547.708 86.624 547.708 87.216C547.612 87.056 547.532 86.912 547.468 86.784C547.42 86.656 547.396 86.48 547.396 86.256C547.396 85.68 547.668 85.176 548.212 84.744C548.756 84.296 549.468 84.072 550.348 84.072C551.596 84.072 552.484 84.488 553.012 85.32C553.188 85.576 553.316 85.896 553.396 86.28C553.476 86.664 553.516 87.168 553.516 87.792V90.648C553.516 91.144 553.652 91.528 553.924 91.8C554.212 92.072 554.612 92.208 555.124 92.208H555.436L554.02 93.288ZM551.98 89.04C550.7 89.04 549.836 89.2 549.388 89.52C548.94 89.84 548.716 90.272 548.716 90.816C548.716 91.264 548.836 91.616 549.076 91.872C549.316 92.128 549.636 92.256 550.036 92.256C550.34 92.256 550.628 92.184 550.9 92.04C551.172 91.896 551.404 91.696 551.596 91.44C551.852 91.104 551.98 90.648 551.98 90.072V89.04ZM559.741 93.288C558.957 93.288 558.365 93.024 557.965 92.496C557.565 91.952 557.365 91.304 557.365 90.552V85.224H556.021L558.901 81.96V84.264H561.973V85.224H558.901V90.288C558.901 90.896 559.061 91.36 559.381 91.68C559.701 91.984 560.069 92.136 560.485 92.136C560.805 92.136 561.117 92.04 561.421 91.848C561.725 91.656 561.973 91.392 562.165 91.056C561.925 92.544 561.117 93.288 559.741 93.288ZM564.654 86.976C564.654 86.304 564.542 85.848 564.318 85.608C564.11 85.352 563.87 85.224 563.598 85.224L566.19 84.072V90.6C566.19 91.304 566.262 91.832 566.406 92.184C566.55 92.536 566.71 92.776 566.886 92.904C567.062 93.016 567.15 93.048 567.15 93H563.694C563.694 93.048 563.782 93.016 563.958 92.904C564.134 92.776 564.294 92.536 564.438 92.184C564.582 91.832 564.654 91.304 564.654 90.6V86.976ZM565.398 81.168C565.046 81.168 564.766 81.056 564.558 80.832C564.366 80.592 564.27 80.32 564.27 80.016C564.27 79.712 564.366 79.448 564.558 79.224C564.766 78.984 565.046 78.864 565.398 78.864C565.75 78.864 566.022 78.984 566.214 79.224C566.422 79.448 566.526 79.712 566.526 80.016C566.526 80.32 566.422 80.592 566.214 80.832C566.022 81.056 565.75 81.168 565.398 81.168ZM569.062 88.896C569.062 88.064 569.262 87.28 569.662 86.544C570.078 85.792 570.646 85.192 571.366 84.744C572.086 84.296 572.886 84.072 573.766 84.072C574.614 84.072 575.382 84.272 576.07 84.672C576.758 85.056 577.294 85.584 577.678 86.256C578.078 86.928 578.278 87.664 578.278 88.464C578.278 89.296 578.07 90.088 577.654 90.84C577.254 91.576 576.694 92.168 575.974 92.616C575.254 93.064 574.454 93.288 573.574 93.288C572.726 93.288 571.958 93.096 571.27 92.712C570.582 92.312 570.038 91.776 569.638 91.104C569.254 90.432 569.062 89.696 569.062 88.896ZM576.55 89.16C576.55 88.488 576.422 87.824 576.166 87.168C575.91 86.512 575.55 85.976 575.086 85.56C574.622 85.144 574.086 84.936 573.478 84.936C572.63 84.936 571.966 85.256 571.486 85.896C571.022 86.536 570.79 87.304 570.79 88.2C570.79 88.872 570.918 89.536 571.174 90.192C571.43 90.848 571.79 91.384 572.254 91.8C572.718 92.216 573.254 92.424 573.862 92.424C574.71 92.424 575.366 92.104 575.83 91.464C576.31 90.824 576.55 90.056 576.55 89.16ZM582.69 85.704C583.058 85.208 583.49 84.816 583.986 84.528C584.498 84.224 585.034 84.072 585.594 84.072C586.458 84.072 587.146 84.352 587.658 84.912C588.186 85.456 588.45 86.248 588.45 87.288V90.624C588.45 91.296 588.522 91.808 588.666 92.16C588.81 92.512 588.97 92.752 589.146 92.88C589.322 93.008 589.41 93.048 589.41 93H585.954C585.954 93.048 586.042 93.016 586.218 92.904C586.394 92.776 586.554 92.536 586.698 92.184C586.842 91.832 586.914 91.304 586.914 90.6V87.864C586.914 87.32 586.842 86.888 586.698 86.568C586.554 86.248 586.362 85.984 586.122 85.776C585.754 85.472 585.314 85.32 584.802 85.32C584.226 85.32 583.73 85.512 583.314 85.896C582.898 86.264 582.69 86.784 582.69 87.456V90.6C582.69 91.288 582.762 91.808 582.906 92.16C583.05 92.512 583.21 92.752 583.386 92.88C583.578 93.008 583.674 93.048 583.674 93H580.218C580.218 93.048 580.306 93.016 580.482 92.904C580.658 92.776 580.81 92.536 580.938 92.184C581.082 91.816 581.154 91.288 581.154 90.6V86.976C581.154 86.304 581.042 85.848 580.818 85.608C580.61 85.352 580.37 85.224 580.098 85.224L582.69 84.072V85.704ZM598.428 86.976C598.428 86.304 598.316 85.848 598.092 85.608C597.884 85.352 597.644 85.224 597.372 85.224L599.964 84.072V90.6C599.964 91.304 600.036 91.832 600.18 92.184C600.324 92.536 600.484 92.776 600.66 92.904C600.836 93.016 600.924 93.048 600.924 93H597.468C597.468 93.048 597.556 93.016 597.732 92.904C597.908 92.776 598.068 92.536 598.212 92.184C598.356 91.832 598.428 91.304 598.428 90.6V86.976ZM599.172 81.168C598.82 81.168 598.54 81.056 598.332 80.832C598.14 80.592 598.044 80.32 598.044 80.016C598.044 79.712 598.14 79.448 598.332 79.224C598.54 78.984 598.82 78.864 599.172 78.864C599.524 78.864 599.796 78.984 599.988 79.224C600.196 79.448 600.3 79.712 600.3 80.016C600.3 80.32 600.196 80.592 599.988 80.832C599.796 81.056 599.524 81.168 599.172 81.168ZM605.979 93.288C605.499 93.288 605.003 93.208 604.491 93.048C603.979 92.888 603.555 92.68 603.219 92.424V90.312C603.523 91.064 603.931 91.608 604.443 91.944C604.971 92.264 605.539 92.424 606.147 92.424C606.643 92.424 607.043 92.288 607.347 92.016C607.667 91.744 607.827 91.448 607.827 91.128C607.827 90.776 607.667 90.48 607.347 90.24C607.027 90 606.539 89.728 605.883 89.424C605.035 89.024 604.379 88.632 603.915 88.248C603.451 87.864 603.219 87.344 603.219 86.688C603.219 85.968 603.491 85.352 604.035 84.84C604.579 84.328 605.291 84.072 606.171 84.072C606.779 84.072 607.307 84.144 607.755 84.288C608.203 84.432 608.539 84.592 608.763 84.768L608.379 86.568C608.187 86.024 607.867 85.616 607.419 85.344C606.971 85.072 606.499 84.936 606.003 84.936C605.571 84.936 605.211 85.064 604.923 85.32C604.651 85.576 604.515 85.864 604.515 86.184C604.515 86.616 604.683 86.96 605.019 87.216C605.371 87.472 605.899 87.752 606.603 88.056C607.435 88.408 608.067 88.768 608.499 89.136C608.947 89.488 609.171 89.992 609.171 90.648C609.171 91.112 609.043 91.544 608.787 91.944C608.531 92.344 608.155 92.672 607.659 92.928C607.179 93.168 606.619 93.288 605.979 93.288ZM625.842 84.264V85.224H623.85C624.426 85.928 624.714 86.648 624.714 87.384C624.714 88.008 624.562 88.592 624.258 89.136C623.954 89.664 623.514 90.088 622.938 90.408C622.378 90.728 621.722 90.888 620.97 90.888C620.586 90.888 620.202 90.856 619.818 90.792C619.242 91.112 618.954 91.472 618.954 91.872C618.954 92.032 618.994 92.184 619.074 92.328C619.154 92.472 619.274 92.576 619.434 92.64C619.658 92.736 619.946 92.808 620.298 92.856C620.65 92.888 621.018 92.912 621.402 92.928C621.786 92.944 622.058 92.952 622.218 92.952C623.466 93 624.354 93.24 624.882 93.672C625.41 94.104 625.674 94.624 625.674 95.232C625.674 95.872 625.466 96.456 625.05 96.984C624.65 97.528 624.066 97.952 623.298 98.256C622.53 98.576 621.642 98.736 620.634 98.736C619.898 98.736 619.258 98.632 618.714 98.424C618.17 98.216 617.754 97.944 617.466 97.608C617.178 97.272 617.034 96.912 617.034 96.528C617.034 96.016 617.25 95.536 617.682 95.088C618.13 94.656 618.682 94.328 619.338 94.104C618.81 94.072 618.386 93.896 618.066 93.576C617.762 93.256 617.61 92.912 617.61 92.544C617.61 92.144 617.746 91.8 618.018 91.512C618.29 91.208 618.682 90.888 619.194 90.552C618.618 90.296 618.178 89.896 617.874 89.352C617.57 88.808 617.418 88.232 617.418 87.624C617.418 87.032 617.562 86.464 617.85 85.92C618.154 85.376 618.594 84.936 619.17 84.6C619.762 84.248 620.458 84.072 621.258 84.072C621.674 84.072 622.106 84.136 622.554 84.264H625.842ZM620.994 84.936C620.402 84.936 619.914 85.152 619.53 85.584C619.146 86 618.954 86.536 618.954 87.192C618.954 88.008 619.162 88.68 619.578 89.208C620.01 89.72 620.53 89.976 621.138 89.976C621.778 89.976 622.274 89.768 622.626 89.352C622.994 88.92 623.178 88.352 623.178 87.648C623.178 86.848 622.962 86.2 622.53 85.704C622.114 85.192 621.602 84.936 620.994 84.936ZM620.586 94.392C619.994 94.392 619.506 94.576 619.122 94.944C618.754 95.312 618.57 95.72 618.57 96.168C618.57 96.6 618.81 96.968 619.29 97.272C619.786 97.592 620.442 97.752 621.258 97.752C622.234 97.752 622.986 97.568 623.514 97.2C624.058 96.832 624.33 96.376 624.33 95.832C624.33 95.352 624.074 94.992 623.562 94.752C623.05 94.512 622.226 94.392 621.09 94.392H620.586ZM627.21 88.896C627.21 88.064 627.41 87.28 627.81 86.544C628.226 85.792 628.794 85.192 629.514 84.744C630.234 84.296 631.034 84.072 631.914 84.072C632.762 84.072 633.53 84.272 634.218 84.672C634.906 85.056 635.442 85.584 635.826 86.256C636.226 86.928 636.426 87.664 636.426 88.464C636.426 89.296 636.218 90.088 635.802 90.84C635.402 91.576 634.842 92.168 634.122 92.616C633.402 93.064 632.602 93.288 631.722 93.288C630.874 93.288 630.106 93.096 629.418 92.712C628.73 92.312 628.186 91.776 627.786 91.104C627.402 90.432 627.21 89.696 627.21 88.896ZM634.698 89.16C634.698 88.488 634.57 87.824 634.314 87.168C634.058 86.512 633.698 85.976 633.234 85.56C632.77 85.144 632.234 84.936 631.626 84.936C630.778 84.936 630.114 85.256 629.634 85.896C629.17 86.536 628.938 87.304 628.938 88.2C628.938 88.872 629.066 89.536 629.322 90.192C629.578 90.848 629.938 91.384 630.402 91.8C630.866 92.216 631.402 92.424 632.01 92.424C632.858 92.424 633.514 92.104 633.978 91.464C634.458 90.824 634.698 90.056 634.698 89.16ZM639.303 86.976C639.303 86.304 639.191 85.848 638.967 85.608C638.759 85.352 638.519 85.224 638.247 85.224L640.839 84.072V90.6C640.839 91.304 640.911 91.832 641.055 92.184C641.199 92.536 641.359 92.776 641.535 92.904C641.711 93.016 641.799 93.048 641.799 93H638.343C638.343 93.048 638.431 93.016 638.607 92.904C638.783 92.776 638.943 92.536 639.087 92.184C639.231 91.832 639.303 91.304 639.303 90.6V86.976ZM640.047 81.168C639.695 81.168 639.415 81.056 639.207 80.832C639.015 80.592 638.919 80.32 638.919 80.016C638.919 79.712 639.015 79.448 639.207 79.224C639.415 78.984 639.695 78.864 640.047 78.864C640.399 78.864 640.671 78.984 640.863 79.224C641.071 79.448 641.175 79.712 641.175 80.016C641.175 80.32 641.071 80.592 640.863 80.832C640.671 81.056 640.399 81.168 640.047 81.168ZM646.206 85.704C646.574 85.208 647.006 84.816 647.502 84.528C648.014 84.224 648.55 84.072 649.11 84.072C649.974 84.072 650.662 84.352 651.174 84.912C651.702 85.456 651.966 86.248 651.966 87.288V90.624C651.966 91.296 652.038 91.808 652.182 92.16C652.326 92.512 652.486 92.752 652.662 92.88C652.838 93.008 652.926 93.048 652.926 93H649.47C649.47 93.048 649.558 93.016 649.734 92.904C649.91 92.776 650.07 92.536 650.214 92.184C650.358 91.832 650.43 91.304 650.43 90.6V87.864C650.43 87.32 650.358 86.888 650.214 86.568C650.07 86.248 649.878 85.984 649.638 85.776C649.27 85.472 648.83 85.32 648.318 85.32C647.742 85.32 647.246 85.512 646.83 85.896C646.414 86.264 646.206 86.784 646.206 87.456V90.6C646.206 91.288 646.278 91.808 646.422 92.16C646.566 92.512 646.726 92.752 646.902 92.88C647.094 93.008 647.19 93.048 647.19 93H643.734C643.734 93.048 643.822 93.016 643.998 92.904C644.174 92.776 644.326 92.536 644.454 92.184C644.598 91.816 644.67 91.288 644.67 90.6V86.976C644.67 86.304 644.558 85.848 644.334 85.608C644.126 85.352 643.886 85.224 643.614 85.224L646.206 84.072V85.704ZM663.459 84.264V85.224H661.467C662.043 85.928 662.331 86.648 662.331 87.384C662.331 88.008 662.179 88.592 661.875 89.136C661.571 89.664 661.131 90.088 660.555 90.408C659.995 90.728 659.339 90.888 658.587 90.888C658.203 90.888 657.819 90.856 657.435 90.792C656.859 91.112 656.571 91.472 656.571 91.872C656.571 92.032 656.611 92.184 656.691 92.328C656.771 92.472 656.891 92.576 657.051 92.64C657.275 92.736 657.563 92.808 657.915 92.856C658.267 92.888 658.635 92.912 659.019 92.928C659.403 92.944 659.675 92.952 659.835 92.952C661.083 93 661.971 93.24 662.499 93.672C663.027 94.104 663.291 94.624 663.291 95.232C663.291 95.872 663.083 96.456 662.667 96.984C662.267 97.528 661.683 97.952 660.915 98.256C660.147 98.576 659.259 98.736 658.251 98.736C657.515 98.736 656.875 98.632 656.331 98.424C655.787 98.216 655.371 97.944 655.083 97.608C654.795 97.272 654.651 96.912 654.651 96.528C654.651 96.016 654.867 95.536 655.299 95.088C655.747 94.656 656.299 94.328 656.955 94.104C656.427 94.072 656.003 93.896 655.683 93.576C655.379 93.256 655.227 92.912 655.227 92.544C655.227 92.144 655.363 91.8 655.635 91.512C655.907 91.208 656.299 90.888 656.811 90.552C656.235 90.296 655.795 89.896 655.491 89.352C655.187 88.808 655.035 88.232 655.035 87.624C655.035 87.032 655.179 86.464 655.467 85.92C655.771 85.376 656.211 84.936 656.787 84.6C657.379 84.248 658.075 84.072 658.875 84.072C659.291 84.072 659.723 84.136 660.171 84.264H663.459ZM658.611 84.936C658.019 84.936 657.531 85.152 657.147 85.584C656.763 86 656.571 86.536 656.571 87.192C656.571 88.008 656.779 88.68 657.195 89.208C657.627 89.72 658.147 89.976 658.755 89.976C659.395 89.976 659.891 89.768 660.243 89.352C660.611 88.92 660.795 88.352 660.795 87.648C660.795 86.848 660.579 86.2 660.147 85.704C659.731 85.192 659.219 84.936 658.611 84.936ZM658.203 94.392C657.611 94.392 657.123 94.576 656.739 94.944C656.371 95.312 656.187 95.72 656.187 96.168C656.187 96.6 656.427 96.968 656.907 97.272C657.403 97.592 658.059 97.752 658.875 97.752C659.851 97.752 660.603 97.568 661.131 97.2C661.675 96.832 661.947 96.376 661.947 95.832C661.947 95.352 661.691 94.992 661.179 94.752C660.667 94.512 659.843 94.392 658.707 94.392H658.203ZM133.296 121.288C132.512 121.288 131.92 121.024 131.52 120.496C131.12 119.952 130.92 119.304 130.92 118.552V113.224H129.576L132.456 109.96V112.264H135.528V113.224H132.456V118.288C132.456 118.896 132.616 119.36 132.936 119.68C133.256 119.984 133.624 120.136 134.04 120.136C134.36 120.136 134.672 120.04 134.976 119.848C135.28 119.656 135.528 119.392 135.72 119.056C135.48 120.544 134.672 121.288 133.296 121.288ZM137.249 116.896C137.249 116.064 137.449 115.28 137.849 114.544C138.265 113.792 138.833 113.192 139.553 112.744C140.273 112.296 141.073 112.072 141.953 112.072C142.801 112.072 143.569 112.272 144.257 112.672C144.945 113.056 145.481 113.584 145.865 114.256C146.265 114.928 146.465 115.664 146.465 116.464C146.465 117.296 146.257 118.088 145.841 118.84C145.441 119.576 144.881 120.168 144.161 120.616C143.441 121.064 142.641 121.288 141.761 121.288C140.913 121.288 140.145 121.096 139.457 120.712C138.769 120.312 138.225 119.776 137.825 119.104C137.441 118.432 137.249 117.696 137.249 116.896ZM144.737 117.16C144.737 116.488 144.609 115.824 144.353 115.168C144.097 114.512 143.737 113.976 143.273 113.56C142.809 113.144 142.273 112.936 141.665 112.936C140.817 112.936 140.153 113.256 139.673 113.896C139.209 114.536 138.977 115.304 138.977 116.2C138.977 116.872 139.105 117.536 139.361 118.192C139.617 118.848 139.977 119.384 140.441 119.8C140.905 120.216 141.441 120.424 142.049 120.424C142.897 120.424 143.553 120.104 144.017 119.464C144.497 118.824 144.737 118.056 144.737 117.16ZM161.243 106.24C161.243 105.568 161.131 105.112 160.907 104.872C160.699 104.616 160.459 104.488 160.187 104.488H160.043L162.779 103.24V118.288C162.779 118.96 162.883 119.424 163.091 119.68C163.315 119.92 163.563 120.04 163.835 120.04H163.979L161.243 121.288V119.728C161.051 120.048 160.699 120.392 160.187 120.76C159.691 121.112 159.035 121.288 158.219 121.288C157.515 121.288 156.883 121.112 156.323 120.76C155.763 120.408 155.323 119.92 155.003 119.296C154.683 118.672 154.523 117.976 154.523 117.208C154.523 116.232 154.723 115.368 155.123 114.616C155.523 113.864 156.043 113.264 156.683 112.816C157.403 112.32 158.187 112.072 159.035 112.072C159.595 112.072 160.059 112.152 160.427 112.312C160.795 112.456 161.067 112.592 161.243 112.72V106.24ZM156.251 116.488C156.251 117.496 156.483 118.376 156.947 119.128C157.427 119.864 158.115 120.232 159.011 120.232C159.347 120.232 159.691 120.144 160.043 119.968C160.395 119.776 160.683 119.52 160.907 119.2C161.131 118.88 161.243 118.52 161.243 118.12V115.288C161.243 114.776 161.179 114.36 161.051 114.04C160.939 113.72 160.755 113.48 160.499 113.32C160.099 113.064 159.611 112.936 159.035 112.936C158.235 112.936 157.571 113.264 157.043 113.92C156.515 114.56 156.251 115.416 156.251 116.488ZM166.615 114.976C166.615 114.304 166.503 113.848 166.279 113.608C166.071 113.352 165.831 113.224 165.559 113.224L168.151 112.072V118.6C168.151 119.304 168.223 119.832 168.367 120.184C168.511 120.536 168.671 120.776 168.847 120.904C169.023 121.016 169.111 121.048 169.111 121H165.655C165.655 121.048 165.743 121.016 165.919 120.904C166.095 120.776 166.255 120.536 166.399 120.184C166.543 119.832 166.615 119.304 166.615 118.6V114.976ZM167.359 109.168C167.007 109.168 166.727 109.056 166.519 108.832C166.327 108.592 166.231 108.32 166.231 108.016C166.231 107.712 166.327 107.448 166.519 107.224C166.727 106.984 167.007 106.864 167.359 106.864C167.711 106.864 167.983 106.984 168.175 107.224C168.383 107.448 168.487 107.712 168.487 108.016C168.487 108.32 168.383 108.592 168.175 108.832C167.983 109.056 167.711 109.168 167.359 109.168ZM174.167 121.288C173.687 121.288 173.191 121.208 172.679 121.048C172.167 120.888 171.743 120.68 171.407 120.424V118.312C171.711 119.064 172.119 119.608 172.631 119.944C173.159 120.264 173.727 120.424 174.335 120.424C174.831 120.424 175.231 120.288 175.535 120.016C175.855 119.744 176.015 119.448 176.015 119.128C176.015 118.776 175.855 118.48 175.535 118.24C175.215 118 174.727 117.728 174.071 117.424C173.223 117.024 172.567 116.632 172.103 116.248C171.639 115.864 171.407 115.344 171.407 114.688C171.407 113.968 171.679 113.352 172.223 112.84C172.767 112.328 173.479 112.072 174.359 112.072C174.967 112.072 175.495 112.144 175.943 112.288C176.391 112.432 176.727 112.592 176.951 112.768L176.567 114.568C176.375 114.024 176.055 113.616 175.607 113.344C175.159 113.072 174.687 112.936 174.191 112.936C173.759 112.936 173.399 113.064 173.111 113.32C172.839 113.576 172.703 113.864 172.703 114.184C172.703 114.616 172.871 114.96 173.207 115.216C173.559 115.472 174.087 115.752 174.791 116.056C175.623 116.408 176.255 116.768 176.687 117.136C177.135 117.488 177.359 117.992 177.359 118.648C177.359 119.112 177.231 119.544 176.975 119.944C176.719 120.344 176.343 120.672 175.847 120.928C175.367 121.168 174.807 121.288 174.167 121.288ZM186.497 121.288C185.985 121.272 185.553 121.136 185.201 120.88C184.849 120.624 184.649 120.328 184.601 119.992C184.313 120.408 183.929 120.728 183.449 120.952C182.985 121.176 182.521 121.288 182.057 121.288C181.321 121.288 180.705 121.08 180.209 120.664C179.713 120.232 179.465 119.672 179.465 118.984C179.465 117.208 181.129 116.32 184.457 116.32V116.056C184.457 115.176 184.329 114.528 184.073 114.112C183.721 113.52 183.145 113.224 182.345 113.224C181.721 113.224 181.201 113.408 180.785 113.776C180.385 114.144 180.185 114.624 180.185 115.216C180.089 115.056 180.009 114.912 179.945 114.784C179.897 114.656 179.873 114.48 179.873 114.256C179.873 113.68 180.145 113.176 180.689 112.744C181.233 112.296 181.945 112.072 182.825 112.072C184.073 112.072 184.961 112.488 185.489 113.32C185.665 113.576 185.793 113.896 185.873 114.28C185.953 114.664 185.993 115.168 185.993 115.792V118.648C185.993 119.144 186.129 119.528 186.401 119.8C186.689 120.072 187.089 120.208 187.601 120.208H187.913L186.497 121.288ZM184.457 117.04C183.177 117.04 182.313 117.2 181.865 117.52C181.417 117.84 181.193 118.272 181.193 118.816C181.193 119.264 181.313 119.616 181.553 119.872C181.793 120.128 182.113 120.256 182.513 120.256C182.817 120.256 183.105 120.184 183.377 120.04C183.649 119.896 183.881 119.696 184.073 119.44C184.329 119.104 184.457 118.648 184.457 118.072V117.04ZM191.378 124.168C191.378 124.872 191.45 125.4 191.594 125.752C191.738 126.104 191.898 126.336 192.074 126.448C192.25 126.576 192.338 126.616 192.338 126.568H188.882C188.882 126.616 188.97 126.576 189.146 126.448C189.322 126.336 189.482 126.096 189.626 125.728C189.77 125.376 189.842 124.856 189.842 124.168V114.976C189.842 114.304 189.73 113.848 189.506 113.608C189.298 113.352 189.058 113.224 188.786 113.224L191.378 112.072V113.632C191.57 113.312 191.914 112.976 192.41 112.624C192.922 112.256 193.586 112.072 194.402 112.072C195.106 112.072 195.738 112.248 196.298 112.6C196.858 112.952 197.298 113.44 197.618 114.064C197.938 114.688 198.098 115.384 198.098 116.152C198.098 117.128 197.898 117.992 197.498 118.744C197.098 119.496 196.578 120.096 195.938 120.544C195.218 121.04 194.434 121.288 193.586 121.288C193.026 121.288 192.562 121.208 192.194 121.048C191.826 120.904 191.554 120.768 191.378 120.64V124.168ZM196.37 116.872C196.37 115.864 196.13 114.992 195.65 114.256C195.186 113.504 194.506 113.128 193.61 113.128C193.274 113.128 192.93 113.224 192.578 113.416C192.226 113.592 191.938 113.84 191.714 114.16C191.49 114.48 191.378 114.84 191.378 115.24V118.072C191.378 118.584 191.434 119 191.546 119.32C191.674 119.64 191.866 119.88 192.122 120.04C192.522 120.296 193.01 120.424 193.586 120.424C194.386 120.424 195.05 120.104 195.578 119.464C196.106 118.808 196.37 117.944 196.37 116.872ZM202.511 124.168C202.511 124.872 202.583 125.4 202.727 125.752C202.871 126.104 203.031 126.336 203.207 126.448C203.383 126.576 203.471 126.616 203.471 126.568H200.015C200.015 126.616 200.103 126.576 200.279 126.448C200.455 126.336 200.615 126.096 200.759 125.728C200.903 125.376 200.975 124.856 200.975 124.168V114.976C200.975 114.304 200.863 113.848 200.639 113.608C200.431 113.352 200.191 113.224 199.919 113.224L202.511 112.072V113.632C202.703 113.312 203.047 112.976 203.543 112.624C204.055 112.256 204.719 112.072 205.535 112.072C206.239 112.072 206.871 112.248 207.431 112.6C207.991 112.952 208.431 113.44 208.751 114.064C209.071 114.688 209.231 115.384 209.231 116.152C209.231 117.128 209.031 117.992 208.631 118.744C208.231 119.496 207.711 120.096 207.071 120.544C206.351 121.04 205.567 121.288 204.719 121.288C204.159 121.288 203.695 121.208 203.327 121.048C202.959 120.904 202.687 120.768 202.511 120.64V124.168ZM207.503 116.872C207.503 115.864 207.263 114.992 206.783 114.256C206.319 113.504 205.639 113.128 204.743 113.128C204.407 113.128 204.063 113.224 203.711 113.416C203.359 113.592 203.071 113.84 202.847 114.16C202.623 114.48 202.511 114.84 202.511 115.24V118.072C202.511 118.584 202.567 119 202.679 119.32C202.807 119.64 202.999 119.88 203.255 120.04C203.655 120.296 204.143 120.424 204.719 120.424C205.519 120.424 206.183 120.104 206.711 119.464C207.239 118.808 207.503 117.944 207.503 116.872ZM215.3 121.288C214.436 121.288 213.692 121.08 213.068 120.664C212.444 120.232 211.964 119.68 211.628 119.008C211.308 118.32 211.148 117.592 211.148 116.824C211.148 115.832 211.34 114.976 211.724 114.256C212.124 113.536 212.636 112.992 213.26 112.624C213.884 112.256 214.532 112.072 215.204 112.072C216.164 112.072 216.988 112.424 217.676 113.128C218.38 113.816 218.764 114.776 218.828 116.008H212.588C212.588 116.776 212.732 117.456 213.02 118.048C213.308 118.624 213.692 119.072 214.172 119.392C214.668 119.696 215.204 119.848 215.78 119.848C217.284 119.848 218.3 119.368 218.828 118.408C218.684 119.272 218.292 119.968 217.652 120.496C217.012 121.024 216.228 121.288 215.3 121.288ZM215.036 112.864C214.412 112.864 213.876 113.088 213.428 113.536C212.98 113.968 212.708 114.536 212.612 115.24H216.98C216.98 114.504 216.78 113.928 216.38 113.512C215.996 113.08 215.548 112.864 215.036 112.864ZM227.981 121.288C227.469 121.272 227.037 121.136 226.685 120.88C226.333 120.624 226.133 120.328 226.085 119.992C225.797 120.408 225.413 120.728 224.933 120.952C224.469 121.176 224.005 121.288 223.541 121.288C222.805 121.288 222.189 121.08 221.693 120.664C221.197 120.232 220.949 119.672 220.949 118.984C220.949 117.208 222.613 116.32 225.941 116.32V116.056C225.941 115.176 225.813 114.528 225.557 114.112C225.205 113.52 224.629 113.224 223.829 113.224C223.205 113.224 222.685 113.408 222.269 113.776C221.869 114.144 221.669 114.624 221.669 115.216C221.573 115.056 221.493 114.912 221.429 114.784C221.381 114.656 221.357 114.48 221.357 114.256C221.357 113.68 221.629 113.176 222.173 112.744C222.717 112.296 223.429 112.072 224.309 112.072C225.557 112.072 226.445 112.488 226.973 113.32C227.149 113.576 227.277 113.896 227.357 114.28C227.437 114.664 227.477 115.168 227.477 115.792V118.648C227.477 119.144 227.613 119.528 227.885 119.8C228.173 120.072 228.573 120.208 229.085 120.208H229.397L227.981 121.288ZM225.941 117.04C224.661 117.04 223.797 117.2 223.349 117.52C222.901 117.84 222.677 118.272 222.677 118.816C222.677 119.264 222.797 119.616 223.037 119.872C223.277 120.128 223.597 120.256 223.997 120.256C224.301 120.256 224.589 120.184 224.861 120.04C225.133 119.896 225.365 119.696 225.557 119.44C225.813 119.104 225.941 118.648 225.941 118.072V117.04ZM232.862 114.256C233.102 113.744 233.494 113.256 234.038 112.792C234.598 112.312 235.158 112.072 235.718 112.072C236.07 112.072 236.334 112.12 236.51 112.216V114.184C236.158 113.752 235.662 113.536 235.022 113.536C234.35 113.536 233.822 113.832 233.438 114.424C233.054 115 232.862 115.744 232.862 116.656V118.6C232.862 119.496 232.966 120.112 233.174 120.448C233.382 120.784 233.582 120.968 233.774 121H230.39C230.582 120.968 230.782 120.792 230.99 120.472C231.214 120.136 231.326 119.512 231.326 118.6V114.976C231.326 114.304 231.214 113.848 230.99 113.608C230.782 113.352 230.542 113.224 230.27 113.224L232.862 112.072V114.256ZM248.442 121.288C247.578 121.288 246.818 121.08 246.162 120.664C245.522 120.248 245.034 119.696 244.698 119.008C244.362 118.32 244.194 117.592 244.194 116.824C244.194 116.024 244.362 115.264 244.698 114.544C245.05 113.808 245.554 113.216 246.21 112.768C246.866 112.304 247.642 112.072 248.538 112.072C249.61 112.072 250.386 112.304 250.866 112.768C251.346 113.232 251.682 113.72 251.874 114.232L250.29 115C250.194 114.424 249.954 113.936 249.57 113.536C249.202 113.136 248.746 112.936 248.202 112.936C247.418 112.936 246.81 113.24 246.378 113.848C245.946 114.456 245.73 115.2 245.73 116.08C245.73 116.704 245.866 117.312 246.138 117.904C246.426 118.48 246.826 118.952 247.338 119.32C247.866 119.688 248.482 119.872 249.186 119.872C249.762 119.872 250.306 119.744 250.818 119.488C251.346 119.216 251.762 118.856 252.066 118.408C251.89 119.304 251.474 120.008 250.818 120.52C250.162 121.032 249.37 121.288 248.442 121.288ZM253.804 116.896C253.804 116.064 254.004 115.28 254.404 114.544C254.82 113.792 255.388 113.192 256.108 112.744C256.828 112.296 257.628 112.072 258.508 112.072C259.356 112.072 260.124 112.272 260.812 112.672C261.5 113.056 262.036 113.584 262.42 114.256C262.82 114.928 263.02 115.664 263.02 116.464C263.02 117.296 262.812 118.088 262.396 118.84C261.996 119.576 261.436 120.168 260.716 120.616C259.996 121.064 259.196 121.288 258.316 121.288C257.468 121.288 256.7 121.096 256.012 120.712C255.324 120.312 254.78 119.776 254.38 119.104C253.996 118.432 253.804 117.696 253.804 116.896ZM261.292 117.16C261.292 116.488 261.164 115.824 260.908 115.168C260.652 114.512 260.292 113.976 259.828 113.56C259.364 113.144 258.828 112.936 258.22 112.936C257.372 112.936 256.708 113.256 256.228 113.896C255.764 114.536 255.532 115.304 255.532 116.2C255.532 116.872 255.66 117.536 255.916 118.192C256.172 118.848 256.532 119.384 256.996 119.8C257.46 120.216 257.996 120.424 258.604 120.424C259.452 120.424 260.108 120.104 260.572 119.464C261.052 118.824 261.292 118.056 261.292 117.16ZM267.433 113.704C267.833 113.208 268.281 112.816 268.777 112.528C269.273 112.224 269.793 112.072 270.337 112.072C270.929 112.072 271.449 112.216 271.897 112.504C272.361 112.776 272.697 113.176 272.905 113.704C273.337 113.16 273.825 112.752 274.369 112.48C274.929 112.208 275.505 112.072 276.097 112.072C276.961 112.072 277.649 112.352 278.161 112.912C278.689 113.456 278.953 114.248 278.953 115.288V118.624C278.953 119.504 279.065 120.112 279.289 120.448C279.513 120.784 279.713 120.968 279.889 121H276.481C276.673 120.968 276.873 120.784 277.081 120.448C277.305 120.112 277.417 119.496 277.417 118.6V115.864C277.417 115.32 277.345 114.888 277.201 114.568C277.057 114.248 276.865 113.984 276.625 113.776C276.257 113.472 275.817 113.32 275.305 113.32C274.745 113.32 274.249 113.512 273.817 113.896C273.401 114.264 273.193 114.784 273.193 115.456V118.6C273.193 119.496 273.297 120.112 273.505 120.448C273.729 120.784 273.937 120.968 274.129 121H270.721C270.913 120.968 271.113 120.784 271.321 120.448C271.545 120.112 271.657 119.496 271.657 118.6V115.864C271.657 115.32 271.585 114.888 271.441 114.568C271.297 114.248 271.105 113.984 270.865 113.776C270.497 113.472 270.057 113.32 269.545 113.32C268.969 113.32 268.473 113.512 268.057 113.896C267.641 114.264 267.433 114.784 267.433 115.456V118.6C267.433 119.512 267.545 120.136 267.769 120.472C267.993 120.792 268.201 120.968 268.393 121H264.985C265.177 120.968 265.377 120.784 265.585 120.448C265.793 120.112 265.897 119.496 265.897 118.6V114.976C265.897 114.304 265.785 113.848 265.561 113.608C265.353 113.352 265.113 113.224 264.841 113.224L267.433 112.072V113.704ZM284.331 124.168C284.331 124.872 284.403 125.4 284.547 125.752C284.691 126.104 284.851 126.336 285.027 126.448C285.203 126.576 285.291 126.616 285.291 126.568H281.835C281.835 126.616 281.923 126.576 282.099 126.448C282.275 126.336 282.435 126.096 282.579 125.728C282.723 125.376 282.795 124.856 282.795 124.168V114.976C282.795 114.304 282.683 113.848 282.459 113.608C282.251 113.352 282.011 113.224 281.739 113.224L284.331 112.072V113.632C284.523 113.312 284.867 112.976 285.363 112.624C285.875 112.256 286.539 112.072 287.355 112.072C288.059 112.072 288.691 112.248 289.251 112.6C289.811 112.952 290.251 113.44 290.571 114.064C290.891 114.688 291.051 115.384 291.051 116.152C291.051 117.128 290.851 117.992 290.451 118.744C290.051 119.496 289.531 120.096 288.891 120.544C288.171 121.04 287.387 121.288 286.539 121.288C285.979 121.288 285.515 121.208 285.147 121.048C284.779 120.904 284.507 120.768 284.331 120.64V124.168ZM289.323 116.872C289.323 115.864 289.083 114.992 288.603 114.256C288.139 113.504 287.459 113.128 286.563 113.128C286.227 113.128 285.883 113.224 285.531 113.416C285.179 113.592 284.891 113.84 284.667 114.16C284.443 114.48 284.331 114.84 284.331 115.24V118.072C284.331 118.584 284.387 119 284.499 119.32C284.627 119.64 284.819 119.88 285.075 120.04C285.475 120.296 285.963 120.424 286.539 120.424C287.339 120.424 288.003 120.104 288.531 119.464C289.059 118.808 289.323 117.944 289.323 116.872ZM293.928 106.24C293.928 105.568 293.816 105.112 293.592 104.872C293.384 104.616 293.144 104.488 292.872 104.488H292.728L295.464 103.24V118.6C295.464 119.304 295.536 119.832 295.68 120.184C295.824 120.536 295.984 120.776 296.16 120.904C296.336 121.016 296.424 121.048 296.424 121H292.968C292.968 121.048 293.056 121.016 293.232 120.904C293.408 120.776 293.568 120.536 293.712 120.184C293.856 119.816 293.928 119.288 293.928 118.6V106.24ZM302.487 121.288C301.623 121.288 300.879 121.08 300.255 120.664C299.631 120.232 299.151 119.68 298.815 119.008C298.495 118.32 298.335 117.592 298.335 116.824C298.335 115.832 298.527 114.976 298.911 114.256C299.311 113.536 299.823 112.992 300.447 112.624C301.071 112.256 301.719 112.072 302.391 112.072C303.351 112.072 304.175 112.424 304.863 113.128C305.567 113.816 305.951 114.776 306.015 116.008H299.775C299.775 116.776 299.919 117.456 300.207 118.048C300.495 118.624 300.879 119.072 301.359 119.392C301.855 119.696 302.391 119.848 302.967 119.848C304.471 119.848 305.487 119.368 306.015 118.408C305.871 119.272 305.479 119.968 304.839 120.496C304.199 121.024 303.415 121.288 302.487 121.288ZM302.223 112.864C301.599 112.864 301.063 113.088 300.615 113.536C300.167 113.968 299.895 114.536 299.799 115.24H304.167C304.167 114.504 303.967 113.928 303.567 113.512C303.183 113.08 302.735 112.864 302.223 112.864ZM311.28 121.288C310.496 121.288 309.904 121.024 309.504 120.496C309.104 119.952 308.904 119.304 308.904 118.552V113.224H307.56L310.44 109.96V112.264H313.512V113.224H310.44V118.288C310.44 118.896 310.6 119.36 310.92 119.68C311.24 119.984 311.608 120.136 312.024 120.136C312.344 120.136 312.656 120.04 312.96 119.848C313.264 119.656 313.512 119.392 313.704 119.056C313.464 120.544 312.656 121.288 311.28 121.288ZM319.385 121.288C318.521 121.288 317.777 121.08 317.153 120.664C316.529 120.232 316.049 119.68 315.713 119.008C315.393 118.32 315.233 117.592 315.233 116.824C315.233 115.832 315.425 114.976 315.809 114.256C316.209 113.536 316.721 112.992 317.345 112.624C317.969 112.256 318.617 112.072 319.289 112.072C320.249 112.072 321.073 112.424 321.761 113.128C322.465 113.816 322.849 114.776 322.913 116.008H316.673C316.673 116.776 316.817 117.456 317.105 118.048C317.393 118.624 317.777 119.072 318.257 119.392C318.753 119.696 319.289 119.848 319.865 119.848C321.369 119.848 322.385 119.368 322.913 118.408C322.769 119.272 322.377 119.968 321.737 120.496C321.097 121.024 320.313 121.288 319.385 121.288ZM319.121 112.864C318.497 112.864 317.961 113.088 317.513 113.536C317.065 113.968 316.793 114.536 316.697 115.24H321.065C321.065 114.504 320.865 113.928 320.465 113.512C320.081 113.08 319.633 112.864 319.121 112.864ZM325.803 106.24C325.803 105.568 325.691 105.112 325.467 104.872C325.259 104.616 325.019 104.488 324.747 104.488H324.603L327.339 103.24V118.6C327.339 119.304 327.411 119.832 327.555 120.184C327.699 120.536 327.859 120.776 328.035 120.904C328.211 121.016 328.299 121.048 328.299 121H324.843C324.843 121.048 324.931 121.016 325.107 120.904C325.283 120.776 325.443 120.536 325.587 120.184C325.731 119.816 325.803 119.288 325.803 118.6V106.24ZM333.57 120.28L330.762 113.92C330.49 113.312 330.226 112.896 329.97 112.672C329.73 112.432 329.538 112.296 329.394 112.264H332.898C332.754 112.296 332.61 112.368 332.466 112.48C332.322 112.592 332.25 112.792 332.25 113.08C332.25 113.352 332.33 113.656 332.49 113.992L334.434 118.48L336.162 114.232C336.274 113.944 336.33 113.648 336.33 113.344C336.33 113.056 336.266 112.816 336.138 112.624C336.026 112.432 335.834 112.312 335.562 112.264H338.778C338.602 112.296 338.37 112.432 338.082 112.672C337.81 112.912 337.538 113.36 337.266 114.016L334.002 121.6C333.57 122.608 333.25 123.4 333.042 123.976C332.834 124.568 332.634 125.176 332.442 125.8C332.362 126.104 332.282 126.36 332.202 126.568H329.754C330.186 126.36 330.714 125.776 331.338 124.816C331.978 123.856 332.634 122.56 333.306 120.928L333.57 120.28ZM341.205 121.24C340.885 121.24 340.597 121.136 340.341 120.928C340.101 120.704 339.981 120.4 339.981 120.016C339.981 119.632 340.101 119.336 340.341 119.128C340.581 118.92 340.869 118.816 341.205 118.816C341.541 118.816 341.829 118.92 342.069 119.128C342.309 119.336 342.429 119.632 342.429 120.016C342.429 120.4 342.301 120.704 342.045 120.928C341.805 121.136 341.525 121.24 341.205 121.24ZM347.345 121.24C347.025 121.24 346.737 121.136 346.481 120.928C346.241 120.704 346.121 120.4 346.121 120.016C346.121 119.632 346.241 119.336 346.481 119.128C346.721 118.92 347.009 118.816 347.345 118.816C347.681 118.816 347.969 118.92 348.209 119.128C348.449 119.336 348.569 119.632 348.569 120.016C348.569 120.4 348.441 120.704 348.185 120.928C347.945 121.136 347.665 121.24 347.345 121.24ZM353.486 121.24C353.166 121.24 352.878 121.136 352.622 120.928C352.382 120.704 352.262 120.4 352.262 120.016C352.262 119.632 352.382 119.336 352.622 119.128C352.862 118.92 353.15 118.816 353.486 118.816C353.822 118.816 354.11 118.92 354.35 119.128C354.59 119.336 354.71 119.632 354.71 120.016C354.71 120.4 354.582 120.704 354.326 120.928C354.086 121.136 353.806 121.24 353.486 121.24Z" fill="#F5F7F9"/>
<path d="M135.49 150.062C135.439 150.575 135.263 151.012 134.962 151.371C134.669 151.723 134.265 151.899 133.752 151.899C133.437 151.899 133.151 151.84 132.894 151.723C132.645 151.598 132.45 151.466 132.311 151.327C132.179 151.18 132.014 151.048 131.816 150.931C131.625 150.806 131.424 150.744 131.211 150.744C130.918 150.744 130.687 150.843 130.518 151.041C130.349 151.232 130.247 151.474 130.21 151.767H129.396C129.447 151.246 129.62 150.81 129.913 150.458C130.214 150.106 130.624 149.93 131.145 149.93C131.453 149.93 131.732 149.992 131.981 150.117C132.238 150.234 132.432 150.366 132.564 150.513C132.703 150.652 132.868 150.784 133.059 150.909C133.25 151.026 133.451 151.085 133.664 151.085C133.957 151.085 134.188 150.99 134.357 150.799C134.533 150.601 134.639 150.355 134.676 150.062H135.49ZM138.519 154L135.956 148.5H137.012L139.08 153.021H139.157L141.225 148.5H142.27L139.718 154H138.519ZM144.165 147.433C144.041 147.558 143.89 147.62 143.714 147.62C143.538 147.62 143.384 147.558 143.252 147.433C143.128 147.308 143.065 147.158 143.065 146.982C143.065 146.806 143.128 146.656 143.252 146.531C143.384 146.406 143.538 146.344 143.714 146.344C143.89 146.344 144.041 146.406 144.165 146.531C144.29 146.648 144.352 146.799 144.352 146.982C144.352 147.158 144.29 147.308 144.165 147.433ZM143.23 154V148.5H144.198V154H143.23ZM151.583 153.318C151.744 153.318 151.905 153.285 152.067 153.219V153.934C151.825 154.015 151.597 154.055 151.385 154.055C150.644 154.055 150.208 153.751 150.076 153.142C149.614 153.787 148.822 154.11 147.7 154.11C147.04 154.11 146.512 153.978 146.116 153.714C145.72 153.443 145.522 153.043 145.522 152.515C145.522 152.016 145.698 151.631 146.05 151.36C146.402 151.081 146.878 150.92 147.48 150.876L149.944 150.689V150.447C149.944 150.044 149.804 149.732 149.526 149.512C149.254 149.292 148.858 149.182 148.338 149.182C147.428 149.182 146.9 149.534 146.754 150.238H145.775C145.848 149.673 146.108 149.226 146.556 148.896C147.003 148.559 147.597 148.39 148.338 148.39C149.115 148.39 149.738 148.57 150.208 148.929C150.684 149.288 150.923 149.798 150.923 150.458V152.658C150.923 153.098 151.143 153.318 151.583 153.318ZM149.944 151.789V151.393L147.744 151.558C146.908 151.631 146.49 151.939 146.49 152.482C146.49 153.054 146.926 153.34 147.799 153.34C148.378 153.34 148.88 153.215 149.306 152.966C149.731 152.709 149.944 152.317 149.944 151.789ZM155.562 154V148.5H156.431L156.53 149.281H156.607C156.805 148.995 157.04 148.775 157.311 148.621C157.59 148.467 157.957 148.39 158.411 148.39H158.807V149.38C158.675 149.358 158.485 149.347 158.235 149.347C157.737 149.347 157.326 149.508 157.003 149.831C156.688 150.154 156.53 150.605 156.53 151.184V154H155.562ZM165.302 151.129C165.302 151.195 165.295 151.316 165.28 151.492H160.264C160.301 152.042 160.51 152.482 160.891 152.812C161.272 153.142 161.793 153.307 162.453 153.307C163.436 153.307 164.052 153.003 164.301 152.394H165.258C165.119 152.929 164.8 153.351 164.301 153.659C163.81 153.96 163.194 154.11 162.453 154.11C161.492 154.11 160.726 153.853 160.154 153.34C159.582 152.827 159.296 152.145 159.296 151.294C159.296 150.421 159.582 149.721 160.154 149.193C160.726 148.658 161.467 148.39 162.376 148.39C163.212 148.39 163.905 148.628 164.455 149.105C165.012 149.582 165.295 150.256 165.302 151.129ZM162.376 149.193C161.782 149.193 161.302 149.34 160.935 149.633C160.568 149.926 160.352 150.304 160.286 150.766H164.334C164.312 150.289 164.125 149.908 163.773 149.622C163.428 149.336 162.963 149.193 162.376 149.193ZM171.568 146.19H172.536V154H171.733L171.634 153.164H171.557C171.073 153.795 170.343 154.11 169.368 154.11C168.466 154.11 167.736 153.85 167.179 153.329C166.629 152.801 166.354 152.104 166.354 151.239C166.354 150.374 166.632 149.684 167.19 149.171C167.754 148.65 168.48 148.39 169.368 148.39C170.336 148.39 171.069 148.698 171.568 149.314V146.19ZM167.916 152.702C168.312 153.061 168.832 153.241 169.478 153.241C170.123 153.241 170.633 153.061 171.007 152.702C171.381 152.335 171.568 151.848 171.568 151.239C171.568 150.638 171.381 150.157 171.007 149.798C170.633 149.439 170.123 149.259 169.478 149.259C168.832 149.259 168.312 149.442 167.916 149.809C167.527 150.168 167.333 150.645 167.333 151.239C167.333 151.848 167.527 152.335 167.916 152.702ZM179.033 146.19H180.001V154H179.198L179.099 153.164H179.022C178.538 153.795 177.809 154.11 176.833 154.11C175.931 154.11 175.202 153.85 174.644 153.329C174.094 152.801 173.819 152.104 173.819 151.239C173.819 150.374 174.098 149.684 174.655 149.171C175.22 148.65 175.946 148.39 176.833 148.39C177.801 148.39 178.535 148.698 179.033 149.314V146.19ZM175.381 152.702C175.777 153.061 176.298 153.241 176.943 153.241C177.589 153.241 178.098 153.061 178.472 152.702C178.846 152.335 179.033 151.848 179.033 151.239C179.033 150.638 178.846 150.157 178.472 149.798C178.098 149.439 177.589 149.259 176.943 149.259C176.298 149.259 175.777 149.442 175.381 149.809C174.993 150.168 174.798 150.645 174.798 151.239C174.798 151.848 174.993 152.335 175.381 152.702ZM182.483 147.433C182.358 147.558 182.208 147.62 182.032 147.62C181.856 147.62 181.702 147.558 181.57 147.433C181.445 147.308 181.383 147.158 181.383 146.982C181.383 146.806 181.445 146.656 181.57 146.531C181.702 146.406 181.856 146.344 182.032 146.344C182.208 146.344 182.358 146.406 182.483 146.531C182.607 146.648 182.67 146.799 182.67 146.982C182.67 147.158 182.607 147.308 182.483 147.433ZM181.548 154V148.5H182.516V154H181.548ZM186.306 154.11C185.8 154.11 185.422 153.985 185.173 153.736C184.924 153.487 184.799 153.142 184.799 152.702V149.292H183.468V148.5H183.985C184.315 148.5 184.546 148.438 184.678 148.313C184.81 148.188 184.876 147.968 184.876 147.653V146.96H185.767V148.5H187.351V149.292H185.767V152.526C185.767 153.047 186.038 153.307 186.581 153.307C186.779 153.307 186.981 153.281 187.186 153.23V153.989C186.915 154.07 186.621 154.11 186.306 154.11ZM193.788 150.062C193.737 150.575 193.561 151.012 193.26 151.371C192.967 151.723 192.563 151.899 192.05 151.899C191.735 151.899 191.449 151.84 191.192 151.723C190.943 151.598 190.748 151.466 190.609 151.327C190.477 151.18 190.312 151.048 190.114 150.931C189.923 150.806 189.722 150.744 189.509 150.744C189.216 150.744 188.985 150.843 188.816 151.041C188.647 151.232 188.545 151.474 188.508 151.767H187.694C187.745 151.246 187.918 150.81 188.211 150.458C188.512 150.106 188.922 149.93 189.443 149.93C189.751 149.93 190.03 149.992 190.279 150.117C190.536 150.234 190.73 150.366 190.862 150.513C191.001 150.652 191.166 150.784 191.357 150.909C191.548 151.026 191.749 151.085 191.962 151.085C192.255 151.085 192.486 150.99 192.655 150.799C192.831 150.601 192.937 150.355 192.974 150.062H193.788Z" fill="#F5F7F9"/>
<path d="M395.217 54.6575C394.197 54.6575 393.406 54.2708 392.844 53.4973C392.281 52.7237 392 51.7217 392 50.4911C392 46.9751 393.688 44.1448 397.063 42L398.329 43.6349C396.43 45.182 395.463 46.8169 395.428 48.5397C396.166 48.4694 396.834 48.7155 397.432 49.2781C398.03 49.8055 398.329 50.5438 398.329 51.4932C398.329 52.4425 398.03 53.216 397.432 53.8137C396.87 54.3763 396.131 54.6575 395.217 54.6575ZM404.236 54.6575C403.216 54.6575 402.425 54.2708 401.862 53.4973C401.3 52.7237 401.018 51.7217 401.018 50.4911C401.018 46.9751 402.706 44.1448 406.082 42L407.4 43.6349C405.466 45.182 404.482 46.8169 404.447 48.5397C405.22 48.4694 405.888 48.7155 406.451 49.2781C407.048 49.8055 407.347 50.5438 407.347 51.4932C407.347 52.4425 407.048 53.216 406.451 53.8137C405.888 54.3763 405.15 54.6575 404.236 54.6575Z" fill="#F5F7F9"/>
<defs>
<radialGradient id="paint0_radial" cx="0" cy="0" r="1" gradientUnits="userSpaceOnUse" gradientTransform="translate(410 195) rotate(90.8952) scale(640.078 1294.46)">
<stop offset="0.105788" stop-color="#4A7CE3"/>
<stop offset="0.33919" stop-color="#375492"/>
<stop offset="0.556528" stop-color="#222222"/>
</radialGradient>
</defs>
</svg>
