<svg width="868" height="296" viewBox="0 0 868 296" fill="none" xmlns="http://www.w3.org/2000/svg">
<g filter="url(#filter0_d)">
<rect width="800" height="228" transform="translate(34 30)" fill="#222222"/>
<path d="M164.764 134C164.764 134.042 164.848 134.014 165.016 133.916C165.184 133.804 165.338 133.608 165.478 133.328C165.618 133.034 165.688 132.607 165.688 132.047V121.505C165.688 120.945 165.618 120.525 165.478 120.245C165.352 119.951 165.205 119.755 165.037 119.657C164.869 119.559 164.785 119.524 164.785 119.552H168.124C168.124 119.524 168.04 119.559 167.872 119.657C167.704 119.755 167.55 119.951 167.41 120.245C167.27 120.525 167.2 120.945 167.2 121.505V132.047C167.2 132.607 167.27 133.034 167.41 133.328C167.55 133.608 167.704 133.797 167.872 133.895C168.04 133.993 168.124 134.028 168.124 134H164.764ZM170.466 124.004C170.844 123.864 171.159 123.542 171.411 123.038C171.677 122.534 171.81 122.037 171.81 121.547C171.81 121.421 171.803 121.33 171.789 121.274H171.642C171.292 121.274 171.026 121.183 170.844 121.001C170.662 120.819 170.571 120.595 170.571 120.329C170.571 120.049 170.662 119.811 170.844 119.615C171.04 119.405 171.299 119.3 171.621 119.3C171.971 119.3 172.272 119.447 172.524 119.741C172.79 120.021 172.923 120.434 172.923 120.98C172.923 121.414 172.832 121.862 172.65 122.324C172.468 122.772 172.188 123.157 171.81 123.479C171.432 123.801 170.984 123.976 170.466 124.004ZM177.262 127.616C177.612 127.182 178.004 126.839 178.438 126.587C178.872 126.321 179.327 126.188 179.803 126.188C180.321 126.188 180.776 126.314 181.168 126.566C181.574 126.804 181.868 127.154 182.05 127.616C182.428 127.14 182.855 126.783 183.331 126.545C183.821 126.307 184.325 126.188 184.843 126.188C185.599 126.188 186.201 126.433 186.649 126.923C187.111 127.399 187.342 128.092 187.342 129.002V131.921C187.342 132.691 187.44 133.223 187.636 133.517C187.832 133.811 188.007 133.972 188.161 134H185.179C185.347 133.972 185.522 133.811 185.704 133.517C185.9 133.223 185.998 132.684 185.998 131.9V129.506C185.998 129.03 185.935 128.652 185.809 128.372C185.683 128.092 185.515 127.861 185.305 127.679C184.983 127.413 184.598 127.28 184.15 127.28C183.66 127.28 183.226 127.448 182.848 127.784C182.484 128.106 182.302 128.561 182.302 129.149V131.9C182.302 132.684 182.393 133.223 182.575 133.517C182.771 133.811 182.953 133.972 183.121 134H180.139C180.307 133.972 180.482 133.811 180.664 133.517C180.86 133.223 180.958 132.684 180.958 131.9V129.506C180.958 129.03 180.895 128.652 180.769 128.372C180.643 128.092 180.475 127.861 180.265 127.679C179.943 127.413 179.558 127.28 179.11 127.28C178.606 127.28 178.172 127.448 177.808 127.784C177.444 128.106 177.262 128.561 177.262 129.149V131.9C177.262 132.698 177.36 133.244 177.556 133.538C177.752 133.818 177.934 133.972 178.102 134H175.12C175.288 133.972 175.463 133.811 175.645 133.517C175.827 133.223 175.918 132.684 175.918 131.9V128.729C175.918 128.141 175.82 127.742 175.624 127.532C175.442 127.308 175.232 127.196 174.994 127.196L177.262 126.188V127.616ZM201.558 134.252C201.11 134.238 200.732 134.119 200.424 133.895C200.116 133.671 199.941 133.412 199.899 133.118C199.647 133.482 199.311 133.762 198.891 133.958C198.485 134.154 198.079 134.252 197.673 134.252C197.029 134.252 196.49 134.07 196.056 133.706C195.622 133.328 195.405 132.838 195.405 132.236C195.405 130.682 196.861 129.905 199.773 129.905V129.674C199.773 128.904 199.661 128.337 199.437 127.973C199.129 127.455 198.625 127.196 197.925 127.196C197.379 127.196 196.924 127.357 196.56 127.679C196.21 128.001 196.035 128.421 196.035 128.939C195.951 128.799 195.881 128.673 195.825 128.561C195.783 128.449 195.762 128.295 195.762 128.099C195.762 127.595 196 127.154 196.476 126.776C196.952 126.384 197.575 126.188 198.345 126.188C199.437 126.188 200.214 126.552 200.676 127.28C200.83 127.504 200.942 127.784 201.012 128.12C201.082 128.456 201.117 128.897 201.117 129.443V131.942C201.117 132.376 201.236 132.712 201.474 132.95C201.726 133.188 202.076 133.307 202.524 133.307H202.797L201.558 134.252ZM199.773 130.535C198.653 130.535 197.897 130.675 197.505 130.955C197.113 131.235 196.917 131.613 196.917 132.089C196.917 132.481 197.022 132.789 197.232 133.013C197.442 133.237 197.722 133.349 198.072 133.349C198.338 133.349 198.59 133.286 198.828 133.16C199.066 133.034 199.269 132.859 199.437 132.635C199.661 132.341 199.773 131.942 199.773 131.438V130.535ZM209.841 120.287C209.589 120.035 209.281 119.839 208.917 119.699C208.567 119.545 208.21 119.468 207.846 119.468C207.146 119.468 206.635 119.72 206.313 120.224C205.991 120.714 205.83 121.351 205.83 122.135V126.356H208.014V127.196H205.83V131.9C205.83 132.502 205.893 132.964 206.019 133.286C206.145 133.594 206.285 133.804 206.439 133.916C206.593 134.014 206.67 134.042 206.67 134H203.625C203.625 134.042 203.702 134.014 203.856 133.916C204.024 133.804 204.171 133.594 204.297 133.286C204.423 132.964 204.486 132.502 204.486 131.9V127.196H203.31V126.356H204.486V123.437C204.486 122.457 204.647 121.596 204.969 120.854C205.305 120.098 205.767 119.51 206.355 119.09C206.957 118.67 207.643 118.46 208.413 118.46C209.015 118.46 209.491 118.523 209.841 118.649V120.287ZM211.203 128.099C211.413 127.651 211.756 127.224 212.232 126.818C212.722 126.398 213.212 126.188 213.702 126.188C214.01 126.188 214.241 126.23 214.395 126.314V128.036C214.087 127.658 213.653 127.469 213.093 127.469C212.505 127.469 212.043 127.728 211.707 128.246C211.371 128.75 211.203 129.401 211.203 130.199V131.9C211.203 132.684 211.294 133.223 211.476 133.517C211.658 133.811 211.833 133.972 212.001 134H209.04C209.208 133.972 209.383 133.818 209.565 133.538C209.761 133.244 209.859 132.698 209.859 131.9V128.729C209.859 128.141 209.761 127.742 209.565 127.532C209.383 127.308 209.173 127.196 208.935 127.196L211.203 126.188V128.099ZM222.066 134.252C221.618 134.238 221.24 134.119 220.932 133.895C220.624 133.671 220.449 133.412 220.407 133.118C220.155 133.482 219.819 133.762 219.399 133.958C218.993 134.154 218.587 134.252 218.181 134.252C217.537 134.252 216.998 134.07 216.564 133.706C216.13 133.328 215.913 132.838 215.913 132.236C215.913 130.682 217.369 129.905 220.281 129.905V129.674C220.281 128.904 220.169 128.337 219.945 127.973C219.637 127.455 219.133 127.196 218.433 127.196C217.887 127.196 217.432 127.357 217.068 127.679C216.718 128.001 216.543 128.421 216.543 128.939C216.459 128.799 216.389 128.673 216.333 128.561C216.291 128.449 216.27 128.295 216.27 128.099C216.27 127.595 216.508 127.154 216.984 126.776C217.46 126.384 218.083 126.188 218.853 126.188C219.945 126.188 220.722 126.552 221.184 127.28C221.338 127.504 221.45 127.784 221.52 128.12C221.59 128.456 221.625 128.897 221.625 129.443V131.942C221.625 132.376 221.744 132.712 221.982 132.95C222.234 133.188 222.584 133.307 223.032 133.307H223.305L222.066 134.252ZM220.281 130.535C219.161 130.535 218.405 130.675 218.013 130.955C217.621 131.235 217.425 131.613 217.425 132.089C217.425 132.481 217.53 132.789 217.74 133.013C217.95 133.237 218.23 133.349 218.58 133.349C218.846 133.349 219.098 133.286 219.336 133.16C219.574 133.034 219.777 132.859 219.945 132.635C220.169 132.341 220.281 131.942 220.281 131.438V130.535ZM224.993 128.729C224.993 128.141 224.895 127.742 224.699 127.532C224.517 127.308 224.307 127.196 224.069 127.196L226.337 126.188V131.9C226.337 132.516 226.4 132.978 226.526 133.286C226.652 133.594 226.792 133.804 226.946 133.916C227.1 134.014 227.177 134.042 227.177 134H224.153C224.153 134.042 224.23 134.014 224.384 133.916C224.538 133.804 224.678 133.594 224.804 133.286C224.93 132.978 224.993 132.516 224.993 131.9V128.729ZM225.644 123.647C225.336 123.647 225.091 123.549 224.909 123.353C224.741 123.143 224.657 122.905 224.657 122.639C224.657 122.373 224.741 122.142 224.909 121.946C225.091 121.736 225.336 121.631 225.644 121.631C225.952 121.631 226.19 121.736 226.358 121.946C226.54 122.142 226.631 122.373 226.631 122.639C226.631 122.905 226.54 123.143 226.358 123.353C226.19 123.549 225.952 123.647 225.644 123.647ZM234.73 121.085C234.73 120.497 234.632 120.098 234.436 119.888C234.254 119.664 234.044 119.552 233.806 119.552H233.68L236.074 118.46V131.627C236.074 132.215 236.165 132.621 236.347 132.845C236.543 133.055 236.76 133.16 236.998 133.16H237.124L234.73 134.252V132.887C234.562 133.167 234.254 133.468 233.806 133.79C233.372 134.098 232.798 134.252 232.084 134.252C231.468 134.252 230.915 134.098 230.425 133.79C229.935 133.482 229.55 133.055 229.27 132.509C228.99 131.963 228.85 131.354 228.85 130.682C228.85 129.828 229.025 129.072 229.375 128.414C229.725 127.756 230.18 127.231 230.74 126.839C231.37 126.405 232.056 126.188 232.798 126.188C233.288 126.188 233.694 126.258 234.016 126.398C234.338 126.524 234.576 126.643 234.73 126.755V121.085ZM230.362 130.052C230.362 130.934 230.565 131.704 230.971 132.362C231.391 133.006 231.993 133.328 232.777 133.328C233.071 133.328 233.372 133.251 233.68 133.097C233.988 132.929 234.24 132.705 234.436 132.425C234.632 132.145 234.73 131.83 234.73 131.48V129.002C234.73 128.554 234.674 128.19 234.562 127.91C234.464 127.63 234.303 127.42 234.079 127.28C233.729 127.056 233.302 126.944 232.798 126.944C232.098 126.944 231.517 127.231 231.055 127.805C230.593 128.365 230.362 129.114 230.362 130.052ZM246.883 134.252C246.197 134.252 245.679 134.021 245.329 133.559C244.979 133.083 244.804 132.516 244.804 131.858V127.196H243.628L246.148 124.34V126.356H248.836V127.196H246.148V131.627C246.148 132.159 246.288 132.565 246.568 132.845C246.848 133.111 247.17 133.244 247.534 133.244C247.814 133.244 248.087 133.16 248.353 132.992C248.619 132.824 248.836 132.593 249.004 132.299C248.794 133.601 248.087 134.252 246.883 134.252ZM252.526 127.427C252.834 127.063 253.212 126.769 253.66 126.545C254.108 126.307 254.577 126.188 255.067 126.188C255.823 126.188 256.425 126.433 256.873 126.923C257.335 127.399 257.566 128.092 257.566 129.002V131.921C257.566 132.509 257.629 132.957 257.755 133.265C257.881 133.573 258.021 133.783 258.175 133.895C258.329 134.007 258.406 134.042 258.406 134H255.382C255.382 134.042 255.459 134.014 255.613 133.916C255.767 133.804 255.907 133.594 256.033 133.286C256.159 132.978 256.222 132.516 256.222 131.9V129.506C256.222 129.03 256.159 128.652 256.033 128.372C255.907 128.092 255.739 127.861 255.529 127.679C255.207 127.413 254.822 127.28 254.374 127.28C253.87 127.28 253.436 127.448 253.072 127.784C252.708 128.106 252.526 128.561 252.526 129.149V131.9C252.526 132.502 252.589 132.957 252.715 133.265C252.841 133.573 252.981 133.783 253.135 133.895C253.303 134.007 253.387 134.042 253.387 134H250.363C250.363 134.042 250.44 134.014 250.594 133.916C250.748 133.804 250.881 133.594 250.993 133.286C251.119 132.964 251.182 132.502 251.182 131.9V121.085C251.182 120.497 251.084 120.098 250.888 119.888C250.706 119.664 250.496 119.552 250.258 119.552H250.132L252.526 118.46V127.427ZM266.404 134.252C265.956 134.238 265.578 134.119 265.27 133.895C264.962 133.671 264.787 133.412 264.745 133.118C264.493 133.482 264.157 133.762 263.737 133.958C263.331 134.154 262.925 134.252 262.519 134.252C261.875 134.252 261.336 134.07 260.902 133.706C260.468 133.328 260.251 132.838 260.251 132.236C260.251 130.682 261.707 129.905 264.619 129.905V129.674C264.619 128.904 264.507 128.337 264.283 127.973C263.975 127.455 263.471 127.196 262.771 127.196C262.225 127.196 261.77 127.357 261.406 127.679C261.056 128.001 260.881 128.421 260.881 128.939C260.797 128.799 260.727 128.673 260.671 128.561C260.629 128.449 260.608 128.295 260.608 128.099C260.608 127.595 260.846 127.154 261.322 126.776C261.798 126.384 262.421 126.188 263.191 126.188C264.283 126.188 265.06 126.552 265.522 127.28C265.676 127.504 265.788 127.784 265.858 128.12C265.928 128.456 265.963 128.897 265.963 129.443V131.942C265.963 132.376 266.082 132.712 266.32 132.95C266.572 133.188 266.922 133.307 267.37 133.307H267.643L266.404 134.252ZM264.619 130.535C263.499 130.535 262.743 130.675 262.351 130.955C261.959 131.235 261.763 131.613 261.763 132.089C261.763 132.481 261.868 132.789 262.078 133.013C262.288 133.237 262.568 133.349 262.918 133.349C263.184 133.349 263.436 133.286 263.674 133.16C263.912 133.034 264.115 132.859 264.283 132.635C264.507 132.341 264.619 131.942 264.619 131.438V130.535ZM271.41 134.252C270.724 134.252 270.206 134.021 269.856 133.559C269.506 133.083 269.331 132.516 269.331 131.858V127.196H268.155L270.675 124.34V126.356H273.363V127.196H270.675V131.627C270.675 132.159 270.815 132.565 271.095 132.845C271.375 133.111 271.697 133.244 272.061 133.244C272.341 133.244 272.614 133.16 272.88 132.992C273.146 132.824 273.363 132.593 273.531 132.299C273.321 133.601 272.614 134.252 271.41 134.252ZM283.161 134.252C282.475 134.252 281.957 134.021 281.607 133.559C281.257 133.083 281.082 132.516 281.082 131.858V127.196H279.906L282.426 124.34V126.356H285.114V127.196H282.426V131.627C282.426 132.159 282.566 132.565 282.846 132.845C283.126 133.111 283.448 133.244 283.812 133.244C284.092 133.244 284.365 133.16 284.631 132.992C284.897 132.824 285.114 132.593 285.282 132.299C285.072 133.601 284.365 134.252 283.161 134.252ZM288.804 127.427C289.112 127.063 289.49 126.769 289.938 126.545C290.386 126.307 290.855 126.188 291.345 126.188C292.101 126.188 292.703 126.433 293.151 126.923C293.613 127.399 293.844 128.092 293.844 129.002V131.921C293.844 132.509 293.907 132.957 294.033 133.265C294.159 133.573 294.299 133.783 294.453 133.895C294.607 134.007 294.684 134.042 294.684 134H291.66C291.66 134.042 291.737 134.014 291.891 133.916C292.045 133.804 292.185 133.594 292.311 133.286C292.437 132.978 292.5 132.516 292.5 131.9V129.506C292.5 129.03 292.437 128.652 292.311 128.372C292.185 128.092 292.017 127.861 291.807 127.679C291.485 127.413 291.1 127.28 290.652 127.28C290.148 127.28 289.714 127.448 289.35 127.784C288.986 128.106 288.804 128.561 288.804 129.149V131.9C288.804 132.502 288.867 132.957 288.993 133.265C289.119 133.573 289.259 133.783 289.413 133.895C289.581 134.007 289.665 134.042 289.665 134H286.641C286.641 134.042 286.718 134.014 286.872 133.916C287.026 133.804 287.159 133.594 287.271 133.286C287.397 132.964 287.46 132.502 287.46 131.9V121.085C287.46 120.497 287.362 120.098 287.166 119.888C286.984 119.664 286.774 119.552 286.536 119.552H286.41L288.804 118.46V127.427ZM299.994 134.252C299.238 134.252 298.587 134.07 298.041 133.706C297.495 133.328 297.075 132.845 296.781 132.257C296.501 131.655 296.361 131.018 296.361 130.346C296.361 129.478 296.529 128.729 296.865 128.099C297.215 127.469 297.663 126.993 298.209 126.671C298.755 126.349 299.322 126.188 299.91 126.188C300.75 126.188 301.471 126.496 302.073 127.112C302.689 127.714 303.025 128.554 303.081 129.632H297.621C297.621 130.304 297.747 130.899 297.999 131.417C298.251 131.921 298.587 132.313 299.007 132.593C299.441 132.859 299.91 132.992 300.414 132.992C301.73 132.992 302.619 132.572 303.081 131.732C302.955 132.488 302.612 133.097 302.052 133.559C301.492 134.021 300.806 134.252 299.994 134.252ZM299.763 126.881C299.217 126.881 298.748 127.077 298.356 127.469C297.964 127.847 297.726 128.344 297.642 128.96H301.464C301.464 128.316 301.289 127.812 300.939 127.448C300.603 127.07 300.211 126.881 299.763 126.881ZM313.86 134.252C313.104 134.252 312.439 134.07 311.865 133.706C311.305 133.342 310.878 132.859 310.584 132.257C310.29 131.655 310.143 131.018 310.143 130.346C310.143 129.646 310.29 128.981 310.584 128.351C310.892 127.707 311.333 127.189 311.907 126.797C312.481 126.391 313.16 126.188 313.944 126.188C314.882 126.188 315.561 126.391 315.981 126.797C316.401 127.203 316.695 127.63 316.863 128.078L315.477 128.75C315.393 128.246 315.183 127.819 314.847 127.469C314.525 127.119 314.126 126.944 313.65 126.944C312.964 126.944 312.432 127.21 312.054 127.742C311.676 128.274 311.487 128.925 311.487 129.695C311.487 130.241 311.606 130.773 311.844 131.291C312.096 131.795 312.446 132.208 312.894 132.53C313.356 132.852 313.895 133.013 314.511 133.013C315.015 133.013 315.491 132.901 315.939 132.677C316.401 132.439 316.765 132.124 317.031 131.732C316.877 132.516 316.513 133.132 315.939 133.58C315.365 134.028 314.672 134.252 313.86 134.252ZM319.391 128.729C319.391 128.141 319.293 127.742 319.097 127.532C318.915 127.308 318.705 127.196 318.467 127.196L320.735 126.188V131.9C320.735 132.516 320.798 132.978 320.924 133.286C321.05 133.594 321.19 133.804 321.344 133.916C321.498 134.014 321.575 134.042 321.575 134H318.551C318.551 134.042 318.628 134.014 318.782 133.916C318.936 133.804 319.076 133.594 319.202 133.286C319.328 132.978 319.391 132.516 319.391 131.9V128.729ZM320.042 123.647C319.734 123.647 319.489 123.549 319.307 123.353C319.139 123.143 319.055 122.905 319.055 122.639C319.055 122.373 319.139 122.142 319.307 121.946C319.489 121.736 319.734 121.631 320.042 121.631C320.35 121.631 320.588 121.736 320.756 121.946C320.938 122.142 321.029 122.373 321.029 122.639C321.029 122.905 320.938 123.143 320.756 123.353C320.588 123.549 320.35 123.647 320.042 123.647ZM325.431 127.616C325.753 127.182 326.131 126.839 326.565 126.587C327.013 126.321 327.482 126.188 327.972 126.188C328.728 126.188 329.33 126.433 329.778 126.923C330.24 127.399 330.471 128.092 330.471 129.002V131.921C330.471 132.509 330.534 132.957 330.66 133.265C330.786 133.573 330.926 133.783 331.08 133.895C331.234 134.007 331.311 134.042 331.311 134H328.287C328.287 134.042 328.364 134.014 328.518 133.916C328.672 133.804 328.812 133.594 328.938 133.286C329.064 132.978 329.127 132.516 329.127 131.9V129.506C329.127 129.03 329.064 128.652 328.938 128.372C328.812 128.092 328.644 127.861 328.434 127.679C328.112 127.413 327.727 127.28 327.279 127.28C326.775 127.28 326.341 127.448 325.977 127.784C325.613 128.106 325.431 128.561 325.431 129.149V131.9C325.431 132.502 325.494 132.957 325.62 133.265C325.746 133.573 325.886 133.783 326.04 133.895C326.208 134.007 326.292 134.042 326.292 134H323.268C323.268 134.042 323.345 134.014 323.499 133.916C323.653 133.804 323.786 133.594 323.898 133.286C324.024 132.964 324.087 132.502 324.087 131.9V128.729C324.087 128.141 323.989 127.742 323.793 127.532C323.611 127.308 323.401 127.196 323.163 127.196L325.431 126.188V127.616ZM336.621 134.252C335.865 134.252 335.214 134.07 334.668 133.706C334.122 133.328 333.702 132.845 333.408 132.257C333.128 131.655 332.988 131.018 332.988 130.346C332.988 129.478 333.156 128.729 333.492 128.099C333.842 127.469 334.29 126.993 334.836 126.671C335.382 126.349 335.949 126.188 336.537 126.188C337.377 126.188 338.098 126.496 338.7 127.112C339.316 127.714 339.652 128.554 339.708 129.632H334.248C334.248 130.304 334.374 130.899 334.626 131.417C334.878 131.921 335.214 132.313 335.634 132.593C336.068 132.859 336.537 132.992 337.041 132.992C338.357 132.992 339.246 132.572 339.708 131.732C339.582 132.488 339.239 133.097 338.679 133.559C338.119 134.021 337.433 134.252 336.621 134.252ZM336.39 126.881C335.844 126.881 335.375 127.077 334.983 127.469C334.591 127.847 334.353 128.344 334.269 128.96H338.091C338.091 128.316 337.916 127.812 337.566 127.448C337.23 127.07 336.838 126.881 336.39 126.881ZM343.581 127.616C343.931 127.182 344.323 126.839 344.757 126.587C345.191 126.321 345.646 126.188 346.122 126.188C346.64 126.188 347.095 126.314 347.487 126.566C347.893 126.804 348.187 127.154 348.369 127.616C348.747 127.14 349.174 126.783 349.65 126.545C350.14 126.307 350.644 126.188 351.162 126.188C351.918 126.188 352.52 126.433 352.968 126.923C353.43 127.399 353.661 128.092 353.661 129.002V131.921C353.661 132.691 353.759 133.223 353.955 133.517C354.151 133.811 354.326 133.972 354.48 134H351.498C351.666 133.972 351.841 133.811 352.023 133.517C352.219 133.223 352.317 132.684 352.317 131.9V129.506C352.317 129.03 352.254 128.652 352.128 128.372C352.002 128.092 351.834 127.861 351.624 127.679C351.302 127.413 350.917 127.28 350.469 127.28C349.979 127.28 349.545 127.448 349.167 127.784C348.803 128.106 348.621 128.561 348.621 129.149V131.9C348.621 132.684 348.712 133.223 348.894 133.517C349.09 133.811 349.272 133.972 349.44 134H346.458C346.626 133.972 346.801 133.811 346.983 133.517C347.179 133.223 347.277 132.684 347.277 131.9V129.506C347.277 129.03 347.214 128.652 347.088 128.372C346.962 128.092 346.794 127.861 346.584 127.679C346.262 127.413 345.877 127.28 345.429 127.28C344.925 127.28 344.491 127.448 344.127 127.784C343.763 128.106 343.581 128.561 343.581 129.149V131.9C343.581 132.698 343.679 133.244 343.875 133.538C344.071 133.818 344.253 133.972 344.421 134H341.439C341.607 133.972 341.782 133.811 341.964 133.517C342.146 133.223 342.237 132.684 342.237 131.9V128.729C342.237 128.141 342.139 127.742 341.943 127.532C341.761 127.308 341.551 127.196 341.313 127.196L343.581 126.188V127.616ZM362.504 134.252C362.056 134.238 361.678 134.119 361.37 133.895C361.062 133.671 360.887 133.412 360.845 133.118C360.593 133.482 360.257 133.762 359.837 133.958C359.431 134.154 359.025 134.252 358.619 134.252C357.975 134.252 357.436 134.07 357.002 133.706C356.568 133.328 356.351 132.838 356.351 132.236C356.351 130.682 357.807 129.905 360.719 129.905V129.674C360.719 128.904 360.607 128.337 360.383 127.973C360.075 127.455 359.571 127.196 358.871 127.196C358.325 127.196 357.87 127.357 357.506 127.679C357.156 128.001 356.981 128.421 356.981 128.939C356.897 128.799 356.827 128.673 356.771 128.561C356.729 128.449 356.708 128.295 356.708 128.099C356.708 127.595 356.946 127.154 357.422 126.776C357.898 126.384 358.521 126.188 359.291 126.188C360.383 126.188 361.16 126.552 361.622 127.28C361.776 127.504 361.888 127.784 361.958 128.12C362.028 128.456 362.063 128.897 362.063 129.443V131.942C362.063 132.376 362.182 132.712 362.42 132.95C362.672 133.188 363.022 133.307 363.47 133.307H363.743L362.504 134.252ZM360.719 130.535C359.599 130.535 358.843 130.675 358.451 130.955C358.059 131.235 357.863 131.613 357.863 132.089C357.863 132.481 357.968 132.789 358.178 133.013C358.388 133.237 358.668 133.349 359.018 133.349C359.284 133.349 359.536 133.286 359.774 133.16C360.012 133.034 360.215 132.859 360.383 132.635C360.607 132.341 360.719 131.942 360.719 131.438V130.535ZM367.51 134.252C366.824 134.252 366.306 134.021 365.956 133.559C365.606 133.083 365.431 132.516 365.431 131.858V127.196H364.255L366.775 124.34V126.356H369.463V127.196H366.775V131.627C366.775 132.159 366.915 132.565 367.195 132.845C367.475 133.111 367.797 133.244 368.161 133.244C368.441 133.244 368.714 133.16 368.98 132.992C369.246 132.824 369.463 132.593 369.631 132.299C369.421 133.601 368.714 134.252 367.51 134.252ZM371.809 128.729C371.809 128.141 371.711 127.742 371.515 127.532C371.333 127.308 371.123 127.196 370.885 127.196L373.153 126.188V131.9C373.153 132.516 373.216 132.978 373.342 133.286C373.468 133.594 373.608 133.804 373.762 133.916C373.916 134.014 373.993 134.042 373.993 134H370.969C370.969 134.042 371.046 134.014 371.2 133.916C371.354 133.804 371.494 133.594 371.62 133.286C371.746 132.978 371.809 132.516 371.809 131.9V128.729ZM372.46 123.647C372.152 123.647 371.907 123.549 371.725 123.353C371.557 123.143 371.473 122.905 371.473 122.639C371.473 122.373 371.557 122.142 371.725 121.946C371.907 121.736 372.152 121.631 372.46 121.631C372.768 121.631 373.006 121.736 373.174 121.946C373.356 122.142 373.447 122.373 373.447 122.639C373.447 122.905 373.356 123.143 373.174 123.353C373.006 123.549 372.768 123.647 372.46 123.647ZM379.382 134.252C378.626 134.252 377.961 134.07 377.387 133.706C376.827 133.342 376.4 132.859 376.106 132.257C375.812 131.655 375.665 131.018 375.665 130.346C375.665 129.646 375.812 128.981 376.106 128.351C376.414 127.707 376.855 127.189 377.429 126.797C378.003 126.391 378.682 126.188 379.466 126.188C380.404 126.188 381.083 126.391 381.503 126.797C381.923 127.203 382.217 127.63 382.385 128.078L380.999 128.75C380.915 128.246 380.705 127.819 380.369 127.469C380.047 127.119 379.648 126.944 379.172 126.944C378.486 126.944 377.954 127.21 377.576 127.742C377.198 128.274 377.009 128.925 377.009 129.695C377.009 130.241 377.128 130.773 377.366 131.291C377.618 131.795 377.968 132.208 378.416 132.53C378.878 132.852 379.417 133.013 380.033 133.013C380.537 133.013 381.013 132.901 381.461 132.677C381.923 132.439 382.287 132.124 382.553 131.732C382.399 132.516 382.035 133.132 381.461 133.58C380.887 134.028 380.194 134.252 379.382 134.252ZM392.806 134.252L389.95 127.805C389.768 127.399 389.579 127.091 389.383 126.881C389.201 126.657 389.04 126.51 388.9 126.44C388.76 126.37 388.69 126.342 388.69 126.356H391.861C391.833 126.356 391.77 126.377 391.672 126.419C391.574 126.447 391.476 126.517 391.378 126.629C391.294 126.727 391.252 126.874 391.252 127.07C391.252 127.308 391.322 127.574 391.462 127.868L393.121 131.669L394.675 128.078C394.773 127.826 394.822 127.567 394.822 127.301C394.822 127.049 394.766 126.839 394.654 126.671C394.556 126.503 394.388 126.398 394.15 126.356H396.943C396.943 126.342 396.866 126.37 396.712 126.44C396.572 126.51 396.404 126.664 396.208 126.902C396.026 127.126 395.837 127.455 395.641 127.889L392.806 134.252ZM397.855 130.409C397.855 129.681 398.03 128.995 398.38 128.351C398.744 127.693 399.241 127.168 399.871 126.776C400.501 126.384 401.201 126.188 401.971 126.188C402.713 126.188 403.385 126.363 403.987 126.713C404.589 127.049 405.058 127.511 405.394 128.099C405.744 128.687 405.919 129.331 405.919 130.031C405.919 130.759 405.737 131.452 405.373 132.11C405.023 132.754 404.533 133.272 403.903 133.664C403.273 134.056 402.573 134.252 401.803 134.252C401.061 134.252 400.389 134.084 399.787 133.748C399.185 133.398 398.709 132.929 398.359 132.341C398.023 131.753 397.855 131.109 397.855 130.409ZM404.407 130.64C404.407 130.052 404.295 129.471 404.071 128.897C403.847 128.323 403.532 127.854 403.126 127.49C402.72 127.126 402.251 126.944 401.719 126.944C400.977 126.944 400.396 127.224 399.976 127.784C399.57 128.344 399.367 129.016 399.367 129.8C399.367 130.388 399.479 130.969 399.703 131.543C399.927 132.117 400.242 132.586 400.648 132.95C401.054 133.314 401.523 133.496 402.055 133.496C402.797 133.496 403.371 133.216 403.777 132.656C404.197 132.096 404.407 131.424 404.407 130.64ZM408.436 128.729C408.436 128.141 408.338 127.742 408.142 127.532C407.96 127.308 407.75 127.196 407.512 127.196L409.78 126.188V131.9C409.78 132.516 409.843 132.978 409.969 133.286C410.095 133.594 410.235 133.804 410.389 133.916C410.543 134.014 410.62 134.042 410.62 134H407.596C407.596 134.042 407.673 134.014 407.827 133.916C407.981 133.804 408.121 133.594 408.247 133.286C408.373 132.978 408.436 132.516 408.436 131.9V128.729ZM409.087 123.647C408.779 123.647 408.534 123.549 408.352 123.353C408.184 123.143 408.1 122.905 408.1 122.639C408.1 122.373 408.184 122.142 408.352 121.946C408.534 121.736 408.779 121.631 409.087 121.631C409.395 121.631 409.633 121.736 409.801 121.946C409.983 122.142 410.074 122.373 410.074 122.639C410.074 122.905 409.983 123.143 409.801 123.353C409.633 123.549 409.395 123.647 409.087 123.647ZM416.009 134.252C415.253 134.252 414.588 134.07 414.014 133.706C413.454 133.342 413.027 132.859 412.733 132.257C412.439 131.655 412.292 131.018 412.292 130.346C412.292 129.646 412.439 128.981 412.733 128.351C413.041 127.707 413.482 127.189 414.056 126.797C414.63 126.391 415.309 126.188 416.093 126.188C417.031 126.188 417.71 126.391 418.13 126.797C418.55 127.203 418.844 127.63 419.012 128.078L417.626 128.75C417.542 128.246 417.332 127.819 416.996 127.469C416.674 127.119 416.275 126.944 415.799 126.944C415.113 126.944 414.581 127.21 414.203 127.742C413.825 128.274 413.636 128.925 413.636 129.695C413.636 130.241 413.755 130.773 413.993 131.291C414.245 131.795 414.595 132.208 415.043 132.53C415.505 132.852 416.044 133.013 416.66 133.013C417.164 133.013 417.64 132.901 418.088 132.677C418.55 132.439 418.914 132.124 419.18 131.732C419.026 132.516 418.662 133.132 418.088 133.58C417.514 134.028 416.821 134.252 416.009 134.252ZM424.333 134.252C423.577 134.252 422.926 134.07 422.38 133.706C421.834 133.328 421.414 132.845 421.12 132.257C420.84 131.655 420.7 131.018 420.7 130.346C420.7 129.478 420.868 128.729 421.204 128.099C421.554 127.469 422.002 126.993 422.548 126.671C423.094 126.349 423.661 126.188 424.249 126.188C425.089 126.188 425.81 126.496 426.412 127.112C427.028 127.714 427.364 128.554 427.42 129.632H421.96C421.96 130.304 422.086 130.899 422.338 131.417C422.59 131.921 422.926 132.313 423.346 132.593C423.78 132.859 424.249 132.992 424.753 132.992C426.069 132.992 426.958 132.572 427.42 131.732C427.294 132.488 426.951 133.097 426.391 133.559C425.831 134.021 425.145 134.252 424.333 134.252ZM424.102 126.881C423.556 126.881 423.087 127.077 422.695 127.469C422.303 127.847 422.065 128.344 421.981 128.96H425.803C425.803 128.316 425.628 127.812 425.278 127.448C424.942 127.07 424.55 126.881 424.102 126.881ZM434.482 130.409C434.482 129.681 434.657 128.995 435.007 128.351C435.371 127.693 435.868 127.168 436.498 126.776C437.128 126.384 437.828 126.188 438.598 126.188C439.34 126.188 440.012 126.363 440.614 126.713C441.216 127.049 441.685 127.511 442.021 128.099C442.371 128.687 442.546 129.331 442.546 130.031C442.546 130.759 442.364 131.452 442 132.11C441.65 132.754 441.16 133.272 440.53 133.664C439.9 134.056 439.2 134.252 438.43 134.252C437.688 134.252 437.016 134.084 436.414 133.748C435.812 133.398 435.336 132.929 434.986 132.341C434.65 131.753 434.482 131.109 434.482 130.409ZM441.034 130.64C441.034 130.052 440.922 129.471 440.698 128.897C440.474 128.323 440.159 127.854 439.753 127.49C439.347 127.126 438.878 126.944 438.346 126.944C437.604 126.944 437.023 127.224 436.603 127.784C436.197 128.344 435.994 129.016 435.994 129.8C435.994 130.388 436.106 130.969 436.33 131.543C436.554 132.117 436.869 132.586 437.275 132.95C437.681 133.314 438.15 133.496 438.682 133.496C439.424 133.496 439.998 133.216 440.404 132.656C440.824 132.096 441.034 131.424 441.034 130.64ZM450.418 120.287C450.166 120.035 449.858 119.839 449.494 119.699C449.144 119.545 448.787 119.468 448.423 119.468C447.723 119.468 447.212 119.72 446.89 120.224C446.568 120.714 446.407 121.351 446.407 122.135V126.356H448.591V127.196H446.407V131.9C446.407 132.502 446.47 132.964 446.596 133.286C446.722 133.594 446.862 133.804 447.016 133.916C447.17 134.014 447.247 134.042 447.247 134H444.202C444.202 134.042 444.279 134.014 444.433 133.916C444.601 133.804 444.748 133.594 444.874 133.286C445 132.964 445.063 132.502 445.063 131.9V127.196H443.887V126.356H445.063V123.437C445.063 122.457 445.224 121.596 445.546 120.854C445.882 120.098 446.344 119.51 446.932 119.09C447.534 118.67 448.22 118.46 448.99 118.46C449.592 118.46 450.068 118.523 450.418 118.649V120.287ZM454.969 130.409C454.969 129.681 455.144 128.995 455.494 128.351C455.858 127.693 456.355 127.168 456.985 126.776C457.615 126.384 458.315 126.188 459.085 126.188C459.827 126.188 460.499 126.363 461.101 126.713C461.703 127.049 462.172 127.511 462.508 128.099C462.858 128.687 463.033 129.331 463.033 130.031C463.033 130.759 462.851 131.452 462.487 132.11C462.137 132.754 461.647 133.272 461.017 133.664C460.387 134.056 459.687 134.252 458.917 134.252C458.175 134.252 457.503 134.084 456.901 133.748C456.299 133.398 455.823 132.929 455.473 132.341C455.137 131.753 454.969 131.109 454.969 130.409ZM461.521 130.64C461.521 130.052 461.409 129.471 461.185 128.897C460.961 128.323 460.646 127.854 460.24 127.49C459.834 127.126 459.365 126.944 458.833 126.944C458.091 126.944 457.51 127.224 457.09 127.784C456.684 128.344 456.481 129.016 456.481 129.8C456.481 130.388 456.593 130.969 456.817 131.543C457.041 132.117 457.356 132.586 457.762 132.95C458.168 133.314 458.637 133.496 459.169 133.496C459.911 133.496 460.485 133.216 460.891 132.656C461.311 132.096 461.521 131.424 461.521 130.64ZM470.59 132.782C469.89 133.762 469.029 134.252 468.007 134.252C467.293 134.252 466.705 134.021 466.243 133.559C465.781 133.083 465.55 132.362 465.55 131.396V128.414C465.55 127.84 465.459 127.399 465.277 127.091C465.109 126.783 464.913 126.573 464.689 126.461C464.465 126.349 464.353 126.314 464.353 126.356H466.894V131.081C466.894 131.739 467.069 132.243 467.419 132.593C467.783 132.943 468.21 133.118 468.7 133.118C469.19 133.118 469.624 132.957 470.002 132.635C470.394 132.299 470.59 131.865 470.59 131.333V128.267C470.59 127.721 470.52 127.308 470.38 127.028C470.24 126.748 470.079 126.559 469.897 126.461C469.715 126.363 469.624 126.328 469.624 126.356H471.934V131.627C471.934 132.215 472.025 132.621 472.207 132.845C472.403 133.055 472.62 133.16 472.858 133.16H472.984L470.59 134.252V132.782ZM476.635 128.099C476.845 127.651 477.188 127.224 477.664 126.818C478.154 126.398 478.644 126.188 479.134 126.188C479.442 126.188 479.673 126.23 479.827 126.314V128.036C479.519 127.658 479.085 127.469 478.525 127.469C477.937 127.469 477.475 127.728 477.139 128.246C476.803 128.75 476.635 129.401 476.635 130.199V131.9C476.635 132.684 476.726 133.223 476.908 133.517C477.09 133.811 477.265 133.972 477.433 134H474.472C474.64 133.972 474.815 133.818 474.997 133.538C475.193 133.244 475.291 132.698 475.291 131.9V128.729C475.291 128.141 475.193 127.742 474.997 127.532C474.815 127.308 474.605 127.196 474.367 127.196L476.635 126.188V128.099ZM494.09 126.356V127.196H492.347C492.851 127.812 493.103 128.442 493.103 129.086C493.103 129.632 492.97 130.143 492.704 130.619C492.438 131.081 492.053 131.452 491.549 131.732C491.059 132.012 490.485 132.152 489.827 132.152C489.491 132.152 489.155 132.124 488.819 132.068C488.315 132.348 488.063 132.663 488.063 133.013C488.063 133.153 488.098 133.286 488.168 133.412C488.238 133.538 488.343 133.629 488.483 133.685C488.679 133.769 488.931 133.832 489.239 133.874C489.547 133.902 489.869 133.923 490.205 133.937C490.541 133.951 490.779 133.958 490.919 133.958C492.011 134 492.788 134.21 493.25 134.588C493.712 134.966 493.943 135.421 493.943 135.953C493.943 136.513 493.761 137.024 493.397 137.486C493.047 137.962 492.536 138.333 491.864 138.599C491.192 138.879 490.415 139.019 489.533 139.019C488.889 139.019 488.329 138.928 487.853 138.746C487.377 138.564 487.013 138.326 486.761 138.032C486.509 137.738 486.383 137.423 486.383 137.087C486.383 136.639 486.572 136.219 486.95 135.827C487.342 135.449 487.825 135.162 488.399 134.966C487.937 134.938 487.566 134.784 487.286 134.504C487.02 134.224 486.887 133.923 486.887 133.601C486.887 133.251 487.006 132.95 487.244 132.698C487.482 132.432 487.825 132.152 488.273 131.858C487.769 131.634 487.384 131.284 487.118 130.808C486.852 130.332 486.719 129.828 486.719 129.296C486.719 128.778 486.845 128.281 487.097 127.805C487.363 127.329 487.748 126.944 488.252 126.65C488.77 126.342 489.379 126.188 490.079 126.188C490.443 126.188 490.821 126.244 491.213 126.356H494.09ZM489.848 126.944C489.33 126.944 488.903 127.133 488.567 127.511C488.231 127.875 488.063 128.344 488.063 128.918C488.063 129.632 488.245 130.22 488.609 130.682C488.987 131.13 489.442 131.354 489.974 131.354C490.534 131.354 490.968 131.172 491.276 130.808C491.598 130.43 491.759 129.933 491.759 129.317C491.759 128.617 491.57 128.05 491.192 127.616C490.828 127.168 490.38 126.944 489.848 126.944ZM489.491 135.218C488.973 135.218 488.546 135.379 488.21 135.701C487.888 136.023 487.727 136.38 487.727 136.772C487.727 137.15 487.937 137.472 488.357 137.738C488.791 138.018 489.365 138.158 490.079 138.158C490.933 138.158 491.591 137.997 492.053 137.675C492.529 137.353 492.767 136.954 492.767 136.478C492.767 136.058 492.543 135.743 492.095 135.533C491.647 135.323 490.926 135.218 489.932 135.218H489.491ZM498.92 134.252C498.164 134.252 497.513 134.07 496.967 133.706C496.421 133.328 496.001 132.845 495.707 132.257C495.427 131.655 495.287 131.018 495.287 130.346C495.287 129.478 495.455 128.729 495.791 128.099C496.141 127.469 496.589 126.993 497.135 126.671C497.681 126.349 498.248 126.188 498.836 126.188C499.676 126.188 500.397 126.496 500.999 127.112C501.615 127.714 501.951 128.554 502.007 129.632H496.547C496.547 130.304 496.673 130.899 496.925 131.417C497.177 131.921 497.513 132.313 497.933 132.593C498.367 132.859 498.836 132.992 499.34 132.992C500.656 132.992 501.545 132.572 502.007 131.732C501.881 132.488 501.538 133.097 500.978 133.559C500.418 134.021 499.732 134.252 498.92 134.252ZM498.689 126.881C498.143 126.881 497.674 127.077 497.282 127.469C496.89 127.847 496.652 128.344 496.568 128.96H500.39C500.39 128.316 500.215 127.812 499.865 127.448C499.529 127.07 499.137 126.881 498.689 126.881ZM505.879 127.616C506.201 127.182 506.579 126.839 507.013 126.587C507.461 126.321 507.93 126.188 508.42 126.188C509.176 126.188 509.778 126.433 510.226 126.923C510.688 127.399 510.919 128.092 510.919 129.002V131.921C510.919 132.509 510.982 132.957 511.108 133.265C511.234 133.573 511.374 133.783 511.528 133.895C511.682 134.007 511.759 134.042 511.759 134H508.735C508.735 134.042 508.812 134.014 508.966 133.916C509.12 133.804 509.26 133.594 509.386 133.286C509.512 132.978 509.575 132.516 509.575 131.9V129.506C509.575 129.03 509.512 128.652 509.386 128.372C509.26 128.092 509.092 127.861 508.882 127.679C508.56 127.413 508.175 127.28 507.727 127.28C507.223 127.28 506.789 127.448 506.425 127.784C506.061 128.106 505.879 128.561 505.879 129.149V131.9C505.879 132.502 505.942 132.957 506.068 133.265C506.194 133.573 506.334 133.783 506.488 133.895C506.656 134.007 506.74 134.042 506.74 134H503.716C503.716 134.042 503.793 134.014 503.947 133.916C504.101 133.804 504.234 133.594 504.346 133.286C504.472 132.964 504.535 132.502 504.535 131.9V128.729C504.535 128.141 504.437 127.742 504.241 127.532C504.059 127.308 503.849 127.196 503.611 127.196L505.879 126.188V127.616ZM517.07 134.252C516.314 134.252 515.663 134.07 515.117 133.706C514.571 133.328 514.151 132.845 513.857 132.257C513.577 131.655 513.437 131.018 513.437 130.346C513.437 129.478 513.605 128.729 513.941 128.099C514.291 127.469 514.739 126.993 515.285 126.671C515.831 126.349 516.398 126.188 516.986 126.188C517.826 126.188 518.547 126.496 519.149 127.112C519.765 127.714 520.101 128.554 520.157 129.632H514.697C514.697 130.304 514.823 130.899 515.075 131.417C515.327 131.921 515.663 132.313 516.083 132.593C516.517 132.859 516.986 132.992 517.49 132.992C518.806 132.992 519.695 132.572 520.157 131.732C520.031 132.488 519.688 133.097 519.128 133.559C518.568 134.021 517.882 134.252 517.07 134.252ZM516.839 126.881C516.293 126.881 515.824 127.077 515.432 127.469C515.04 127.847 514.802 128.344 514.718 128.96H518.54C518.54 128.316 518.365 127.812 518.015 127.448C517.679 127.07 517.287 126.881 516.839 126.881ZM524.029 128.099C524.239 127.651 524.582 127.224 525.058 126.818C525.548 126.398 526.038 126.188 526.528 126.188C526.836 126.188 527.067 126.23 527.221 126.314V128.036C526.913 127.658 526.479 127.469 525.919 127.469C525.331 127.469 524.869 127.728 524.533 128.246C524.197 128.75 524.029 129.401 524.029 130.199V131.9C524.029 132.684 524.12 133.223 524.302 133.517C524.484 133.811 524.659 133.972 524.827 134H521.866C522.034 133.972 522.209 133.818 522.391 133.538C522.587 133.244 522.685 132.698 522.685 131.9V128.729C522.685 128.141 522.587 127.742 522.391 127.532C522.209 127.308 521.999 127.196 521.761 127.196L524.029 126.188V128.099ZM534.892 134.252C534.444 134.238 534.066 134.119 533.758 133.895C533.45 133.671 533.275 133.412 533.233 133.118C532.981 133.482 532.645 133.762 532.225 133.958C531.819 134.154 531.413 134.252 531.007 134.252C530.363 134.252 529.824 134.07 529.39 133.706C528.956 133.328 528.739 132.838 528.739 132.236C528.739 130.682 530.195 129.905 533.107 129.905V129.674C533.107 128.904 532.995 128.337 532.771 127.973C532.463 127.455 531.959 127.196 531.259 127.196C530.713 127.196 530.258 127.357 529.894 127.679C529.544 128.001 529.369 128.421 529.369 128.939C529.285 128.799 529.215 128.673 529.159 128.561C529.117 128.449 529.096 128.295 529.096 128.099C529.096 127.595 529.334 127.154 529.81 126.776C530.286 126.384 530.909 126.188 531.679 126.188C532.771 126.188 533.548 126.552 534.01 127.28C534.164 127.504 534.276 127.784 534.346 128.12C534.416 128.456 534.451 128.897 534.451 129.443V131.942C534.451 132.376 534.57 132.712 534.808 132.95C535.06 133.188 535.41 133.307 535.858 133.307H536.131L534.892 134.252ZM533.107 130.535C531.987 130.535 531.231 130.675 530.839 130.955C530.447 131.235 530.251 131.613 530.251 132.089C530.251 132.481 530.356 132.789 530.566 133.013C530.776 133.237 531.056 133.349 531.406 133.349C531.672 133.349 531.924 133.286 532.162 133.16C532.4 133.034 532.603 132.859 532.771 132.635C532.995 132.341 533.107 131.942 533.107 131.438V130.535ZM539.899 134.252C539.213 134.252 538.695 134.021 538.345 133.559C537.995 133.083 537.82 132.516 537.82 131.858V127.196H536.644L539.164 124.34V126.356H541.852V127.196H539.164V131.627C539.164 132.159 539.304 132.565 539.584 132.845C539.864 133.111 540.186 133.244 540.55 133.244C540.83 133.244 541.103 133.16 541.369 132.992C541.635 132.824 541.852 132.593 542.02 132.299C541.81 133.601 541.103 134.252 539.899 134.252ZM544.198 128.729C544.198 128.141 544.1 127.742 543.904 127.532C543.722 127.308 543.512 127.196 543.274 127.196L545.542 126.188V131.9C545.542 132.516 545.605 132.978 545.731 133.286C545.857 133.594 545.997 133.804 546.151 133.916C546.305 134.014 546.382 134.042 546.382 134H543.358C543.358 134.042 543.435 134.014 543.589 133.916C543.743 133.804 543.883 133.594 544.009 133.286C544.135 132.978 544.198 132.516 544.198 131.9V128.729ZM544.849 123.647C544.541 123.647 544.296 123.549 544.114 123.353C543.946 123.143 543.862 122.905 543.862 122.639C543.862 122.373 543.946 122.142 544.114 121.946C544.296 121.736 544.541 121.631 544.849 121.631C545.157 121.631 545.395 121.736 545.563 121.946C545.745 122.142 545.836 122.373 545.836 122.639C545.836 122.905 545.745 123.143 545.563 123.353C545.395 123.549 545.157 123.647 544.849 123.647ZM548.054 130.409C548.054 129.681 548.229 128.995 548.579 128.351C548.943 127.693 549.44 127.168 550.07 126.776C550.7 126.384 551.4 126.188 552.17 126.188C552.912 126.188 553.584 126.363 554.186 126.713C554.788 127.049 555.257 127.511 555.593 128.099C555.943 128.687 556.118 129.331 556.118 130.031C556.118 130.759 555.936 131.452 555.572 132.11C555.222 132.754 554.732 133.272 554.102 133.664C553.472 134.056 552.772 134.252 552.002 134.252C551.26 134.252 550.588 134.084 549.986 133.748C549.384 133.398 548.908 132.929 548.558 132.341C548.222 131.753 548.054 131.109 548.054 130.409ZM554.606 130.64C554.606 130.052 554.494 129.471 554.27 128.897C554.046 128.323 553.731 127.854 553.325 127.49C552.919 127.126 552.45 126.944 551.918 126.944C551.176 126.944 550.595 127.224 550.175 127.784C549.769 128.344 549.566 129.016 549.566 129.8C549.566 130.388 549.678 130.969 549.902 131.543C550.126 132.117 550.441 132.586 550.847 132.95C551.253 133.314 551.722 133.496 552.254 133.496C552.996 133.496 553.57 133.216 553.976 132.656C554.396 132.096 554.606 131.424 554.606 130.64ZM559.979 127.616C560.301 127.182 560.679 126.839 561.113 126.587C561.561 126.321 562.03 126.188 562.52 126.188C563.276 126.188 563.878 126.433 564.326 126.923C564.788 127.399 565.019 128.092 565.019 129.002V131.921C565.019 132.509 565.082 132.957 565.208 133.265C565.334 133.573 565.474 133.783 565.628 133.895C565.782 134.007 565.859 134.042 565.859 134H562.835C562.835 134.042 562.912 134.014 563.066 133.916C563.22 133.804 563.36 133.594 563.486 133.286C563.612 132.978 563.675 132.516 563.675 131.9V129.506C563.675 129.03 563.612 128.652 563.486 128.372C563.36 128.092 563.192 127.861 562.982 127.679C562.66 127.413 562.275 127.28 561.827 127.28C561.323 127.28 560.889 127.448 560.525 127.784C560.161 128.106 559.979 128.561 559.979 129.149V131.9C559.979 132.502 560.042 132.957 560.168 133.265C560.294 133.573 560.434 133.783 560.588 133.895C560.756 134.007 560.84 134.042 560.84 134H557.816C557.816 134.042 557.893 134.014 558.047 133.916C558.201 133.804 558.334 133.594 558.446 133.286C558.572 132.964 558.635 132.502 558.635 131.9V128.729C558.635 128.141 558.537 127.742 558.341 127.532C558.159 127.308 557.949 127.196 557.711 127.196L559.979 126.188V127.616ZM573.749 128.729C573.749 128.141 573.651 127.742 573.455 127.532C573.273 127.308 573.063 127.196 572.825 127.196L575.093 126.188V131.9C575.093 132.516 575.156 132.978 575.282 133.286C575.408 133.594 575.548 133.804 575.702 133.916C575.856 134.014 575.933 134.042 575.933 134H572.909C572.909 134.042 572.986 134.014 573.14 133.916C573.294 133.804 573.434 133.594 573.56 133.286C573.686 132.978 573.749 132.516 573.749 131.9V128.729ZM574.4 123.647C574.092 123.647 573.847 123.549 573.665 123.353C573.497 123.143 573.413 122.905 573.413 122.639C573.413 122.373 573.497 122.142 573.665 121.946C573.847 121.736 574.092 121.631 574.4 121.631C574.708 121.631 574.946 121.736 575.114 121.946C575.296 122.142 575.387 122.373 575.387 122.639C575.387 122.905 575.296 123.143 575.114 123.353C574.946 123.549 574.708 123.647 574.4 123.647ZM580.357 134.252C579.937 134.252 579.503 134.182 579.055 134.042C578.607 133.902 578.236 133.72 577.942 133.496V131.648C578.208 132.306 578.565 132.782 579.013 133.076C579.475 133.356 579.972 133.496 580.504 133.496C580.938 133.496 581.288 133.377 581.554 133.139C581.834 132.901 581.974 132.642 581.974 132.362C581.974 132.054 581.834 131.795 581.554 131.585C581.274 131.375 580.847 131.137 580.273 130.871C579.531 130.521 578.957 130.178 578.551 129.842C578.145 129.506 577.942 129.051 577.942 128.477C577.942 127.847 578.18 127.308 578.656 126.86C579.132 126.412 579.755 126.188 580.525 126.188C581.057 126.188 581.519 126.251 581.911 126.377C582.303 126.503 582.597 126.643 582.793 126.797L582.457 128.372C582.289 127.896 582.009 127.539 581.617 127.301C581.225 127.063 580.812 126.944 580.378 126.944C580 126.944 579.685 127.056 579.433 127.28C579.195 127.504 579.076 127.756 579.076 128.036C579.076 128.414 579.223 128.715 579.517 128.939C579.825 129.163 580.287 129.408 580.903 129.674C581.631 129.982 582.184 130.297 582.562 130.619C582.954 130.927 583.15 131.368 583.15 131.942C583.15 132.348 583.038 132.726 582.814 133.076C582.59 133.426 582.261 133.713 581.827 133.937C581.407 134.147 580.917 134.252 580.357 134.252ZM597.736 126.356V127.196H595.993C596.497 127.812 596.749 128.442 596.749 129.086C596.749 129.632 596.616 130.143 596.35 130.619C596.084 131.081 595.699 131.452 595.195 131.732C594.705 132.012 594.131 132.152 593.473 132.152C593.137 132.152 592.801 132.124 592.465 132.068C591.961 132.348 591.709 132.663 591.709 133.013C591.709 133.153 591.744 133.286 591.814 133.412C591.884 133.538 591.989 133.629 592.129 133.685C592.325 133.769 592.577 133.832 592.885 133.874C593.193 133.902 593.515 133.923 593.851 133.937C594.187 133.951 594.425 133.958 594.565 133.958C595.657 134 596.434 134.21 596.896 134.588C597.358 134.966 597.589 135.421 597.589 135.953C597.589 136.513 597.407 137.024 597.043 137.486C596.693 137.962 596.182 138.333 595.51 138.599C594.838 138.879 594.061 139.019 593.179 139.019C592.535 139.019 591.975 138.928 591.499 138.746C591.023 138.564 590.659 138.326 590.407 138.032C590.155 137.738 590.029 137.423 590.029 137.087C590.029 136.639 590.218 136.219 590.596 135.827C590.988 135.449 591.471 135.162 592.045 134.966C591.583 134.938 591.212 134.784 590.932 134.504C590.666 134.224 590.533 133.923 590.533 133.601C590.533 133.251 590.652 132.95 590.89 132.698C591.128 132.432 591.471 132.152 591.919 131.858C591.415 131.634 591.03 131.284 590.764 130.808C590.498 130.332 590.365 129.828 590.365 129.296C590.365 128.778 590.491 128.281 590.743 127.805C591.009 127.329 591.394 126.944 591.898 126.65C592.416 126.342 593.025 126.188 593.725 126.188C594.089 126.188 594.467 126.244 594.859 126.356H597.736ZM593.494 126.944C592.976 126.944 592.549 127.133 592.213 127.511C591.877 127.875 591.709 128.344 591.709 128.918C591.709 129.632 591.891 130.22 592.255 130.682C592.633 131.13 593.088 131.354 593.62 131.354C594.18 131.354 594.614 131.172 594.922 130.808C595.244 130.43 595.405 129.933 595.405 129.317C595.405 128.617 595.216 128.05 594.838 127.616C594.474 127.168 594.026 126.944 593.494 126.944ZM593.137 135.218C592.619 135.218 592.192 135.379 591.856 135.701C591.534 136.023 591.373 136.38 591.373 136.772C591.373 137.15 591.583 137.472 592.003 137.738C592.437 138.018 593.011 138.158 593.725 138.158C594.579 138.158 595.237 137.997 595.699 137.675C596.175 137.353 596.413 136.954 596.413 136.478C596.413 136.058 596.189 135.743 595.741 135.533C595.293 135.323 594.572 135.218 593.578 135.218H593.137ZM598.934 130.409C598.934 129.681 599.109 128.995 599.459 128.351C599.823 127.693 600.32 127.168 600.95 126.776C601.58 126.384 602.28 126.188 603.05 126.188C603.792 126.188 604.464 126.363 605.066 126.713C605.668 127.049 606.137 127.511 606.473 128.099C606.823 128.687 606.998 129.331 606.998 130.031C606.998 130.759 606.816 131.452 606.452 132.11C606.102 132.754 605.612 133.272 604.982 133.664C604.352 134.056 603.652 134.252 602.882 134.252C602.14 134.252 601.468 134.084 600.866 133.748C600.264 133.398 599.788 132.929 599.438 132.341C599.102 131.753 598.934 131.109 598.934 130.409ZM605.486 130.64C605.486 130.052 605.374 129.471 605.15 128.897C604.926 128.323 604.611 127.854 604.205 127.49C603.799 127.126 603.33 126.944 602.798 126.944C602.056 126.944 601.475 127.224 601.055 127.784C600.649 128.344 600.446 129.016 600.446 129.8C600.446 130.388 600.558 130.969 600.782 131.543C601.006 132.117 601.321 132.586 601.727 132.95C602.133 133.314 602.602 133.496 603.134 133.496C603.876 133.496 604.45 133.216 604.856 132.656C605.276 132.096 605.486 131.424 605.486 130.64ZM609.515 128.729C609.515 128.141 609.417 127.742 609.221 127.532C609.039 127.308 608.829 127.196 608.591 127.196L610.859 126.188V131.9C610.859 132.516 610.922 132.978 611.048 133.286C611.174 133.594 611.314 133.804 611.468 133.916C611.622 134.014 611.699 134.042 611.699 134H608.675C608.675 134.042 608.752 134.014 608.906 133.916C609.06 133.804 609.2 133.594 609.326 133.286C609.452 132.978 609.515 132.516 609.515 131.9V128.729ZM610.166 123.647C609.858 123.647 609.613 123.549 609.431 123.353C609.263 123.143 609.179 122.905 609.179 122.639C609.179 122.373 609.263 122.142 609.431 121.946C609.613 121.736 609.858 121.631 610.166 121.631C610.474 121.631 610.712 121.736 610.88 121.946C611.062 122.142 611.153 122.373 611.153 122.639C611.153 122.905 611.062 123.143 610.88 123.353C610.712 123.549 610.474 123.647 610.166 123.647ZM615.555 127.616C615.877 127.182 616.255 126.839 616.689 126.587C617.137 126.321 617.606 126.188 618.096 126.188C618.852 126.188 619.454 126.433 619.902 126.923C620.364 127.399 620.595 128.092 620.595 129.002V131.921C620.595 132.509 620.658 132.957 620.784 133.265C620.91 133.573 621.05 133.783 621.204 133.895C621.358 134.007 621.435 134.042 621.435 134H618.411C618.411 134.042 618.488 134.014 618.642 133.916C618.796 133.804 618.936 133.594 619.062 133.286C619.188 132.978 619.251 132.516 619.251 131.9V129.506C619.251 129.03 619.188 128.652 619.062 128.372C618.936 128.092 618.768 127.861 618.558 127.679C618.236 127.413 617.851 127.28 617.403 127.28C616.899 127.28 616.465 127.448 616.101 127.784C615.737 128.106 615.555 128.561 615.555 129.149V131.9C615.555 132.502 615.618 132.957 615.744 133.265C615.87 133.573 616.01 133.783 616.164 133.895C616.332 134.007 616.416 134.042 616.416 134H613.392C613.392 134.042 613.469 134.014 613.623 133.916C613.777 133.804 613.91 133.594 614.022 133.286C614.148 132.964 614.211 132.502 614.211 131.9V128.729C614.211 128.141 614.113 127.742 613.917 127.532C613.735 127.308 613.525 127.196 613.287 127.196L615.555 126.188V127.616ZM630.651 126.356V127.196H628.908C629.412 127.812 629.664 128.442 629.664 129.086C629.664 129.632 629.531 130.143 629.265 130.619C628.999 131.081 628.614 131.452 628.11 131.732C627.62 132.012 627.046 132.152 626.388 132.152C626.052 132.152 625.716 132.124 625.38 132.068C624.876 132.348 624.624 132.663 624.624 133.013C624.624 133.153 624.659 133.286 624.729 133.412C624.799 133.538 624.904 133.629 625.044 133.685C625.24 133.769 625.492 133.832 625.8 133.874C626.108 133.902 626.43 133.923 626.766 133.937C627.102 133.951 627.34 133.958 627.48 133.958C628.572 134 629.349 134.21 629.811 134.588C630.273 134.966 630.504 135.421 630.504 135.953C630.504 136.513 630.322 137.024 629.958 137.486C629.608 137.962 629.097 138.333 628.425 138.599C627.753 138.879 626.976 139.019 626.094 139.019C625.45 139.019 624.89 138.928 624.414 138.746C623.938 138.564 623.574 138.326 623.322 138.032C623.07 137.738 622.944 137.423 622.944 137.087C622.944 136.639 623.133 136.219 623.511 135.827C623.903 135.449 624.386 135.162 624.96 134.966C624.498 134.938 624.127 134.784 623.847 134.504C623.581 134.224 623.448 133.923 623.448 133.601C623.448 133.251 623.567 132.95 623.805 132.698C624.043 132.432 624.386 132.152 624.834 131.858C624.33 131.634 623.945 131.284 623.679 130.808C623.413 130.332 623.28 129.828 623.28 129.296C623.28 128.778 623.406 128.281 623.658 127.805C623.924 127.329 624.309 126.944 624.813 126.65C625.331 126.342 625.94 126.188 626.64 126.188C627.004 126.188 627.382 126.244 627.774 126.356H630.651ZM626.409 126.944C625.891 126.944 625.464 127.133 625.128 127.511C624.792 127.875 624.624 128.344 624.624 128.918C624.624 129.632 624.806 130.22 625.17 130.682C625.548 131.13 626.003 131.354 626.535 131.354C627.095 131.354 627.529 131.172 627.837 130.808C628.159 130.43 628.32 129.933 628.32 129.317C628.32 128.617 628.131 128.05 627.753 127.616C627.389 127.168 626.941 126.944 626.409 126.944ZM626.052 135.218C625.534 135.218 625.107 135.379 624.771 135.701C624.449 136.023 624.288 136.38 624.288 136.772C624.288 137.15 624.498 137.472 624.918 137.738C625.352 138.018 625.926 138.158 626.64 138.158C627.494 138.158 628.152 137.997 628.614 137.675C629.09 137.353 629.328 136.954 629.328 136.478C629.328 136.058 629.104 135.743 628.656 135.533C628.208 135.323 627.487 135.218 626.493 135.218H626.052ZM640.141 134.252C639.455 134.252 638.937 134.021 638.587 133.559C638.237 133.083 638.062 132.516 638.062 131.858V127.196H636.886L639.406 124.34V126.356H642.094V127.196H639.406V131.627C639.406 132.159 639.546 132.565 639.826 132.845C640.106 133.111 640.428 133.244 640.792 133.244C641.072 133.244 641.345 133.16 641.611 132.992C641.877 132.824 642.094 132.593 642.262 132.299C642.052 133.601 641.345 134.252 640.141 134.252ZM643.6 130.409C643.6 129.681 643.775 128.995 644.125 128.351C644.489 127.693 644.986 127.168 645.616 126.776C646.246 126.384 646.946 126.188 647.716 126.188C648.458 126.188 649.13 126.363 649.732 126.713C650.334 127.049 650.803 127.511 651.139 128.099C651.489 128.687 651.664 129.331 651.664 130.031C651.664 130.759 651.482 131.452 651.118 132.11C650.768 132.754 650.278 133.272 649.648 133.664C649.018 134.056 648.318 134.252 647.548 134.252C646.806 134.252 646.134 134.084 645.532 133.748C644.93 133.398 644.454 132.929 644.104 132.341C643.768 131.753 643.6 131.109 643.6 130.409ZM650.152 130.64C650.152 130.052 650.04 129.471 649.816 128.897C649.592 128.323 649.277 127.854 648.871 127.49C648.465 127.126 647.996 126.944 647.464 126.944C646.722 126.944 646.141 127.224 645.721 127.784C645.315 128.344 645.112 129.016 645.112 129.8C645.112 130.388 645.224 130.969 645.448 131.543C645.672 132.117 645.987 132.586 646.393 132.95C646.799 133.314 647.268 133.496 647.8 133.496C648.542 133.496 649.116 133.216 649.522 132.656C649.942 132.096 650.152 131.424 650.152 130.64ZM169.72 145.085C169.72 144.497 169.622 144.098 169.426 143.888C169.244 143.664 169.034 143.552 168.796 143.552H168.67L171.064 142.46V155.627C171.064 156.215 171.155 156.621 171.337 156.845C171.533 157.055 171.75 157.16 171.988 157.16H172.114L169.72 158.252V156.887C169.552 157.167 169.244 157.468 168.796 157.79C168.362 158.098 167.788 158.252 167.074 158.252C166.458 158.252 165.905 158.098 165.415 157.79C164.925 157.482 164.54 157.055 164.26 156.509C163.98 155.963 163.84 155.354 163.84 154.682C163.84 153.828 164.015 153.072 164.365 152.414C164.715 151.756 165.17 151.231 165.73 150.839C166.36 150.405 167.046 150.188 167.788 150.188C168.278 150.188 168.684 150.258 169.006 150.398C169.328 150.524 169.566 150.643 169.72 150.755V145.085ZM165.352 154.052C165.352 154.934 165.555 155.704 165.961 156.362C166.381 157.006 166.983 157.328 167.767 157.328C168.061 157.328 168.362 157.251 168.67 157.097C168.978 156.929 169.23 156.705 169.426 156.425C169.622 156.145 169.72 155.83 169.72 155.48V153.002C169.72 152.554 169.664 152.19 169.552 151.91C169.454 151.63 169.293 151.42 169.069 151.28C168.719 151.056 168.292 150.944 167.788 150.944C167.088 150.944 166.507 151.231 166.045 151.805C165.583 152.365 165.352 153.114 165.352 154.052ZM174.421 152.729C174.421 152.141 174.323 151.742 174.127 151.532C173.945 151.308 173.735 151.196 173.497 151.196L175.765 150.188V155.9C175.765 156.516 175.828 156.978 175.954 157.286C176.08 157.594 176.22 157.804 176.374 157.916C176.528 158.014 176.605 158.042 176.605 158H173.581C173.581 158.042 173.658 158.014 173.812 157.916C173.966 157.804 174.106 157.594 174.232 157.286C174.358 156.978 174.421 156.516 174.421 155.9V152.729ZM175.072 147.647C174.764 147.647 174.519 147.549 174.337 147.353C174.169 147.143 174.085 146.905 174.085 146.639C174.085 146.373 174.169 146.142 174.337 145.946C174.519 145.736 174.764 145.631 175.072 145.631C175.38 145.631 175.618 145.736 175.786 145.946C175.968 146.142 176.059 146.373 176.059 146.639C176.059 146.905 175.968 147.143 175.786 147.353C175.618 147.549 175.38 147.647 175.072 147.647ZM181.029 158.252C180.609 158.252 180.175 158.182 179.727 158.042C179.279 157.902 178.908 157.72 178.614 157.496V155.648C178.88 156.306 179.237 156.782 179.685 157.076C180.147 157.356 180.644 157.496 181.176 157.496C181.61 157.496 181.96 157.377 182.226 157.139C182.506 156.901 182.646 156.642 182.646 156.362C182.646 156.054 182.506 155.795 182.226 155.585C181.946 155.375 181.519 155.137 180.945 154.871C180.203 154.521 179.629 154.178 179.223 153.842C178.817 153.506 178.614 153.051 178.614 152.477C178.614 151.847 178.852 151.308 179.328 150.86C179.804 150.412 180.427 150.188 181.197 150.188C181.729 150.188 182.191 150.251 182.583 150.377C182.975 150.503 183.269 150.643 183.465 150.797L183.129 152.372C182.961 151.896 182.681 151.539 182.289 151.301C181.897 151.063 181.484 150.944 181.05 150.944C180.672 150.944 180.357 151.056 180.105 151.28C179.867 151.504 179.748 151.756 179.748 152.036C179.748 152.414 179.895 152.715 180.189 152.939C180.497 153.163 180.959 153.408 181.575 153.674C182.303 153.982 182.856 154.297 183.234 154.619C183.626 154.927 183.822 155.368 183.822 155.942C183.822 156.348 183.71 156.726 183.486 157.076C183.262 157.426 182.933 157.713 182.499 157.937C182.079 158.147 181.589 158.252 181.029 158.252ZM191.817 158.252C191.369 158.238 190.991 158.119 190.683 157.895C190.375 157.671 190.2 157.412 190.158 157.118C189.906 157.482 189.57 157.762 189.15 157.958C188.744 158.154 188.338 158.252 187.932 158.252C187.288 158.252 186.749 158.07 186.315 157.706C185.881 157.328 185.664 156.838 185.664 156.236C185.664 154.682 187.12 153.905 190.032 153.905V153.674C190.032 152.904 189.92 152.337 189.696 151.973C189.388 151.455 188.884 151.196 188.184 151.196C187.638 151.196 187.183 151.357 186.819 151.679C186.469 152.001 186.294 152.421 186.294 152.939C186.21 152.799 186.14 152.673 186.084 152.561C186.042 152.449 186.021 152.295 186.021 152.099C186.021 151.595 186.259 151.154 186.735 150.776C187.211 150.384 187.834 150.188 188.604 150.188C189.696 150.188 190.473 150.552 190.935 151.28C191.089 151.504 191.201 151.784 191.271 152.12C191.341 152.456 191.376 152.897 191.376 153.443V155.942C191.376 156.376 191.495 156.712 191.733 156.95C191.985 157.188 192.335 157.307 192.783 157.307H193.056L191.817 158.252ZM190.032 154.535C188.912 154.535 188.156 154.675 187.764 154.955C187.372 155.235 187.176 155.613 187.176 156.089C187.176 156.481 187.281 156.789 187.491 157.013C187.701 157.237 187.981 157.349 188.331 157.349C188.597 157.349 188.849 157.286 189.087 157.16C189.325 157.034 189.528 156.859 189.696 156.635C189.92 156.341 190.032 155.942 190.032 155.438V154.535ZM196.088 160.772C196.088 161.388 196.151 161.85 196.277 162.158C196.403 162.466 196.543 162.669 196.697 162.767C196.851 162.879 196.928 162.914 196.928 162.872H193.904C193.904 162.914 193.981 162.879 194.135 162.767C194.289 162.669 194.429 162.459 194.555 162.137C194.681 161.829 194.744 161.374 194.744 160.772V152.729C194.744 152.141 194.646 151.742 194.45 151.532C194.268 151.308 194.058 151.196 193.82 151.196L196.088 150.188V151.553C196.256 151.273 196.557 150.979 196.991 150.671C197.439 150.349 198.02 150.188 198.734 150.188C199.35 150.188 199.903 150.342 200.393 150.65C200.883 150.958 201.268 151.385 201.548 151.931C201.828 152.477 201.968 153.086 201.968 153.758C201.968 154.612 201.793 155.368 201.443 156.026C201.093 156.684 200.638 157.209 200.078 157.601C199.448 158.035 198.762 158.252 198.02 158.252C197.53 158.252 197.124 158.182 196.802 158.042C196.48 157.916 196.242 157.797 196.088 157.685V160.772ZM200.456 154.388C200.456 153.506 200.246 152.743 199.826 152.099C199.42 151.441 198.825 151.112 198.041 151.112C197.747 151.112 197.446 151.196 197.138 151.364C196.83 151.518 196.578 151.735 196.382 152.015C196.186 152.295 196.088 152.61 196.088 152.96V155.438C196.088 155.886 196.137 156.25 196.235 156.53C196.347 156.81 196.515 157.02 196.739 157.16C197.089 157.384 197.516 157.496 198.02 157.496C198.72 157.496 199.301 157.216 199.763 156.656C200.225 156.082 200.456 155.326 200.456 154.388ZM205.83 160.772C205.83 161.388 205.893 161.85 206.019 162.158C206.145 162.466 206.285 162.669 206.439 162.767C206.593 162.879 206.67 162.914 206.67 162.872H203.646C203.646 162.914 203.723 162.879 203.877 162.767C204.031 162.669 204.171 162.459 204.297 162.137C204.423 161.829 204.486 161.374 204.486 160.772V152.729C204.486 152.141 204.388 151.742 204.192 151.532C204.01 151.308 203.8 151.196 203.562 151.196L205.83 150.188V151.553C205.998 151.273 206.299 150.979 206.733 150.671C207.181 150.349 207.762 150.188 208.476 150.188C209.092 150.188 209.645 150.342 210.135 150.65C210.625 150.958 211.01 151.385 211.29 151.931C211.57 152.477 211.71 153.086 211.71 153.758C211.71 154.612 211.535 155.368 211.185 156.026C210.835 156.684 210.38 157.209 209.82 157.601C209.19 158.035 208.504 158.252 207.762 158.252C207.272 158.252 206.866 158.182 206.544 158.042C206.222 157.916 205.984 157.797 205.83 157.685V160.772ZM210.198 154.388C210.198 153.506 209.988 152.743 209.568 152.099C209.162 151.441 208.567 151.112 207.783 151.112C207.489 151.112 207.188 151.196 206.88 151.364C206.572 151.518 206.32 151.735 206.124 152.015C205.928 152.295 205.83 152.61 205.83 152.96V155.438C205.83 155.886 205.879 156.25 205.977 156.53C206.089 156.81 206.257 157.02 206.481 157.16C206.831 157.384 207.258 157.496 207.762 157.496C208.462 157.496 209.043 157.216 209.505 156.656C209.967 156.082 210.198 155.326 210.198 154.388ZM217.02 158.252C216.264 158.252 215.613 158.07 215.067 157.706C214.521 157.328 214.101 156.845 213.807 156.257C213.527 155.655 213.387 155.018 213.387 154.346C213.387 153.478 213.555 152.729 213.891 152.099C214.241 151.469 214.689 150.993 215.235 150.671C215.781 150.349 216.348 150.188 216.936 150.188C217.776 150.188 218.497 150.496 219.099 151.112C219.715 151.714 220.051 152.554 220.107 153.632H214.647C214.647 154.304 214.773 154.899 215.025 155.417C215.277 155.921 215.613 156.313 216.033 156.593C216.467 156.859 216.936 156.992 217.44 156.992C218.756 156.992 219.645 156.572 220.107 155.732C219.981 156.488 219.638 157.097 219.078 157.559C218.518 158.021 217.832 158.252 217.02 158.252ZM216.789 150.881C216.243 150.881 215.774 151.077 215.382 151.469C214.99 151.847 214.752 152.344 214.668 152.96H218.49C218.49 152.316 218.315 151.812 217.965 151.448C217.629 151.07 217.237 150.881 216.789 150.881ZM228.116 158.252C227.668 158.238 227.29 158.119 226.982 157.895C226.674 157.671 226.499 157.412 226.457 157.118C226.205 157.482 225.869 157.762 225.449 157.958C225.043 158.154 224.637 158.252 224.231 158.252C223.587 158.252 223.048 158.07 222.614 157.706C222.18 157.328 221.963 156.838 221.963 156.236C221.963 154.682 223.419 153.905 226.331 153.905V153.674C226.331 152.904 226.219 152.337 225.995 151.973C225.687 151.455 225.183 151.196 224.483 151.196C223.937 151.196 223.482 151.357 223.118 151.679C222.768 152.001 222.593 152.421 222.593 152.939C222.509 152.799 222.439 152.673 222.383 152.561C222.341 152.449 222.32 152.295 222.32 152.099C222.32 151.595 222.558 151.154 223.034 150.776C223.51 150.384 224.133 150.188 224.903 150.188C225.995 150.188 226.772 150.552 227.234 151.28C227.388 151.504 227.5 151.784 227.57 152.12C227.64 152.456 227.675 152.897 227.675 153.443V155.942C227.675 156.376 227.794 156.712 228.032 156.95C228.284 157.188 228.634 157.307 229.082 157.307H229.355L228.116 158.252ZM226.331 154.535C225.211 154.535 224.455 154.675 224.063 154.955C223.671 155.235 223.475 155.613 223.475 156.089C223.475 156.481 223.58 156.789 223.79 157.013C224 157.237 224.28 157.349 224.63 157.349C224.896 157.349 225.148 157.286 225.386 157.16C225.624 157.034 225.827 156.859 225.995 156.635C226.219 156.341 226.331 155.942 226.331 155.438V154.535ZM232.387 152.099C232.597 151.651 232.94 151.224 233.416 150.818C233.906 150.398 234.396 150.188 234.886 150.188C235.194 150.188 235.425 150.23 235.579 150.314V152.036C235.271 151.658 234.837 151.469 234.277 151.469C233.689 151.469 233.227 151.728 232.891 152.246C232.555 152.75 232.387 153.401 232.387 154.199V155.9C232.387 156.684 232.478 157.223 232.66 157.517C232.842 157.811 233.017 157.972 233.185 158H230.224C230.392 157.972 230.567 157.818 230.749 157.538C230.945 157.244 231.043 156.698 231.043 155.9V152.729C231.043 152.141 230.945 151.742 230.749 151.532C230.567 151.308 230.357 151.196 230.119 151.196L232.387 150.188V152.099ZM246.02 158.252C245.264 158.252 244.599 158.07 244.025 157.706C243.465 157.342 243.038 156.859 242.744 156.257C242.45 155.655 242.303 155.018 242.303 154.346C242.303 153.646 242.45 152.981 242.744 152.351C243.052 151.707 243.493 151.189 244.067 150.797C244.641 150.391 245.32 150.188 246.104 150.188C247.042 150.188 247.721 150.391 248.141 150.797C248.561 151.203 248.855 151.63 249.023 152.078L247.637 152.75C247.553 152.246 247.343 151.819 247.007 151.469C246.685 151.119 246.286 150.944 245.81 150.944C245.124 150.944 244.592 151.21 244.214 151.742C243.836 152.274 243.647 152.925 243.647 153.695C243.647 154.241 243.766 154.773 244.004 155.291C244.256 155.795 244.606 156.208 245.054 156.53C245.516 156.852 246.055 157.013 246.671 157.013C247.175 157.013 247.651 156.901 248.099 156.677C248.561 156.439 248.925 156.124 249.191 155.732C249.037 156.516 248.673 157.132 248.099 157.58C247.525 158.028 246.832 158.252 246.02 158.252ZM250.711 154.409C250.711 153.681 250.886 152.995 251.236 152.351C251.6 151.693 252.097 151.168 252.727 150.776C253.357 150.384 254.057 150.188 254.827 150.188C255.569 150.188 256.241 150.363 256.843 150.713C257.445 151.049 257.914 151.511 258.25 152.099C258.6 152.687 258.775 153.331 258.775 154.031C258.775 154.759 258.593 155.452 258.229 156.11C257.879 156.754 257.389 157.272 256.759 157.664C256.129 158.056 255.429 158.252 254.659 158.252C253.917 158.252 253.245 158.084 252.643 157.748C252.041 157.398 251.565 156.929 251.215 156.341C250.879 155.753 250.711 155.109 250.711 154.409ZM257.263 154.64C257.263 154.052 257.151 153.471 256.927 152.897C256.703 152.323 256.388 151.854 255.982 151.49C255.576 151.126 255.107 150.944 254.575 150.944C253.833 150.944 253.252 151.224 252.832 151.784C252.426 152.344 252.223 153.016 252.223 153.8C252.223 154.388 252.335 154.969 252.559 155.543C252.783 156.117 253.098 156.586 253.504 156.95C253.91 157.314 254.379 157.496 254.911 157.496C255.653 157.496 256.227 157.216 256.633 156.656C257.053 156.096 257.263 155.424 257.263 154.64ZM262.636 151.616C262.986 151.182 263.378 150.839 263.812 150.587C264.246 150.321 264.701 150.188 265.177 150.188C265.695 150.188 266.15 150.314 266.542 150.566C266.948 150.804 267.242 151.154 267.424 151.616C267.802 151.14 268.229 150.783 268.705 150.545C269.195 150.307 269.699 150.188 270.217 150.188C270.973 150.188 271.575 150.433 272.023 150.923C272.485 151.399 272.716 152.092 272.716 153.002V155.921C272.716 156.691 272.814 157.223 273.01 157.517C273.206 157.811 273.381 157.972 273.535 158H270.553C270.721 157.972 270.896 157.811 271.078 157.517C271.274 157.223 271.372 156.684 271.372 155.9V153.506C271.372 153.03 271.309 152.652 271.183 152.372C271.057 152.092 270.889 151.861 270.679 151.679C270.357 151.413 269.972 151.28 269.524 151.28C269.034 151.28 268.6 151.448 268.222 151.784C267.858 152.106 267.676 152.561 267.676 153.149V155.9C267.676 156.684 267.767 157.223 267.949 157.517C268.145 157.811 268.327 157.972 268.495 158H265.513C265.681 157.972 265.856 157.811 266.038 157.517C266.234 157.223 266.332 156.684 266.332 155.9V153.506C266.332 153.03 266.269 152.652 266.143 152.372C266.017 152.092 265.849 151.861 265.639 151.679C265.317 151.413 264.932 151.28 264.484 151.28C263.98 151.28 263.546 151.448 263.182 151.784C262.818 152.106 262.636 152.561 262.636 153.149V155.9C262.636 156.698 262.734 157.244 262.93 157.538C263.126 157.818 263.308 157.972 263.476 158H260.494C260.662 157.972 260.837 157.811 261.019 157.517C261.201 157.223 261.292 156.684 261.292 155.9V152.729C261.292 152.141 261.194 151.742 260.998 151.532C260.816 151.308 260.606 151.196 260.368 151.196L262.636 150.188V151.616ZM277.422 160.772C277.422 161.388 277.485 161.85 277.611 162.158C277.737 162.466 277.877 162.669 278.031 162.767C278.185 162.879 278.262 162.914 278.262 162.872H275.238C275.238 162.914 275.315 162.879 275.469 162.767C275.623 162.669 275.763 162.459 275.889 162.137C276.015 161.829 276.078 161.374 276.078 160.772V152.729C276.078 152.141 275.98 151.742 275.784 151.532C275.602 151.308 275.392 151.196 275.154 151.196L277.422 150.188V151.553C277.59 151.273 277.891 150.979 278.325 150.671C278.773 150.349 279.354 150.188 280.068 150.188C280.684 150.188 281.237 150.342 281.727 150.65C282.217 150.958 282.602 151.385 282.882 151.931C283.162 152.477 283.302 153.086 283.302 153.758C283.302 154.612 283.127 155.368 282.777 156.026C282.427 156.684 281.972 157.209 281.412 157.601C280.782 158.035 280.096 158.252 279.354 158.252C278.864 158.252 278.458 158.182 278.136 158.042C277.814 157.916 277.576 157.797 277.422 157.685V160.772ZM281.79 154.388C281.79 153.506 281.58 152.743 281.16 152.099C280.754 151.441 280.159 151.112 279.375 151.112C279.081 151.112 278.78 151.196 278.472 151.364C278.164 151.518 277.912 151.735 277.716 152.015C277.52 152.295 277.422 152.61 277.422 152.96V155.438C277.422 155.886 277.471 156.25 277.569 156.53C277.681 156.81 277.849 157.02 278.073 157.16C278.423 157.384 278.85 157.496 279.354 157.496C280.054 157.496 280.635 157.216 281.097 156.656C281.559 156.082 281.79 155.326 281.79 154.388ZM285.82 145.085C285.82 144.497 285.722 144.098 285.526 143.888C285.344 143.664 285.134 143.552 284.896 143.552H284.77L287.164 142.46V155.9C287.164 156.516 287.227 156.978 287.353 157.286C287.479 157.594 287.619 157.804 287.773 157.916C287.927 158.014 288.004 158.042 288.004 158H284.98C284.98 158.042 285.057 158.014 285.211 157.916C285.365 157.804 285.505 157.594 285.631 157.286C285.757 156.964 285.82 156.502 285.82 155.9V145.085ZM293.309 158.252C292.553 158.252 291.902 158.07 291.356 157.706C290.81 157.328 290.39 156.845 290.096 156.257C289.816 155.655 289.676 155.018 289.676 154.346C289.676 153.478 289.844 152.729 290.18 152.099C290.53 151.469 290.978 150.993 291.524 150.671C292.07 150.349 292.637 150.188 293.225 150.188C294.065 150.188 294.786 150.496 295.388 151.112C296.004 151.714 296.34 152.554 296.396 153.632H290.936C290.936 154.304 291.062 154.899 291.314 155.417C291.566 155.921 291.902 156.313 292.322 156.593C292.756 156.859 293.225 156.992 293.729 156.992C295.045 156.992 295.934 156.572 296.396 155.732C296.27 156.488 295.927 157.097 295.367 157.559C294.807 158.021 294.121 158.252 293.309 158.252ZM293.078 150.881C292.532 150.881 292.063 151.077 291.671 151.469C291.279 151.847 291.041 152.344 290.957 152.96H294.779C294.779 152.316 294.604 151.812 294.254 151.448C293.918 151.07 293.526 150.881 293.078 150.881ZM301.003 158.252C300.317 158.252 299.799 158.021 299.449 157.559C299.099 157.083 298.924 156.516 298.924 155.858V151.196H297.748L300.268 148.34V150.356H302.956V151.196H300.268V155.627C300.268 156.159 300.408 156.565 300.688 156.845C300.968 157.111 301.29 157.244 301.654 157.244C301.934 157.244 302.207 157.16 302.473 156.992C302.739 156.824 302.956 156.593 303.124 156.299C302.914 157.601 302.207 158.252 301.003 158.252ZM308.095 158.252C307.339 158.252 306.688 158.07 306.142 157.706C305.596 157.328 305.176 156.845 304.882 156.257C304.602 155.655 304.462 155.018 304.462 154.346C304.462 153.478 304.63 152.729 304.966 152.099C305.316 151.469 305.764 150.993 306.31 150.671C306.856 150.349 307.423 150.188 308.011 150.188C308.851 150.188 309.572 150.496 310.174 151.112C310.79 151.714 311.126 152.554 311.182 153.632H305.722C305.722 154.304 305.848 154.899 306.1 155.417C306.352 155.921 306.688 156.313 307.108 156.593C307.542 156.859 308.011 156.992 308.515 156.992C309.831 156.992 310.72 156.572 311.182 155.732C311.056 156.488 310.713 157.097 310.153 157.559C309.593 158.021 308.907 158.252 308.095 158.252ZM307.864 150.881C307.318 150.881 306.849 151.077 306.457 151.469C306.065 151.847 305.827 152.344 305.743 152.96H309.565C309.565 152.316 309.39 151.812 309.04 151.448C308.704 151.07 308.312 150.881 307.864 150.881ZM313.71 145.085C313.71 144.497 313.612 144.098 313.416 143.888C313.234 143.664 313.024 143.552 312.786 143.552H312.66L315.054 142.46V155.9C315.054 156.516 315.117 156.978 315.243 157.286C315.369 157.594 315.509 157.804 315.663 157.916C315.817 158.014 315.894 158.042 315.894 158H312.87C312.87 158.042 312.947 158.014 313.101 157.916C313.255 157.804 313.395 157.594 313.521 157.286C313.647 156.964 313.71 156.502 313.71 155.9V145.085ZM320.507 157.37L318.05 151.805C317.812 151.273 317.581 150.909 317.357 150.713C317.147 150.503 316.979 150.384 316.853 150.356H319.919C319.793 150.384 319.667 150.447 319.541 150.545C319.415 150.643 319.352 150.818 319.352 151.07C319.352 151.308 319.422 151.574 319.562 151.868L321.263 155.795L322.775 152.078C322.873 151.826 322.922 151.567 322.922 151.301C322.922 151.049 322.866 150.839 322.754 150.671C322.656 150.503 322.488 150.398 322.25 150.356H325.064C324.91 150.384 324.707 150.503 324.455 150.713C324.217 150.923 323.979 151.315 323.741 151.889L320.885 158.525C320.507 159.407 320.227 160.1 320.045 160.604C319.863 161.122 319.688 161.654 319.52 162.2C319.45 162.466 319.38 162.69 319.31 162.872H317.168C317.546 162.69 318.008 162.179 318.554 161.339C319.114 160.499 319.688 159.365 320.276 157.937L320.507 157.37ZM327.187 158.21C326.907 158.21 326.655 158.119 326.431 157.937C326.221 157.741 326.116 157.475 326.116 157.139C326.116 156.803 326.221 156.544 326.431 156.362C326.641 156.18 326.893 156.089 327.187 156.089C327.481 156.089 327.733 156.18 327.943 156.362C328.153 156.544 328.258 156.803 328.258 157.139C328.258 157.475 328.146 157.741 327.922 157.937C327.712 158.119 327.467 158.21 327.187 158.21ZM332.56 158.21C332.28 158.21 332.028 158.119 331.804 157.937C331.594 157.741 331.489 157.475 331.489 157.139C331.489 156.803 331.594 156.544 331.804 156.362C332.014 156.18 332.266 156.089 332.56 156.089C332.854 156.089 333.106 156.18 333.316 156.362C333.526 156.544 333.631 156.803 333.631 157.139C333.631 157.475 333.519 157.741 333.295 157.937C333.085 158.119 332.84 158.21 332.56 158.21ZM337.933 158.21C337.653 158.21 337.401 158.119 337.177 157.937C336.967 157.741 336.862 157.475 336.862 157.139C336.862 156.803 336.967 156.544 337.177 156.362C337.387 156.18 337.639 156.089 337.933 156.089C338.227 156.089 338.479 156.18 338.689 156.362C338.899 156.544 339.004 156.803 339.004 157.139C339.004 157.475 338.892 157.741 338.668 157.937C338.458 158.119 338.213 158.21 337.933 158.21ZM340.963 148.004C341.341 147.864 341.656 147.542 341.908 147.038C342.174 146.534 342.307 146.037 342.307 145.547C342.307 145.421 342.3 145.33 342.286 145.274H342.139C341.789 145.274 341.523 145.183 341.341 145.001C341.159 144.819 341.068 144.595 341.068 144.329C341.068 144.049 341.159 143.811 341.341 143.615C341.537 143.405 341.796 143.3 342.118 143.3C342.468 143.3 342.769 143.447 343.021 143.741C343.287 144.021 343.42 144.434 343.42 144.98C343.42 145.414 343.329 145.862 343.147 146.324C342.965 146.772 342.685 147.157 342.307 147.479C341.929 147.801 341.481 147.976 340.963 148.004ZM344.554 148.004C344.932 147.864 345.247 147.542 345.499 147.038C345.765 146.534 345.898 146.037 345.898 145.547C345.898 145.421 345.891 145.33 345.877 145.274H345.73C345.38 145.274 345.114 145.183 344.932 145.001C344.75 144.819 344.659 144.595 344.659 144.329C344.659 144.049 344.75 143.811 344.932 143.615C345.128 143.405 345.387 143.3 345.709 143.3C346.059 143.3 346.36 143.447 346.612 143.741C346.878 144.021 347.011 144.434 347.011 144.98C347.011 145.414 346.92 145.862 346.738 146.324C346.556 146.772 346.276 147.157 345.898 147.479C345.52 147.801 345.072 147.976 344.554 148.004Z" fill="#F5F7F9"/>
<path d="M167.72 185.136C167.683 185.509 167.555 185.827 167.336 186.088C167.123 186.344 166.829 186.472 166.456 186.472C166.227 186.472 166.019 186.429 165.832 186.344C165.651 186.253 165.509 186.157 165.408 186.056C165.312 185.949 165.192 185.853 165.048 185.768C164.909 185.677 164.763 185.632 164.608 185.632C164.395 185.632 164.227 185.704 164.104 185.848C163.981 185.987 163.907 186.163 163.88 186.376H163.288C163.325 185.997 163.451 185.68 163.664 185.424C163.883 185.168 164.181 185.04 164.56 185.04C164.784 185.04 164.987 185.085 165.168 185.176C165.355 185.261 165.496 185.357 165.592 185.464C165.693 185.565 165.813 185.661 165.952 185.752C166.091 185.837 166.237 185.88 166.392 185.88C166.605 185.88 166.773 185.811 166.896 185.672C167.024 185.528 167.101 185.349 167.128 185.136H167.72ZM169.923 188L168.059 184H168.827L170.331 187.288H170.387L171.891 184H172.651L170.795 188H169.923ZM174.029 183.224C173.939 183.315 173.829 183.36 173.701 183.36C173.573 183.36 173.461 183.315 173.365 183.224C173.275 183.133 173.229 183.024 173.229 182.896C173.229 182.768 173.275 182.659 173.365 182.568C173.461 182.477 173.573 182.432 173.701 182.432C173.829 182.432 173.939 182.477 174.029 182.568C174.12 182.653 174.165 182.763 174.165 182.896C174.165 183.024 174.12 183.133 174.029 183.224ZM173.349 188V184H174.053V188H173.349ZM179.424 187.504C179.541 187.504 179.659 187.48 179.776 187.432V187.952C179.6 188.011 179.435 188.04 179.28 188.04C178.741 188.04 178.424 187.819 178.328 187.376C177.992 187.845 177.416 188.08 176.6 188.08C176.12 188.08 175.736 187.984 175.448 187.792C175.16 187.595 175.016 187.304 175.016 186.92C175.016 186.557 175.144 186.277 175.4 186.08C175.656 185.877 176.003 185.76 176.44 185.728L178.232 185.592V185.416C178.232 185.123 178.131 184.896 177.928 184.736C177.731 184.576 177.443 184.496 177.064 184.496C176.403 184.496 176.019 184.752 175.912 185.264H175.2C175.253 184.853 175.443 184.528 175.768 184.288C176.093 184.043 176.525 183.92 177.064 183.92C177.629 183.92 178.083 184.051 178.424 184.312C178.771 184.573 178.944 184.944 178.944 185.424V187.024C178.944 187.344 179.104 187.504 179.424 187.504ZM178.232 186.392V186.104L176.632 186.224C176.024 186.277 175.72 186.501 175.72 186.896C175.72 187.312 176.037 187.52 176.672 187.52C177.093 187.52 177.459 187.429 177.768 187.248C178.077 187.061 178.232 186.776 178.232 186.392ZM182.318 188V184H182.95L183.022 184.568H183.078C183.222 184.36 183.393 184.2 183.59 184.088C183.793 183.976 184.059 183.92 184.39 183.92H184.678V184.64C184.582 184.624 184.443 184.616 184.262 184.616C183.899 184.616 183.601 184.733 183.366 184.968C183.137 185.203 183.022 185.531 183.022 185.952V188H182.318ZM189.401 185.912C189.401 185.96 189.396 186.048 189.385 186.176H185.737C185.764 186.576 185.916 186.896 186.193 187.136C186.471 187.376 186.849 187.496 187.329 187.496C188.044 187.496 188.492 187.275 188.673 186.832H189.369C189.268 187.221 189.036 187.528 188.673 187.752C188.316 187.971 187.868 188.08 187.329 188.08C186.631 188.08 186.073 187.893 185.657 187.52C185.241 187.147 185.033 186.651 185.033 186.032C185.033 185.397 185.241 184.888 185.657 184.504C186.073 184.115 186.612 183.92 187.273 183.92C187.881 183.92 188.385 184.093 188.785 184.44C189.191 184.787 189.396 185.277 189.401 185.912ZM187.273 184.504C186.841 184.504 186.492 184.611 186.225 184.824C185.959 185.037 185.801 185.312 185.753 185.648H188.697C188.681 185.301 188.545 185.024 188.289 184.816C188.039 184.608 187.7 184.504 187.273 184.504ZM193.958 182.32H194.662V188H194.078L194.006 187.392H193.95C193.598 187.851 193.068 188.08 192.358 188.08C191.702 188.08 191.172 187.891 190.766 187.512C190.366 187.128 190.166 186.621 190.166 185.992C190.166 185.363 190.369 184.861 190.774 184.488C191.185 184.109 191.713 183.92 192.358 183.92C193.062 183.92 193.596 184.144 193.958 184.592V182.32ZM191.302 187.056C191.59 187.317 191.969 187.448 192.438 187.448C192.908 187.448 193.278 187.317 193.55 187.056C193.822 186.789 193.958 186.435 193.958 185.992C193.958 185.555 193.822 185.205 193.55 184.944C193.278 184.683 192.908 184.552 192.438 184.552C191.969 184.552 191.59 184.685 191.302 184.952C191.02 185.213 190.878 185.56 190.878 185.992C190.878 186.435 191.02 186.789 191.302 187.056ZM199.388 182.32H200.092V188H199.508L199.436 187.392H199.38C199.028 187.851 198.497 188.08 197.788 188.08C197.132 188.08 196.601 187.891 196.196 187.512C195.796 187.128 195.596 186.621 195.596 185.992C195.596 185.363 195.799 184.861 196.204 184.488C196.615 184.109 197.143 183.92 197.788 183.92C198.492 183.92 199.025 184.144 199.388 184.592V182.32ZM196.732 187.056C197.02 187.317 197.399 187.448 197.868 187.448C198.337 187.448 198.708 187.317 198.98 187.056C199.252 186.789 199.388 186.435 199.388 185.992C199.388 185.555 199.252 185.205 198.98 184.944C198.708 184.683 198.337 184.552 197.868 184.552C197.399 184.552 197.02 184.685 196.732 184.952C196.449 185.213 196.308 185.56 196.308 185.992C196.308 186.435 196.449 186.789 196.732 187.056ZM201.896 183.224C201.806 183.315 201.696 183.36 201.568 183.36C201.44 183.36 201.328 183.315 201.232 183.224C201.142 183.133 201.096 183.024 201.096 182.896C201.096 182.768 201.142 182.659 201.232 182.568C201.328 182.477 201.44 182.432 201.568 182.432C201.696 182.432 201.806 182.477 201.896 182.568C201.987 182.653 202.032 182.763 202.032 182.896C202.032 183.024 201.987 183.133 201.896 183.224ZM201.216 188V184H201.92V188H201.216ZM204.677 188.08C204.309 188.08 204.034 187.989 203.853 187.808C203.672 187.627 203.581 187.376 203.581 187.056V184.576H202.613V184H202.989C203.229 184 203.397 183.955 203.493 183.864C203.589 183.773 203.637 183.613 203.637 183.384V182.88H204.285V184H205.437V184.576H204.285V186.928C204.285 187.307 204.482 187.496 204.877 187.496C205.021 187.496 205.168 187.477 205.317 187.44V187.992C205.12 188.051 204.906 188.08 204.677 188.08ZM210.118 185.136C210.081 185.509 209.953 185.827 209.734 186.088C209.521 186.344 209.228 186.472 208.854 186.472C208.625 186.472 208.417 186.429 208.23 186.344C208.049 186.253 207.908 186.157 207.806 186.056C207.71 185.949 207.59 185.853 207.446 185.768C207.308 185.677 207.161 185.632 207.006 185.632C206.793 185.632 206.625 185.704 206.502 185.848C206.38 185.987 206.305 186.163 206.278 186.376H205.686C205.724 185.997 205.849 185.68 206.062 185.424C206.281 185.168 206.58 185.04 206.958 185.04C207.182 185.04 207.385 185.085 207.566 185.176C207.753 185.261 207.894 185.357 207.99 185.464C208.092 185.565 208.212 185.661 208.35 185.752C208.489 185.837 208.636 185.88 208.79 185.88C209.004 185.88 209.172 185.811 209.294 185.672C209.422 185.528 209.5 185.349 209.526 185.136H210.118Z" fill="#F5F7F9"/>
<path d="M429.217 84.6575C428.197 84.6575 427.406 84.2708 426.844 83.4973C426.281 82.7237 426 81.7217 426 80.4911C426 76.9751 427.688 74.1448 431.063 72L432.329 73.6349C430.43 75.182 429.463 76.8169 429.428 78.5397C430.166 78.4694 430.834 78.7155 431.432 79.2781C432.03 79.8055 432.329 80.5438 432.329 81.4932C432.329 82.4425 432.03 83.216 431.432 83.8137C430.87 84.3763 430.131 84.6575 429.217 84.6575ZM438.236 84.6575C437.216 84.6575 436.425 84.2708 435.862 83.4973C435.3 82.7237 435.018 81.7217 435.018 80.4911C435.018 76.9751 436.706 74.1448 440.082 72L441.4 73.6349C439.466 75.182 438.482 76.8169 438.447 78.5397C439.22 78.4694 439.888 78.7155 440.451 79.2781C441.048 79.8055 441.347 80.5438 441.347 81.4932C441.347 82.4425 441.048 83.216 440.451 83.8137C439.888 84.3763 439.15 84.6575 438.236 84.6575Z" fill="#F5F7F9"/>
</g>
<defs>
<filter id="filter0_d" x="0" y="0" width="868" height="296" filterUnits="userSpaceOnUse" color-interpolation-filters="sRGB">
<feFlood flood-opacity="0" result="BackgroundImageFix"/>
<feColorMatrix in="SourceAlpha" type="matrix" values="0 0 0 0 0 0 0 0 0 0 0 0 0 0 0 0 0 0 127 0"/>
<feOffset dy="4"/>
<feGaussianBlur stdDeviation="17"/>
<feColorMatrix type="matrix" values="0 0 0 0 0 0 0 0 0 0 0 0 0 0 0 0 0 0 0.25 0"/>
<feBlend mode="normal" in2="BackgroundImageFix" result="effect1_dropShadow"/>
<feBlend mode="normal" in="SourceGraphic" in2="effect1_dropShadow" result="shape"/>
</filter>
</defs>
</svg>
