<svg width="600" height="438" viewBox="0 0 600 438" fill="none" xmlns="http://www.w3.org/2000/svg">
<rect width="600" height="438" fill="white"/>
<path d="M305.344 84.8081C303.333 84.8081 301.773 84.0455 300.664 82.5201C299.555 80.9948 299 79.0188 299 76.5921C299 69.6588 302.328 64.0775 308.984 59.8481L311.48 63.0721C307.736 66.1228 305.829 69.3468 305.76 72.7441C307.216 72.6055 308.533 73.0908 309.712 74.2001C310.891 75.2402 311.48 76.6961 311.48 78.5681C311.48 80.4401 310.891 81.9655 309.712 83.1441C308.603 84.2535 307.147 84.8081 305.344 84.8081ZM323.128 84.8081C321.117 84.8081 319.557 84.0455 318.448 82.5201C317.339 80.9948 316.784 79.0188 316.784 76.5921C316.784 69.6588 320.112 64.0775 326.768 59.8481L329.368 63.0721C325.555 66.1228 323.613 69.3468 323.544 72.7441C325.069 72.6055 326.387 73.0908 327.496 74.2001C328.675 75.2402 329.264 76.6961 329.264 78.5681C329.264 80.4401 328.675 81.9655 327.496 83.1441C326.387 84.2535 324.931 84.8081 323.128 84.8081Z" fill="black"/>
<path d="M72.36 160C72.36 160.08 72.52 160.027 72.84 159.84C73.16 159.627 73.4533 159.253 73.72 158.72C73.9867 158.16 74.12 157.347 74.12 156.28V136.2C74.12 135.133 73.9867 134.333 73.72 133.8C73.48 133.24 73.2 132.867 72.88 132.68C72.56 132.493 72.4 132.427 72.4 132.48H78.76C78.76 132.427 78.6 132.493 78.28 132.68C77.96 132.867 77.6667 133.24 77.4 133.8C77.1333 134.333 77 135.133 77 136.2V156.28C77 157.347 77.1333 158.16 77.4 158.72C77.6667 159.253 77.96 159.613 78.28 159.8C78.6 159.987 78.76 160.053 78.76 160H72.36ZM83.2209 140.96C83.9409 140.693 84.5409 140.08 85.0209 139.12C85.5276 138.16 85.7809 137.213 85.7809 136.28C85.7809 136.04 85.7676 135.867 85.7409 135.76H85.4609C84.7943 135.76 84.2876 135.587 83.9409 135.24C83.5943 134.893 83.4209 134.467 83.4209 133.96C83.4209 133.427 83.5943 132.973 83.9409 132.6C84.3143 132.2 84.8076 132 85.4209 132C86.0876 132 86.6609 132.28 87.1409 132.84C87.6476 133.373 87.9009 134.16 87.9009 135.2C87.9009 136.027 87.7276 136.88 87.3809 137.76C87.0343 138.613 86.5009 139.347 85.7809 139.96C85.0609 140.573 84.2076 140.907 83.2209 140.96ZM96.1663 147.84C96.8329 147.013 97.5796 146.36 98.4063 145.88C99.2329 145.373 100.1 145.12 101.006 145.12C101.993 145.12 102.86 145.36 103.606 145.84C104.38 146.293 104.94 146.96 105.286 147.84C106.006 146.933 106.82 146.253 107.726 145.8C108.66 145.347 109.62 145.12 110.606 145.12C112.046 145.12 113.193 145.587 114.046 146.52C114.926 147.427 115.366 148.747 115.366 150.48V156.04C115.366 157.507 115.553 158.52 115.926 159.08C116.3 159.64 116.633 159.947 116.926 160H111.246C111.566 159.947 111.9 159.64 112.246 159.08C112.62 158.52 112.806 157.493 112.806 156V151.44C112.806 150.533 112.686 149.813 112.446 149.28C112.206 148.747 111.886 148.307 111.486 147.96C110.873 147.453 110.14 147.2 109.286 147.2C108.353 147.2 107.526 147.52 106.806 148.16C106.113 148.773 105.766 149.64 105.766 150.76V156C105.766 157.493 105.94 158.52 106.286 159.08C106.66 159.64 107.006 159.947 107.326 160H101.646C101.966 159.947 102.3 159.64 102.646 159.08C103.02 158.52 103.206 157.493 103.206 156V151.44C103.206 150.533 103.086 149.813 102.846 149.28C102.606 148.747 102.286 148.307 101.886 147.96C101.273 147.453 100.54 147.2 99.6863 147.2C98.7263 147.2 97.8996 147.52 97.2063 148.16C96.5129 148.773 96.1663 149.64 96.1663 150.76V156C96.1663 157.52 96.3529 158.56 96.7263 159.12C97.0996 159.653 97.4463 159.947 97.7663 160H92.0863C92.4063 159.947 92.7396 159.64 93.0863 159.08C93.4329 158.52 93.6063 157.493 93.6063 156V149.96C93.6063 148.84 93.4196 148.08 93.0462 147.68C92.6996 147.253 92.2996 147.04 91.8463 147.04L96.1663 145.12V147.84ZM142.445 160.48C141.591 160.453 140.871 160.227 140.285 159.8C139.698 159.373 139.365 158.88 139.285 158.32C138.805 159.013 138.165 159.547 137.365 159.92C136.591 160.293 135.818 160.48 135.045 160.48C133.818 160.48 132.791 160.133 131.965 159.44C131.138 158.72 130.725 157.787 130.725 156.64C130.725 153.68 133.498 152.2 139.045 152.2V151.76C139.045 150.293 138.831 149.213 138.405 148.52C137.818 147.533 136.858 147.04 135.525 147.04C134.485 147.04 133.618 147.347 132.925 147.96C132.258 148.573 131.925 149.373 131.925 150.36C131.765 150.093 131.631 149.853 131.525 149.64C131.445 149.427 131.405 149.133 131.405 148.76C131.405 147.8 131.858 146.96 132.765 146.24C133.671 145.493 134.858 145.12 136.325 145.12C138.405 145.12 139.885 145.813 140.765 147.2C141.058 147.627 141.271 148.16 141.405 148.8C141.538 149.44 141.605 150.28 141.605 151.32V156.08C141.605 156.907 141.831 157.547 142.285 158C142.765 158.453 143.431 158.68 144.285 158.68H144.805L142.445 160.48ZM139.045 153.4C136.911 153.4 135.471 153.667 134.725 154.2C133.978 154.733 133.605 155.453 133.605 156.36C133.605 157.107 133.805 157.693 134.205 158.12C134.605 158.547 135.138 158.76 135.805 158.76C136.311 158.76 136.791 158.64 137.245 158.4C137.698 158.16 138.085 157.827 138.405 157.4C138.831 156.84 139.045 156.08 139.045 155.12V153.4ZM158.22 133.88C157.74 133.4 157.154 133.027 156.46 132.76C155.794 132.467 155.114 132.32 154.42 132.32C153.087 132.32 152.114 132.8 151.5 133.76C150.887 134.693 150.58 135.907 150.58 137.4V145.44H154.74V147.04H150.58V156C150.58 157.147 150.7 158.027 150.94 158.64C151.18 159.227 151.447 159.627 151.74 159.84C152.034 160.027 152.18 160.08 152.18 160H146.38C146.38 160.08 146.527 160.027 146.82 159.84C147.14 159.627 147.42 159.227 147.66 158.64C147.9 158.027 148.02 157.147 148.02 156V147.04H145.78V145.44H148.02V139.88C148.02 138.013 148.327 136.373 148.94 134.96C149.58 133.52 150.46 132.4 151.58 131.6C152.727 130.8 154.034 130.4 155.5 130.4C156.647 130.4 157.554 130.52 158.22 130.76V133.88ZM160.815 148.76C161.215 147.907 161.868 147.093 162.775 146.32C163.708 145.52 164.641 145.12 165.575 145.12C166.161 145.12 166.601 145.2 166.895 145.36V148.64C166.308 147.92 165.481 147.56 164.415 147.56C163.295 147.56 162.415 148.053 161.775 149.04C161.135 150 160.815 151.24 160.815 152.76V156C160.815 157.493 160.988 158.52 161.335 159.08C161.681 159.64 162.015 159.947 162.335 160H156.695C157.015 159.947 157.348 159.653 157.695 159.12C158.068 158.56 158.255 157.52 158.255 156V149.96C158.255 148.84 158.068 148.08 157.695 147.68C157.348 147.253 156.948 147.04 156.495 147.04L160.815 145.12V148.76ZM181.507 160.48C180.654 160.453 179.934 160.227 179.347 159.8C178.761 159.373 178.427 158.88 178.347 158.32C177.867 159.013 177.227 159.547 176.427 159.92C175.654 160.293 174.881 160.48 174.107 160.48C172.881 160.48 171.854 160.133 171.027 159.44C170.201 158.72 169.787 157.787 169.787 156.64C169.787 153.68 172.561 152.2 178.107 152.2V151.76C178.107 150.293 177.894 149.213 177.467 148.52C176.881 147.533 175.921 147.04 174.587 147.04C173.547 147.04 172.681 147.347 171.987 147.96C171.321 148.573 170.987 149.373 170.987 150.36C170.827 150.093 170.694 149.853 170.587 149.64C170.507 149.427 170.467 149.133 170.467 148.76C170.467 147.8 170.921 146.96 171.827 146.24C172.734 145.493 173.921 145.12 175.387 145.12C177.467 145.12 178.947 145.813 179.827 147.2C180.121 147.627 180.334 148.16 180.467 148.8C180.601 149.44 180.667 150.28 180.667 151.32V156.08C180.667 156.907 180.894 157.547 181.347 158C181.827 158.453 182.494 158.68 183.347 158.68H183.867L181.507 160.48ZM178.107 153.4C175.974 153.4 174.534 153.667 173.787 154.2C173.041 154.733 172.667 155.453 172.667 156.36C172.667 157.107 172.867 157.693 173.267 158.12C173.667 158.547 174.201 158.76 174.867 158.76C175.374 158.76 175.854 158.64 176.307 158.4C176.761 158.16 177.147 157.827 177.467 157.4C177.894 156.84 178.107 156.08 178.107 155.12V153.4ZM187.083 149.96C187.083 148.84 186.896 148.08 186.523 147.68C186.176 147.253 185.776 147.04 185.323 147.04L189.643 145.12V156C189.643 157.173 189.763 158.053 190.003 158.64C190.243 159.227 190.509 159.627 190.803 159.84C191.096 160.027 191.243 160.08 191.243 160H185.483C185.483 160.08 185.629 160.027 185.923 159.84C186.216 159.627 186.483 159.227 186.723 158.64C186.963 158.053 187.083 157.173 187.083 156V149.96ZM188.323 140.28C187.736 140.28 187.269 140.093 186.923 139.72C186.603 139.32 186.443 138.867 186.443 138.36C186.443 137.853 186.603 137.413 186.923 137.04C187.269 136.64 187.736 136.44 188.323 136.44C188.909 136.44 189.363 136.64 189.683 137.04C190.029 137.413 190.203 137.853 190.203 138.36C190.203 138.867 190.029 139.32 189.683 139.72C189.363 140.093 188.909 140.28 188.323 140.28ZM205.628 135.4C205.628 134.28 205.441 133.52 205.068 133.12C204.721 132.693 204.321 132.48 203.868 132.48H203.628L208.188 130.4V155.48C208.188 156.6 208.361 157.373 208.708 157.8C209.081 158.2 209.495 158.4 209.948 158.4H210.188L205.628 160.48V157.88C205.308 158.413 204.721 158.987 203.868 159.6C203.041 160.187 201.948 160.48 200.588 160.48C199.415 160.48 198.361 160.187 197.428 159.6C196.495 159.013 195.761 158.2 195.228 157.16C194.695 156.12 194.428 154.96 194.428 153.68C194.428 152.053 194.761 150.613 195.428 149.36C196.095 148.107 196.961 147.107 198.028 146.36C199.228 145.533 200.535 145.12 201.948 145.12C202.881 145.12 203.655 145.253 204.268 145.52C204.881 145.76 205.335 145.987 205.628 146.2V135.4ZM197.308 152.48C197.308 154.16 197.695 155.627 198.468 156.88C199.268 158.107 200.415 158.72 201.908 158.72C202.468 158.72 203.041 158.573 203.628 158.28C204.215 157.96 204.695 157.533 205.068 157C205.441 156.467 205.628 155.867 205.628 155.2V150.48C205.628 149.627 205.521 148.933 205.308 148.4C205.121 147.867 204.815 147.467 204.388 147.2C203.721 146.773 202.908 146.56 201.948 146.56C200.615 146.56 199.508 147.107 198.628 148.2C197.748 149.267 197.308 150.693 197.308 152.48ZM228.777 160.48C227.471 160.48 226.484 160.04 225.817 159.16C225.151 158.253 224.817 157.173 224.817 155.92V147.04H222.577L227.377 141.6V145.44H232.497V147.04H227.377V155.48C227.377 156.493 227.644 157.267 228.177 157.8C228.711 158.307 229.324 158.56 230.017 158.56C230.551 158.56 231.071 158.4 231.577 158.08C232.084 157.76 232.497 157.32 232.817 156.76C232.417 159.24 231.071 160.48 228.777 160.48ZM239.526 147.48C240.112 146.787 240.832 146.227 241.686 145.8C242.539 145.347 243.432 145.12 244.366 145.12C245.806 145.12 246.952 145.587 247.806 146.52C248.686 147.427 249.126 148.747 249.126 150.48V156.04C249.126 157.16 249.246 158.013 249.486 158.6C249.726 159.187 249.992 159.587 250.286 159.8C250.579 160.013 250.726 160.08 250.726 160H244.966C244.966 160.08 245.112 160.027 245.406 159.84C245.699 159.627 245.966 159.227 246.206 158.64C246.446 158.053 246.566 157.173 246.566 156V151.44C246.566 150.533 246.446 149.813 246.206 149.28C245.966 148.747 245.646 148.307 245.246 147.96C244.632 147.453 243.899 147.2 243.046 147.2C242.086 147.2 241.259 147.52 240.566 148.16C239.872 148.773 239.526 149.64 239.526 150.76V156C239.526 157.147 239.646 158.013 239.886 158.6C240.126 159.187 240.392 159.587 240.686 159.8C241.006 160.013 241.166 160.08 241.166 160H235.406C235.406 160.08 235.552 160.027 235.846 159.84C236.139 159.627 236.392 159.227 236.606 158.64C236.846 158.027 236.966 157.147 236.966 156V135.4C236.966 134.28 236.779 133.52 236.406 133.12C236.059 132.693 235.659 132.48 235.206 132.48H234.966L239.526 130.4V147.48ZM265.96 160.48C265.107 160.453 264.387 160.227 263.8 159.8C263.214 159.373 262.88 158.88 262.8 158.32C262.32 159.013 261.68 159.547 260.88 159.92C260.107 160.293 259.334 160.48 258.56 160.48C257.334 160.48 256.307 160.133 255.48 159.44C254.654 158.72 254.24 157.787 254.24 156.64C254.24 153.68 257.014 152.2 262.56 152.2V151.76C262.56 150.293 262.347 149.213 261.92 148.52C261.334 147.533 260.374 147.04 259.04 147.04C258 147.04 257.134 147.347 256.44 147.96C255.774 148.573 255.44 149.373 255.44 150.36C255.28 150.093 255.147 149.853 255.04 149.64C254.96 149.427 254.92 149.133 254.92 148.76C254.92 147.8 255.374 146.96 256.28 146.24C257.187 145.493 258.374 145.12 259.84 145.12C261.92 145.12 263.4 145.813 264.28 147.2C264.574 147.627 264.787 148.16 264.92 148.8C265.054 149.44 265.12 150.28 265.12 151.32V156.08C265.12 156.907 265.347 157.547 265.8 158C266.28 158.453 266.947 158.68 267.8 158.68H268.32L265.96 160.48ZM262.56 153.4C260.427 153.4 258.987 153.667 258.24 154.2C257.494 154.733 257.12 155.453 257.12 156.36C257.12 157.107 257.32 157.693 257.72 158.12C258.12 158.547 258.654 158.76 259.32 158.76C259.827 158.76 260.307 158.64 260.76 158.4C261.214 158.16 261.6 157.827 261.92 157.4C262.347 156.84 262.56 156.08 262.56 155.12V153.4ZM275.496 160.48C274.189 160.48 273.203 160.04 272.536 159.16C271.869 158.253 271.536 157.173 271.536 155.92V147.04H269.296L274.096 141.6V145.44H279.216V147.04H274.096V155.48C274.096 156.493 274.363 157.267 274.896 157.8C275.429 158.307 276.043 158.56 276.736 158.56C277.269 158.56 277.789 158.4 278.296 158.08C278.803 157.76 279.216 157.32 279.536 156.76C279.136 159.24 277.789 160.48 275.496 160.48ZM297.879 160.48C296.572 160.48 295.585 160.04 294.919 159.16C294.252 158.253 293.919 157.173 293.919 155.92V147.04H291.679L296.479 141.6V145.44H301.599V147.04H296.479V155.48C296.479 156.493 296.745 157.267 297.279 157.8C297.812 158.307 298.425 158.56 299.119 158.56C299.652 158.56 300.172 158.4 300.679 158.08C301.185 157.76 301.599 157.32 301.919 156.76C301.519 159.24 300.172 160.48 297.879 160.48ZM308.627 147.48C309.214 146.787 309.934 146.227 310.787 145.8C311.641 145.347 312.534 145.12 313.467 145.12C314.907 145.12 316.054 145.587 316.907 146.52C317.787 147.427 318.227 148.747 318.227 150.48V156.04C318.227 157.16 318.347 158.013 318.587 158.6C318.827 159.187 319.094 159.587 319.387 159.8C319.681 160.013 319.827 160.08 319.827 160H314.067C314.067 160.08 314.214 160.027 314.507 159.84C314.801 159.627 315.067 159.227 315.307 158.64C315.547 158.053 315.667 157.173 315.667 156V151.44C315.667 150.533 315.547 149.813 315.307 149.28C315.067 148.747 314.747 148.307 314.347 147.96C313.734 147.453 313.001 147.2 312.147 147.2C311.187 147.2 310.361 147.52 309.667 148.16C308.974 148.773 308.627 149.64 308.627 150.76V156C308.627 157.147 308.747 158.013 308.987 158.6C309.227 159.187 309.494 159.587 309.787 159.8C310.107 160.013 310.267 160.08 310.267 160H304.507C304.507 160.08 304.654 160.027 304.947 159.84C305.241 159.627 305.494 159.227 305.707 158.64C305.947 158.027 306.067 157.147 306.067 156V135.4C306.067 134.28 305.881 133.52 305.507 133.12C305.161 132.693 304.761 132.48 304.307 132.48H304.067L308.627 130.4V147.48ZM329.942 160.48C328.502 160.48 327.262 160.133 326.222 159.44C325.182 158.72 324.382 157.8 323.822 156.68C323.289 155.533 323.022 154.32 323.022 153.04C323.022 151.387 323.342 149.96 323.982 148.76C324.649 147.56 325.502 146.653 326.542 146.04C327.582 145.427 328.662 145.12 329.782 145.12C331.382 145.12 332.755 145.707 333.902 146.88C335.075 148.027 335.715 149.627 335.822 151.68H325.422C325.422 152.96 325.662 154.093 326.142 155.08C326.622 156.04 327.262 156.787 328.062 157.32C328.889 157.827 329.782 158.08 330.742 158.08C333.249 158.08 334.942 157.28 335.822 155.68C335.582 157.12 334.929 158.28 333.862 159.16C332.795 160.04 331.489 160.48 329.942 160.48ZM329.502 146.44C328.462 146.44 327.569 146.813 326.822 147.56C326.075 148.28 325.622 149.227 325.462 150.4H332.742C332.742 149.173 332.409 148.213 331.742 147.52C331.102 146.8 330.355 146.44 329.502 146.44ZM356.352 160.48C354.912 160.48 353.645 160.133 352.552 159.44C351.485 158.747 350.672 157.827 350.112 156.68C349.552 155.533 349.272 154.32 349.272 153.04C349.272 151.707 349.552 150.44 350.112 149.24C350.699 148.013 351.539 147.027 352.632 146.28C353.725 145.507 355.019 145.12 356.512 145.12C358.299 145.12 359.592 145.507 360.392 146.28C361.192 147.053 361.752 147.867 362.072 148.72L359.432 150C359.272 149.04 358.872 148.227 358.232 147.56C357.619 146.893 356.859 146.56 355.952 146.56C354.645 146.56 353.632 147.067 352.912 148.08C352.192 149.093 351.832 150.333 351.832 151.8C351.832 152.84 352.059 153.853 352.512 154.84C352.992 155.8 353.659 156.587 354.512 157.2C355.392 157.813 356.419 158.12 357.592 158.12C358.552 158.12 359.459 157.907 360.312 157.48C361.192 157.027 361.885 156.427 362.392 155.68C362.099 157.173 361.405 158.347 360.312 159.2C359.219 160.053 357.899 160.48 356.352 160.48ZM366.888 149.96C366.888 148.84 366.701 148.08 366.327 147.68C365.981 147.253 365.581 147.04 365.128 147.04L369.448 145.12V156C369.448 157.173 369.568 158.053 369.808 158.64C370.048 159.227 370.314 159.627 370.608 159.84C370.901 160.027 371.048 160.08 371.048 160H365.288C365.288 160.08 365.434 160.027 365.728 159.84C366.021 159.627 366.288 159.227 366.528 158.64C366.768 158.053 366.888 157.173 366.888 156V149.96ZM368.128 140.28C367.541 140.28 367.074 140.093 366.728 139.72C366.408 139.32 366.248 138.867 366.248 138.36C366.248 137.853 366.408 137.413 366.728 137.04C367.074 136.64 367.541 136.44 368.128 136.44C368.714 136.44 369.168 136.64 369.488 137.04C369.834 137.413 370.008 137.853 370.008 138.36C370.008 138.867 369.834 139.32 369.488 139.72C369.168 140.093 368.714 140.28 368.128 140.28ZM378.393 147.84C379.006 147.013 379.726 146.36 380.553 145.88C381.406 145.373 382.299 145.12 383.233 145.12C384.673 145.12 385.819 145.587 386.673 146.52C387.553 147.427 387.993 148.747 387.993 150.48V156.04C387.993 157.16 388.113 158.013 388.353 158.6C388.593 159.187 388.859 159.587 389.153 159.8C389.446 160.013 389.593 160.08 389.593 160H383.833C383.833 160.08 383.979 160.027 384.273 159.84C384.566 159.627 384.833 159.227 385.073 158.64C385.313 158.053 385.433 157.173 385.433 156V151.44C385.433 150.533 385.313 149.813 385.073 149.28C384.833 148.747 384.513 148.307 384.113 147.96C383.499 147.453 382.766 147.2 381.913 147.2C380.953 147.2 380.126 147.52 379.433 148.16C378.739 148.773 378.393 149.64 378.393 150.76V156C378.393 157.147 378.513 158.013 378.753 158.6C378.993 159.187 379.259 159.587 379.553 159.8C379.873 160.013 380.033 160.08 380.033 160H374.273C374.273 160.08 374.419 160.027 374.713 159.84C375.006 159.627 375.259 159.227 375.473 158.64C375.713 158.027 375.833 157.147 375.833 156V149.96C375.833 148.84 375.646 148.08 375.273 147.68C374.926 147.253 374.526 147.04 374.073 147.04L378.393 145.12V147.84ZM399.708 160.48C398.268 160.48 397.028 160.133 395.988 159.44C394.948 158.72 394.148 157.8 393.588 156.68C393.054 155.533 392.788 154.32 392.788 153.04C392.788 151.387 393.108 149.96 393.748 148.76C394.414 147.56 395.268 146.653 396.308 146.04C397.348 145.427 398.428 145.12 399.548 145.12C401.148 145.12 402.521 145.707 403.668 146.88C404.841 148.027 405.481 149.627 405.588 151.68H395.188C395.188 152.96 395.428 154.093 395.908 155.08C396.388 156.04 397.028 156.787 397.828 157.32C398.654 157.827 399.548 158.08 400.508 158.08C403.014 158.08 404.708 157.28 405.588 155.68C405.348 157.12 404.694 158.28 403.628 159.16C402.561 160.04 401.254 160.48 399.708 160.48ZM399.268 146.44C398.228 146.44 397.334 146.813 396.588 147.56C395.841 148.28 395.388 149.227 395.228 150.4H402.508C402.508 149.173 402.174 148.213 401.508 147.52C400.868 146.8 400.121 146.44 399.268 146.44ZM412.963 147.84C413.63 147.013 414.376 146.36 415.203 145.88C416.03 145.373 416.896 145.12 417.803 145.12C418.79 145.12 419.656 145.36 420.403 145.84C421.176 146.293 421.736 146.96 422.083 147.84C422.803 146.933 423.616 146.253 424.523 145.8C425.456 145.347 426.416 145.12 427.403 145.12C428.843 145.12 429.99 145.587 430.843 146.52C431.723 147.427 432.163 148.747 432.163 150.48V156.04C432.163 157.507 432.35 158.52 432.723 159.08C433.096 159.64 433.43 159.947 433.723 160H428.043C428.363 159.947 428.696 159.64 429.043 159.08C429.416 158.52 429.603 157.493 429.603 156V151.44C429.603 150.533 429.483 149.813 429.243 149.28C429.003 148.747 428.683 148.307 428.283 147.96C427.67 147.453 426.936 147.2 426.083 147.2C425.15 147.2 424.323 147.52 423.603 148.16C422.91 148.773 422.563 149.64 422.563 150.76V156C422.563 157.493 422.736 158.52 423.083 159.08C423.456 159.64 423.803 159.947 424.123 160H418.443C418.763 159.947 419.096 159.64 419.443 159.08C419.816 158.52 420.003 157.493 420.003 156V151.44C420.003 150.533 419.883 149.813 419.643 149.28C419.403 148.747 419.083 148.307 418.683 147.96C418.07 147.453 417.336 147.2 416.483 147.2C415.523 147.2 414.696 147.52 414.003 148.16C413.31 148.773 412.963 149.64 412.963 150.76V156C412.963 157.52 413.15 158.56 413.523 159.12C413.896 159.653 414.243 159.947 414.563 160H408.883C409.203 159.947 409.536 159.64 409.883 159.08C410.23 158.52 410.403 157.493 410.403 156V149.96C410.403 148.84 410.216 148.08 409.843 147.68C409.496 147.253 409.096 147.04 408.643 147.04L412.963 145.12V147.84ZM449.007 160.48C448.154 160.453 447.434 160.227 446.847 159.8C446.261 159.373 445.927 158.88 445.847 158.32C445.367 159.013 444.727 159.547 443.927 159.92C443.154 160.293 442.381 160.48 441.607 160.48C440.381 160.48 439.354 160.133 438.527 159.44C437.701 158.72 437.287 157.787 437.287 156.64C437.287 153.68 440.061 152.2 445.607 152.2V151.76C445.607 150.293 445.394 149.213 444.967 148.52C444.381 147.533 443.421 147.04 442.087 147.04C441.047 147.04 440.181 147.347 439.487 147.96C438.821 148.573 438.487 149.373 438.487 150.36C438.327 150.093 438.194 149.853 438.087 149.64C438.007 149.427 437.967 149.133 437.967 148.76C437.967 147.8 438.421 146.96 439.327 146.24C440.234 145.493 441.421 145.12 442.887 145.12C444.967 145.12 446.447 145.813 447.327 147.2C447.621 147.627 447.834 148.16 447.967 148.8C448.101 149.44 448.167 150.28 448.167 151.32V156.08C448.167 156.907 448.394 157.547 448.847 158C449.327 158.453 449.994 158.68 450.847 158.68H451.367L449.007 160.48ZM445.607 153.4C443.474 153.4 442.034 153.667 441.287 154.2C440.541 154.733 440.167 155.453 440.167 156.36C440.167 157.107 440.367 157.693 440.767 158.12C441.167 158.547 441.701 158.76 442.367 158.76C442.874 158.76 443.354 158.64 443.807 158.4C444.261 158.16 444.647 157.827 444.967 157.4C445.394 156.84 445.607 156.08 445.607 155.12V153.4ZM458.543 160.48C457.236 160.48 456.249 160.04 455.583 159.16C454.916 158.253 454.583 157.173 454.583 155.92V147.04H452.343L457.143 141.6V145.44H462.263V147.04H457.143V155.48C457.143 156.493 457.409 157.267 457.943 157.8C458.476 158.307 459.089 158.56 459.783 158.56C460.316 158.56 460.836 158.4 461.343 158.08C461.849 157.76 462.263 157.32 462.583 156.76C462.183 159.24 460.836 160.48 458.543 160.48ZM466.731 149.96C466.731 148.84 466.545 148.08 466.171 147.68C465.825 147.253 465.425 147.04 464.971 147.04L469.291 145.12V156C469.291 157.173 469.411 158.053 469.651 158.64C469.891 159.227 470.158 159.627 470.451 159.84C470.745 160.027 470.891 160.08 470.891 160H465.131C465.131 160.08 465.278 160.027 465.571 159.84C465.865 159.627 466.131 159.227 466.371 158.64C466.611 158.053 466.731 157.173 466.731 156V149.96ZM467.971 140.28C467.385 140.28 466.918 140.093 466.571 139.72C466.251 139.32 466.091 138.867 466.091 138.36C466.091 137.853 466.251 137.413 466.571 137.04C466.918 136.64 467.385 136.44 467.971 136.44C468.558 136.44 469.011 136.64 469.331 137.04C469.678 137.413 469.851 137.853 469.851 138.36C469.851 138.867 469.678 139.32 469.331 139.72C469.011 140.093 468.558 140.28 467.971 140.28ZM481.157 160.48C479.717 160.48 478.45 160.133 477.357 159.44C476.29 158.747 475.477 157.827 474.917 156.68C474.357 155.533 474.077 154.32 474.077 153.04C474.077 151.707 474.357 150.44 474.917 149.24C475.503 148.013 476.343 147.027 477.437 146.28C478.53 145.507 479.823 145.12 481.317 145.12C483.103 145.12 484.397 145.507 485.197 146.28C485.997 147.053 486.557 147.867 486.877 148.72L484.237 150C484.077 149.04 483.677 148.227 483.037 147.56C482.423 146.893 481.663 146.56 480.757 146.56C479.45 146.56 478.437 147.067 477.717 148.08C476.997 149.093 476.637 150.333 476.637 151.8C476.637 152.84 476.863 153.853 477.317 154.84C477.797 155.8 478.463 156.587 479.317 157.2C480.197 157.813 481.223 158.12 482.397 158.12C483.357 158.12 484.263 157.907 485.117 157.48C485.997 157.027 486.69 156.427 487.197 155.68C486.903 157.173 486.21 158.347 485.117 159.2C484.023 160.053 482.703 160.48 481.157 160.48ZM77 206.48L71.56 194.2C71.2133 193.427 70.8533 192.84 70.48 192.44C70.1333 192.013 69.8267 191.733 69.56 191.6C69.2933 191.467 69.16 191.413 69.16 191.44H75.2C75.1467 191.44 75.0267 191.48 74.84 191.56C74.6533 191.613 74.4667 191.747 74.28 191.96C74.12 192.147 74.04 192.427 74.04 192.8C74.04 193.253 74.1733 193.76 74.44 194.32L77.6 201.56L80.56 194.72C80.7467 194.24 80.84 193.747 80.84 193.24C80.84 192.76 80.7333 192.36 80.52 192.04C80.3333 191.72 80.0133 191.52 79.56 191.44H84.88C84.88 191.413 84.7333 191.467 84.44 191.6C84.1733 191.733 83.8533 192.027 83.48 192.48C83.1333 192.907 82.7733 193.533 82.4 194.36L77 206.48ZM86.6156 199.16C86.6156 197.773 86.949 196.467 87.6156 195.24C88.309 193.987 89.2556 192.987 90.4556 192.24C91.6556 191.493 92.989 191.12 94.4556 191.12C95.869 191.12 97.149 191.453 98.2956 192.12C99.4423 192.76 100.336 193.64 100.976 194.76C101.642 195.88 101.976 197.107 101.976 198.44C101.976 199.827 101.629 201.147 100.936 202.4C100.269 203.627 99.3356 204.613 98.1356 205.36C96.9356 206.107 95.6023 206.48 94.1356 206.48C92.7223 206.48 91.4423 206.16 90.2956 205.52C89.149 204.853 88.2423 203.96 87.5756 202.84C86.9356 201.72 86.6156 200.493 86.6156 199.16ZM99.0956 199.6C99.0956 198.48 98.8823 197.373 98.4556 196.28C98.029 195.187 97.429 194.293 96.6556 193.6C95.8823 192.907 94.989 192.56 93.9756 192.56C92.5623 192.56 91.4556 193.093 90.6556 194.16C89.8823 195.227 89.4956 196.507 89.4956 198C89.4956 199.12 89.709 200.227 90.1356 201.32C90.5623 202.413 91.1623 203.307 91.9356 204C92.709 204.693 93.6023 205.04 94.6156 205.04C96.029 205.04 97.1223 204.507 97.8956 203.44C98.6956 202.373 99.0956 201.093 99.0956 199.6ZM106.77 195.96C106.77 194.84 106.584 194.08 106.21 193.68C105.864 193.253 105.464 193.04 105.01 193.04L109.33 191.12V202C109.33 203.173 109.45 204.053 109.69 204.64C109.93 205.227 110.197 205.627 110.49 205.84C110.784 206.027 110.93 206.08 110.93 206H105.17C105.17 206.08 105.317 206.027 105.61 205.84C105.904 205.627 106.17 205.227 106.41 204.64C106.65 204.053 106.77 203.173 106.77 202V195.96ZM108.01 186.28C107.424 186.28 106.957 186.093 106.61 185.72C106.29 185.32 106.13 184.867 106.13 184.36C106.13 183.853 106.29 183.413 106.61 183.04C106.957 182.64 107.424 182.44 108.01 182.44C108.597 182.44 109.05 182.64 109.37 183.04C109.717 183.413 109.89 183.853 109.89 184.36C109.89 184.867 109.717 185.32 109.37 185.72C109.05 186.093 108.597 186.28 108.01 186.28ZM121.196 206.48C119.756 206.48 118.489 206.133 117.396 205.44C116.329 204.747 115.516 203.827 114.956 202.68C114.396 201.533 114.116 200.32 114.116 199.04C114.116 197.707 114.396 196.44 114.956 195.24C115.542 194.013 116.382 193.027 117.476 192.28C118.569 191.507 119.862 191.12 121.356 191.12C123.142 191.12 124.436 191.507 125.236 192.28C126.036 193.053 126.596 193.867 126.916 194.72L124.276 196C124.116 195.04 123.716 194.227 123.076 193.56C122.462 192.893 121.702 192.56 120.796 192.56C119.489 192.56 118.476 193.067 117.756 194.08C117.036 195.093 116.676 196.333 116.676 197.8C116.676 198.84 116.902 199.853 117.356 200.84C117.836 201.8 118.502 202.587 119.356 203.2C120.236 203.813 121.262 204.12 122.436 204.12C123.396 204.12 124.302 203.907 125.156 203.48C126.036 203.027 126.729 202.427 127.236 201.68C126.942 203.173 126.249 204.347 125.156 205.2C124.062 206.053 122.742 206.48 121.196 206.48ZM137.051 206.48C135.611 206.48 134.371 206.133 133.331 205.44C132.291 204.72 131.491 203.8 130.931 202.68C130.398 201.533 130.131 200.32 130.131 199.04C130.131 197.387 130.451 195.96 131.091 194.76C131.758 193.56 132.611 192.653 133.651 192.04C134.691 191.427 135.771 191.12 136.891 191.12C138.491 191.12 139.865 191.707 141.011 192.88C142.185 194.027 142.825 195.627 142.931 197.68H132.531C132.531 198.96 132.771 200.093 133.251 201.08C133.731 202.04 134.371 202.787 135.171 203.32C135.998 203.827 136.891 204.08 137.851 204.08C140.358 204.08 142.051 203.28 142.931 201.68C142.691 203.12 142.038 204.28 140.971 205.16C139.905 206.04 138.598 206.48 137.051 206.48ZM136.611 192.44C135.571 192.44 134.678 192.813 133.931 193.56C133.185 194.28 132.731 195.227 132.571 196.4H139.851C139.851 195.173 139.518 194.213 138.851 193.52C138.211 192.8 137.465 192.44 136.611 192.44ZM156.381 199.16C156.381 197.773 156.715 196.467 157.381 195.24C158.075 193.987 159.021 192.987 160.221 192.24C161.421 191.493 162.755 191.12 164.221 191.12C165.635 191.12 166.915 191.453 168.061 192.12C169.208 192.76 170.101 193.64 170.741 194.76C171.408 195.88 171.741 197.107 171.741 198.44C171.741 199.827 171.395 201.147 170.701 202.4C170.035 203.627 169.101 204.613 167.901 205.36C166.701 206.107 165.368 206.48 163.901 206.48C162.488 206.48 161.208 206.16 160.061 205.52C158.915 204.853 158.008 203.96 157.341 202.84C156.701 201.72 156.381 200.493 156.381 199.16ZM168.861 199.6C168.861 198.48 168.648 197.373 168.221 196.28C167.795 195.187 167.195 194.293 166.421 193.6C165.648 192.907 164.755 192.56 163.741 192.56C162.328 192.56 161.221 193.093 160.421 194.16C159.648 195.227 159.261 196.507 159.261 198C159.261 199.12 159.475 200.227 159.901 201.32C160.328 202.413 160.928 203.307 161.701 204C162.475 204.693 163.368 205.04 164.381 205.04C165.795 205.04 166.888 204.507 167.661 203.44C168.461 202.373 168.861 201.093 168.861 199.6ZM186.736 179.88C186.256 179.4 185.669 179.027 184.976 178.76C184.309 178.467 183.629 178.32 182.936 178.32C181.603 178.32 180.629 178.8 180.016 179.76C179.403 180.693 179.096 181.907 179.096 183.4V191.44H183.256V193.04H179.096V202C179.096 203.147 179.216 204.027 179.456 204.64C179.696 205.227 179.963 205.627 180.256 205.84C180.549 206.027 180.696 206.08 180.696 206H174.896C174.896 206.08 175.043 206.027 175.336 205.84C175.656 205.627 175.936 205.227 176.176 204.64C176.416 204.027 176.536 203.147 176.536 202V193.04H174.296V191.44H176.536V185.88C176.536 184.013 176.843 182.373 177.456 180.96C178.096 179.52 178.976 178.4 180.096 177.6C181.243 176.8 182.549 176.4 184.016 176.4C185.163 176.4 186.069 176.52 186.736 176.76V179.88ZM195.405 199.16C195.405 197.773 195.738 196.467 196.405 195.24C197.098 193.987 198.045 192.987 199.245 192.24C200.445 191.493 201.778 191.12 203.245 191.12C204.658 191.12 205.938 191.453 207.085 192.12C208.231 192.76 209.125 193.64 209.765 194.76C210.431 195.88 210.765 197.107 210.765 198.44C210.765 199.827 210.418 201.147 209.725 202.4C209.058 203.627 208.125 204.613 206.925 205.36C205.725 206.107 204.391 206.48 202.925 206.48C201.511 206.48 200.231 206.16 199.085 205.52C197.938 204.853 197.031 203.96 196.365 202.84C195.725 201.72 195.405 200.493 195.405 199.16ZM207.885 199.6C207.885 198.48 207.671 197.373 207.245 196.28C206.818 195.187 206.218 194.293 205.445 193.6C204.671 192.907 203.778 192.56 202.765 192.56C201.351 192.56 200.245 193.093 199.445 194.16C198.671 195.227 198.285 196.507 198.285 198C198.285 199.12 198.498 200.227 198.925 201.32C199.351 202.413 199.951 203.307 200.725 204C201.498 204.693 202.391 205.04 203.405 205.04C204.818 205.04 205.911 204.507 206.685 203.44C207.485 202.373 207.885 201.093 207.885 199.6ZM225.159 203.68C223.826 205.547 222.186 206.48 220.239 206.48C218.879 206.48 217.759 206.04 216.879 205.16C215.999 204.253 215.559 202.88 215.559 201.04V195.36C215.559 194.267 215.386 193.427 215.039 192.84C214.719 192.253 214.346 191.853 213.919 191.64C213.493 191.427 213.279 191.36 213.279 191.44H218.119V200.44C218.119 201.693 218.453 202.653 219.119 203.32C219.813 203.987 220.626 204.32 221.559 204.32C222.493 204.32 223.319 204.013 224.039 203.4C224.786 202.76 225.159 201.933 225.159 200.92V195.08C225.159 194.04 225.026 193.253 224.759 192.72C224.493 192.187 224.186 191.827 223.839 191.64C223.493 191.453 223.319 191.387 223.319 191.44H227.719V201.48C227.719 202.6 227.893 203.373 228.239 203.8C228.613 204.2 229.026 204.4 229.479 204.4H229.719L225.159 206.48V203.68ZM236.674 194.76C237.074 193.907 237.727 193.093 238.634 192.32C239.567 191.52 240.501 191.12 241.434 191.12C242.021 191.12 242.461 191.2 242.754 191.36V194.64C242.167 193.92 241.341 193.56 240.274 193.56C239.154 193.56 238.274 194.053 237.634 195.04C236.994 196 236.674 197.24 236.674 198.76V202C236.674 203.493 236.847 204.52 237.194 205.08C237.541 205.64 237.874 205.947 238.194 206H232.554C232.874 205.947 233.207 205.653 233.554 205.12C233.927 204.56 234.114 203.52 234.114 202V195.96C234.114 194.84 233.927 194.08 233.554 193.68C233.207 193.253 232.807 193.04 232.354 193.04L236.674 191.12V194.76ZM269.921 191.44V193.04H266.601C267.561 194.213 268.041 195.413 268.041 196.64C268.041 197.68 267.788 198.653 267.281 199.56C266.774 200.44 266.041 201.147 265.081 201.68C264.148 202.213 263.054 202.48 261.801 202.48C261.161 202.48 260.521 202.427 259.881 202.32C258.921 202.853 258.441 203.453 258.441 204.12C258.441 204.387 258.508 204.64 258.641 204.88C258.774 205.12 258.974 205.293 259.241 205.4C259.614 205.56 260.094 205.68 260.681 205.76C261.268 205.813 261.881 205.853 262.521 205.88C263.161 205.907 263.614 205.92 263.881 205.92C265.961 206 267.441 206.4 268.321 207.12C269.201 207.84 269.641 208.707 269.641 209.72C269.641 210.787 269.294 211.76 268.601 212.64C267.934 213.547 266.961 214.253 265.681 214.76C264.401 215.293 262.921 215.56 261.241 215.56C260.014 215.56 258.948 215.387 258.041 215.04C257.134 214.693 256.441 214.24 255.961 213.68C255.481 213.12 255.241 212.52 255.241 211.88C255.241 211.027 255.601 210.227 256.321 209.48C257.068 208.76 257.988 208.213 259.081 207.84C258.201 207.787 257.494 207.493 256.961 206.96C256.454 206.427 256.201 205.853 256.201 205.24C256.201 204.573 256.428 204 256.881 203.52C257.334 203.013 257.988 202.48 258.841 201.92C257.881 201.493 257.148 200.827 256.641 199.92C256.134 199.013 255.881 198.053 255.881 197.04C255.881 196.053 256.121 195.107 256.601 194.2C257.108 193.293 257.841 192.56 258.801 192C259.788 191.413 260.948 191.12 262.281 191.12C262.974 191.12 263.694 191.227 264.441 191.44H269.921ZM261.841 192.56C260.854 192.56 260.041 192.92 259.401 193.64C258.761 194.333 258.441 195.227 258.441 196.32C258.441 197.68 258.788 198.8 259.481 199.68C260.201 200.533 261.068 200.96 262.081 200.96C263.148 200.96 263.974 200.613 264.561 199.92C265.174 199.2 265.481 198.253 265.481 197.08C265.481 195.747 265.121 194.667 264.401 193.84C263.708 192.987 262.854 192.56 261.841 192.56ZM261.161 208.32C260.174 208.32 259.361 208.627 258.721 209.24C258.108 209.853 257.801 210.533 257.801 211.28C257.801 212 258.201 212.613 259.001 213.12C259.828 213.653 260.921 213.92 262.281 213.92C263.908 213.92 265.161 213.613 266.041 213C266.948 212.387 267.401 211.627 267.401 210.72C267.401 209.92 266.974 209.32 266.121 208.92C265.268 208.52 263.894 208.32 262.001 208.32H261.161ZM279.122 206.48C277.682 206.48 276.442 206.133 275.402 205.44C274.362 204.72 273.562 203.8 273.002 202.68C272.468 201.533 272.202 200.32 272.202 199.04C272.202 197.387 272.522 195.96 273.162 194.76C273.828 193.56 274.682 192.653 275.722 192.04C276.762 191.427 277.842 191.12 278.962 191.12C280.562 191.12 281.935 191.707 283.082 192.88C284.255 194.027 284.895 195.627 285.002 197.68H274.602C274.602 198.96 274.842 200.093 275.322 201.08C275.802 202.04 276.442 202.787 277.242 203.32C278.068 203.827 278.962 204.08 279.922 204.08C282.428 204.08 284.122 203.28 285.002 201.68C284.762 203.12 284.108 204.28 283.042 205.16C281.975 206.04 280.668 206.48 279.122 206.48ZM278.682 192.44C277.642 192.44 276.748 192.813 276.002 193.56C275.255 194.28 274.802 195.227 274.642 196.4H281.922C281.922 195.173 281.588 194.213 280.922 193.52C280.282 192.8 279.535 192.44 278.682 192.44ZM292.377 193.84C292.991 193.013 293.711 192.36 294.537 191.88C295.391 191.373 296.284 191.12 297.217 191.12C298.657 191.12 299.804 191.587 300.657 192.52C301.537 193.427 301.977 194.747 301.977 196.48V202.04C301.977 203.16 302.097 204.013 302.337 204.6C302.577 205.187 302.844 205.587 303.137 205.8C303.431 206.013 303.577 206.08 303.577 206H297.817C297.817 206.08 297.964 206.027 298.257 205.84C298.551 205.627 298.817 205.227 299.057 204.64C299.297 204.053 299.417 203.173 299.417 202V197.44C299.417 196.533 299.297 195.813 299.057 195.28C298.817 194.747 298.497 194.307 298.097 193.96C297.484 193.453 296.751 193.2 295.897 193.2C294.937 193.2 294.111 193.52 293.417 194.16C292.724 194.773 292.377 195.64 292.377 196.76V202C292.377 203.147 292.497 204.013 292.737 204.6C292.977 205.187 293.244 205.587 293.537 205.8C293.857 206.013 294.017 206.08 294.017 206H288.257C288.257 206.08 288.404 206.027 288.697 205.84C288.991 205.627 289.244 205.227 289.457 204.64C289.697 204.027 289.817 203.147 289.817 202V195.96C289.817 194.84 289.631 194.08 289.257 193.68C288.911 193.253 288.511 193.04 288.057 193.04L292.377 191.12V193.84ZM313.692 206.48C312.252 206.48 311.012 206.133 309.972 205.44C308.932 204.72 308.132 203.8 307.572 202.68C307.039 201.533 306.772 200.32 306.772 199.04C306.772 197.387 307.092 195.96 307.732 194.76C308.399 193.56 309.252 192.653 310.292 192.04C311.332 191.427 312.412 191.12 313.532 191.12C315.132 191.12 316.505 191.707 317.652 192.88C318.825 194.027 319.465 195.627 319.572 197.68H309.172C309.172 198.96 309.412 200.093 309.892 201.08C310.372 202.04 311.012 202.787 311.812 203.32C312.639 203.827 313.532 204.08 314.492 204.08C316.999 204.08 318.692 203.28 319.572 201.68C319.332 203.12 318.679 204.28 317.612 205.16C316.545 206.04 315.239 206.48 313.692 206.48ZM313.252 192.44C312.212 192.44 311.319 192.813 310.572 193.56C309.825 194.28 309.372 195.227 309.212 196.4H316.492C316.492 195.173 316.159 194.213 315.492 193.52C314.852 192.8 314.105 192.44 313.252 192.44ZM326.948 194.76C327.348 193.907 328.001 193.093 328.908 192.32C329.841 191.52 330.774 191.12 331.708 191.12C332.294 191.12 332.734 191.2 333.028 191.36V194.64C332.441 193.92 331.614 193.56 330.548 193.56C329.428 193.56 328.548 194.053 327.908 195.04C327.268 196 326.948 197.24 326.948 198.76V202C326.948 203.493 327.121 204.52 327.468 205.08C327.814 205.64 328.148 205.947 328.468 206H322.828C323.148 205.947 323.481 205.653 323.827 205.12C324.201 204.56 324.388 203.52 324.388 202V195.96C324.388 194.84 324.201 194.08 323.827 193.68C323.481 193.253 323.081 193.04 322.628 193.04L326.948 191.12V194.76ZM347.64 206.48C346.787 206.453 346.067 206.227 345.48 205.8C344.893 205.373 344.56 204.88 344.48 204.32C344 205.013 343.36 205.547 342.56 205.92C341.787 206.293 341.013 206.48 340.24 206.48C339.013 206.48 337.987 206.133 337.16 205.44C336.333 204.72 335.92 203.787 335.92 202.64C335.92 199.68 338.693 198.2 344.24 198.2V197.76C344.24 196.293 344.027 195.213 343.6 194.52C343.013 193.533 342.053 193.04 340.72 193.04C339.68 193.04 338.813 193.347 338.12 193.96C337.453 194.573 337.12 195.373 337.12 196.36C336.96 196.093 336.827 195.853 336.72 195.64C336.64 195.427 336.6 195.133 336.6 194.76C336.6 193.8 337.053 192.96 337.96 192.24C338.867 191.493 340.053 191.12 341.52 191.12C343.6 191.12 345.08 191.813 345.96 193.2C346.253 193.627 346.467 194.16 346.6 194.8C346.733 195.44 346.8 196.28 346.8 197.32V202.08C346.8 202.907 347.027 203.547 347.48 204C347.96 204.453 348.627 204.68 349.48 204.68H350L347.64 206.48ZM344.24 199.4C342.107 199.4 340.667 199.667 339.92 200.2C339.173 200.733 338.8 201.453 338.8 202.36C338.8 203.107 339 203.693 339.4 204.12C339.8 204.547 340.333 204.76 341 204.76C341.507 204.76 341.987 204.64 342.44 204.4C342.893 204.16 343.28 203.827 343.6 203.4C344.027 202.84 344.24 202.08 344.24 201.12V199.4ZM357.176 206.48C355.869 206.48 354.882 206.04 354.216 205.16C353.549 204.253 353.216 203.173 353.216 201.92V193.04H350.976L355.776 187.6V191.44H360.896V193.04H355.776V201.48C355.776 202.493 356.042 203.267 356.576 203.8C357.109 204.307 357.722 204.56 358.416 204.56C358.949 204.56 359.469 204.4 359.976 204.08C360.482 203.76 360.896 203.32 361.216 202.76C360.816 205.24 359.469 206.48 357.176 206.48ZM365.364 195.96C365.364 194.84 365.177 194.08 364.804 193.68C364.457 193.253 364.057 193.04 363.604 193.04L367.924 191.12V202C367.924 203.173 368.044 204.053 368.284 204.64C368.524 205.227 368.791 205.627 369.084 205.84C369.377 206.027 369.524 206.08 369.524 206H363.764C363.764 206.08 363.911 206.027 364.204 205.84C364.497 205.627 364.764 205.227 365.004 204.64C365.244 204.053 365.364 203.173 365.364 202V195.96ZM366.604 186.28C366.017 186.28 365.551 186.093 365.204 185.72C364.884 185.32 364.724 184.867 364.724 184.36C364.724 183.853 364.884 183.413 365.204 183.04C365.551 182.64 366.017 182.44 366.604 182.44C367.191 182.44 367.644 182.64 367.964 183.04C368.311 183.413 368.484 183.853 368.484 184.36C368.484 184.867 368.311 185.32 367.964 185.72C367.644 186.093 367.191 186.28 366.604 186.28ZM372.709 199.16C372.709 197.773 373.043 196.467 373.709 195.24C374.403 193.987 375.349 192.987 376.549 192.24C377.749 191.493 379.083 191.12 380.549 191.12C381.963 191.12 383.243 191.453 384.389 192.12C385.536 192.76 386.429 193.64 387.069 194.76C387.736 195.88 388.069 197.107 388.069 198.44C388.069 199.827 387.723 201.147 387.029 202.4C386.363 203.627 385.429 204.613 384.229 205.36C383.029 206.107 381.696 206.48 380.229 206.48C378.816 206.48 377.536 206.16 376.389 205.52C375.243 204.853 374.336 203.96 373.669 202.84C373.029 201.72 372.709 200.493 372.709 199.16ZM385.189 199.6C385.189 198.48 384.976 197.373 384.549 196.28C384.123 195.187 383.523 194.293 382.749 193.6C381.976 192.907 381.083 192.56 380.069 192.56C378.656 192.56 377.549 193.093 376.749 194.16C375.976 195.227 375.589 196.507 375.589 198C375.589 199.12 375.803 200.227 376.229 201.32C376.656 202.413 377.256 203.307 378.029 204C378.803 204.693 379.696 205.04 380.709 205.04C382.123 205.04 383.216 204.507 383.989 203.44C384.789 202.373 385.189 201.093 385.189 199.6ZM395.424 193.84C396.037 193.013 396.757 192.36 397.584 191.88C398.437 191.373 399.331 191.12 400.264 191.12C401.704 191.12 402.851 191.587 403.704 192.52C404.584 193.427 405.024 194.747 405.024 196.48V202.04C405.024 203.16 405.144 204.013 405.384 204.6C405.624 205.187 405.891 205.587 406.184 205.8C406.477 206.013 406.624 206.08 406.624 206H400.864C400.864 206.08 401.011 206.027 401.304 205.84C401.597 205.627 401.864 205.227 402.104 204.64C402.344 204.053 402.464 203.173 402.464 202V197.44C402.464 196.533 402.344 195.813 402.104 195.28C401.864 194.747 401.544 194.307 401.144 193.96C400.531 193.453 399.797 193.2 398.944 193.2C397.984 193.2 397.157 193.52 396.464 194.16C395.771 194.773 395.424 195.64 395.424 196.76V202C395.424 203.147 395.544 204.013 395.784 204.6C396.024 205.187 396.291 205.587 396.584 205.8C396.904 206.013 397.064 206.08 397.064 206H391.304C391.304 206.08 391.451 206.027 391.744 205.84C392.037 205.627 392.291 205.227 392.504 204.64C392.744 204.027 392.864 203.147 392.864 202V195.96C392.864 194.84 392.677 194.08 392.304 193.68C391.957 193.253 391.557 193.04 391.104 193.04L395.424 191.12V193.84ZM421.653 195.96C421.653 194.84 421.466 194.08 421.093 193.68C420.746 193.253 420.346 193.04 419.893 193.04L424.213 191.12V202C424.213 203.173 424.333 204.053 424.573 204.64C424.813 205.227 425.08 205.627 425.373 205.84C425.666 206.027 425.813 206.08 425.813 206H420.053C420.053 206.08 420.2 206.027 420.493 205.84C420.786 205.627 421.053 205.227 421.293 204.64C421.533 204.053 421.653 203.173 421.653 202V195.96ZM422.893 186.28C422.306 186.28 421.84 186.093 421.493 185.72C421.173 185.32 421.013 184.867 421.013 184.36C421.013 183.853 421.173 183.413 421.493 183.04C421.84 182.64 422.306 182.44 422.893 182.44C423.48 182.44 423.933 182.64 424.253 183.04C424.6 183.413 424.773 183.853 424.773 184.36C424.773 184.867 424.6 185.32 424.253 185.72C423.933 186.093 423.48 186.28 422.893 186.28ZM434.238 206.48C433.438 206.48 432.612 206.347 431.758 206.08C430.905 205.813 430.198 205.467 429.638 205.04V201.52C430.145 202.773 430.825 203.68 431.678 204.24C432.558 204.773 433.505 205.04 434.518 205.04C435.345 205.04 436.012 204.813 436.518 204.36C437.052 203.907 437.318 203.413 437.318 202.88C437.318 202.293 437.052 201.8 436.518 201.4C435.985 201 435.172 200.547 434.078 200.04C432.665 199.373 431.572 198.72 430.798 198.08C430.025 197.44 429.638 196.573 429.638 195.48C429.638 194.28 430.092 193.253 430.998 192.4C431.905 191.547 433.092 191.12 434.558 191.12C435.572 191.12 436.452 191.24 437.198 191.48C437.945 191.72 438.505 191.987 438.878 192.28L438.238 195.28C437.918 194.373 437.385 193.693 436.638 193.24C435.892 192.787 435.105 192.56 434.278 192.56C433.558 192.56 432.958 192.773 432.478 193.2C432.025 193.627 431.798 194.107 431.798 194.64C431.798 195.36 432.078 195.933 432.638 196.36C433.225 196.787 434.105 197.253 435.278 197.76C436.665 198.347 437.718 198.947 438.438 199.56C439.185 200.147 439.558 200.987 439.558 202.08C439.558 202.853 439.345 203.573 438.918 204.24C438.492 204.907 437.865 205.453 437.038 205.88C436.238 206.28 435.305 206.48 434.238 206.48ZM467.343 191.44V193.04H464.023C464.983 194.213 465.463 195.413 465.463 196.64C465.463 197.68 465.209 198.653 464.703 199.56C464.196 200.44 463.463 201.147 462.503 201.68C461.569 202.213 460.476 202.48 459.223 202.48C458.583 202.48 457.943 202.427 457.303 202.32C456.343 202.853 455.863 203.453 455.863 204.12C455.863 204.387 455.929 204.64 456.063 204.88C456.196 205.12 456.396 205.293 456.663 205.4C457.036 205.56 457.516 205.68 458.103 205.76C458.689 205.813 459.303 205.853 459.943 205.88C460.583 205.907 461.036 205.92 461.303 205.92C463.383 206 464.863 206.4 465.743 207.12C466.623 207.84 467.063 208.707 467.063 209.72C467.063 210.787 466.716 211.76 466.023 212.64C465.356 213.547 464.383 214.253 463.103 214.76C461.823 215.293 460.343 215.56 458.663 215.56C457.436 215.56 456.369 215.387 455.463 215.04C454.556 214.693 453.863 214.24 453.383 213.68C452.903 213.12 452.663 212.52 452.663 211.88C452.663 211.027 453.023 210.227 453.743 209.48C454.489 208.76 455.409 208.213 456.503 207.84C455.623 207.787 454.916 207.493 454.383 206.96C453.876 206.427 453.623 205.853 453.623 205.24C453.623 204.573 453.849 204 454.303 203.52C454.756 203.013 455.409 202.48 456.263 201.92C455.303 201.493 454.569 200.827 454.063 199.92C453.556 199.013 453.303 198.053 453.303 197.04C453.303 196.053 453.543 195.107 454.023 194.2C454.529 193.293 455.263 192.56 456.223 192C457.209 191.413 458.369 191.12 459.703 191.12C460.396 191.12 461.116 191.227 461.863 191.44H467.343ZM459.263 192.56C458.276 192.56 457.463 192.92 456.823 193.64C456.183 194.333 455.863 195.227 455.863 196.32C455.863 197.68 456.209 198.8 456.903 199.68C457.623 200.533 458.489 200.96 459.503 200.96C460.569 200.96 461.396 200.613 461.983 199.92C462.596 199.2 462.903 198.253 462.903 197.08C462.903 195.747 462.543 194.667 461.823 193.84C461.129 192.987 460.276 192.56 459.263 192.56ZM458.583 208.32C457.596 208.32 456.783 208.627 456.143 209.24C455.529 209.853 455.223 210.533 455.223 211.28C455.223 212 455.623 212.613 456.423 213.12C457.249 213.653 458.343 213.92 459.703 213.92C461.329 213.92 462.583 213.613 463.463 213C464.369 212.387 464.823 211.627 464.823 210.72C464.823 209.92 464.396 209.32 463.543 208.92C462.689 208.52 461.316 208.32 459.423 208.32H458.583ZM469.623 199.16C469.623 197.773 469.957 196.467 470.623 195.24C471.317 193.987 472.263 192.987 473.463 192.24C474.663 191.493 475.997 191.12 477.463 191.12C478.877 191.12 480.157 191.453 481.303 192.12C482.45 192.76 483.343 193.64 483.983 194.76C484.65 195.88 484.983 197.107 484.983 198.44C484.983 199.827 484.637 201.147 483.943 202.4C483.277 203.627 482.343 204.613 481.143 205.36C479.943 206.107 478.61 206.48 477.143 206.48C475.73 206.48 474.45 206.16 473.303 205.52C472.157 204.853 471.25 203.96 470.583 202.84C469.943 201.72 469.623 200.493 469.623 199.16ZM482.103 199.6C482.103 198.48 481.89 197.373 481.463 196.28C481.037 195.187 480.437 194.293 479.663 193.6C478.89 192.907 477.997 192.56 476.983 192.56C475.57 192.56 474.463 193.093 473.663 194.16C472.89 195.227 472.503 196.507 472.503 198C472.503 199.12 472.717 200.227 473.143 201.32C473.57 202.413 474.17 203.307 474.943 204C475.717 204.693 476.61 205.04 477.623 205.04C479.037 205.04 480.13 204.507 480.903 203.44C481.703 202.373 482.103 201.093 482.103 199.6ZM489.778 195.96C489.778 194.84 489.591 194.08 489.218 193.68C488.871 193.253 488.471 193.04 488.018 193.04L492.338 191.12V202C492.338 203.173 492.458 204.053 492.698 204.64C492.938 205.227 493.205 205.627 493.498 205.84C493.791 206.027 493.938 206.08 493.938 206H488.178C488.178 206.08 488.325 206.027 488.618 205.84C488.911 205.627 489.178 205.227 489.418 204.64C489.658 204.053 489.778 203.173 489.778 202V195.96ZM491.018 186.28C490.431 186.28 489.965 186.093 489.618 185.72C489.298 185.32 489.138 184.867 489.138 184.36C489.138 183.853 489.298 183.413 489.618 183.04C489.965 182.64 490.431 182.44 491.018 182.44C491.605 182.44 492.058 182.64 492.378 183.04C492.725 183.413 492.898 183.853 492.898 184.36C492.898 184.867 492.725 185.32 492.378 185.72C492.058 186.093 491.605 186.28 491.018 186.28ZM501.283 193.84C501.897 193.013 502.617 192.36 503.443 191.88C504.297 191.373 505.19 191.12 506.123 191.12C507.563 191.12 508.71 191.587 509.563 192.52C510.443 193.427 510.883 194.747 510.883 196.48V202.04C510.883 203.16 511.003 204.013 511.243 204.6C511.483 205.187 511.75 205.587 512.043 205.8C512.337 206.013 512.483 206.08 512.483 206H506.723C506.723 206.08 506.87 206.027 507.163 205.84C507.457 205.627 507.723 205.227 507.963 204.64C508.203 204.053 508.323 203.173 508.323 202V197.44C508.323 196.533 508.203 195.813 507.963 195.28C507.723 194.747 507.403 194.307 507.003 193.96C506.39 193.453 505.657 193.2 504.803 193.2C503.843 193.2 503.017 193.52 502.323 194.16C501.63 194.773 501.283 195.64 501.283 196.76V202C501.283 203.147 501.403 204.013 501.643 204.6C501.883 205.187 502.15 205.587 502.443 205.8C502.763 206.013 502.923 206.08 502.923 206H497.163C497.163 206.08 497.31 206.027 497.603 205.84C497.897 205.627 498.15 205.227 498.363 204.64C498.603 204.027 498.723 203.147 498.723 202V195.96C498.723 194.84 498.537 194.08 498.163 193.68C497.817 193.253 497.417 193.04 496.963 193.04L501.283 191.12V193.84ZM530.038 191.44V193.04H526.718C527.678 194.213 528.158 195.413 528.158 196.64C528.158 197.68 527.905 198.653 527.398 199.56C526.891 200.44 526.158 201.147 525.198 201.68C524.265 202.213 523.171 202.48 521.918 202.48C521.278 202.48 520.638 202.427 519.998 202.32C519.038 202.853 518.558 203.453 518.558 204.12C518.558 204.387 518.625 204.64 518.758 204.88C518.891 205.12 519.091 205.293 519.358 205.4C519.731 205.56 520.211 205.68 520.798 205.76C521.385 205.813 521.998 205.853 522.638 205.88C523.278 205.907 523.731 205.92 523.998 205.92C526.078 206 527.558 206.4 528.438 207.12C529.318 207.84 529.758 208.707 529.758 209.72C529.758 210.787 529.411 211.76 528.718 212.64C528.051 213.547 527.078 214.253 525.798 214.76C524.518 215.293 523.038 215.56 521.358 215.56C520.131 215.56 519.065 215.387 518.158 215.04C517.251 214.693 516.558 214.24 516.078 213.68C515.598 213.12 515.358 212.52 515.358 211.88C515.358 211.027 515.718 210.227 516.438 209.48C517.185 208.76 518.105 208.213 519.198 207.84C518.318 207.787 517.611 207.493 517.078 206.96C516.571 206.427 516.318 205.853 516.318 205.24C516.318 204.573 516.545 204 516.998 203.52C517.451 203.013 518.105 202.48 518.958 201.92C517.998 201.493 517.265 200.827 516.758 199.92C516.251 199.013 515.998 198.053 515.998 197.04C515.998 196.053 516.238 195.107 516.718 194.2C517.225 193.293 517.958 192.56 518.918 192C519.905 191.413 521.065 191.12 522.398 191.12C523.091 191.12 523.811 191.227 524.558 191.44H530.038ZM521.958 192.56C520.971 192.56 520.158 192.92 519.518 193.64C518.878 194.333 518.558 195.227 518.558 196.32C518.558 197.68 518.905 198.8 519.598 199.68C520.318 200.533 521.185 200.96 522.198 200.96C523.265 200.96 524.091 200.613 524.678 199.92C525.291 199.2 525.598 198.253 525.598 197.08C525.598 195.747 525.238 194.667 524.518 193.84C523.825 192.987 522.971 192.56 521.958 192.56ZM521.278 208.32C520.291 208.32 519.478 208.627 518.838 209.24C518.225 209.853 517.918 210.533 517.918 211.28C517.918 212 518.318 212.613 519.118 213.12C519.945 213.653 521.038 213.92 522.398 213.92C524.025 213.92 525.278 213.613 526.158 213C527.065 212.387 527.518 211.627 527.518 210.72C527.518 209.92 527.091 209.32 526.238 208.92C525.385 208.52 524.011 208.32 522.118 208.32H521.278ZM76.16 252.48C74.8533 252.48 73.8667 252.04 73.2 251.16C72.5333 250.253 72.2 249.173 72.2 247.92V239.04H69.96L74.76 233.6V237.44H79.88V239.04H74.76V247.48C74.76 248.493 75.0267 249.267 75.56 249.8C76.0933 250.307 76.7067 250.56 77.4 250.56C77.9333 250.56 78.4533 250.4 78.96 250.08C79.4667 249.76 79.88 249.32 80.2 248.76C79.8 251.24 78.4533 252.48 76.16 252.48ZM82.7484 245.16C82.7484 243.773 83.0818 242.467 83.7484 241.24C84.4418 239.987 85.3884 238.987 86.5884 238.24C87.7884 237.493 89.1218 237.12 90.5884 237.12C92.0018 237.12 93.2818 237.453 94.4284 238.12C95.5751 238.76 96.4684 239.64 97.1084 240.76C97.7751 241.88 98.1084 243.107 98.1084 244.44C98.1084 245.827 97.7618 247.147 97.0684 248.4C96.4018 249.627 95.4684 250.613 94.2684 251.36C93.0684 252.107 91.7351 252.48 90.2684 252.48C88.8551 252.48 87.5751 252.16 86.4284 251.52C85.2818 250.853 84.3751 249.96 83.7084 248.84C83.0684 247.72 82.7484 246.493 82.7484 245.16ZM95.2284 245.6C95.2284 244.48 95.0151 243.373 94.5884 242.28C94.1618 241.187 93.5618 240.293 92.7884 239.6C92.0151 238.907 91.1218 238.56 90.1084 238.56C88.6951 238.56 87.5884 239.093 86.7884 240.16C86.0151 241.227 85.6284 242.507 85.6284 244C85.6284 245.12 85.8418 246.227 86.2684 247.32C86.6951 248.413 87.2951 249.307 88.0684 250C88.8418 250.693 89.7351 251.04 90.7484 251.04C92.1618 251.04 93.2551 250.507 94.0284 249.44C94.8284 248.373 95.2284 247.093 95.2284 245.6ZM122.738 227.4C122.738 226.28 122.551 225.52 122.178 225.12C121.831 224.693 121.431 224.48 120.978 224.48H120.738L125.298 222.4V247.48C125.298 248.6 125.471 249.373 125.818 249.8C126.191 250.2 126.604 250.4 127.058 250.4H127.298L122.738 252.48V249.88C122.418 250.413 121.831 250.987 120.978 251.6C120.151 252.187 119.058 252.48 117.698 252.48C116.524 252.48 115.471 252.187 114.538 251.6C113.604 251.013 112.871 250.2 112.338 249.16C111.804 248.12 111.538 246.96 111.538 245.68C111.538 244.053 111.871 242.613 112.538 241.36C113.204 240.107 114.071 239.107 115.138 238.36C116.338 237.533 117.644 237.12 119.058 237.12C119.991 237.12 120.764 237.253 121.378 237.52C121.991 237.76 122.444 237.987 122.738 238.2V227.4ZM114.418 244.48C114.418 246.16 114.804 247.627 115.578 248.88C116.378 250.107 117.524 250.72 119.018 250.72C119.578 250.72 120.151 250.573 120.738 250.28C121.324 249.96 121.804 249.533 122.178 249C122.551 248.467 122.738 247.867 122.738 247.2V242.48C122.738 241.627 122.631 240.933 122.418 240.4C122.231 239.867 121.924 239.467 121.498 239.2C120.831 238.773 120.018 238.56 119.058 238.56C117.724 238.56 116.618 239.107 115.738 240.2C114.858 241.267 114.418 242.693 114.418 244.48ZM131.692 241.96C131.692 240.84 131.506 240.08 131.132 239.68C130.786 239.253 130.386 239.04 129.932 239.04L134.252 237.12V248C134.252 249.173 134.372 250.053 134.612 250.64C134.852 251.227 135.119 251.627 135.412 251.84C135.706 252.027 135.852 252.08 135.852 252H130.092C130.092 252.08 130.239 252.027 130.532 251.84C130.826 251.627 131.092 251.227 131.332 250.64C131.572 250.053 131.692 249.173 131.692 248V241.96ZM132.932 232.28C132.346 232.28 131.879 232.093 131.532 231.72C131.212 231.32 131.052 230.867 131.052 230.36C131.052 229.853 131.212 229.413 131.532 229.04C131.879 228.64 132.346 228.44 132.932 228.44C133.519 228.44 133.972 228.64 134.292 229.04C134.639 229.413 134.812 229.853 134.812 230.36C134.812 230.867 134.639 231.32 134.292 231.72C133.972 232.093 133.519 232.28 132.932 232.28ZM144.278 252.48C143.478 252.48 142.651 252.347 141.798 252.08C140.944 251.813 140.238 251.467 139.678 251.04V247.52C140.184 248.773 140.864 249.68 141.718 250.24C142.598 250.773 143.544 251.04 144.558 251.04C145.384 251.04 146.051 250.813 146.558 250.36C147.091 249.907 147.358 249.413 147.358 248.88C147.358 248.293 147.091 247.8 146.558 247.4C146.024 247 145.211 246.547 144.118 246.04C142.704 245.373 141.611 244.72 140.838 244.08C140.064 243.44 139.678 242.573 139.678 241.48C139.678 240.28 140.131 239.253 141.038 238.4C141.944 237.547 143.131 237.12 144.598 237.12C145.611 237.12 146.491 237.24 147.238 237.48C147.984 237.72 148.544 237.987 148.918 238.28L148.278 241.28C147.958 240.373 147.424 239.693 146.678 239.24C145.931 238.787 145.144 238.56 144.318 238.56C143.598 238.56 142.998 238.773 142.518 239.2C142.064 239.627 141.838 240.107 141.838 240.64C141.838 241.36 142.118 241.933 142.678 242.36C143.264 242.787 144.144 243.253 145.318 243.76C146.704 244.347 147.758 244.947 148.478 245.56C149.224 246.147 149.598 246.987 149.598 248.08C149.598 248.853 149.384 249.573 148.958 250.24C148.531 250.907 147.904 251.453 147.078 251.88C146.278 252.28 145.344 252.48 144.278 252.48ZM164.828 252.48C163.974 252.453 163.254 252.227 162.668 251.8C162.081 251.373 161.748 250.88 161.668 250.32C161.188 251.013 160.548 251.547 159.748 251.92C158.974 252.293 158.201 252.48 157.428 252.48C156.201 252.48 155.174 252.133 154.348 251.44C153.521 250.72 153.108 249.787 153.108 248.64C153.108 245.68 155.881 244.2 161.428 244.2V243.76C161.428 242.293 161.214 241.213 160.788 240.52C160.201 239.533 159.241 239.04 157.908 239.04C156.868 239.04 156.001 239.347 155.308 239.96C154.641 240.573 154.308 241.373 154.308 242.36C154.148 242.093 154.014 241.853 153.908 241.64C153.828 241.427 153.788 241.133 153.788 240.76C153.788 239.8 154.241 238.96 155.148 238.24C156.054 237.493 157.241 237.12 158.708 237.12C160.788 237.12 162.268 237.813 163.148 239.2C163.441 239.627 163.654 240.16 163.788 240.8C163.921 241.44 163.988 242.28 163.988 243.32V248.08C163.988 248.907 164.214 249.547 164.668 250C165.148 250.453 165.814 250.68 166.668 250.68H167.188L164.828 252.48ZM161.428 245.4C159.294 245.4 157.854 245.667 157.108 246.2C156.361 246.733 155.988 247.453 155.988 248.36C155.988 249.107 156.188 249.693 156.588 250.12C156.988 250.547 157.521 250.76 158.188 250.76C158.694 250.76 159.174 250.64 159.628 250.4C160.081 250.16 160.468 249.827 160.788 249.4C161.214 248.84 161.428 248.08 161.428 247.12V245.4ZM172.963 257.28C172.963 258.453 173.083 259.333 173.323 259.92C173.563 260.507 173.83 260.893 174.123 261.08C174.416 261.293 174.563 261.36 174.563 261.28H168.803C168.803 261.36 168.95 261.293 169.243 261.08C169.536 260.893 169.803 260.493 170.043 259.88C170.283 259.293 170.403 258.427 170.403 257.28V241.96C170.403 240.84 170.216 240.08 169.843 239.68C169.496 239.253 169.096 239.04 168.643 239.04L172.963 237.12V239.72C173.283 239.187 173.856 238.627 174.683 238.04C175.536 237.427 176.643 237.12 178.003 237.12C179.176 237.12 180.23 237.413 181.163 238C182.096 238.587 182.83 239.4 183.363 240.44C183.896 241.48 184.163 242.64 184.163 243.92C184.163 245.547 183.83 246.987 183.163 248.24C182.496 249.493 181.63 250.493 180.563 251.24C179.363 252.067 178.056 252.48 176.643 252.48C175.71 252.48 174.936 252.347 174.323 252.08C173.71 251.84 173.256 251.613 172.963 251.4V257.28ZM181.283 245.12C181.283 243.44 180.883 241.987 180.083 240.76C179.31 239.507 178.176 238.88 176.683 238.88C176.123 238.88 175.55 239.04 174.963 239.36C174.376 239.653 173.896 240.067 173.523 240.6C173.15 241.133 172.963 241.733 172.963 242.4V247.12C172.963 247.973 173.056 248.667 173.243 249.2C173.456 249.733 173.776 250.133 174.203 250.4C174.87 250.827 175.683 251.04 176.643 251.04C177.976 251.04 179.083 250.507 179.963 249.44C180.843 248.347 181.283 246.907 181.283 245.12ZM191.518 257.28C191.518 258.453 191.638 259.333 191.878 259.92C192.118 260.507 192.384 260.893 192.678 261.08C192.971 261.293 193.118 261.36 193.118 261.28H187.358C187.358 261.36 187.504 261.293 187.798 261.08C188.091 260.893 188.358 260.493 188.598 259.88C188.838 259.293 188.958 258.427 188.958 257.28V241.96C188.958 240.84 188.771 240.08 188.398 239.68C188.051 239.253 187.651 239.04 187.198 239.04L191.518 237.12V239.72C191.838 239.187 192.411 238.627 193.238 238.04C194.091 237.427 195.198 237.12 196.558 237.12C197.731 237.12 198.784 237.413 199.718 238C200.651 238.587 201.384 239.4 201.918 240.44C202.451 241.48 202.718 242.64 202.718 243.92C202.718 245.547 202.384 246.987 201.718 248.24C201.051 249.493 200.184 250.493 199.118 251.24C197.918 252.067 196.611 252.48 195.198 252.48C194.264 252.48 193.491 252.347 192.878 252.08C192.264 251.84 191.811 251.613 191.518 251.4V257.28ZM199.838 245.12C199.838 243.44 199.438 241.987 198.638 240.76C197.864 239.507 196.731 238.88 195.238 238.88C194.678 238.88 194.104 239.04 193.518 239.36C192.931 239.653 192.451 240.067 192.078 240.6C191.704 241.133 191.518 241.733 191.518 242.4V247.12C191.518 247.973 191.611 248.667 191.798 249.2C192.011 249.733 192.331 250.133 192.758 250.4C193.424 250.827 194.238 251.04 195.198 251.04C196.531 251.04 197.638 250.507 198.518 249.44C199.398 248.347 199.838 246.907 199.838 245.12ZM212.833 252.48C211.393 252.48 210.153 252.133 209.113 251.44C208.073 250.72 207.273 249.8 206.713 248.68C206.179 247.533 205.913 246.32 205.913 245.04C205.913 243.387 206.233 241.96 206.873 240.76C207.539 239.56 208.393 238.653 209.433 238.04C210.473 237.427 211.553 237.12 212.673 237.12C214.273 237.12 215.646 237.707 216.793 238.88C217.966 240.027 218.606 241.627 218.713 243.68H208.313C208.313 244.96 208.553 246.093 209.033 247.08C209.513 248.04 210.153 248.787 210.953 249.32C211.779 249.827 212.673 250.08 213.633 250.08C216.139 250.08 217.833 249.28 218.713 247.68C218.473 249.12 217.819 250.28 216.753 251.16C215.686 252.04 214.379 252.48 212.833 252.48ZM212.393 238.44C211.353 238.44 210.459 238.813 209.713 239.56C208.966 240.28 208.513 241.227 208.353 242.4H215.633C215.633 241.173 215.299 240.213 214.633 239.52C213.993 238.8 213.246 238.44 212.393 238.44ZM233.968 252.48C233.115 252.453 232.395 252.227 231.808 251.8C231.221 251.373 230.888 250.88 230.808 250.32C230.328 251.013 229.688 251.547 228.888 251.92C228.115 252.293 227.341 252.48 226.568 252.48C225.341 252.48 224.315 252.133 223.488 251.44C222.661 250.72 222.248 249.787 222.248 248.64C222.248 245.68 225.021 244.2 230.568 244.2V243.76C230.568 242.293 230.355 241.213 229.928 240.52C229.341 239.533 228.381 239.04 227.048 239.04C226.008 239.04 225.141 239.347 224.448 239.96C223.781 240.573 223.448 241.373 223.448 242.36C223.288 242.093 223.155 241.853 223.048 241.64C222.968 241.427 222.928 241.133 222.928 240.76C222.928 239.8 223.381 238.96 224.288 238.24C225.195 237.493 226.381 237.12 227.848 237.12C229.928 237.12 231.408 237.813 232.288 239.2C232.581 239.627 232.795 240.16 232.928 240.8C233.061 241.44 233.128 242.28 233.128 243.32V248.08C233.128 248.907 233.355 249.547 233.808 250C234.288 250.453 234.955 250.68 235.808 250.68H236.328L233.968 252.48ZM230.568 245.4C228.435 245.4 226.995 245.667 226.248 246.2C225.501 246.733 225.128 247.453 225.128 248.36C225.128 249.107 225.328 249.693 225.728 250.12C226.128 250.547 226.661 250.76 227.328 250.76C227.835 250.76 228.315 250.64 228.768 250.4C229.221 250.16 229.608 249.827 229.928 249.4C230.355 248.84 230.568 248.08 230.568 247.12V245.4ZM242.104 240.76C242.504 239.907 243.157 239.093 244.064 238.32C244.997 237.52 245.93 237.12 246.864 237.12C247.45 237.12 247.89 237.2 248.184 237.36V240.64C247.597 239.92 246.77 239.56 245.704 239.56C244.584 239.56 243.704 240.053 243.064 241.04C242.424 242 242.104 243.24 242.104 244.76V248C242.104 249.493 242.277 250.52 242.624 251.08C242.97 251.64 243.304 251.947 243.624 252H237.984C238.304 251.947 238.637 251.653 238.984 251.12C239.357 250.56 239.544 249.52 239.544 248V241.96C239.544 240.84 239.357 240.08 238.984 239.68C238.637 239.253 238.237 239.04 237.784 239.04L242.104 237.12V240.76ZM268.071 252.48C266.631 252.48 265.364 252.133 264.271 251.44C263.204 250.747 262.391 249.827 261.831 248.68C261.271 247.533 260.991 246.32 260.991 245.04C260.991 243.707 261.271 242.44 261.831 241.24C262.417 240.013 263.257 239.027 264.351 238.28C265.444 237.507 266.737 237.12 268.231 237.12C270.017 237.12 271.311 237.507 272.111 238.28C272.911 239.053 273.471 239.867 273.791 240.72L271.151 242C270.991 241.04 270.591 240.227 269.951 239.56C269.337 238.893 268.577 238.56 267.671 238.56C266.364 238.56 265.351 239.067 264.631 240.08C263.911 241.093 263.551 242.333 263.551 243.8C263.551 244.84 263.777 245.853 264.231 246.84C264.711 247.8 265.377 248.587 266.231 249.2C267.111 249.813 268.137 250.12 269.311 250.12C270.271 250.12 271.177 249.907 272.031 249.48C272.911 249.027 273.604 248.427 274.111 247.68C273.817 249.173 273.124 250.347 272.031 251.2C270.937 252.053 269.617 252.48 268.071 252.48ZM277.006 245.16C277.006 243.773 277.34 242.467 278.006 241.24C278.7 239.987 279.646 238.987 280.846 238.24C282.046 237.493 283.38 237.12 284.846 237.12C286.26 237.12 287.54 237.453 288.686 238.12C289.833 238.76 290.726 239.64 291.366 240.76C292.033 241.88 292.366 243.107 292.366 244.44C292.366 245.827 292.02 247.147 291.326 248.4C290.66 249.627 289.726 250.613 288.526 251.36C287.326 252.107 285.993 252.48 284.526 252.48C283.113 252.48 281.833 252.16 280.686 251.52C279.54 250.853 278.633 249.96 277.966 248.84C277.326 247.72 277.006 246.493 277.006 245.16ZM289.486 245.6C289.486 244.48 289.273 243.373 288.846 242.28C288.42 241.187 287.82 240.293 287.046 239.6C286.273 238.907 285.38 238.56 284.366 238.56C282.953 238.56 281.846 239.093 281.046 240.16C280.273 241.227 279.886 242.507 279.886 244C279.886 245.12 280.1 246.227 280.526 247.32C280.953 248.413 281.553 249.307 282.326 250C283.1 250.693 283.993 251.04 285.006 251.04C286.42 251.04 287.513 250.507 288.286 249.44C289.086 248.373 289.486 247.093 289.486 245.6ZM299.721 239.84C300.388 239.013 301.134 238.36 301.961 237.88C302.788 237.373 303.654 237.12 304.561 237.12C305.548 237.12 306.414 237.36 307.161 237.84C307.934 238.293 308.494 238.96 308.841 239.84C309.561 238.933 310.374 238.253 311.281 237.8C312.214 237.347 313.174 237.12 314.161 237.12C315.601 237.12 316.748 237.587 317.601 238.52C318.481 239.427 318.921 240.747 318.921 242.48V248.04C318.921 249.507 319.108 250.52 319.481 251.08C319.854 251.64 320.188 251.947 320.481 252H314.801C315.121 251.947 315.454 251.64 315.801 251.08C316.174 250.52 316.361 249.493 316.361 248V243.44C316.361 242.533 316.241 241.813 316.001 241.28C315.761 240.747 315.441 240.307 315.041 239.96C314.428 239.453 313.694 239.2 312.841 239.2C311.908 239.2 311.081 239.52 310.361 240.16C309.668 240.773 309.321 241.64 309.321 242.76V248C309.321 249.493 309.494 250.52 309.841 251.08C310.214 251.64 310.561 251.947 310.881 252H305.201C305.521 251.947 305.854 251.64 306.201 251.08C306.574 250.52 306.761 249.493 306.761 248V243.44C306.761 242.533 306.641 241.813 306.401 241.28C306.161 240.747 305.841 240.307 305.441 239.96C304.828 239.453 304.094 239.2 303.241 239.2C302.281 239.2 301.454 239.52 300.761 240.16C300.068 240.773 299.721 241.64 299.721 242.76V248C299.721 249.52 299.908 250.56 300.281 251.12C300.654 251.653 301.001 251.947 301.321 252H295.641C295.961 251.947 296.294 251.64 296.641 251.08C296.988 250.52 297.161 249.493 297.161 248V241.96C297.161 240.84 296.974 240.08 296.601 239.68C296.254 239.253 295.854 239.04 295.401 239.04L299.721 237.12V239.84ZM327.885 257.28C327.885 258.453 328.005 259.333 328.245 259.92C328.485 260.507 328.752 260.893 329.045 261.08C329.338 261.293 329.485 261.36 329.485 261.28H323.725C323.725 261.36 323.872 261.293 324.165 261.08C324.458 260.893 324.725 260.493 324.965 259.88C325.205 259.293 325.325 258.427 325.325 257.28V241.96C325.325 240.84 325.138 240.08 324.765 239.68C324.418 239.253 324.018 239.04 323.565 239.04L327.885 237.12V239.72C328.205 239.187 328.778 238.627 329.605 238.04C330.458 237.427 331.565 237.12 332.925 237.12C334.098 237.12 335.152 237.413 336.085 238C337.018 238.587 337.752 239.4 338.285 240.44C338.818 241.48 339.085 242.64 339.085 243.92C339.085 245.547 338.752 246.987 338.085 248.24C337.418 249.493 336.552 250.493 335.485 251.24C334.285 252.067 332.978 252.48 331.565 252.48C330.632 252.48 329.858 252.347 329.245 252.08C328.632 251.84 328.178 251.613 327.885 251.4V257.28ZM336.205 245.12C336.205 243.44 335.805 241.987 335.005 240.76C334.232 239.507 333.098 238.88 331.605 238.88C331.045 238.88 330.472 239.04 329.885 239.36C329.298 239.653 328.818 240.067 328.445 240.6C328.072 241.133 327.885 241.733 327.885 242.4V247.12C327.885 247.973 327.978 248.667 328.165 249.2C328.378 249.733 328.698 250.133 329.125 250.4C329.792 250.827 330.605 251.04 331.565 251.04C332.898 251.04 334.005 250.507 334.885 249.44C335.765 248.347 336.205 246.907 336.205 245.12ZM343.88 227.4C343.88 226.28 343.693 225.52 343.32 225.12C342.973 224.693 342.573 224.48 342.12 224.48H341.88L346.44 222.4V248C346.44 249.173 346.56 250.053 346.8 250.64C347.04 251.227 347.306 251.627 347.6 251.84C347.893 252.027 348.04 252.08 348.04 252H342.28C342.28 252.08 342.426 252.027 342.72 251.84C343.013 251.627 343.28 251.227 343.52 250.64C343.76 250.027 343.88 249.147 343.88 248V227.4ZM358.145 252.48C356.705 252.48 355.465 252.133 354.425 251.44C353.385 250.72 352.585 249.8 352.025 248.68C351.492 247.533 351.225 246.32 351.225 245.04C351.225 243.387 351.545 241.96 352.185 240.76C352.852 239.56 353.705 238.653 354.745 238.04C355.785 237.427 356.865 237.12 357.985 237.12C359.585 237.12 360.958 237.707 362.105 238.88C363.278 240.027 363.918 241.627 364.025 243.68H353.625C353.625 244.96 353.865 246.093 354.345 247.08C354.825 248.04 355.465 248.787 356.265 249.32C357.092 249.827 357.985 250.08 358.945 250.08C361.452 250.08 363.145 249.28 364.025 247.68C363.785 249.12 363.132 250.28 362.065 251.16C360.998 252.04 359.692 252.48 358.145 252.48ZM357.705 238.44C356.665 238.44 355.772 238.813 355.025 239.56C354.278 240.28 353.825 241.227 353.665 242.4H360.945C360.945 241.173 360.612 240.213 359.945 239.52C359.305 238.8 358.558 238.44 357.705 238.44ZM372.801 252.48C371.494 252.48 370.507 252.04 369.841 251.16C369.174 250.253 368.841 249.173 368.841 247.92V239.04H366.601L371.401 233.6V237.44H376.521V239.04H371.401V247.48C371.401 248.493 371.667 249.267 372.201 249.8C372.734 250.307 373.347 250.56 374.041 250.56C374.574 250.56 375.094 250.4 375.601 250.08C376.107 249.76 376.521 249.32 376.841 248.76C376.441 251.24 375.094 252.48 372.801 252.48ZM386.309 252.48C384.869 252.48 383.629 252.133 382.589 251.44C381.549 250.72 380.749 249.8 380.189 248.68C379.656 247.533 379.389 246.32 379.389 245.04C379.389 243.387 379.709 241.96 380.349 240.76C381.016 239.56 381.869 238.653 382.909 238.04C383.949 237.427 385.029 237.12 386.149 237.12C387.749 237.12 389.122 237.707 390.269 238.88C391.442 240.027 392.082 241.627 392.189 243.68H381.789C381.789 244.96 382.029 246.093 382.509 247.08C382.989 248.04 383.629 248.787 384.429 249.32C385.256 249.827 386.149 250.08 387.109 250.08C389.616 250.08 391.309 249.28 392.189 247.68C391.949 249.12 391.296 250.28 390.229 251.16C389.162 252.04 387.856 252.48 386.309 252.48ZM385.869 238.44C384.829 238.44 383.936 238.813 383.189 239.56C382.442 240.28 381.989 241.227 381.829 242.4H389.109C389.109 241.173 388.776 240.213 388.109 239.52C387.469 238.8 386.722 238.44 385.869 238.44ZM397.005 227.4C397.005 226.28 396.818 225.52 396.445 225.12C396.098 224.693 395.698 224.48 395.245 224.48H395.005L399.565 222.4V248C399.565 249.173 399.685 250.053 399.925 250.64C400.165 251.227 400.431 251.627 400.725 251.84C401.018 252.027 401.165 252.08 401.165 252H395.405C395.405 252.08 395.551 252.027 395.845 251.84C396.138 251.627 396.405 251.227 396.645 250.64C396.885 250.027 397.005 249.147 397.005 248V227.4ZM409.95 250.8L405.27 240.2C404.817 239.187 404.377 238.493 403.95 238.12C403.55 237.72 403.23 237.493 402.99 237.44H408.83C408.59 237.493 408.35 237.613 408.11 237.8C407.87 237.987 407.75 238.32 407.75 238.8C407.75 239.253 407.883 239.76 408.15 240.32L411.39 247.8L414.27 240.72C414.457 240.24 414.55 239.747 414.55 239.24C414.55 238.76 414.443 238.36 414.23 238.04C414.043 237.72 413.723 237.52 413.27 237.44H418.63C418.337 237.493 417.95 237.72 417.47 238.12C417.017 238.52 416.563 239.267 416.11 240.36L410.67 253C409.95 254.68 409.417 256 409.07 256.96C408.723 257.947 408.39 258.96 408.07 260C407.937 260.507 407.803 260.933 407.67 261.28H403.59C404.31 260.933 405.19 259.96 406.23 258.36C407.297 256.76 408.39 254.6 409.51 251.88L409.95 250.8ZM422.675 252.4C422.141 252.4 421.661 252.227 421.235 251.88C420.835 251.507 420.635 251 420.635 250.36C420.635 249.72 420.835 249.227 421.235 248.88C421.635 248.533 422.115 248.36 422.675 248.36C423.235 248.36 423.715 248.533 424.115 248.88C424.515 249.227 424.715 249.72 424.715 250.36C424.715 251 424.501 251.507 424.075 251.88C423.675 252.227 423.208 252.4 422.675 252.4ZM432.909 252.4C432.376 252.4 431.896 252.227 431.469 251.88C431.069 251.507 430.869 251 430.869 250.36C430.869 249.72 431.069 249.227 431.469 248.88C431.869 248.533 432.349 248.36 432.909 248.36C433.469 248.36 433.949 248.533 434.349 248.88C434.749 249.227 434.949 249.72 434.949 250.36C434.949 251 434.736 251.507 434.309 251.88C433.909 252.227 433.442 252.4 432.909 252.4ZM443.143 252.4C442.61 252.4 442.13 252.227 441.703 251.88C441.303 251.507 441.103 251 441.103 250.36C441.103 249.72 441.303 249.227 441.703 248.88C442.103 248.533 442.583 248.36 443.143 248.36C443.703 248.36 444.183 248.533 444.583 248.88C444.983 249.227 445.183 249.72 445.183 250.36C445.183 251 444.97 251.507 444.543 251.88C444.143 252.227 443.677 252.4 443.143 252.4Z" fill="black"/>
<path d="M305.136 304.368C307.147 304.368 308.707 305.131 309.816 306.656C310.995 308.181 311.584 310.123 311.584 312.48C311.584 316.293 310.579 319.621 308.568 322.464C306.627 325.307 304.269 327.56 301.496 329.224L299 326.104C302.744 322.915 304.651 319.691 304.72 316.432C303.264 316.571 301.947 316.12 300.768 315.08C299.659 313.971 299.104 312.48 299.104 310.608C299.104 308.736 299.659 307.245 300.768 306.136C301.947 304.957 303.403 304.368 305.136 304.368ZM323.024 304.368C325.035 304.368 326.595 305.131 327.704 306.656C328.813 308.181 329.368 310.123 329.368 312.48C329.368 316.293 328.363 319.621 326.352 322.464C324.411 325.307 322.088 327.56 319.384 329.224L316.784 326.104C320.597 322.915 322.539 319.691 322.608 316.432C321.083 316.571 319.731 316.12 318.552 315.08C317.443 313.971 316.888 312.48 316.888 310.608C316.888 308.736 317.443 307.245 318.552 306.136C319.731 304.957 321.221 304.368 323.024 304.368Z" fill="black"/>
<path d="M78.216 88.112C77.736 88.112 77.28 88.032 76.848 87.872C76.432 87.696 75.904 87.432 75.264 87.08C74.768 86.808 74.376 86.608 74.088 86.48C73.816 86.352 73.544 86.288 73.272 86.288C72.6 86.288 72.256 86.848 72.24 87.968H70.872C70.872 86.928 71.112 86.152 71.592 85.64C72.088 85.128 72.696 84.872 73.416 84.872C73.864 84.872 74.288 84.96 74.688 85.136C75.104 85.296 75.616 85.544 76.224 85.88C76.688 86.152 77.064 86.352 77.352 86.48C77.64 86.608 77.92 86.672 78.192 86.672C78.816 86.672 79.144 86.112 79.176 84.992H80.52C80.52 86.016 80.32 86.792 79.92 87.32C79.536 87.848 78.968 88.112 78.216 88.112ZM87.2297 92.288L83.9657 84.92C83.7577 84.456 83.5417 84.104 83.3177 83.864C83.1097 83.608 82.9257 83.44 82.7657 83.36C82.6057 83.28 82.5257 83.248 82.5257 83.264H86.1497C86.1177 83.264 86.0457 83.288 85.9337 83.336C85.8217 83.368 85.7097 83.448 85.5977 83.576C85.5017 83.688 85.4537 83.856 85.4537 84.08C85.4537 84.352 85.5337 84.656 85.6937 84.992L87.5897 89.336L89.3657 85.232C89.4777 84.944 89.5337 84.648 89.5337 84.344C89.5337 84.056 89.4697 83.816 89.3417 83.624C89.2297 83.432 89.0377 83.312 88.7657 83.264H91.9577C91.9577 83.248 91.8697 83.28 91.6937 83.36C91.5337 83.44 91.3417 83.616 91.1177 83.888C90.9097 84.144 90.6937 84.52 90.4697 85.016L87.2297 92.288ZM93.9591 85.976C93.9591 85.304 93.8471 84.848 93.6231 84.608C93.4151 84.352 93.1751 84.224 92.9031 84.224L95.4951 83.072V89.6C95.4951 90.304 95.5671 90.832 95.7111 91.184C95.8551 91.536 96.0151 91.776 96.1911 91.904C96.3671 92.016 96.4551 92.048 96.4551 92H92.9991C92.9991 92.048 93.0871 92.016 93.2631 91.904C93.4391 91.776 93.5991 91.536 93.7431 91.184C93.8871 90.832 93.9591 90.304 93.9591 89.6V85.976ZM94.7031 80.168C94.3511 80.168 94.0711 80.056 93.8631 79.832C93.6711 79.592 93.5751 79.32 93.5751 79.016C93.5751 78.712 93.6711 78.448 93.8631 78.224C94.0711 77.984 94.3511 77.864 94.7031 77.864C95.0551 77.864 95.3271 77.984 95.5191 78.224C95.7271 78.448 95.8311 78.712 95.8311 79.016C95.8311 79.32 95.7271 79.592 95.5191 79.832C95.3271 80.056 95.0551 80.168 94.7031 80.168ZM105.59 92.288C105.078 92.272 104.646 92.136 104.294 91.88C103.942 91.624 103.742 91.328 103.694 90.992C103.406 91.408 103.022 91.728 102.542 91.952C102.078 92.176 101.614 92.288 101.15 92.288C100.414 92.288 99.7983 92.08 99.3023 91.664C98.8063 91.232 98.5583 90.672 98.5583 89.984C98.5583 88.208 100.222 87.32 103.55 87.32V87.056C103.55 86.176 103.422 85.528 103.166 85.112C102.814 84.52 102.238 84.224 101.438 84.224C100.814 84.224 100.294 84.408 99.8783 84.776C99.4783 85.144 99.2783 85.624 99.2783 86.216C99.1823 86.056 99.1023 85.912 99.0383 85.784C98.9903 85.656 98.9663 85.48 98.9663 85.256C98.9663 84.68 99.2383 84.176 99.7823 83.744C100.326 83.296 101.038 83.072 101.918 83.072C103.166 83.072 104.054 83.488 104.582 84.32C104.758 84.576 104.886 84.896 104.966 85.28C105.046 85.664 105.086 86.168 105.086 86.792V89.648C105.086 90.144 105.222 90.528 105.494 90.8C105.782 91.072 106.182 91.208 106.694 91.208H107.006L105.59 92.288ZM103.55 88.04C102.27 88.04 101.406 88.2 100.958 88.52C100.51 88.84 100.286 89.272 100.286 89.816C100.286 90.264 100.406 90.616 100.646 90.872C100.886 91.128 101.206 91.256 101.606 91.256C101.91 91.256 102.198 91.184 102.47 91.04C102.742 90.896 102.974 90.696 103.166 90.44C103.422 90.104 103.55 89.648 103.55 89.072V88.04ZM116.612 85.256C116.852 84.744 117.244 84.256 117.788 83.792C118.348 83.312 118.908 83.072 119.468 83.072C119.82 83.072 120.084 83.12 120.26 83.216V85.184C119.908 84.752 119.412 84.536 118.772 84.536C118.1 84.536 117.572 84.832 117.188 85.424C116.804 86 116.612 86.744 116.612 87.656V89.6C116.612 90.496 116.716 91.112 116.924 91.448C117.132 91.784 117.332 91.968 117.524 92H114.14C114.332 91.968 114.532 91.792 114.74 91.472C114.964 91.136 115.076 90.512 115.076 89.6V85.976C115.076 85.304 114.964 84.848 114.74 84.608C114.532 84.352 114.292 84.224 114.02 84.224L116.612 83.072V85.256ZM125.956 92.288C125.092 92.288 124.348 92.08 123.724 91.664C123.1 91.232 122.62 90.68 122.284 90.008C121.964 89.32 121.804 88.592 121.804 87.824C121.804 86.832 121.996 85.976 122.38 85.256C122.78 84.536 123.292 83.992 123.916 83.624C124.54 83.256 125.188 83.072 125.86 83.072C126.82 83.072 127.644 83.424 128.332 84.128C129.036 84.816 129.42 85.776 129.484 87.008H123.244C123.244 87.776 123.388 88.456 123.676 89.048C123.964 89.624 124.348 90.072 124.828 90.392C125.324 90.696 125.86 90.848 126.436 90.848C127.94 90.848 128.956 90.368 129.484 89.408C129.34 90.272 128.948 90.968 128.308 91.496C127.668 92.024 126.884 92.288 125.956 92.288ZM125.692 83.864C125.068 83.864 124.532 84.088 124.084 84.536C123.636 84.968 123.364 85.536 123.268 86.24H127.636C127.636 85.504 127.436 84.928 127.036 84.512C126.652 84.08 126.204 83.864 125.692 83.864ZM138.133 77.24C138.133 76.568 138.021 76.112 137.797 75.872C137.589 75.616 137.349 75.488 137.077 75.488H136.933L139.669 74.24V89.288C139.669 89.96 139.773 90.424 139.981 90.68C140.205 90.92 140.453 91.04 140.725 91.04H140.869L138.133 92.288V90.728C137.941 91.048 137.589 91.392 137.077 91.76C136.581 92.112 135.925 92.288 135.109 92.288C134.405 92.288 133.773 92.112 133.213 91.76C132.653 91.408 132.213 90.92 131.893 90.296C131.573 89.672 131.413 88.976 131.413 88.208C131.413 87.232 131.613 86.368 132.013 85.616C132.413 84.864 132.933 84.264 133.573 83.816C134.293 83.32 135.077 83.072 135.925 83.072C136.485 83.072 136.949 83.152 137.317 83.312C137.685 83.456 137.957 83.592 138.133 83.72V77.24ZM133.141 87.488C133.141 88.496 133.373 89.376 133.837 90.128C134.317 90.864 135.005 91.232 135.901 91.232C136.237 91.232 136.581 91.144 136.933 90.968C137.285 90.776 137.573 90.52 137.797 90.2C138.021 89.88 138.133 89.52 138.133 89.12V86.288C138.133 85.776 138.069 85.36 137.941 85.04C137.829 84.72 137.645 84.48 137.389 84.32C136.989 84.064 136.501 83.936 135.925 83.936C135.125 83.936 134.461 84.264 133.933 84.92C133.405 85.56 133.141 86.416 133.141 87.488ZM149.266 77.24C149.266 76.568 149.154 76.112 148.93 75.872C148.722 75.616 148.482 75.488 148.21 75.488H148.066L150.802 74.24V89.288C150.802 89.96 150.906 90.424 151.114 90.68C151.338 90.92 151.586 91.04 151.858 91.04H152.002L149.266 92.288V90.728C149.074 91.048 148.722 91.392 148.21 91.76C147.714 92.112 147.058 92.288 146.242 92.288C145.538 92.288 144.906 92.112 144.346 91.76C143.786 91.408 143.346 90.92 143.026 90.296C142.706 89.672 142.546 88.976 142.546 88.208C142.546 87.232 142.746 86.368 143.146 85.616C143.546 84.864 144.066 84.264 144.706 83.816C145.426 83.32 146.21 83.072 147.058 83.072C147.618 83.072 148.082 83.152 148.45 83.312C148.818 83.456 149.09 83.592 149.266 83.72V77.24ZM144.274 87.488C144.274 88.496 144.506 89.376 144.97 90.128C145.45 90.864 146.138 91.232 147.034 91.232C147.37 91.232 147.714 91.144 148.066 90.968C148.418 90.776 148.706 90.52 148.93 90.2C149.154 89.88 149.266 89.52 149.266 89.12V86.288C149.266 85.776 149.202 85.36 149.074 85.04C148.962 84.72 148.778 84.48 148.522 84.32C148.122 84.064 147.634 83.936 147.058 83.936C146.258 83.936 145.594 84.264 145.066 84.92C144.538 85.56 144.274 86.416 144.274 87.488ZM154.639 85.976C154.639 85.304 154.527 84.848 154.303 84.608C154.095 84.352 153.855 84.224 153.583 84.224L156.175 83.072V89.6C156.175 90.304 156.247 90.832 156.391 91.184C156.535 91.536 156.695 91.776 156.871 91.904C157.047 92.016 157.135 92.048 157.135 92H153.679C153.679 92.048 153.767 92.016 153.943 91.904C154.119 91.776 154.279 91.536 154.423 91.184C154.567 90.832 154.639 90.304 154.639 89.6V85.976ZM155.383 80.168C155.031 80.168 154.751 80.056 154.543 79.832C154.351 79.592 154.255 79.32 154.255 79.016C154.255 78.712 154.351 78.448 154.543 78.224C154.751 77.984 155.031 77.864 155.383 77.864C155.735 77.864 156.007 77.984 156.199 78.224C156.407 78.448 156.511 78.712 156.511 79.016C156.511 79.32 156.407 79.592 156.199 79.832C156.007 80.056 155.735 80.168 155.383 80.168ZM162.382 92.288C161.598 92.288 161.006 92.024 160.606 91.496C160.206 90.952 160.006 90.304 160.006 89.552V84.224H158.662L161.542 80.96V83.264H164.614V84.224H161.542V89.288C161.542 89.896 161.702 90.36 162.022 90.68C162.342 90.984 162.71 91.136 163.126 91.136C163.446 91.136 163.758 91.04 164.062 90.848C164.366 90.656 164.614 90.392 164.806 90.056C164.566 91.544 163.758 92.288 162.382 92.288ZM174.591 88.112C174.111 88.112 173.655 88.032 173.223 87.872C172.807 87.696 172.279 87.432 171.639 87.08C171.143 86.808 170.751 86.608 170.463 86.48C170.191 86.352 169.919 86.288 169.647 86.288C168.975 86.288 168.631 86.848 168.615 87.968H167.247C167.247 86.928 167.487 86.152 167.967 85.64C168.463 85.128 169.071 84.872 169.791 84.872C170.239 84.872 170.663 84.96 171.063 85.136C171.479 85.296 171.991 85.544 172.599 85.88C173.063 86.152 173.439 86.352 173.727 86.48C174.015 86.608 174.295 86.672 174.567 86.672C175.191 86.672 175.519 86.112 175.551 84.992H176.895C176.895 86.016 176.695 86.792 176.295 87.32C175.911 87.848 175.343 88.112 174.591 88.112Z" fill="black"/>
</svg>
