<svg width="256" height="38" viewBox="0 0 256 38" fill="none" xmlns="http://www.w3.org/2000/svg">
<path d="M24.6248 31.781L15.1467 11.4229H8.07619L7.92381 12.2762C10.7581 12.2457 12.5867 12.3981 13.9581 12.8248L5.54667 31.4762C4.90667 31.7505 3.87048 31.9333 2.77333 32.0552L0.944762 32.1467V33H10.941L11.0933 32.1467C9.7219 32.0857 8.16762 31.9029 6.70476 31.6286L9.56952 25.1981C12.739 25.7467 16.64 25.8076 19.9924 25.32L22.9486 31.659C21.4552 31.9333 19.3524 32.0857 17.4933 32.1467V33H27.459L27.6114 32.1467C26.6362 32.0857 25.8743 31.9943 24.6248 31.781ZM9.96571 24.2838L14.6286 13.739L19.5352 24.3143C17.1276 24.8324 13.501 24.8019 9.96571 24.2838ZM41.8026 31.781V23.0343C41.8026 19.4381 39.8521 17.4571 36.256 17.4571C33.8788 17.4571 32.0198 18.3105 30.4045 20.2L31.3798 23.2781H33.5436L31.3493 20.3829C32.416 19.2857 33.8483 18.7371 35.616 18.7371C38.7855 18.7371 40.5836 20.5048 40.5836 23.6743V25.8381C37.475 26.3867 34.0617 26.1733 30.5569 25.2286L30.1607 25.4419C28.9112 30.2267 30.8921 33.4267 35.1283 33.4267C37.3531 33.4267 39.1817 32.5429 40.5836 30.8057L40.8579 33H44.7893L44.9112 32.3295C43.4483 32.2381 42.6864 32.0857 41.8026 31.781ZM35.7074 32.0857C32.5074 32.0857 30.3436 29.5867 30.5874 26.539C33.3302 27.819 36.9874 27.819 40.5836 26.4781V29.9829C39.3645 31.2629 37.536 32.0857 35.7074 32.0857ZM58.3054 18.0667L58.3968 17.0305L58.214 16.8781C55.9587 17.3962 53.1549 18.92 51.4483 20.5657V19.4076L52.1188 17.579L51.814 17.1829C50.1378 18.219 48.3397 19.1333 46.5721 19.8648L46.8464 20.3829L50.2292 19.4076V31.72C49.4673 32.0248 48.3702 32.2076 46.7245 32.299V33H55.7759L55.9283 32.3295C53.8254 32.2381 52.7283 32.0857 51.4483 31.781V21.6019C53.094 19.9867 55.1359 18.8286 56.8426 18.6152L58.153 23.0038H58.793C58.4578 21.2971 58.2445 19.2857 58.3054 18.0667ZM69.6101 33.4267C74.1205 33.4267 77.5034 29.9524 77.5034 25.381C77.5034 20.8705 74.2424 17.4571 69.9148 17.4571C65.4653 17.4571 61.991 21.0533 61.991 25.6552C61.991 30.1048 65.2215 33.4267 69.6101 33.4267ZM70.2805 32.0857C66.2882 32.0857 63.0882 28.8857 63.0882 24.8933C63.0882 21.3276 65.6482 18.7981 69.2139 18.7981C73.2063 18.7981 76.4062 21.9981 76.4062 25.9905C76.4062 29.5562 73.8462 32.0857 70.2805 32.0857ZM96.5871 31.9029V23.3695C96.5871 19.7429 94.3928 17.4571 90.9185 17.4571C88.7242 17.4571 86.8347 18.3714 84.8233 20.3219V19.4076L85.4938 17.579L85.189 17.1829C83.5128 18.219 81.7147 19.1333 79.9471 19.8648L80.2214 20.3829L83.6042 19.4076V31.72C82.8423 32.0248 81.7452 32.2076 80.0995 32.299V33H88.1452L88.2671 32.3905C86.6518 32.299 85.7985 32.1771 84.8233 31.9029V21.4495C86.408 19.7124 88.2061 18.859 90.248 18.859C93.5395 18.859 95.368 21.0229 95.368 24.9238V31.72C94.6061 32.0248 93.509 32.2076 91.8633 32.299V33H99.5737L99.6957 32.3905C98.2328 32.299 97.4709 32.1771 96.5871 31.9029ZM128.614 33L128.431 31.7505C128.583 30.2571 128.827 28.3981 129.254 25.4724L128.644 25.2895L126.754 31.9029H112.248L114.107 29.9829L128.278 13.0076L127.852 11.4229H110.937L111.242 12.6114C111.394 13.9219 111.547 16.1162 111.669 18.7371L112.278 18.5848L112.674 12.52H127.242L127.669 12.0933L125.414 14.4095L111.181 31.4762L111.364 33H128.614ZM140.141 33.4267C144.652 33.4267 148.035 29.9524 148.035 25.381C148.035 20.8705 144.774 17.4571 140.446 17.4571C135.997 17.4571 132.522 21.0533 132.522 25.6552C132.522 30.1048 135.753 33.4267 140.141 33.4267ZM140.812 32.0857C136.819 32.0857 133.619 28.8857 133.619 24.8933C133.619 21.3276 136.179 18.7981 139.745 18.7981C143.738 18.7981 146.938 21.9981 146.938 25.9905C146.938 29.5562 144.377 32.0857 140.812 32.0857ZM177.968 31.9029V23.3695C177.968 19.7733 175.652 17.4571 172.116 17.4571C169.831 17.4571 167.819 18.4019 166.052 20.2914C165.168 18.4933 163.461 17.4571 161.206 17.4571C159.042 17.4571 157.031 18.4324 155.355 20.3219V19.4076L156.025 17.579L155.72 17.1829C154.044 18.219 152.246 19.1333 150.478 19.8648L150.753 20.3829L154.135 19.4076V31.72C153.374 32.0248 152.276 32.2076 150.631 32.299V33H158.676L158.798 32.3905C157.183 32.299 156.33 32.1771 155.355 31.9029V21.419C157 19.621 158.585 18.859 160.566 18.859C163.796 18.859 165.473 20.901 165.473 24.9238V31.72C164.711 32.0248 163.614 32.2076 161.968 32.299V33H169.678L169.8 32.3905C168.337 32.299 167.575 32.1771 166.692 31.9029V23.3695C166.692 22.5162 166.57 21.7238 166.326 21.0229C167.606 19.5905 169.313 18.859 171.476 18.859C175.012 18.859 176.749 20.8705 176.749 24.9238V31.72C175.987 32.0248 174.89 32.2076 173.244 32.299V33H180.955L181.076 32.3905C179.614 32.299 178.852 32.1771 177.968 31.9029ZM192.015 17.4571C189.516 17.4571 187.413 18.6152 185.889 20.779V12.0324L186.621 10.2038L186.316 9.83809C184.305 10.9657 182.324 11.819 180.434 12.581L180.708 13.0686L184.67 12.0324V32.3295L184.823 32.3905C185.158 32.2381 185.554 32.1771 185.92 32.1771C187.566 32.1771 188.51 33.4267 191.192 33.4267C195.703 33.4267 198.872 29.8914 198.872 25.0457C198.872 20.4743 196.038 17.4571 192.015 17.4571ZM191.436 32.0248C189.394 32.0248 187.047 31.3543 185.889 30.3181V21.9371C187.108 19.9867 189.089 18.8895 191.436 18.8895C195.185 18.8895 197.775 21.6324 197.775 25.6552C197.775 29.4952 195.428 32.0248 191.436 32.0248ZM214.709 31.781V23.0343C214.709 19.4381 212.758 17.4571 209.162 17.4571C206.785 17.4571 204.926 18.3105 203.311 20.2L204.286 23.2781H206.45L204.256 20.3829C205.322 19.2857 206.755 18.7371 208.522 18.7371C211.692 18.7371 213.49 20.5048 213.49 23.6743V25.8381C210.381 26.3867 206.968 26.1733 203.463 25.2286L203.067 25.4419C201.817 30.2267 203.798 33.4267 208.035 33.4267C210.259 33.4267 212.088 32.5429 213.49 30.8057L213.764 33H217.696L217.817 32.3295C216.355 32.2381 215.593 32.0857 214.709 31.781ZM208.614 32.0857C205.414 32.0857 203.25 29.5867 203.494 26.539C206.236 27.819 209.894 27.819 213.49 26.4781V29.9829C212.271 31.2629 210.442 32.0857 208.614 32.0857ZM220.21 25.5943C220.21 30.1048 223.593 33.4267 228.164 33.4267C231.12 33.4267 233.741 32.0552 235.326 29.7086L234.93 29.3124C233.254 31.141 231.273 32.0552 228.926 32.0552C224.598 32.0552 221.276 28.9467 221.276 24.8324C221.276 21.2667 223.745 18.859 227.402 18.859C229.627 18.859 231.669 19.7733 232.705 21.1752L234.351 24.3143L234.899 24.2229C233.772 21.5105 232.979 19.0724 232.553 16.9086L231.516 17.0914L232.065 18.7676L231.974 18.7981C231.151 17.9752 229.566 17.4571 227.92 17.4571C223.623 17.4571 220.21 21.0533 220.21 25.5943ZM249.413 28.6114L246.426 24.3752L253.131 18.4629V17.8838H245.816V18.5848C249.138 18.7067 250.083 18.7981 250.845 19.0724L242.281 26.9962V12.0324L243.013 10.2038L242.708 9.83809C240.696 10.9657 238.715 11.819 236.826 12.581L237.1 13.0686L241.062 12.0324V31.72C240.3 32.0248 239.203 32.2076 237.557 32.299V33H245.603L245.725 32.3905C244.11 32.299 243.256 32.1771 242.281 31.9029V28.0324L245.359 25.32L248.681 29.9524C250.875 33 252.674 33.9143 255.173 33.2438C255.203 32.9695 255.234 32.6952 255.234 32.4819C253.375 33 251.729 31.8724 249.413 28.6114Z" fill="black"/>
</svg>
