<svg width="1748" height="1748" viewBox="0 0 1748 1748" fill="none" xmlns="http://www.w3.org/2000/svg">
<circle cx="873.752" cy="873.806" r="620" transform="rotate(-49.7885 873.752 873.806)" fill="#0FA627"/>
<path d="M556.583 768.908L492.046 787.52L507.266 840.295L582.235 818.674L586.866 834.732L492.26 862.016L449.313 713.101L542.896 686.112L547.557 702.271L473.611 723.597L487.415 771.463L551.952 752.851L556.583 768.908ZM677.96 664.664L630.094 678.468L668.381 811.223L648.846 816.857L610.559 684.102L562.796 697.876L558.136 681.717L673.299 648.504L677.96 664.664ZM852.786 758.041L833.046 763.734L813.195 694.902L738.124 716.552L757.975 785.384L738.338 791.048L695.391 642.133L715.028 636.469L733.493 700.495L808.564 678.844L790.1 614.819L809.839 609.126L852.786 758.041ZM908.731 741.907L889.094 747.57L846.147 598.655L865.785 592.992L908.731 741.907ZM1040.64 652.682C1043.35 668.963 1041.03 682.815 1033.68 694.238C1026.39 705.573 1014.63 713.581 998.404 718.261C980.813 723.334 964.88 721.098 950.605 711.551C936.398 701.985 926.247 686.633 920.151 665.496L916.022 651.177C912.03 637.336 910.975 624.457 912.856 612.541C914.805 600.605 919.507 590.534 926.964 582.327C934.4 574.053 944.084 568.195 956.017 564.753C971.835 560.191 985.796 560.966 997.898 567.077C1009.98 573.12 1019.06 583.722 1025.13 598.884L1005.39 604.577C1000.26 593.204 994.07 585.685 986.808 582.018C979.615 578.332 970.905 577.963 960.677 580.913C948.131 584.531 939.616 592.009 935.131 603.347C930.714 614.665 930.973 628.882 935.909 645.996L940.068 660.417C944.728 676.577 951.81 688.456 961.313 696.055C970.817 703.654 981.637 705.704 993.774 702.204C1004.68 699.057 1012.33 694.194 1016.71 687.613C1021.14 680.944 1022.54 671.198 1020.9 658.374L1040.64 652.682ZM1152.19 629.596L1089.8 647.588L1087 690.495L1066.75 696.335L1080.67 531.02L1097.85 526.064L1197.77 658.55L1177.62 664.361L1152.19 629.596ZM1091.07 629.718L1141.7 615.117L1096.25 552.782L1091.07 629.718ZM1232.92 631.019L1303.49 610.666L1308.12 626.724L1217.81 652.769L1174.87 503.854L1194.6 498.161L1232.92 631.019Z" fill="white"/>
<path d="M573.216 1072.68L530.27 923.768L572.305 911.645C585.261 907.909 597.541 907.469 609.148 910.325C620.755 913.182 630.776 919.118 639.21 928.133C647.713 937.128 653.975 948.469 657.995 962.154L660.738 971.666C664.789 985.712 665.611 998.806 663.204 1010.95C660.866 1023.07 655.467 1033.42 647.008 1041.99C638.617 1050.54 627.759 1056.81 614.434 1060.8L573.216 1072.68ZM554.567 934.264L588.223 1050.96L608.883 1045C624.02 1040.64 634.425 1032.54 640.098 1020.71C645.839 1008.87 646.202 994.248 641.188 976.861L638.681 968.168C633.804 951.258 626.03 939.283 615.358 932.242C604.735 925.114 592.108 923.585 577.477 927.657L554.567 934.264ZM774.999 939.932L710.463 958.544L725.683 1011.32L800.652 989.698L805.283 1005.76L710.677 1033.04L667.73 884.125L761.313 857.136L765.974 873.295L692.027 894.621L705.832 942.487L770.368 923.875L774.999 939.932ZM854.461 919.675C836.223 919.691 822.239 917.298 812.508 912.497C802.827 907.608 796.491 899.982 793.502 889.618C790.12 877.89 791.998 866.861 799.137 856.53C806.325 846.112 817.419 838.739 832.419 834.413C842.647 831.464 852.32 830.816 861.438 832.47C870.624 834.104 878.402 837.769 884.772 843.466C891.21 849.142 895.618 856.106 897.998 864.356L878.258 870.049C875.663 861.049 870.764 854.817 863.561 851.355C856.339 847.825 847.512 847.564 837.08 850.573C827.398 853.365 820.449 857.696 816.233 863.565C812.065 869.346 811.073 876.02 813.256 883.589C815.006 889.657 819.047 894.068 825.38 896.82C831.762 899.485 841.625 900.777 854.969 900.695C868.382 900.593 879.175 901.653 887.349 903.875C895.571 906.009 902.159 909.39 907.113 914.017C912.135 918.625 915.737 924.713 917.92 932.282C921.4 944.351 919.488 955.39 912.182 965.399C904.857 975.34 893.319 982.582 877.569 987.125C867.341 990.074 857.235 990.884 847.25 989.554C837.245 988.155 828.839 984.745 822.032 979.323C815.292 973.881 810.674 966.83 808.177 958.171L827.916 952.478C830.512 961.478 835.874 967.65 844.002 970.993C852.178 974.248 861.824 974.272 872.938 971.067C883.302 968.078 890.636 963.674 894.94 957.853C899.243 952.033 900.343 945.475 898.239 938.179C896.135 930.884 891.956 925.996 885.701 923.516C879.427 920.968 869.014 919.687 854.461 919.675ZM975.165 956.763L955.527 962.426L912.581 813.511L932.218 807.847L975.165 956.763ZM1115.48 895.136C1112.52 903.819 1107.02 911.275 1099 917.504C1091.02 923.645 1081.03 928.446 1069.03 931.907C1056.89 935.408 1045.31 935.685 1034.26 932.739C1023.2 929.725 1013.57 923.716 1005.36 914.71C997.214 905.684 991.079 894.27 986.951 880.468L983.204 867.479C976.735 845.046 976.937 826.155 983.81 810.805C990.751 795.435 1003.7 785.017 1022.65 779.55C1038.2 775.067 1051.86 775.447 1063.64 780.691C1075.4 785.867 1084.44 795.446 1090.76 809.428L1071.12 815.092C1061.76 796.448 1047.19 789.978 1027.42 795.68C1014.26 799.475 1005.61 806.993 1001.46 818.232C997.366 829.384 997.811 843.731 1002.8 861.275L1006.31 873.446C1011.12 890.151 1018.78 902.346 1029.27 910.03C1039.73 917.646 1051.48 919.576 1064.5 915.82C1071.87 913.697 1078.07 911.02 1083.12 907.791C1088.18 904.562 1091.95 900.483 1094.44 895.554L1084.8 862.109L1050.33 872.05L1045.73 856.095L1099.73 840.52L1115.48 895.136ZM1268.39 872.196L1248.65 877.889L1140.59 784.755L1173.68 899.51L1153.94 905.203L1111 756.288L1130.74 750.595L1239.15 844.181L1205.91 728.915L1225.45 723.281L1268.39 872.196Z" fill="white"/>
<path d="M752.723 1180.73C756.931 1195.32 758.154 1208.78 756.391 1221.1C754.608 1233.36 750.042 1243.65 742.694 1251.97C735.345 1260.3 725.671 1266.19 713.67 1269.65C701.942 1273.03 690.718 1273.17 679.998 1270.06C669.258 1266.88 659.831 1260.69 651.718 1251.51C643.653 1242.24 637.527 1230.61 633.34 1216.6L630.243 1205.86C626.113 1191.54 624.954 1178.17 626.766 1165.76C628.577 1153.35 633.182 1142.94 640.579 1134.53C648.024 1126.03 657.611 1120.09 669.339 1116.7C681.271 1113.26 692.607 1113.13 703.347 1116.31C714.136 1119.4 723.568 1125.73 731.643 1135.29C739.699 1144.79 745.821 1156.8 750.009 1171.32L752.723 1180.73ZM730.415 1176.75C725.322 1159.09 717.873 1146.58 708.068 1139.21C698.244 1131.78 686.956 1129.9 674.206 1133.58C661.796 1137.16 653.378 1144.72 648.952 1156.26C644.575 1167.72 644.702 1181.86 649.335 1198.69L652.491 1209.64C657.427 1226.75 664.891 1239.18 674.882 1246.94C684.921 1254.6 696.248 1256.62 708.862 1252.98C721.544 1249.32 730.036 1241.89 734.336 1230.68C738.616 1219.4 738.371 1205.1 733.601 1187.79L730.415 1176.75ZM916.713 1208.88L896.974 1214.57L788.91 1121.44L822.005 1236.19L802.266 1241.88L759.319 1092.97L779.058 1087.28L887.474 1180.86L854.232 1065.6L873.767 1059.96L916.713 1208.88ZM966.698 1177.07L1037.27 1156.72L1041.9 1172.77L951.59 1198.82L908.643 1049.9L928.383 1044.21L966.698 1177.07ZM1063.78 1086.15L1081.08 1000.17L1103.38 993.744L1078.97 1101.93L1094.98 1157.47L1075.34 1163.13L1059.33 1107.59L981.055 1029.02L1003.56 1022.53L1063.78 1086.15Z" fill="white"/>
</svg>
