<svg width="320" height="61" viewBox="0 0 320 61" fill="none" xmlns="http://www.w3.org/2000/svg">
<path d="M125.996 1.97987C123.273 -0.604958 119.003 -0.65881 116.226 1.81831L116.066 1.97987C113.45 4.40314 113.29 8.54962 115.746 11.1883C115.799 11.2421 115.853 11.296 115.906 11.3498L116.066 11.5114C118.896 14.1501 123.22 14.1501 125.996 11.5114C128.612 9.08813 128.772 4.94164 126.316 2.30296C126.21 2.19526 126.103 2.08757 125.996 1.97987ZM221.076 59.923H225.614L244.406 0.0412448H238.64L223.585 51.0377L209.705 0.0412448H204.153L190.326 51.0377L175.378 0.0412448H169.559L188.457 59.923H192.995L206.929 8.92657C207.036 8.92657 221.076 59.923 221.076 59.923ZM251.987 12.5884C253.855 12.6423 255.35 11.1344 255.403 9.24968C255.403 7.31106 253.855 5.7494 251.933 5.7494C250.011 5.7494 248.463 7.31106 248.463 9.24968C248.463 11.1344 250.011 12.6423 251.88 12.5884C251.88 12.6423 251.933 12.6423 251.987 12.5884ZM249.21 59.923H254.763V18.0273H249.21C249.21 17.9735 249.21 59.923 249.21 59.923ZM281.883 17.9196H279.694C274.409 17.8119 269.604 20.8814 267.415 25.7279H267.148L266.561 17.9196H262.717V59.9768H268.269V34.7748C268.162 28.1512 273.287 22.7123 279.854 22.4969H281.936L281.883 17.9196ZM320 39.0828V37.6827C320 25.9972 313.54 17.0041 301.795 17.0041C290.317 17.0041 282.47 25.9972 282.47 39.1367C282.47 52.3301 290.584 61 303.183 61C313.167 61 317.811 56.2073 317.811 56.2073L315.622 52.1147C312.152 54.8072 307.828 56.2073 303.45 55.9919C294.855 55.9919 288.129 50.0145 288.129 39.029V38.9213L320 39.0828ZM301.795 21.7968C309.216 21.7968 313.38 26.5895 314.288 34.5056H288.449C289.677 25.9972 294.749 21.7968 301.795 21.7968Z" fill="#0058AA"/>
<path d="M14.3103 0.532286H0V59.7225H14.3103V0.532286V0.532286ZM19.3641 59.7225H33.5679V35.9293C33.6743 32.363 36.6534 29.5951 40.2176 29.7016H40.2708C43.7819 29.5419 46.8142 32.2565 46.9738 35.8229C46.9738 36.0358 46.9738 36.1955 46.9738 36.4084V59.7225H61.1776V35.3438C61.1776 24.1658 54.4747 17.1928 43.8351 17.1928C38.5685 16.767 33.5147 19.3752 30.8016 23.8996H30.11L27.9289 18.2574H19.3641V59.7225V59.7225ZM113.684 59.7225H127.888V18.3106H113.684V59.7225ZM94.7455 22.0366H94.1604C94.1604 22.0366 91.7665 17.3525 83.8932 17.3525C73.2004 17.3525 65.1675 26.1885 65.1675 39.123C65.1675 52.4302 73.36 60.7339 84.4251 60.7339C93.788 60.7339 96.8203 54.3997 96.8203 54.3997H97.4054L99.6398 59.7225H108.896V0H94.7455V22.0366ZM87.4042 48.9703C82.5632 48.9703 79.4245 44.712 79.4245 38.8037C79.4245 32.8953 82.5632 28.9031 87.4042 28.9031C92.2452 28.9031 95.4903 32.7356 95.4903 38.8569C95.4903 44.9782 92.4048 49.0236 87.4042 49.0236V48.9703ZM153.37 17.3525C140.975 17.3525 132.197 26.6143 132.197 39.0698C132.197 51.4721 140.549 61 155.072 61C165.818 61 171.031 55.89 171.031 55.89L166.19 46.7347C163.158 48.8106 159.594 49.8752 155.976 49.8752C150.071 49.8752 146.72 47.4799 145.922 41.8909H172.893C172.893 41.8909 173 39.4424 173 38.0585C173.053 25.0707 165.499 17.3525 153.37 17.3525ZM146.135 34.226C147.039 29.808 149.593 27.6256 152.944 27.6256C156.987 27.6256 159.275 30.2871 159.434 34.226H146.135Z" fill="black"/>
</svg>
