<svg width="193" height="49" viewBox="0 0 193 49" fill="none" xmlns="http://www.w3.org/2000/svg">
<rect width="193" height="49" fill="white"/>
<circle cx="24" cy="24" r="23" fill="#FDFDFD" stroke="#6167EA" stroke-width="1.3"/>
<path d="M64.08 16.056H65.344V15.48H60.88V16.056H62.144V24.632C62.144 26.056 61.52 26.952 60.08 26.664C60.304 26.552 60.736 26.104 60.736 25.464C60.736 24.776 60.24 24.184 59.568 24.184C58.944 24.184 58.384 24.744 58.384 25.432C58.384 26.504 59.376 27.16 60.56 27.16C62.8 27.16 64.08 25.224 64.08 23.496V16.056ZM67.4073 15.832C67.4073 16.536 67.9833 17.112 68.6873 17.112C69.3913 17.112 69.9673 16.536 69.9673 15.832C69.9673 15.128 69.3913 14.552 68.6873 14.552C67.9833 14.552 67.4073 15.128 67.4073 15.832ZM69.7273 26.424V18.584L66.5592 19.384V19.56C67.8073 20.04 67.9193 20.12 67.9193 20.952V26.424H66.7193V27H70.9273V26.424H69.7273ZM77.3423 18.744C76.9263 18.616 76.5103 18.552 76.0783 18.552C74.2703 18.552 72.3663 19.768 72.3663 21.272C72.3663 22.232 73.1343 23.08 74.1743 23.56L72.9423 24.632C71.6623 25.736 72.3183 26.664 73.6623 27L73.9983 27.08C72.6863 27.24 72.1263 27.784 72.1263 28.408C72.1263 29.448 73.4383 30.12 75.5983 30.12C78.4783 30.12 80.5423 29 80.5423 27.784C80.5423 26.744 78.9263 26.312 75.8063 25.496L73.4543 24.888L74.7183 23.768C75.1503 23.912 75.6143 23.992 76.0783 23.992C77.8703 23.992 79.7583 22.776 79.7583 21.272C79.7583 20.504 79.2623 19.816 78.5423 19.32H81.0383V18.744H77.3423ZM76.0783 23.528C75.1983 23.528 74.4143 22.888 74.4143 21.256C74.4143 19.656 75.1983 19.016 76.0783 19.016C76.9583 19.016 77.7423 19.656 77.7423 21.256C77.7423 22.888 76.9583 23.528 76.0783 23.528ZM75.9183 27.08C78.4463 26.84 79.4862 27.336 79.4862 28.056C79.4862 29 78.1743 29.576 75.5983 29.576C73.8703 29.576 72.8463 29.016 72.8463 28.312C72.8463 27.656 73.8383 27.288 75.9183 27.08ZM85.3341 27.16C86.8861 27.16 88.3741 26.232 88.3741 24.536C88.3741 22.968 87.1901 22.184 85.6381 21.784L84.8221 21.576C83.5261 21.24 83.1901 20.808 83.1901 20.216C83.1901 19.624 83.7821 19.112 84.7581 19.112C85.9261 19.112 86.9501 19.512 87.3501 21.576H87.8621V18.376H87.7981L86.9661 19.256C86.3261 18.728 85.5741 18.568 84.7421 18.568C83.3341 18.568 82.0701 19.48 82.0701 20.936C82.0701 22.152 82.8381 23.112 84.5021 23.528L85.2221 23.72C86.6621 24.104 87.2381 24.472 87.2381 25.24C87.2381 26.056 86.5821 26.6 85.3341 26.6C83.4941 26.6 82.9181 25.704 82.5021 23.432H82.0061V27.32H82.0701L82.9501 26.552C83.5581 26.968 84.2941 27.16 85.3341 27.16ZM94.9289 27L97.9529 26.52V26.344C96.6889 25.976 96.5769 25.784 96.5769 24.952L96.5929 21.448C96.6249 19.112 94.9289 18.552 93.3609 18.552C91.3769 18.552 90.2409 19.736 90.2409 20.616C90.2409 21.224 90.6729 21.72 91.3449 21.72C92.0489 21.72 92.4969 21.192 92.4969 20.712C92.4969 20.104 92.1609 19.704 91.5689 19.56C91.8409 19.272 92.4489 19 93.1849 19C94.1129 19 94.8009 19.624 94.8009 20.696C94.8009 21.848 93.7289 22.36 92.9289 22.68C91.4249 23.288 89.8249 23.384 89.8249 24.92C89.8249 26.232 91.0569 27.16 92.6569 27.16C93.9049 27.16 94.6889 26.312 94.9289 25.4V27ZM91.8889 24.904C91.8889 23.192 93.3929 23.464 94.8009 21.944V23.944C94.8009 25.496 93.8569 26.456 93.0249 26.456C92.3529 26.456 91.8889 26.104 91.8889 24.904ZM105.011 27.16H105.459L107.107 19.32H108.147V18.744H104.851V19.32H106.467L105.955 21.752H102.675L101.843 23.8L100.899 19.32H102.083V18.744H98.035V19.32H99.011L100.707 27.16H101.155L103.235 22.024L105.011 27.16ZM120.377 14.68L117.225 15.48V15.656C118.473 16.136 118.569 16.216 118.569 17.048V19.752C118.137 19 117.449 18.552 116.536 18.552C114.633 18.552 112.953 20.376 112.953 22.856C112.953 25.336 114.633 27.16 116.536 27.16C117.497 27.16 118.201 26.664 118.633 25.848V27L121.737 26.52V26.344C120.473 25.976 120.377 25.784 120.377 24.952V14.68ZM116.777 26.568C115.673 26.568 115.145 25.368 115.145 22.856C115.145 20.344 115.673 19.144 116.777 19.144C117.849 19.144 118.729 20.296 118.729 22.456V23.256C118.729 25.416 117.849 26.568 116.777 26.568ZM129.727 23.816C129.407 25.56 128.095 26.056 127.183 26.056C125.471 26.056 124.639 24.6 124.559 22.264H130.223C129.855 19.528 128.159 18.552 126.479 18.552C124.367 18.552 122.703 20.264 122.703 22.792C122.703 25.16 123.871 27.16 126.559 27.16C128.527 27.16 129.983 26.088 130.319 23.816H129.727ZM126.447 19.064C127.407 19.064 128.015 19.752 128.111 21.608H124.543C124.623 19.848 125.551 19.064 126.447 19.064ZM135.209 27.16C136.761 27.16 138.249 26.232 138.249 24.536C138.249 22.968 137.065 22.184 135.513 21.784L134.697 21.576C133.401 21.24 133.065 20.808 133.065 20.216C133.065 19.624 133.657 19.112 134.633 19.112C135.801 19.112 136.825 19.512 137.225 21.576H137.737V18.376H137.673L136.841 19.256C136.201 18.728 135.449 18.568 134.617 18.568C133.209 18.568 131.945 19.48 131.945 20.936C131.945 22.152 132.713 23.112 134.377 23.528L135.097 23.72C136.537 24.104 137.113 24.472 137.113 25.24C137.113 26.056 136.457 26.6 135.209 26.6C133.369 26.6 132.793 25.704 132.377 23.432H131.881V27.32H131.945L132.825 26.552C133.433 26.968 134.169 27.16 135.209 27.16ZM140.548 15.832C140.548 16.536 141.124 17.112 141.828 17.112C142.532 17.112 143.108 16.536 143.108 15.832C143.108 15.128 142.532 14.552 141.828 14.552C141.124 14.552 140.548 15.128 140.548 15.832ZM142.868 26.424V18.584L139.7 19.384V19.56C140.948 20.04 141.06 20.12 141.06 20.952V26.424H139.86V27H144.068V26.424H142.868ZM150.483 18.744C150.067 18.616 149.651 18.552 149.219 18.552C147.411 18.552 145.507 19.768 145.507 21.272C145.507 22.232 146.275 23.08 147.315 23.56L146.083 24.632C144.803 25.736 145.459 26.664 146.803 27L147.139 27.08C145.827 27.24 145.267 27.784 145.267 28.408C145.267 29.448 146.579 30.12 148.739 30.12C151.619 30.12 153.683 29 153.683 27.784C153.683 26.744 152.067 26.312 148.947 25.496L146.595 24.888L147.859 23.768C148.291 23.912 148.755 23.992 149.219 23.992C151.011 23.992 152.899 22.776 152.899 21.272C152.899 20.504 152.403 19.816 151.683 19.32H154.179V18.744H150.483ZM149.219 23.528C148.339 23.528 147.555 22.888 147.555 21.256C147.555 19.656 148.339 19.016 149.219 19.016C150.099 19.016 150.883 19.656 150.883 21.256C150.883 22.888 150.099 23.528 149.219 23.528ZM149.059 27.08C151.587 26.84 152.627 27.336 152.627 28.056C152.627 29 151.315 29.576 148.739 29.576C147.011 29.576 145.987 29.016 145.987 28.312C145.987 27.656 146.979 27.288 149.059 27.08ZM162.935 21.592C162.935 19.528 162.135 18.552 160.455 18.552C159.079 18.552 158.327 19.72 158.087 20.312H158.071V18.584L154.903 19.384V19.56C156.151 20.04 156.263 20.12 156.263 20.952V26.424H155.063V27H159.271V26.424H158.071V22.12C158.071 21.064 158.903 19.192 160.071 19.192C160.823 19.192 161.127 19.704 161.127 21.736V26.424H159.911V27H164.119V26.424H162.935V21.592ZM170.964 22.104C170.964 19.704 172.212 19.08 173.204 19.08C173.956 19.08 174.596 19.4 174.756 19.656C174.196 19.88 173.876 20.344 173.876 20.936C173.876 21.592 174.372 22.2 175.188 22.2C175.892 22.2 176.436 21.624 176.436 20.856C176.436 19.832 175.396 18.552 173.124 18.552C171.044 18.552 169.124 20.344 169.124 22.872C169.124 25.384 170.484 27.16 172.964 27.16C174.932 27.16 176.308 26.088 176.644 23.816H176.052C175.732 25.56 174.66 26.056 173.684 26.056C171.956 26.056 170.964 24.424 170.964 22.104ZM178.156 22.856C178.156 25.256 179.9 27.16 182.38 27.16C184.844 27.16 186.588 25.256 186.588 22.856C186.588 20.456 184.844 18.552 182.38 18.552C179.9 18.552 178.156 20.456 178.156 22.856ZM184.476 22.856C184.476 25.656 183.708 26.584 182.38 26.584C181.036 26.584 180.284 25.656 180.284 22.856C180.284 20.056 181.036 19.128 182.38 19.128C183.708 19.128 184.476 20.056 184.476 22.856ZM188.354 25.784C188.354 26.536 188.962 27.16 189.714 27.16C190.466 27.16 191.09 26.536 191.09 25.784C191.09 25.032 190.466 24.424 189.714 24.424C188.962 24.424 188.354 25.032 188.354 25.784Z" fill="#6167EA"/>
<path fill-rule="evenodd" clip-rule="evenodd" d="M22.9262 26.2742C22.9318 26.275 22.9369 26.2761 22.9424 26.2768Z" fill="black"/>
<path fill-rule="evenodd" clip-rule="evenodd" d="M22.9262 26.2742C21.7841 26.6101 20.1909 27.7302 19.1655 26.7734C19.023 26.285 19.5177 26.0102 19.717 25.6389C19.7361 24.6752 18.527 24.4233 17.838 24.4774C16.4566 24.585 16.7222 25.5916 17.5139 26.5566C16.4576 27.6456 14.8231 26.2886 13.6318 25.9947C13.1051 27.0794 12.4147 28.6128 12.982 29.7897C13.0794 29.8271 13.2183 29.8494 13.2698 29.854C14.3261 28.9982 15.0376 29.3177 15.1673 30.2318C15.3441 31.4756 14.6462 32.2553 13.1477 31.5005C12.4675 32.458 13.251 34.0675 14.1132 34.7717C15.1471 34.3974 16.2579 33.4941 17.4129 33.8841C17.871 34.858 16.3612 35.1472 17.3357 35.9138C17.9403 36.3897 19.3464 36.5032 19.8081 35.5513C19.7401 35.0056 19.1088 34.7084 19.093 34.1659C20.2707 33.3318 21.7425 34.6267 22.9642 34.8681C23.2453 33.747 24.1334 32.0503 23.0632 31.1683C22.5873 31.1981 22.2312 31.5957 21.7676 31.6504C20.4291 30.8603 21.828 27.7948 23.177 29.5312C24.3977 29.1494 23.2173 27.1398 22.9407 26.2762L22.9262 26.2742Z" fill="#F0B2F5"/>
<path fill-rule="evenodd" clip-rule="evenodd" d="M31.2462 24.3226C32.1567 24.0284 34.0651 22.9716 33.2038 21.9029C31.034 21.9095 32.2995 19.4508 33.7146 19.3626C34.4333 19.4492 34.2637 20.2843 34.6023 20.7228C36.0757 21.1216 36.3889 18.8171 36.7773 17.7639C35.2851 17.5327 31.923 15.8451 34.8316 14.8024C35.2468 13.5271 33.5397 12.4588 32.646 12.8718C32.0181 13.1624 32.3256 13.8056 31.8946 14.4334C30.5878 14.4974 30.0612 12.9269 29.5767 11.9672C28.5088 12.3621 26.8248 13.0282 26.7866 14.3166C27.304 14.9083 28.3554 14.3484 28.6563 15.0238C28.9933 15.7811 27.0839 17.4749 26.5443 16.7143C26.2104 16.2941 26.4411 15.4909 25.7596 15.3629C24.6822 15.7975 24.0987 17.0243 23.8591 18.0903C24.924 18.5754 26.4886 18.5731 27.1611 19.7388C27.2001 19.9825 26.9849 20.1895 26.7988 20.3187C26.3318 20.4486 25.755 20.465 25.4464 20.8924C25.3983 21.9692 26.6328 22.8017 27.2832 22.699C28.2224 22.5504 27.6799 20.691 28.8421 21.0583C29.585 21.2932 30.7383 23.6456 31.2462 24.3226Z" fill="#6167EA"/>
<path fill-rule="evenodd" clip-rule="evenodd" d="M13.6318 25.4299C14.899 25.7028 15.5491 26.7682 16.8173 26.1955C16.0259 25.2308 16.4566 24.0205 17.838 23.9126C18.527 23.8585 20.21 24.2704 20.1909 25.2341C20.1582 25.6057 19.8493 25.7753 19.7361 26.3021C20.2153 27.3346 21.7841 26.0449 22.9262 25.7091C22.4933 24.6768 21.6752 23.6656 21.8046 22.494C22.3174 21.7744 22.9754 22.7912 23.5994 22.6797C24.4789 22.0909 24.2786 19.9864 23.0955 19.912C22.6061 20.0455 22.1715 20.6165 21.6184 20.3322C20.8142 19.1602 21.5151 17.5966 21.8376 16.3627C20.8251 15.4548 17.3964 14.9907 19.2342 17.0292C19.2342 17.0666 19.2114 17.1578 19.1764 17.2568C18.4128 18.0207 15.8801 17.6432 17.1707 16.2581C17.1855 16.0537 17.2506 15.7828 17.0413 15.6509C15.9962 15.4873 14.7237 15.6916 13.9103 16.325C14.3466 17.3802 15.0577 18.7906 14.4333 19.8418C14.3159 19.8625 14.2264 19.8874 14.17 19.9035C13.2222 19.0999 12.7824 19.094 12.4081 19.9687C12.0636 20.7746 12.4223 23.562 14.1545 21.7626C15.4973 22.1463 13.8057 24.4594 13.6318 25.4299Z" fill="#FABF67"/>
<path fill-rule="evenodd" clip-rule="evenodd" d="M26.9727 35.8633C27.2037 35.385 26.6526 35.0308 26.548 34.6028C26.5981 33.4807 28.1171 33.5299 28.629 33.8785C29.7803 34.6651 28.2207 35.282 28.6266 36.2903C29.7401 36.8555 31.0294 36.3192 32.1253 35.9417C32.1517 35.9108 32.1834 35.8806 32.2045 35.836C31.6755 34.6369 30.9287 33.3354 31.2142 31.9653C31.796 31.2618 32.4018 32.2766 32.9912 32.4304C34.923 32.1408 33.6182 28.3163 32.0293 30.0695C30.5225 29.0992 31.8725 26.8757 32.5602 25.6884C32.5266 25.6333 32.4824 25.566 32.4174 25.5352C31.2069 24.6837 27.4195 24.3534 28.7553 26.7219C28.4989 27.7348 27.0182 28.2842 26.3678 27.7449C25.5992 27.1089 26.6123 26.6399 26.8625 25.8694C26.0754 24.7234 24.5013 25.9478 23.5093 26.2762C23.7852 27.1398 24.8488 29.443 23.2064 29.8392C21.7838 28.6433 21.1498 30.3712 22.0316 31.2224C22.483 31.31 22.548 30.7517 23.3288 30.7924C24.5643 31.657 23.8136 33.747 23.5328 34.8681C24.5409 35.4021 25.8081 36.4897 26.9727 35.8633Z" fill="#07DFB8"/>
</svg>
