<svg width="299" height="103" viewBox="0 0 299 103" fill="none" xmlns="http://www.w3.org/2000/svg">
<path d="M269.225 42.051C272.799 42.051 275.696 39.1576 275.696 35.5885C275.696 32.0193 272.799 29.126 269.225 29.126C265.651 29.126 262.753 32.0193 262.753 35.5885C262.753 39.1576 265.651 42.051 269.225 42.051Z" fill="#FF4500"/>
<path d="M176.797 63.144C179.972 63.144 181.803 60.7668 181.681 58.4497C181.621 57.2304 181.498 56.4372 181.376 55.8281C179.422 47.4156 172.586 41.1963 164.465 41.1963C154.82 41.1963 147.006 49.9145 147.006 60.644C147.006 71.3736 154.82 80.0918 164.465 80.0918C170.51 80.0918 174.844 77.8974 177.958 74.4224C179.484 72.7156 179.179 70.094 177.347 68.8133C175.821 67.777 173.928 68.1429 172.524 69.3008C171.181 70.4599 168.618 72.7758 164.465 72.7758C159.583 72.7758 155.431 68.569 154.515 63.0213H176.797V63.144ZM164.405 48.5736C168.8 48.5736 172.586 51.9872 173.99 56.6815H154.82C156.224 51.927 160.009 48.5736 164.405 48.5736Z" fill="#222222"/>
<path d="M147.373 45.0373C147.373 43.2088 146.03 41.7452 144.321 41.4407C139.009 40.6486 134.003 42.5986 131.134 46.1963V45.7077C131.134 43.452 129.302 42.0509 127.471 42.0509C125.456 42.0509 123.808 43.6963 123.808 45.7077V75.5804C123.808 77.5316 125.273 79.2384 127.227 79.36C129.364 79.4816 131.134 77.8361 131.134 75.702V60.2782C131.134 53.4509 136.262 47.8418 143.343 48.635C143.588 48.635 143.831 48.635 144.076 48.635C145.907 48.5123 147.373 46.927 147.373 45.0373Z" fill="#222222"/>
<path d="M272.886 48.9397C272.886 46.9272 271.239 45.2817 269.225 45.2817C267.209 45.2817 265.562 46.9272 265.562 48.9397C265.562 49.0613 265.562 74.5442 265.562 75.7022C265.562 77.7147 267.209 79.3601 269.225 79.3601C271.239 79.3601 272.886 77.7147 272.886 75.7022C272.886 74.6056 272.886 49.1226 272.886 48.9397Z" fill="#222222"/>
<path d="M218.432 28.6999C218.432 26.6874 216.784 25.042 214.769 25.042C212.755 25.042 211.107 26.6874 211.107 28.6999V44.9772C208.604 42.4772 205.49 41.2579 201.766 41.2579C192.121 41.2579 184.306 49.9761 184.306 60.7056C184.306 71.4352 192.121 80.1534 201.766 80.1534C205.49 80.1534 208.665 78.8727 211.167 76.3727C211.472 78.0806 212.999 79.3602 214.769 79.3602C216.784 79.3602 218.432 77.7147 218.432 75.7022V28.6999ZM201.827 72.8977C196.21 72.8977 191.693 67.4727 191.693 60.7056C191.693 53.9999 196.21 48.5124 201.827 48.5124C207.444 48.5124 211.962 53.9386 211.962 60.7056C211.962 67.4727 207.383 72.8977 201.827 72.8977Z" fill="#222222"/>
<path d="M256.648 28.6999C256.648 26.6874 255 25.042 252.985 25.042C250.971 25.042 249.322 26.6874 249.322 28.6999V44.9772C246.82 42.4772 243.706 41.2579 239.982 41.2579C230.337 41.2579 222.523 49.9761 222.523 60.7056C222.523 71.4352 230.337 80.1534 239.982 80.1534C243.706 80.1534 246.88 78.8727 249.384 76.3727C249.689 78.0806 251.214 79.3602 252.985 79.3602C255 79.3602 256.648 77.7147 256.648 75.7022V28.6999ZM239.982 72.8977C234.365 72.8977 229.849 67.4727 229.849 60.7056C229.849 53.9999 234.365 48.5124 239.982 48.5124C245.599 48.5124 250.116 53.9386 250.116 60.7056C250.116 67.4727 245.599 72.8977 239.982 72.8977Z" fill="#222222"/>
<path d="M291.445 75.7635V48.5737H294.681C296.39 48.5737 297.916 47.2931 298.038 45.5249C298.161 43.6351 296.635 42.051 294.803 42.051H291.445V36.9294C291.445 34.9783 289.98 33.2715 288.027 33.1499C285.889 33.0283 284.12 34.6737 284.12 36.8078V42.1112H281.067C279.358 42.1112 277.832 43.3919 277.71 45.1601C277.587 47.0499 279.114 48.6351 280.945 48.6351H284.059V75.8249C284.059 77.8362 285.707 79.4817 287.722 79.4817C289.859 79.3601 291.445 77.7749 291.445 75.7635Z" fill="#222222"/>
<path d="M52.1379 102.588C80.3917 102.588 103.296 79.7149 103.296 51.5001C103.296 23.2853 80.3917 0.412598 52.1379 0.412598C23.8842 0.412598 0.97998 23.2853 0.97998 51.5001C0.97998 79.7149 23.8842 102.588 52.1379 102.588Z" fill="#FF4500"/>
<path d="M86.2633 51.5001C86.2633 47.3546 82.9065 44.0626 78.8156 44.0626C76.8015 44.0626 74.9694 44.8546 73.6266 46.1353C68.4991 42.4773 61.4781 40.1001 53.6639 39.7955L57.0822 23.8228L68.193 26.2001C68.3159 29.0046 70.635 31.2603 73.5049 31.2603C76.435 31.2603 78.8156 28.883 78.8156 25.9558C78.8156 23.0296 76.435 20.6523 73.5049 20.6523C71.4293 20.6523 69.5972 21.8717 68.7426 23.6398L56.3506 21.0183C55.9841 20.9569 55.6177 21.0183 55.3731 21.2012C55.0681 21.3842 54.8849 21.6887 54.8246 22.0546L51.0387 39.8558C43.1028 40.1001 35.96 42.4773 30.771 46.1967C29.4282 44.916 27.5962 44.1239 25.582 44.1239C21.4309 44.1239 18.1343 47.4762 18.1343 51.5614C18.1343 54.6092 19.9652 57.1694 22.5301 58.3285C22.4072 59.0592 22.3469 59.791 22.3469 60.5842C22.3469 72.0444 35.7165 81.3728 52.1994 81.3728C68.6823 81.3728 82.0519 72.1058 82.0519 60.5842C82.0519 59.8523 81.9904 59.0592 81.8687 58.3285C84.4324 57.1694 86.2633 54.5478 86.2633 51.5001ZM35.1054 56.8035C35.1054 53.8773 37.4859 51.5001 40.4172 51.5001C43.3474 51.5001 45.728 53.8773 45.728 56.8035C45.728 59.7296 43.3474 62.108 40.4172 62.108C37.4859 62.1683 35.1054 59.7296 35.1054 56.8035ZM64.8361 70.8864C61.1731 74.5444 54.2135 74.7887 52.1994 74.7887C50.1238 74.7887 43.1642 74.483 39.5615 70.8864C39.013 70.3376 39.013 69.4842 39.5615 68.9353C40.1111 68.3876 40.9657 68.3876 41.5153 68.9353C43.8356 71.2523 48.7196 72.0444 52.1994 72.0444C55.6792 72.0444 60.6235 71.2523 62.8823 68.9353C63.4319 68.3876 64.2865 68.3876 64.8361 68.9353C65.3243 69.4842 65.3243 70.3376 64.8361 70.8864ZM63.8586 62.1683C60.9285 62.1683 58.5479 59.791 58.5479 56.8648C58.5479 53.9387 60.9285 51.5614 63.8586 51.5614C66.7899 51.5614 69.1705 53.9387 69.1705 56.8648C69.1705 59.7296 66.7899 62.1683 63.8586 62.1683Z" fill="white"/>
</svg>
