<svg width="300" height="300" viewBox="0 0 300 300" fill="none" xmlns="http://www.w3.org/2000/svg">
<path fill-rule="evenodd" clip-rule="evenodd" d="M75.9919 16.0005C75.4708 15.9921 74.9532 16.0875 74.4693 16.2811C73.9854 16.4747 73.5448 16.7626 73.1733 17.1282C72.8018 17.4937 72.5067 17.9295 72.3053 18.4102C72.1038 18.8909 72.0001 19.4069 72 19.9281V279.71C72.0002 280.466 72.2187 281.206 72.6292 281.841C73.0396 282.476 73.6246 282.979 74.314 283.29C75.0033 283.601 75.7677 283.706 76.5154 283.593C77.263 283.48 77.9622 283.154 78.529 282.653L226.672 151.812C227.092 151.442 227.427 150.986 227.656 150.476C227.885 149.966 228.002 149.413 228 148.853C227.998 148.294 227.877 147.742 227.644 147.233C227.411 146.725 227.073 146.272 226.651 145.905L78.5076 16.9643C77.8088 16.3566 76.9179 16.0152 75.9919 16.0005Z" fill="black"/>
</svg>
