<svg width="435" height="872" viewBox="0 0 435 872" fill="none" xmlns="http://www.w3.org/2000/svg">
<g filter="url(#filter0_d)">
<rect width="375" height="812" transform="translate(30 26)" fill="#222222"/>
<rect x="30" y="772" width="375" height="66" fill="#C4C4C4"/>
<rect x="30" y="26" width="375" height="66" fill="#6E6E6E"/>
<circle cx="103" cy="59" r="26" fill="#D4D6DC"/>
<circle cx="179" cy="59" r="26" fill="#D4D6DC"/>
<circle cx="255" cy="59" r="26" fill="#D4D6DC"/>
<circle cx="331" cy="59" r="26" fill="#D4D6DC"/>
<rect x="91" y="224" width="253" height="306" rx="20" fill="#F5F7F9"/>
<path d="M165.336 575.384C169.432 575.384 173.976 573.912 173.976 568.472C173.976 563.768 170.328 562.936 166.04 562.2C163.128 561.688 159.896 560.952 159.896 558.392C159.896 555.864 162.328 554.616 164.696 554.616C168.056 554.616 170.136 556.504 170.264 559.736L173.272 559.192C172.76 554.008 169.08 552.216 164.664 552.216C161.08 552.216 156.92 553.976 156.92 558.52C156.92 562.744 160.6 564.024 163.96 564.824C167.192 565.624 170.968 565.592 170.968 568.696C170.968 571.864 168.28 572.952 165.24 572.952C161.912 572.952 159.448 571.032 159.352 567.544L156.28 567.864C156.376 572.984 160.536 575.384 165.336 575.384ZM188.564 559V567.992C188.564 572.632 185.876 572.984 184.436 572.984C183.508 572.984 182.452 572.952 181.524 572.056C180.564 571.128 180.596 569.88 180.596 568.408V559H177.62V568.568C177.62 570.264 177.652 572.28 178.9 573.592C180.052 574.808 181.556 575.384 183.636 575.384C185.908 575.384 187.7 574.424 188.564 572.6V575H191.444V559H188.564ZM209.263 560.408C208.111 559.192 206.607 558.616 204.495 558.616C201.935 558.616 200.367 559.64 199.567 561.432V559H196.687V575H199.567V566.168C199.567 561.592 202.319 561.016 203.727 561.016C204.623 561.016 205.679 561.048 206.575 561.944C207.567 562.872 207.535 564.184 207.535 565.656V575H210.511V565.496C210.511 563.8 210.479 561.72 209.263 560.408ZM225.418 558.648C222.602 558.904 220.394 560.216 219.786 562.008V559H216.906V575H219.786V567.672C219.786 562.392 222.378 561.304 225.674 561.304C226.026 561.304 226.41 561.304 226.666 561.336L226.73 558.616C226.442 558.616 225.706 558.616 225.418 558.648ZM237.172 552.344H234.004V556.056H237.172V552.344ZM237.14 572.568V559H231.54V561.432H234.26V572.568H231.092V575H240.084V572.568H237.14ZM250.961 575.384C254.193 575.384 257.553 574.264 257.553 570.36C257.553 566.616 254.257 566.072 251.057 565.4C249.137 564.984 247.217 564.568 247.217 563.096C247.217 561.624 248.849 560.888 250.417 560.888C252.945 560.888 254.385 562.072 254.449 564.28L257.137 563.864C256.785 559.96 253.841 558.616 250.449 558.616C247.601 558.616 244.529 559.96 244.529 563.288C244.529 566.456 247.089 567.224 249.681 567.896C251.889 568.472 254.833 568.696 254.833 570.52C254.833 572.216 253.521 573.112 250.897 573.112C248.401 573.112 246.769 571.736 246.801 569.496L244.177 569.752C244.145 573.72 247.377 575.384 250.961 575.384ZM275.368 561.784C274.056 559.704 271.656 558.616 269.128 558.616C266.824 558.616 264.872 559.416 263.464 561.016C262.12 562.52 261.448 564.6 261.448 566.968C261.448 569.464 262.056 571.544 263.4 573.048C264.776 574.616 266.696 575.384 269.16 575.384C273.224 575.384 275.784 573.464 276.488 569.72L273.704 569.496C273.32 571.928 271.848 573.08 269.128 573.08C266.12 573.08 264.648 571.384 264.584 567.864H276.712C276.84 565.592 276.328 563.32 275.368 561.784ZM269.16 560.952C270.888 560.952 272.072 561.464 272.904 562.68C273.416 563.448 273.736 564.664 273.768 565.528H264.616C264.616 564.728 264.808 563.64 265.384 562.68C266.024 561.624 267.368 560.952 269.16 560.952Z" fill="#F5F7F9"/>
<path d="M166.46 611.24C169.02 611.24 171.86 610.32 171.86 606.92C171.86 603.98 169.58 603.46 166.9 603C165.08 602.68 163.06 602.22 163.06 600.62C163.06 599.04 164.58 598.26 166.06 598.26C168.16 598.26 169.46 599.44 169.54 601.46L171.42 601.12C171.1 597.88 168.8 596.76 166.04 596.76C163.8 596.76 161.2 597.86 161.2 600.7C161.2 603.34 163.5 604.14 165.6 604.64C167.62 605.14 169.98 605.12 169.98 607.06C169.98 609.04 168.3 609.72 166.4 609.72C164.32 609.72 162.78 608.52 162.72 606.34L160.8 606.54C160.86 609.74 163.46 611.24 166.46 611.24ZM177.258 611.24C178.958 611.24 180.058 610.66 180.618 609.52C180.718 610.56 181.318 611.08 182.418 611.08C182.818 611.08 183.158 611.06 183.538 611L183.498 609.52C183.238 609.58 183.078 609.6 182.918 609.6C182.338 609.6 182.338 609.36 182.338 608.84V604.06C182.338 601.88 181.058 600.76 178.538 600.76C177.258 600.76 176.198 601.02 175.478 601.5C174.698 602.02 174.278 602.9 174.238 604.1L175.998 604.34C175.998 602.82 176.698 602.18 178.438 602.18C179.318 602.18 179.978 602.44 180.258 602.84C180.558 603.26 180.598 603.76 180.598 604.66L177.298 605.3C175.718 605.6 173.898 606.2 173.898 608.36C173.898 610.32 175.578 611.24 177.258 611.24ZM177.538 609.8C176.558 609.8 175.738 609.28 175.738 608.34C175.738 607.2 176.518 606.9 177.578 606.66L180.598 606V607.22C180.598 608.66 179.718 609.8 177.538 609.8ZM189.559 609.48V597H186.099V598.52H187.759V609.48H185.759V611H191.379V609.48H189.559ZM197.977 609.48V597H194.517V598.52H196.177V609.48H194.177V611H199.797V609.48H197.977ZM209.435 601L207.515 606.4C207.235 607.2 207.015 607.84 206.615 609.06C206.295 608.06 205.975 607.08 205.735 606.4L203.835 601H201.915L205.815 610.9C205.135 612.62 204.795 613.44 204.055 613.44C203.575 613.44 203.135 613.34 202.775 613.22L202.735 614.9C203.235 615.04 203.795 615.1 204.295 615.1C205.675 615.1 206.415 614.12 207.235 611.92L211.315 601H209.435ZM225.24 611H227.06V605.02L231.88 597H229.76L227.54 601C227.12 601.76 226.68 602.56 226.14 603.6C225.64 602.66 224.86 601.24 224.74 601L222.52 597H220.42L225.24 605.02V611ZM236.105 611.24C237.805 611.24 238.905 610.66 239.465 609.52C239.565 610.56 240.165 611.08 241.265 611.08C241.665 611.08 242.005 611.06 242.385 611L242.345 609.52C242.085 609.58 241.925 609.6 241.765 609.6C241.185 609.6 241.185 609.36 241.185 608.84V604.06C241.185 601.88 239.905 600.76 237.385 600.76C236.105 600.76 235.045 601.02 234.325 601.5C233.545 602.02 233.125 602.9 233.085 604.1L234.845 604.34C234.845 602.82 235.545 602.18 237.285 602.18C238.165 602.18 238.825 602.44 239.105 602.84C239.405 603.26 239.445 603.76 239.445 604.66L236.145 605.3C234.565 605.6 232.745 606.2 232.745 608.36C232.745 610.32 234.425 611.24 236.105 611.24ZM236.385 609.8C235.405 609.8 234.585 609.28 234.585 608.34C234.585 607.2 235.365 606.9 236.425 606.66L239.445 606V607.22C239.445 608.66 238.565 609.8 236.385 609.8ZM249.348 611.1C249.928 611.1 250.508 611.02 250.828 610.94L250.788 609.3C250.368 609.4 249.868 609.48 249.488 609.48C248.408 609.48 248.028 609.28 248.028 608.48V602.5H250.868V601H248.028V598.22H246.248V601H244.148V602.5H246.248V608.54C246.248 610.36 247.188 611.1 249.348 611.1ZM261.988 602.74C261.168 601.44 259.668 600.76 258.088 600.76C256.648 600.76 255.428 601.26 254.548 602.26C253.708 603.2 253.288 604.5 253.288 605.98C253.288 607.54 253.668 608.84 254.508 609.78C255.368 610.76 256.568 611.24 258.108 611.24C260.648 611.24 262.248 610.04 262.688 607.7L260.948 607.56C260.708 609.08 259.788 609.8 258.088 609.8C256.208 609.8 255.288 608.74 255.248 606.54H262.828C262.908 605.12 262.588 603.7 261.988 602.74ZM258.108 602.22C259.188 602.22 259.928 602.54 260.448 603.3C260.768 603.78 260.968 604.54 260.988 605.08H255.268C255.268 604.58 255.388 603.9 255.748 603.3C256.148 602.64 256.988 602.22 258.108 602.22ZM269.507 611.24C271.527 611.24 273.627 610.54 273.627 608.1C273.627 605.76 271.567 605.42 269.567 605C268.367 604.74 267.167 604.48 267.167 603.56C267.167 602.64 268.187 602.18 269.167 602.18C270.747 602.18 271.647 602.92 271.687 604.3L273.367 604.04C273.147 601.6 271.307 600.76 269.187 600.76C267.407 600.76 265.487 601.6 265.487 603.68C265.487 605.66 267.087 606.14 268.707 606.56C270.087 606.92 271.927 607.06 271.927 608.2C271.927 609.26 271.107 609.82 269.467 609.82C267.907 609.82 266.887 608.96 266.907 607.56L265.267 607.72C265.247 610.2 267.267 611.24 269.507 611.24Z" fill="#F5F7F9"/>
<path d="M178.832 639.784C178.064 639.784 177.312 640.024 176.832 640.536L177.312 637.304H181.84V636.04H176.144L175.296 641.96L176.512 642.056C177.024 641.368 177.68 641.048 178.624 641.048C180.176 641.048 181.056 641.864 181.056 643.352C181.056 645.112 180.208 645.992 178.608 645.992C177.44 645.992 176.464 645.144 176.464 643.464L175.072 643.672C175.072 645.768 176.464 647.192 178.544 647.192C181.104 647.192 182.416 645.512 182.416 643.464C182.416 640.872 180.752 639.784 178.832 639.784ZM191.906 638.808C191.186 638.808 190.706 639 190.338 639.336C190.034 639.592 189.826 639.88 189.682 640.296C189.378 639.352 188.674 638.808 187.634 638.808C186.946 638.808 186.466 639.016 186.114 639.32C185.858 639.56 185.714 639.8 185.618 640.04V639H184.258V647H185.65V642.296C185.65 641.176 185.842 640.696 186.194 640.344C186.418 640.12 186.754 639.992 187.138 639.992C187.442 639.992 187.842 640.024 188.146 640.344C188.514 640.712 188.53 641.32 188.53 642.136V647H189.938V642.296C189.938 641.176 190.146 640.68 190.482 640.344C190.738 640.104 191.058 639.992 191.426 639.992C191.73 639.992 192.13 640.04 192.434 640.328C192.802 640.696 192.818 641.304 192.818 642.136V647H194.226V641.72C194.226 639.752 193.426 638.808 191.906 638.808ZM199.477 635.672H197.893V637.528H199.477V635.672ZM199.461 645.784V639H196.661V640.216H198.021V645.784H196.437V647H200.933V645.784H199.461ZM209.491 639.704C208.915 639.096 208.163 638.808 207.107 638.808C205.827 638.808 205.043 639.32 204.643 640.216V639H203.203V647H204.643V642.584C204.643 640.296 206.019 640.008 206.723 640.008C207.171 640.008 207.699 640.024 208.147 640.472C208.643 640.936 208.627 641.592 208.627 642.328V647H210.115V642.248C210.115 641.4 210.099 640.36 209.491 639.704ZM213.809 649.304C214.913 649.096 215.569 648.28 215.569 647.032V645.096H213.793V647H214.609C214.593 647.976 214.193 648.28 213.809 648.424V649.304ZM227.074 645.736C227.346 644.44 228.738 643.592 230.018 642.808C231.314 642.008 232.754 641.016 232.754 639.128C232.754 637.128 231.474 635.848 229.49 635.848C226.642 635.848 225.874 637.864 225.89 639.24L227.314 639.464C227.314 638.632 227.522 637.048 229.426 637.048C230.674 637.048 231.33 637.784 231.33 639.112C231.33 640.712 229.634 641.496 228.594 642.168C227.106 643.112 225.65 644.328 225.458 647H232.77V645.736H227.074ZM238.613 635.848C235.941 635.848 234.661 638.184 234.661 641.512C234.661 645.256 236.037 647.192 238.613 647.192C241.285 647.192 242.581 644.872 242.581 641.512C242.581 638.2 241.285 635.848 238.613 635.848ZM238.613 637.08C239.157 637.08 239.589 637.192 239.925 637.432L236.533 644.472C236.293 643.736 236.197 642.76 236.197 641.512C236.197 638.664 236.661 637.08 238.613 637.08ZM238.613 645.992C238.053 645.992 237.605 645.864 237.269 645.592L240.677 638.488C240.949 639.224 241.045 640.248 241.045 641.512C241.045 644.376 240.549 645.992 238.613 645.992ZM248.718 645.736V636.04H247.598C247.358 637.4 246.35 638.056 244.558 638.056L244.542 638.088V639.272L244.558 639.304C244.702 639.304 244.83 639.32 244.974 639.32C245.966 639.32 246.862 639.112 247.294 638.584V645.736H245.806V647H250.078V645.736H248.718ZM255.921 635.848C253.169 635.848 252.241 637.944 252.241 639.608C252.241 641.704 253.505 643.288 255.617 643.288C256.737 643.288 257.681 642.744 258.353 641.752C258.289 644.632 257.409 645.992 255.713 645.992C254.433 645.992 253.905 645.016 253.841 643.96L252.545 644.184C252.705 645.8 253.617 647.192 255.665 647.192C258.769 647.192 259.697 644.728 259.697 641.224C259.697 638.888 259.153 635.848 255.921 635.848ZM255.857 642.04C254.353 642.04 253.601 641.224 253.601 639.64C253.601 637.88 254.369 637.048 255.937 637.048C257.489 637.048 258.177 638.168 258.177 639.528C258.177 641.064 257.297 642.04 255.857 642.04Z" fill="#F5F7F9"/>
<path d="M353.539 652.353C363.991 652.353 372.493 660.898 372.493 671.404C372.493 681.909 363.991 690.416 353.539 690.416C343.087 690.416 334.585 681.909 334.585 671.404C334.585 660.898 343.087 652.353 353.539 652.353ZM353.539 654.705C344.374 654.705 336.925 662.192 336.925 671.404C336.925 680.577 344.374 688.064 353.539 688.064C362.704 688.064 370.153 680.577 370.153 671.365C370.153 662.192 362.704 654.705 353.539 654.705Z" fill="white"/>
<path d="M361.69 670.894L351.511 660.663C351.082 660.232 350.419 660.232 350.029 660.663C349.6 661.094 349.6 661.761 350.029 662.153L359.506 671.678L350.029 681.204C349.6 681.635 349.6 682.301 350.029 682.693C350.224 682.889 350.497 683.007 350.77 683.007C351.043 683.007 351.316 682.889 351.511 682.693L361.69 672.462C361.885 672.266 362.002 671.953 362.002 671.678C362.002 671.404 361.885 671.129 361.69 670.894Z" fill="white"/>
<path d="M81.461 652.353C71.009 652.353 62.507 660.898 62.507 671.404C62.507 681.909 71.009 690.416 81.461 690.416C91.913 690.416 100.415 681.909 100.415 671.404C100.415 660.898 91.913 652.353 81.461 652.353ZM81.461 654.705C90.626 654.705 98.075 662.192 98.075 671.404C98.075 680.577 90.626 688.064 81.461 688.064C72.296 688.064 64.847 680.577 64.847 671.365C64.847 662.192 72.296 654.705 81.461 654.705Z" fill="white"/>
<path d="M73.3102 670.894L83.4892 660.663C83.9182 660.232 84.5812 660.232 84.9712 660.663C85.4002 661.094 85.4002 661.761 84.9712 662.153L75.4942 671.678L84.9712 681.204C85.4002 681.635 85.4002 682.301 84.9712 682.693C84.7762 682.889 84.5032 683.007 84.2302 683.007C83.9572 683.007 83.6842 682.889 83.4892 682.693L73.3102 672.462C73.1152 672.266 72.9982 671.953 72.9982 671.678C72.9982 671.404 73.1152 671.129 73.3102 670.894Z" fill="white"/>
<rect x="46" y="150" width="343" height="562" rx="20" fill="#D4D6DC"/>
<path d="M134.399 228.384C138.495 228.384 143.039 226.912 143.039 221.472C143.039 216.768 139.391 215.936 135.103 215.2C132.191 214.688 128.959 213.952 128.959 211.392C128.959 208.864 131.391 207.616 133.759 207.616C137.119 207.616 139.199 209.504 139.327 212.736L142.335 212.192C141.823 207.008 138.143 205.216 133.727 205.216C130.143 205.216 125.983 206.976 125.983 211.52C125.983 215.744 129.663 217.024 133.023 217.824C136.255 218.624 140.031 218.592 140.031 221.696C140.031 224.864 137.343 225.952 134.303 225.952C130.975 225.952 128.511 224.032 128.415 220.544L125.343 220.864C125.439 225.984 129.599 228.384 134.399 228.384ZM157.627 212V220.992C157.627 225.632 154.939 225.984 153.499 225.984C152.571 225.984 151.515 225.952 150.587 225.056C149.627 224.128 149.659 222.88 149.659 221.408V212H146.683V221.568C146.683 223.264 146.715 225.28 147.963 226.592C149.115 227.808 150.619 228.384 152.699 228.384C154.971 228.384 156.763 227.424 157.627 225.6V228H160.507V212H157.627ZM173.718 211.584C171.478 211.584 169.782 212.384 168.566 214.08V205.6H165.686V228H168.566V225.664C169.75 227.488 171.478 228.384 173.622 228.384C177.878 228.384 180.982 225.216 180.982 220C180.982 214.944 178.038 211.584 173.718 211.584ZM173.11 226.176C170.038 226.176 168.47 224.064 168.47 220.032C168.47 217.056 169.142 213.856 173.046 213.856C176.63 213.856 177.814 216.16 177.814 220C177.814 223.744 176.854 226.176 173.11 226.176ZM199.657 211.616C198.217 211.616 197.257 212 196.521 212.672C195.913 213.184 195.497 213.76 195.209 214.592C194.601 212.704 193.193 211.616 191.113 211.616C189.737 211.616 188.777 212.032 188.073 212.64C187.561 213.12 187.273 213.6 187.081 214.08V212H184.361V228H187.145V218.592C187.145 216.352 187.529 215.392 188.233 214.688C188.681 214.24 189.353 213.984 190.121 213.984C190.729 213.984 191.529 214.048 192.137 214.688C192.873 215.424 192.905 216.64 192.905 218.272V228H195.721V218.592C195.721 216.352 196.137 215.36 196.809 214.688C197.321 214.208 197.961 213.984 198.697 213.984C199.305 213.984 200.105 214.08 200.713 214.656C201.449 215.392 201.481 216.608 201.481 218.272V228H204.297V217.44C204.297 213.504 202.697 211.616 199.657 211.616ZM214.797 205.344H211.629V209.056H214.797V205.344ZM214.765 225.568V212H209.165V214.432H211.885V225.568H208.717V228H217.709V225.568H214.765ZM228.586 228.384C231.818 228.384 235.178 227.264 235.178 223.36C235.178 219.616 231.882 219.072 228.682 218.4C226.762 217.984 224.842 217.568 224.842 216.096C224.842 214.624 226.474 213.888 228.042 213.888C230.57 213.888 232.01 215.072 232.074 217.28L234.762 216.864C234.41 212.96 231.466 211.616 228.074 211.616C225.226 211.616 222.154 212.96 222.154 216.288C222.154 219.456 224.714 220.224 227.306 220.896C229.514 221.472 232.458 221.696 232.458 223.52C232.458 225.216 231.146 226.112 228.522 226.112C226.026 226.112 224.394 224.736 224.426 222.496L221.802 222.752C221.77 226.72 225.002 228.384 228.586 228.384ZM246.305 228.384C249.537 228.384 252.897 227.264 252.897 223.36C252.897 219.616 249.601 219.072 246.401 218.4C244.481 217.984 242.561 217.568 242.561 216.096C242.561 214.624 244.193 213.888 245.76 213.888C248.289 213.888 249.729 215.072 249.793 217.28L252.481 216.864C252.129 212.96 249.185 211.616 245.793 211.616C242.945 211.616 239.873 212.96 239.873 216.288C239.873 219.456 242.433 220.224 245.025 220.896C247.233 221.472 250.177 221.696 250.177 223.52C250.177 225.216 248.865 226.112 246.241 226.112C243.745 226.112 242.113 224.736 242.145 222.496L239.521 222.752C239.489 226.72 242.721 228.384 246.305 228.384ZM263.703 205.344H260.535V209.056H263.703V205.344ZM263.671 225.568V212H258.071V214.432H260.791V225.568H257.623V228H266.615V225.568H263.671ZM278.068 228.384C282.868 228.384 286.036 225.024 286.036 220C286.036 215.168 282.964 211.616 278.068 211.616C273.108 211.616 270.068 215.136 270.068 220C270.068 225.216 273.076 228.384 278.068 228.384ZM278.068 226.112C274.356 226.112 273.172 223.776 273.172 220C273.172 216.224 274.388 213.888 278.068 213.888C281.684 213.888 282.932 216.224 282.932 220C282.932 223.776 281.684 226.112 278.068 226.112ZM302.795 213.408C301.643 212.192 300.139 211.616 298.027 211.616C295.467 211.616 293.899 212.64 293.099 214.432V212H290.219V228H293.099V219.168C293.099 214.592 295.851 214.016 297.259 214.016C298.155 214.016 299.211 214.048 300.107 214.944C301.099 215.872 301.067 217.184 301.067 218.656V228H304.043V218.496C304.043 216.8 304.01 214.72 302.795 213.408ZM178.607 251.408C177.455 250.192 175.951 249.616 173.839 249.616C171.599 249.616 169.807 250.48 168.911 252.4V243.6H166.031V266H168.911V257.008C168.911 252.368 171.631 252.016 173.071 252.016C173.967 252.016 175.023 252.048 175.919 252.944C176.911 253.872 176.879 255.12 176.879 256.592V266H179.855V256.432C179.855 254.736 179.823 252.72 178.607 251.408ZM190.922 243.344H187.754V247.056H190.922V243.344ZM190.89 263.568V250H185.29V252.432H188.01V263.568H184.842V266H193.834V263.568H190.89ZM204.711 266.384C207.943 266.384 211.303 265.264 211.303 261.36C211.303 257.616 208.007 257.072 204.807 256.4C202.887 255.984 200.967 255.568 200.967 254.096C200.967 252.624 202.599 251.888 204.167 251.888C206.695 251.888 208.135 253.072 208.199 255.28L210.887 254.864C210.535 250.96 207.591 249.616 204.199 249.616C201.351 249.616 198.279 250.96 198.279 254.288C198.279 257.456 200.839 258.224 203.431 258.896C205.639 259.472 208.583 259.696 208.583 261.52C208.583 263.216 207.271 264.112 204.647 264.112C202.151 264.112 200.519 262.736 200.551 260.496L197.927 260.752C197.895 264.72 201.127 266.384 204.711 266.384ZM223.52 266.16C224.448 266.16 225.376 266.032 225.888 265.904L225.824 263.28C225.152 263.44 224.352 263.568 223.744 263.568C222.016 263.568 221.408 263.248 221.408 261.968V252.4H225.952V250H221.408V245.552H218.56V250H215.2V252.4H218.56V262.064C218.56 264.976 220.064 266.16 223.52 266.16ZM237.631 266.384C242.431 266.384 245.599 263.024 245.599 258C245.599 253.168 242.527 249.616 237.631 249.616C232.671 249.616 229.631 253.136 229.631 258C229.631 263.216 232.639 266.384 237.631 266.384ZM237.631 264.112C233.919 264.112 232.735 261.776 232.735 258C232.735 254.224 233.951 251.888 237.631 251.888C241.247 251.888 242.495 254.224 242.495 258C242.495 261.776 241.247 264.112 237.631 264.112ZM259.637 249.648C256.821 249.904 254.613 251.216 254.005 253.008V250H251.125V266H254.005V258.672C254.005 253.392 256.597 252.304 259.893 252.304C260.245 252.304 260.629 252.304 260.885 252.336L260.949 249.616C260.661 249.616 259.925 249.616 259.637 249.648ZM276.409 250L273.337 258.64C272.889 259.92 272.537 260.944 271.897 262.896C271.385 261.296 270.873 259.728 270.489 258.64L267.449 250H264.377L270.617 265.84C269.529 268.592 268.985 269.904 267.801 269.904C267.033 269.904 266.329 269.744 265.753 269.552L265.689 272.24C266.489 272.464 267.385 272.56 268.185 272.56C270.393 272.56 271.577 270.992 272.889 267.472L279.417 250H276.409Z" fill="#222222"/>
<path d="M362 190C370.28 190 377 183.28 377 175C377 166.72 370.28 160 362 160C353.72 160 347 166.72 347 175C347 183.28 353.72 190 362 190ZM362 161.2C369.6 161.2 375.8 167.4 375.8 175C375.8 182.6 369.6 188.8 362 188.8C354.4 188.8 348.2 182.6 348.2 175C348.2 167.4 354.4 161.2 362 161.2Z" fill="#222222"/>
<path d="M356.759 180.24C356.879 180.36 357.039 180.4 357.199 180.4C357.359 180.4 357.519 180.36 357.639 180.24L362.039 175.84L366.439 180.24C366.559 180.36 366.719 180.4 366.879 180.4C367.039 180.4 367.199 180.36 367.319 180.24C367.559 180 367.559 179.64 367.319 179.4L362.919 175L367.319 170.6C367.559 170.36 367.559 170 367.319 169.76C367.079 169.52 366.719 169.52 366.479 169.76L362.079 174.16L357.679 169.76C357.439 169.52 357.079 169.52 356.839 169.76C356.599 170 356.599 170.36 356.839 170.6L361.239 175L356.839 179.4C356.519 179.6 356.519 180 356.759 180.24Z" fill="#222222"/>
<path d="M47.632 811H54.688V809.736H49.072V799.8H47.632V811ZM59.6641 799.672H58.0801V801.528H59.6641V799.672ZM59.6481 809.784V803H56.8481V804.216H58.2081V809.784H56.6241V811H61.1201V809.784H59.6481ZM65.7105 811H67.2465L70.2385 803H68.7345L67.2945 807.144C67.0385 807.88 66.7505 808.792 66.4785 809.672C66.0945 808.392 65.8225 807.56 65.6785 807.144L64.2545 803H62.7185L65.7105 811ZM78.6525 804.392C77.9965 803.352 76.7965 802.808 75.5325 802.808C74.3805 802.808 73.4045 803.208 72.7005 804.008C72.0285 804.76 71.6925 805.8 71.6925 806.984C71.6925 808.232 71.9965 809.272 72.6685 810.024C73.3565 810.808 74.3165 811.192 75.5485 811.192C77.5805 811.192 78.8605 810.232 79.2125 808.36L77.8205 808.248C77.6285 809.464 76.8925 810.04 75.5325 810.04C74.0285 810.04 73.2925 809.192 73.2605 807.432H79.3245C79.3885 806.296 79.1325 805.16 78.6525 804.392ZM75.5485 803.976C76.4125 803.976 77.0045 804.232 77.4205 804.84C77.6765 805.224 77.8365 805.832 77.8525 806.264H73.2765C73.2765 805.864 73.3725 805.32 73.6605 804.84C73.9805 804.312 74.6525 803.976 75.5485 803.976ZM89.6899 811H91.1139V804.2H93.3859V803H91.1139V801.672C91.1139 801.144 91.4659 801 92.2659 801C92.5699 801 92.9699 801.032 93.2739 801.096L93.3059 799.816C93.0979 799.768 92.6339 799.72 92.1859 799.72C90.4419 799.72 89.6899 800.344 89.6899 801.64V803H88.0099V804.2H89.6899V811ZM102.043 804.392C101.387 803.352 100.187 802.808 98.9231 802.808C97.7711 802.808 96.7951 803.208 96.0911 804.008C95.4191 804.76 95.0831 805.8 95.0831 806.984C95.0831 808.232 95.3871 809.272 96.0591 810.024C96.7471 810.808 97.7071 811.192 98.9391 811.192C100.971 811.192 102.251 810.232 102.603 808.36L101.211 808.248C101.019 809.464 100.283 810.04 98.9231 810.04C97.4191 810.04 96.6831 809.192 96.6511 807.432H102.715C102.779 806.296 102.523 805.16 102.043 804.392ZM98.9391 803.976C99.8031 803.976 100.395 804.232 100.811 804.84C101.067 805.224 101.227 805.832 101.243 806.264H96.6671C96.6671 805.864 96.7631 805.32 97.0511 804.84C97.3711 804.312 98.0431 803.976 98.9391 803.976ZM111.403 804.392C110.747 803.352 109.547 802.808 108.283 802.808C107.131 802.808 106.155 803.208 105.451 804.008C104.779 804.76 104.443 805.8 104.443 806.984C104.443 808.232 104.747 809.272 105.419 810.024C106.107 810.808 107.067 811.192 108.299 811.192C110.331 811.192 111.611 810.232 111.963 808.36L110.571 808.248C110.379 809.464 109.643 810.04 108.283 810.04C106.779 810.04 106.043 809.192 106.011 807.432H112.075C112.139 806.296 111.883 805.16 111.403 804.392ZM108.299 803.976C109.163 803.976 109.755 804.232 110.171 804.84C110.427 805.224 110.587 805.832 110.603 806.264H106.027C106.027 805.864 106.123 805.32 106.411 804.84C106.731 804.312 107.403 803.976 108.299 803.976ZM119.85 799.8V804.04C119.242 803.192 118.394 802.808 117.274 802.808C115.114 802.808 113.642 804.472 113.642 807C113.642 809.608 115.194 811.192 117.322 811.192C118.394 811.192 119.258 810.744 119.85 809.832V811H121.29V799.8H119.85ZM117.578 810.056C115.706 810.056 115.226 808.872 115.226 807C115.226 805.08 115.818 803.96 117.61 803.96C119.562 803.96 119.898 805.528 119.898 807.016C119.898 809.032 119.114 810.056 117.578 810.056Z" fill="black"/>
<path d="M173.616 811H175.056V805.992H180.096V804.696H175.056V801.096H180.688V799.8H173.616V811ZM185.789 799.672H184.205V801.528H185.789V799.672ZM185.773 809.784V803H182.973V804.216H184.333V809.784H182.749V811H187.245V809.784H185.773ZM192.476 809.784V799.8H189.708V801.016H191.036V809.784H189.436V811H193.932V809.784H192.476ZM203.594 802.808C202.874 802.808 202.394 803 202.026 803.336C201.722 803.592 201.514 803.88 201.37 804.296C201.066 803.352 200.362 802.808 199.322 802.808C198.634 802.808 198.154 803.016 197.802 803.32C197.546 803.56 197.402 803.8 197.306 804.04V803H195.946V811H197.338V806.296C197.338 805.176 197.53 804.696 197.882 804.344C198.106 804.12 198.442 803.992 198.826 803.992C199.13 803.992 199.53 804.024 199.834 804.344C200.202 804.712 200.218 805.32 200.218 806.136V811H201.626V806.296C201.626 805.176 201.834 804.68 202.17 804.344C202.426 804.104 202.746 803.992 203.114 803.992C203.418 803.992 203.818 804.04 204.122 804.328C204.49 804.696 204.506 805.304 204.506 806.136V811H205.914V805.72C205.914 803.752 205.114 802.808 203.594 802.808ZM211.324 811.192C212.94 811.192 214.62 810.632 214.62 808.68C214.62 806.808 212.972 806.536 211.372 806.2C210.412 805.992 209.452 805.784 209.452 805.048C209.452 804.312 210.268 803.944 211.052 803.944C212.316 803.944 213.036 804.536 213.068 805.64L214.412 805.432C214.236 803.48 212.764 802.808 211.068 802.808C209.644 802.808 208.108 803.48 208.108 805.144C208.108 806.728 209.388 807.112 210.684 807.448C211.788 807.736 213.26 807.848 213.26 808.76C213.26 809.608 212.604 810.056 211.292 810.056C210.044 810.056 209.228 809.368 209.244 808.248L207.932 808.376C207.916 810.36 209.532 811.192 211.324 811.192Z" fill="black"/>
<path d="M272.712 805.272C273.56 804.808 274.12 803.96 274.12 802.856C274.12 800.056 271.896 799.8 269.912 799.8H266.424V811H270.024C272.152 811 274.504 810.824 274.504 807.912C274.504 806.552 273.928 805.752 272.712 805.272ZM267.848 801.048H269.8C271.208 801.048 272.712 801.064 272.712 802.872C272.712 804.648 271.24 804.664 269.8 804.664H267.848V801.048ZM270.024 809.768H267.848V805.912H270.104C271.336 805.912 273.096 805.912 273.096 807.912C273.096 809.768 271.624 809.768 270.024 809.768ZM279.522 809.784V799.8H276.754V801.016H278.082V809.784H276.482V811H280.978V809.784H279.522ZM286.753 811.192C289.153 811.192 290.737 809.512 290.737 807C290.737 804.584 289.201 802.808 286.753 802.808C284.273 802.808 282.753 804.568 282.753 807C282.753 809.608 284.257 811.192 286.753 811.192ZM286.753 810.056C284.897 810.056 284.305 808.888 284.305 807C284.305 805.112 284.913 803.944 286.753 803.944C288.561 803.944 289.185 805.112 289.185 807C289.185 808.888 288.561 810.056 286.753 810.056ZM298.492 803V804.12C297.932 803.272 297.116 802.808 295.916 802.808C293.772 802.808 292.3 804.424 292.3 806.792C292.3 809.288 293.756 810.936 295.964 810.936C297.068 810.936 297.9 810.488 298.492 809.56V810.92C298.492 812.376 297.548 813.16 296.252 813.16C294.972 813.16 294.124 812.808 294.06 811.48L292.684 811.576C292.764 813.592 294.508 814.28 296.092 814.28C298.444 814.28 299.932 812.968 299.932 810.824V803H298.492ZM296.188 809.784C294.348 809.784 293.868 808.664 293.868 806.792C293.868 805.064 294.428 803.96 296.22 803.96C297.724 803.96 298.556 804.904 298.556 806.792C298.556 808.264 298.028 809.784 296.188 809.784Z" fill="black"/>
<g clip-path="url(#clip0)">
<path d="M367 789C364.231 789 361.524 789.821 359.222 791.359C356.92 792.898 355.125 795.084 354.066 797.642C353.006 800.201 352.729 803.016 353.269 805.731C353.809 808.447 355.143 810.942 357.101 812.899C359.058 814.857 361.553 816.191 364.269 816.731C366.984 817.271 369.799 816.994 372.358 815.934C374.916 814.875 377.102 813.08 378.641 810.778C380.179 808.476 381 805.769 381 803C381 799.287 379.525 795.726 376.899 793.101C374.274 790.475 370.713 789 367 789ZM367 815C364.627 815 362.307 814.296 360.333 812.978C358.36 811.659 356.822 809.785 355.913 807.592C355.005 805.399 354.768 802.987 355.231 800.659C355.694 798.331 356.836 796.193 358.515 794.515C360.193 792.836 362.331 791.694 364.659 791.231C366.987 790.768 369.399 791.005 371.592 791.913C373.785 792.822 375.659 794.36 376.978 796.333C378.296 798.307 379 800.627 379 803C379 806.183 377.736 809.235 375.485 811.485C373.235 813.736 370.183 815 367 815ZM363 803C363 803.396 362.883 803.782 362.663 804.111C362.443 804.44 362.131 804.696 361.765 804.848C361.4 804.999 360.998 805.039 360.61 804.962C360.222 804.884 359.865 804.694 359.586 804.414C359.306 804.135 359.116 803.778 359.038 803.39C358.961 803.002 359.001 802.6 359.152 802.235C359.304 801.869 359.56 801.557 359.889 801.337C360.218 801.117 360.604 801 361 801C361.53 801 362.039 801.211 362.414 801.586C362.789 801.961 363 802.47 363 803ZM369 803C369 803.396 368.883 803.782 368.663 804.111C368.443 804.44 368.131 804.696 367.765 804.848C367.4 804.999 366.998 805.039 366.61 804.962C366.222 804.884 365.865 804.694 365.586 804.414C365.306 804.135 365.116 803.778 365.038 803.39C364.961 803.002 365.001 802.6 365.152 802.235C365.304 801.869 365.56 801.557 365.889 801.337C366.218 801.117 366.604 801 367 801C367.53 801 368.039 801.211 368.414 801.586C368.789 801.961 369 802.47 369 803ZM375 803C375 803.396 374.883 803.782 374.663 804.111C374.443 804.44 374.131 804.696 373.765 804.848C373.4 804.999 372.998 805.039 372.61 804.962C372.222 804.884 371.865 804.694 371.586 804.414C371.306 804.135 371.116 803.778 371.038 803.39C370.961 803.002 371.001 802.6 371.152 802.235C371.304 801.869 371.56 801.557 371.889 801.337C372.218 801.117 372.604 801 373 801C373.53 801 374.039 801.211 374.414 801.586C374.789 801.961 375 802.47 375 803Z" fill="black"/>
</g>
<ellipse cx="76" cy="378.5" rx="1" ry="1.5" fill="#C4C4C4"/>
<rect x="81" y="308" width="266" height="32" fill="#C4C4C4"/>
<rect x="81" y="361" width="266" height="32" fill="#C4C4C4"/>
<rect x="81" y="414" width="266" height="32" fill="#C4C4C4"/>
</g>
<defs>
<filter id="filter0_d" x="0" y="0" width="435" height="872" filterUnits="userSpaceOnUse" color-interpolation-filters="sRGB">
<feFlood flood-opacity="0" result="BackgroundImageFix"/>
<feColorMatrix in="SourceAlpha" type="matrix" values="0 0 0 0 0 0 0 0 0 0 0 0 0 0 0 0 0 0 127 0"/>
<feMorphology radius="6" operator="dilate" in="SourceAlpha" result="effect1_dropShadow"/>
<feOffset dy="4"/>
<feGaussianBlur stdDeviation="12"/>
<feColorMatrix type="matrix" values="0 0 0 0 0 0 0 0 0 0 0 0 0 0 0 0 0 0 0.25 0"/>
<feBlend mode="normal" in2="BackgroundImageFix" result="effect1_dropShadow"/>
<feBlend mode="normal" in="SourceGraphic" in2="effect1_dropShadow" result="shape"/>
</filter>
<clipPath id="clip0">
<rect width="32" height="40" fill="white" transform="translate(351 787)"/>
</clipPath>
</defs>
</svg>
