<svg width="375" height="812" viewBox="0 0 375 812" fill="none" xmlns="http://www.w3.org/2000/svg">
<rect width="375" height="812" fill="#222222"/>
<rect y="746" width="375" height="66" fill="#C4C4C4"/>
<rect width="375" height="66" fill="#6E6E6E"/>
<circle cx="73" cy="33" r="26" fill="#D4D6DC"/>
<circle cx="149" cy="33" r="26" fill="#D4D6DC"/>
<circle cx="225" cy="33" r="26" fill="#D4D6DC"/>
<circle cx="301" cy="33" r="26" fill="#D4D6DC"/>
<rect x="61" y="198" width="253" height="306" rx="20" fill="#F5F7F9"/>
<path d="M135.336 549.384C139.432 549.384 143.976 547.912 143.976 542.472C143.976 537.768 140.328 536.936 136.04 536.2C133.128 535.688 129.896 534.952 129.896 532.392C129.896 529.864 132.328 528.616 134.696 528.616C138.056 528.616 140.136 530.504 140.264 533.736L143.272 533.192C142.76 528.008 139.08 526.216 134.664 526.216C131.08 526.216 126.92 527.976 126.92 532.52C126.92 536.744 130.6 538.024 133.96 538.824C137.192 539.624 140.968 539.592 140.968 542.696C140.968 545.864 138.28 546.952 135.24 546.952C131.912 546.952 129.448 545.032 129.352 541.544L126.28 541.864C126.376 546.984 130.536 549.384 135.336 549.384ZM158.564 533V541.992C158.564 546.632 155.876 546.984 154.436 546.984C153.508 546.984 152.452 546.952 151.524 546.056C150.564 545.128 150.596 543.88 150.596 542.408V533H147.62V542.568C147.62 544.264 147.652 546.28 148.9 547.592C150.052 548.808 151.556 549.384 153.636 549.384C155.908 549.384 157.7 548.424 158.564 546.6V549H161.444V533H158.564ZM179.263 534.408C178.111 533.192 176.607 532.616 174.495 532.616C171.935 532.616 170.367 533.64 169.567 535.432V533H166.687V549H169.567V540.168C169.567 535.592 172.319 535.016 173.727 535.016C174.623 535.016 175.679 535.048 176.575 535.944C177.567 536.872 177.535 538.184 177.535 539.656V549H180.511V539.496C180.511 537.8 180.479 535.72 179.263 534.408ZM195.418 532.648C192.602 532.904 190.394 534.216 189.786 536.008V533H186.906V549H189.786V541.672C189.786 536.392 192.378 535.304 195.674 535.304C196.026 535.304 196.41 535.304 196.666 535.336L196.73 532.616C196.442 532.616 195.706 532.616 195.418 532.648ZM207.172 526.344H204.004V530.056H207.172V526.344ZM207.14 546.568V533H201.54V535.432H204.26V546.568H201.092V549H210.084V546.568H207.14ZM220.961 549.384C224.193 549.384 227.553 548.264 227.553 544.36C227.553 540.616 224.257 540.072 221.057 539.4C219.137 538.984 217.217 538.568 217.217 537.096C217.217 535.624 218.849 534.888 220.417 534.888C222.945 534.888 224.385 536.072 224.449 538.28L227.137 537.864C226.785 533.96 223.841 532.616 220.449 532.616C217.601 532.616 214.529 533.96 214.529 537.288C214.529 540.456 217.089 541.224 219.681 541.896C221.889 542.472 224.833 542.696 224.833 544.52C224.833 546.216 223.521 547.112 220.897 547.112C218.401 547.112 216.769 545.736 216.801 543.496L214.177 543.752C214.145 547.72 217.377 549.384 220.961 549.384ZM245.368 535.784C244.056 533.704 241.656 532.616 239.128 532.616C236.824 532.616 234.872 533.416 233.464 535.016C232.12 536.52 231.448 538.6 231.448 540.968C231.448 543.464 232.056 545.544 233.4 547.048C234.776 548.616 236.696 549.384 239.16 549.384C243.224 549.384 245.784 547.464 246.488 543.72L243.704 543.496C243.32 545.928 241.848 547.08 239.128 547.08C236.12 547.08 234.648 545.384 234.584 541.864H246.712C246.84 539.592 246.328 537.32 245.368 535.784ZM239.16 534.952C240.888 534.952 242.072 535.464 242.904 536.68C243.416 537.448 243.736 538.664 243.768 539.528H234.616C234.616 538.728 234.808 537.64 235.384 536.68C236.024 535.624 237.368 534.952 239.16 534.952Z" fill="#F5F7F9"/>
<path d="M136.46 585.24C139.02 585.24 141.86 584.32 141.86 580.92C141.86 577.98 139.58 577.46 136.9 577C135.08 576.68 133.06 576.22 133.06 574.62C133.06 573.04 134.58 572.26 136.06 572.26C138.16 572.26 139.46 573.44 139.54 575.46L141.42 575.12C141.1 571.88 138.8 570.76 136.04 570.76C133.8 570.76 131.2 571.86 131.2 574.7C131.2 577.34 133.5 578.14 135.6 578.64C137.62 579.14 139.98 579.12 139.98 581.06C139.98 583.04 138.3 583.72 136.4 583.72C134.32 583.72 132.78 582.52 132.72 580.34L130.8 580.54C130.86 583.74 133.46 585.24 136.46 585.24ZM147.258 585.24C148.958 585.24 150.058 584.66 150.618 583.52C150.718 584.56 151.318 585.08 152.418 585.08C152.818 585.08 153.158 585.06 153.538 585L153.498 583.52C153.238 583.58 153.078 583.6 152.918 583.6C152.338 583.6 152.338 583.36 152.338 582.84V578.06C152.338 575.88 151.058 574.76 148.538 574.76C147.258 574.76 146.198 575.02 145.478 575.5C144.698 576.02 144.278 576.9 144.238 578.1L145.998 578.34C145.998 576.82 146.698 576.18 148.438 576.18C149.318 576.18 149.978 576.44 150.258 576.84C150.558 577.26 150.598 577.76 150.598 578.66L147.298 579.3C145.718 579.6 143.898 580.2 143.898 582.36C143.898 584.32 145.578 585.24 147.258 585.24ZM147.538 583.8C146.558 583.8 145.738 583.28 145.738 582.34C145.738 581.2 146.518 580.9 147.578 580.66L150.598 580V581.22C150.598 582.66 149.718 583.8 147.538 583.8ZM159.559 583.48V571H156.099V572.52H157.759V583.48H155.759V585H161.379V583.48H159.559ZM167.977 583.48V571H164.517V572.52H166.177V583.48H164.177V585H169.797V583.48H167.977ZM179.435 575L177.515 580.4C177.235 581.2 177.015 581.84 176.615 583.06C176.295 582.06 175.975 581.08 175.735 580.4L173.835 575H171.915L175.815 584.9C175.135 586.62 174.795 587.44 174.055 587.44C173.575 587.44 173.135 587.34 172.775 587.22L172.735 588.9C173.235 589.04 173.795 589.1 174.295 589.1C175.675 589.1 176.415 588.12 177.235 585.92L181.315 575H179.435ZM195.24 585H197.06V579.02L201.88 571H199.76L197.54 575C197.12 575.76 196.68 576.56 196.14 577.6C195.64 576.66 194.86 575.24 194.74 575L192.52 571H190.42L195.24 579.02V585ZM206.105 585.24C207.805 585.24 208.905 584.66 209.465 583.52C209.565 584.56 210.165 585.08 211.265 585.08C211.665 585.08 212.005 585.06 212.385 585L212.345 583.52C212.085 583.58 211.925 583.6 211.765 583.6C211.185 583.6 211.185 583.36 211.185 582.84V578.06C211.185 575.88 209.905 574.76 207.385 574.76C206.105 574.76 205.045 575.02 204.325 575.5C203.545 576.02 203.125 576.9 203.085 578.1L204.845 578.34C204.845 576.82 205.545 576.18 207.285 576.18C208.165 576.18 208.825 576.44 209.105 576.84C209.405 577.26 209.445 577.76 209.445 578.66L206.145 579.3C204.565 579.6 202.745 580.2 202.745 582.36C202.745 584.32 204.425 585.24 206.105 585.24ZM206.385 583.8C205.405 583.8 204.585 583.28 204.585 582.34C204.585 581.2 205.365 580.9 206.425 580.66L209.445 580V581.22C209.445 582.66 208.565 583.8 206.385 583.8ZM219.348 585.1C219.928 585.1 220.508 585.02 220.828 584.94L220.788 583.3C220.368 583.4 219.868 583.48 219.488 583.48C218.408 583.48 218.028 583.28 218.028 582.48V576.5H220.868V575H218.028V572.22H216.248V575H214.148V576.5H216.248V582.54C216.248 584.36 217.188 585.1 219.348 585.1ZM231.988 576.74C231.168 575.44 229.668 574.76 228.088 574.76C226.648 574.76 225.428 575.26 224.548 576.26C223.708 577.2 223.288 578.5 223.288 579.98C223.288 581.54 223.668 582.84 224.508 583.78C225.368 584.76 226.568 585.24 228.108 585.24C230.648 585.24 232.248 584.04 232.688 581.7L230.948 581.56C230.708 583.08 229.788 583.8 228.088 583.8C226.208 583.8 225.288 582.74 225.248 580.54H232.828C232.908 579.12 232.588 577.7 231.988 576.74ZM228.108 576.22C229.188 576.22 229.928 576.54 230.448 577.3C230.768 577.78 230.968 578.54 230.988 579.08H225.268C225.268 578.58 225.388 577.9 225.748 577.3C226.148 576.64 226.988 576.22 228.108 576.22ZM239.507 585.24C241.527 585.24 243.627 584.54 243.627 582.1C243.627 579.76 241.567 579.42 239.567 579C238.367 578.74 237.167 578.48 237.167 577.56C237.167 576.64 238.187 576.18 239.167 576.18C240.747 576.18 241.647 576.92 241.687 578.3L243.367 578.04C243.147 575.6 241.307 574.76 239.187 574.76C237.407 574.76 235.487 575.6 235.487 577.68C235.487 579.66 237.087 580.14 238.707 580.56C240.087 580.92 241.927 581.06 241.927 582.2C241.927 583.26 241.107 583.82 239.467 583.82C237.907 583.82 236.887 582.96 236.907 581.56L235.267 581.72C235.247 584.2 237.267 585.24 239.507 585.24Z" fill="#F5F7F9"/>
<path d="M148.832 613.784C148.064 613.784 147.312 614.024 146.832 614.536L147.312 611.304H151.84V610.04H146.144L145.296 615.96L146.512 616.056C147.024 615.368 147.68 615.048 148.624 615.048C150.176 615.048 151.056 615.864 151.056 617.352C151.056 619.112 150.208 619.992 148.608 619.992C147.44 619.992 146.464 619.144 146.464 617.464L145.072 617.672C145.072 619.768 146.464 621.192 148.544 621.192C151.104 621.192 152.416 619.512 152.416 617.464C152.416 614.872 150.752 613.784 148.832 613.784ZM161.906 612.808C161.186 612.808 160.706 613 160.338 613.336C160.034 613.592 159.826 613.88 159.682 614.296C159.378 613.352 158.674 612.808 157.634 612.808C156.946 612.808 156.466 613.016 156.114 613.32C155.858 613.56 155.714 613.8 155.618 614.04V613H154.258V621H155.65V616.296C155.65 615.176 155.842 614.696 156.194 614.344C156.418 614.12 156.754 613.992 157.138 613.992C157.442 613.992 157.842 614.024 158.146 614.344C158.514 614.712 158.53 615.32 158.53 616.136V621H159.938V616.296C159.938 615.176 160.146 614.68 160.482 614.344C160.738 614.104 161.058 613.992 161.426 613.992C161.73 613.992 162.13 614.04 162.434 614.328C162.802 614.696 162.818 615.304 162.818 616.136V621H164.226V615.72C164.226 613.752 163.426 612.808 161.906 612.808ZM169.477 609.672H167.893V611.528H169.477V609.672ZM169.461 619.784V613H166.661V614.216H168.021V619.784H166.437V621H170.933V619.784H169.461ZM179.491 613.704C178.915 613.096 178.163 612.808 177.107 612.808C175.827 612.808 175.043 613.32 174.643 614.216V613H173.203V621H174.643V616.584C174.643 614.296 176.019 614.008 176.723 614.008C177.171 614.008 177.699 614.024 178.147 614.472C178.643 614.936 178.627 615.592 178.627 616.328V621H180.115V616.248C180.115 615.4 180.099 614.36 179.491 613.704ZM183.809 623.304C184.913 623.096 185.569 622.28 185.569 621.032V619.096H183.793V621H184.609C184.593 621.976 184.193 622.28 183.809 622.424V623.304ZM197.074 619.736C197.346 618.44 198.738 617.592 200.018 616.808C201.314 616.008 202.754 615.016 202.754 613.128C202.754 611.128 201.474 609.848 199.49 609.848C196.642 609.848 195.874 611.864 195.89 613.24L197.314 613.464C197.314 612.632 197.522 611.048 199.426 611.048C200.674 611.048 201.33 611.784 201.33 613.112C201.33 614.712 199.634 615.496 198.594 616.168C197.106 617.112 195.65 618.328 195.458 621H202.77V619.736H197.074ZM208.613 609.848C205.941 609.848 204.661 612.184 204.661 615.512C204.661 619.256 206.037 621.192 208.613 621.192C211.285 621.192 212.581 618.872 212.581 615.512C212.581 612.2 211.285 609.848 208.613 609.848ZM208.613 611.08C209.157 611.08 209.589 611.192 209.925 611.432L206.533 618.472C206.293 617.736 206.197 616.76 206.197 615.512C206.197 612.664 206.661 611.08 208.613 611.08ZM208.613 619.992C208.053 619.992 207.605 619.864 207.269 619.592L210.677 612.488C210.949 613.224 211.045 614.248 211.045 615.512C211.045 618.376 210.549 619.992 208.613 619.992ZM218.718 619.736V610.04H217.598C217.358 611.4 216.35 612.056 214.558 612.056L214.542 612.088V613.272L214.558 613.304C214.702 613.304 214.83 613.32 214.974 613.32C215.966 613.32 216.862 613.112 217.294 612.584V619.736H215.806V621H220.078V619.736H218.718ZM225.921 609.848C223.169 609.848 222.241 611.944 222.241 613.608C222.241 615.704 223.505 617.288 225.617 617.288C226.737 617.288 227.681 616.744 228.353 615.752C228.289 618.632 227.409 619.992 225.713 619.992C224.433 619.992 223.905 619.016 223.841 617.96L222.545 618.184C222.705 619.8 223.617 621.192 225.665 621.192C228.769 621.192 229.697 618.728 229.697 615.224C229.697 612.888 229.153 609.848 225.921 609.848ZM225.857 616.04C224.353 616.04 223.601 615.224 223.601 613.64C223.601 611.88 224.369 611.048 225.937 611.048C227.489 611.048 228.177 612.168 228.177 613.528C228.177 615.064 227.297 616.04 225.857 616.04Z" fill="#F5F7F9"/>
<path d="M323.539 626.353C333.991 626.353 342.493 634.898 342.493 645.404C342.493 655.909 333.991 664.416 323.539 664.416C313.087 664.416 304.585 655.909 304.585 645.404C304.585 634.898 313.087 626.353 323.539 626.353ZM323.539 628.705C314.374 628.705 306.925 636.192 306.925 645.404C306.925 654.577 314.374 662.064 323.539 662.064C332.704 662.064 340.153 654.577 340.153 645.365C340.153 636.192 332.704 628.705 323.539 628.705Z" fill="white"/>
<path d="M331.69 644.894L321.511 634.663C321.082 634.232 320.419 634.232 320.029 634.663C319.6 635.094 319.6 635.761 320.029 636.153L329.506 645.678L320.029 655.204C319.6 655.635 319.6 656.301 320.029 656.693C320.224 656.889 320.497 657.007 320.77 657.007C321.043 657.007 321.316 656.889 321.511 656.693L331.69 646.462C331.885 646.266 332.002 645.953 332.002 645.678C332.002 645.404 331.885 645.129 331.69 644.894Z" fill="white"/>
<path d="M51.461 626.353C41.009 626.353 32.507 634.898 32.507 645.404C32.507 655.909 41.009 664.416 51.461 664.416C61.913 664.416 70.415 655.909 70.415 645.404C70.415 634.898 61.913 626.353 51.461 626.353ZM51.461 628.705C60.626 628.705 68.075 636.192 68.075 645.404C68.075 654.577 60.626 662.064 51.461 662.064C42.296 662.064 34.847 654.577 34.847 645.365C34.847 636.192 42.296 628.705 51.461 628.705Z" fill="white"/>
<path d="M43.3102 644.894L53.4892 634.663C53.9182 634.232 54.5812 634.232 54.9712 634.663C55.4002 635.094 55.4002 635.761 54.9712 636.153L45.4942 645.678L54.9712 655.204C55.4002 655.635 55.4002 656.301 54.9712 656.693C54.7762 656.889 54.5032 657.007 54.2302 657.007C53.9572 657.007 53.6842 656.889 53.4892 656.693L43.3102 646.462C43.1152 646.266 42.9982 645.953 42.9982 645.678C42.9982 645.404 43.1152 645.129 43.3102 644.894Z" fill="white"/>
<rect x="16" y="124" width="343" height="562" rx="20" fill="#D4D6DC"/>
<path d="M48.336 207.384C52.432 207.384 56.976 205.912 56.976 200.472C56.976 195.768 53.328 194.936 49.04 194.2C46.128 193.688 42.896 192.952 42.896 190.392C42.896 187.864 45.328 186.616 47.696 186.616C51.056 186.616 53.136 188.504 53.264 191.736L56.272 191.192C55.76 186.008 52.08 184.216 47.664 184.216C44.08 184.216 39.92 185.976 39.92 190.52C39.92 194.744 43.6 196.024 46.96 196.824C50.192 197.624 53.968 197.592 53.968 200.696C53.968 203.864 51.28 204.952 48.24 204.952C44.912 204.952 42.448 203.032 42.352 199.544L39.28 199.864C39.376 204.984 43.536 207.384 48.336 207.384ZM71.5643 191V199.992C71.5643 204.632 68.8763 204.984 67.4363 204.984C66.5083 204.984 65.4523 204.952 64.5243 204.056C63.5643 203.128 63.5963 201.88 63.5963 200.408V191H60.6203V200.568C60.6203 202.264 60.6523 204.28 61.9003 205.592C63.0523 206.808 64.5563 207.384 66.6363 207.384C68.9083 207.384 70.7003 206.424 71.5643 204.6V207H74.4443V191H71.5643ZM87.6553 190.584C85.4153 190.584 83.7193 191.384 82.5033 193.08V184.6H79.6233V207H82.5033V204.664C83.6873 206.488 85.4153 207.384 87.5593 207.384C91.8153 207.384 94.9193 204.216 94.9193 199C94.9193 193.944 91.9753 190.584 87.6553 190.584ZM87.0473 205.176C83.9753 205.176 82.4073 203.064 82.4073 199.032C82.4073 196.056 83.0793 192.856 86.9833 192.856C90.5673 192.856 91.7513 195.16 91.7513 199C91.7513 202.744 90.7913 205.176 87.0473 205.176ZM113.594 190.616C112.154 190.616 111.194 191 110.458 191.672C109.85 192.184 109.434 192.76 109.146 193.592C108.538 191.704 107.13 190.616 105.05 190.616C103.674 190.616 102.714 191.032 102.01 191.64C101.498 192.12 101.21 192.6 101.018 193.08V191H98.298V207H101.082V197.592C101.082 195.352 101.466 194.392 102.17 193.688C102.618 193.24 103.29 192.984 104.058 192.984C104.666 192.984 105.466 193.048 106.074 193.688C106.81 194.424 106.842 195.64 106.842 197.272V207H109.658V197.592C109.658 195.352 110.074 194.36 110.746 193.688C111.258 193.208 111.898 192.984 112.634 192.984C113.242 192.984 114.042 193.08 114.65 193.656C115.386 194.392 115.418 195.608 115.418 197.272V207H118.234V196.44C118.234 192.504 116.634 190.616 113.594 190.616ZM128.735 184.344H125.567V188.056H128.735V184.344ZM128.703 204.568V191H123.103V193.432H125.823V204.568H122.655V207H131.647V204.568H128.703ZM142.523 207.384C145.755 207.384 149.115 206.264 149.115 202.36C149.115 198.616 145.819 198.072 142.619 197.4C140.699 196.984 138.779 196.568 138.779 195.096C138.779 193.624 140.411 192.888 141.979 192.888C144.507 192.888 145.947 194.072 146.011 196.28L148.699 195.864C148.347 191.96 145.403 190.616 142.011 190.616C139.163 190.616 136.091 191.96 136.091 195.288C136.091 198.456 138.651 199.224 141.243 199.896C143.451 200.472 146.395 200.696 146.395 202.52C146.395 204.216 145.083 205.112 142.459 205.112C139.963 205.112 138.331 203.736 138.363 201.496L135.739 201.752C135.707 205.72 138.939 207.384 142.523 207.384ZM160.242 207.384C163.474 207.384 166.834 206.264 166.834 202.36C166.834 198.616 163.538 198.072 160.338 197.4C158.418 196.984 156.498 196.568 156.498 195.096C156.498 193.624 158.13 192.888 159.698 192.888C162.226 192.888 163.666 194.072 163.73 196.28L166.418 195.864C166.066 191.96 163.122 190.616 159.73 190.616C156.882 190.616 153.81 191.96 153.81 195.288C153.81 198.456 156.37 199.224 158.962 199.896C161.17 200.472 164.114 200.696 164.114 202.52C164.114 204.216 162.802 205.112 160.178 205.112C157.682 205.112 156.05 203.736 156.082 201.496L153.458 201.752C153.426 205.72 156.658 207.384 160.242 207.384ZM177.641 184.344H174.473V188.056H177.641V184.344ZM177.609 204.568V191H172.009V193.432H174.729V204.568H171.561V207H180.553V204.568H177.609ZM192.006 207.384C196.806 207.384 199.974 204.024 199.974 199C199.974 194.168 196.902 190.616 192.006 190.616C187.046 190.616 184.006 194.136 184.006 199C184.006 204.216 187.014 207.384 192.006 207.384ZM192.006 205.112C188.294 205.112 187.11 202.776 187.11 199C187.11 195.224 188.326 192.888 192.006 192.888C195.622 192.888 196.87 195.224 196.87 199C196.87 202.776 195.622 205.112 192.006 205.112ZM216.732 192.408C215.58 191.192 214.076 190.616 211.964 190.616C209.404 190.616 207.836 191.64 207.036 193.432V191H204.156V207H207.036V198.168C207.036 193.592 209.788 193.016 211.196 193.016C212.092 193.016 213.148 193.048 214.044 193.944C215.036 194.872 215.004 196.184 215.004 197.656V207H217.98V197.496C217.98 195.8 217.948 193.72 216.732 192.408ZM242.867 207.384C246.099 207.384 249.459 206.264 249.459 202.36C249.459 198.616 246.163 198.072 242.963 197.4C241.043 196.984 239.123 196.568 239.123 195.096C239.123 193.624 240.755 192.888 242.323 192.888C244.851 192.888 246.291 194.072 246.355 196.28L249.043 195.864C248.691 191.96 245.747 190.616 242.355 190.616C239.507 190.616 236.435 191.96 236.435 195.288C236.435 198.456 238.995 199.224 241.587 199.896C243.795 200.472 246.739 200.696 246.739 202.52C246.739 204.216 245.427 205.112 242.803 205.112C240.307 205.112 238.675 203.736 238.707 201.496L236.083 201.752C236.051 205.72 239.283 207.384 242.867 207.384ZM261.676 207.16C262.604 207.16 263.532 207.032 264.044 206.904L263.98 204.28C263.308 204.44 262.508 204.568 261.9 204.568C260.172 204.568 259.564 204.248 259.564 202.968V193.4H264.108V191H259.564V186.552H256.716V191H253.356V193.4H256.716V203.064C256.716 205.976 258.22 207.16 261.676 207.16ZM273.8 207.384C276.52 207.384 278.28 206.456 279.176 204.632C279.336 206.296 280.296 207.128 282.056 207.128C282.696 207.128 283.24 207.096 283.848 207L283.784 204.632C283.368 204.728 283.112 204.76 282.856 204.76C281.928 204.76 281.928 204.376 281.928 203.544V195.896C281.928 192.408 279.88 190.616 275.848 190.616C273.8 190.616 272.104 191.032 270.952 191.8C269.704 192.632 269.032 194.04 268.968 195.96L271.784 196.344C271.784 193.912 272.904 192.888 275.688 192.888C277.096 192.888 278.152 193.304 278.6 193.944C279.08 194.616 279.144 195.416 279.144 196.856L273.864 197.88C271.336 198.36 268.424 199.32 268.424 202.776C268.424 205.912 271.112 207.384 273.8 207.384ZM274.248 205.08C272.68 205.08 271.368 204.248 271.368 202.744C271.368 200.92 272.616 200.44 274.312 200.056L279.144 199V200.952C279.144 203.256 277.736 205.08 274.248 205.08ZM294.989 207.16C295.917 207.16 296.845 207.032 297.357 206.904L297.293 204.28C296.621 204.44 295.821 204.568 295.213 204.568C293.485 204.568 292.877 204.248 292.877 202.968V193.4H297.421V191H292.877V186.552H290.029V191H286.669V193.4H290.029V203.064C290.029 205.976 291.533 207.16 294.989 207.16ZM313.064 191V199.992C313.064 204.632 310.376 204.984 308.936 204.984C308.008 204.984 306.952 204.952 306.024 204.056C305.064 203.128 305.096 201.88 305.096 200.408V191H302.12V200.568C302.12 202.264 302.152 204.28 303.4 205.592C304.552 206.808 306.056 207.384 308.136 207.384C310.408 207.384 312.2 206.424 313.064 204.6V207H315.944V191H313.064ZM327.523 207.384C330.755 207.384 334.115 206.264 334.115 202.36C334.115 198.616 330.819 198.072 327.619 197.4C325.699 196.984 323.779 196.568 323.779 195.096C323.779 193.624 325.411 192.888 326.979 192.888C329.507 192.888 330.947 194.072 331.011 196.28L333.699 195.864C333.347 191.96 330.403 190.616 327.011 190.616C324.163 190.616 321.091 191.96 321.091 195.288C321.091 198.456 323.651 199.224 326.243 199.896C328.451 200.472 331.395 200.696 331.395 202.52C331.395 204.216 330.083 205.112 327.459 205.112C324.963 205.112 323.331 203.736 323.363 201.496L320.739 201.752C320.707 205.72 323.939 207.384 327.523 207.384Z" fill="#222222"/>
<path d="M332 164C340.28 164 347 157.28 347 149C347 140.72 340.28 134 332 134C323.72 134 317 140.72 317 149C317 157.28 323.72 164 332 164ZM332 135.2C339.6 135.2 345.8 141.4 345.8 149C345.8 156.6 339.6 162.8 332 162.8C324.4 162.8 318.2 156.6 318.2 149C318.2 141.4 324.4 135.2 332 135.2Z" fill="#222222"/>
<path d="M326.759 154.24C326.879 154.36 327.039 154.4 327.199 154.4C327.359 154.4 327.519 154.36 327.639 154.24L332.039 149.84L336.439 154.24C336.559 154.36 336.719 154.4 336.879 154.4C337.039 154.4 337.199 154.36 337.319 154.24C337.559 154 337.559 153.64 337.319 153.4L332.919 149L337.319 144.6C337.559 144.36 337.559 144 337.319 143.76C337.079 143.52 336.719 143.52 336.479 143.76L332.079 148.16L327.679 143.76C327.439 143.52 327.079 143.52 326.839 143.76C326.599 144 326.599 144.36 326.839 144.6L331.239 149L326.839 153.4C326.519 153.6 326.519 154 326.759 154.24Z" fill="#222222"/>
<path d="M17.632 785H24.688V783.736H19.072V773.8H17.632V785ZM29.6641 773.672H28.0801V775.528H29.6641V773.672ZM29.6481 783.784V777H26.8481V778.216H28.2081V783.784H26.6241V785H31.1201V783.784H29.6481ZM35.7105 785H37.2465L40.2385 777H38.7345L37.2945 781.144C37.0385 781.88 36.7505 782.792 36.4785 783.672C36.0945 782.392 35.8225 781.56 35.6785 781.144L34.2545 777H32.7185L35.7105 785ZM48.6525 778.392C47.9965 777.352 46.7965 776.808 45.5325 776.808C44.3805 776.808 43.4045 777.208 42.7005 778.008C42.0285 778.76 41.6925 779.8 41.6925 780.984C41.6925 782.232 41.9965 783.272 42.6685 784.024C43.3565 784.808 44.3165 785.192 45.5485 785.192C47.5805 785.192 48.8605 784.232 49.2125 782.36L47.8205 782.248C47.6285 783.464 46.8925 784.04 45.5325 784.04C44.0285 784.04 43.2925 783.192 43.2605 781.432H49.3245C49.3885 780.296 49.1325 779.16 48.6525 778.392ZM45.5485 777.976C46.4125 777.976 47.0045 778.232 47.4205 778.84C47.6765 779.224 47.8365 779.832 47.8525 780.264H43.2765C43.2765 779.864 43.3725 779.32 43.6605 778.84C43.9805 778.312 44.6525 777.976 45.5485 777.976ZM59.6899 785H61.1139V778.2H63.3859V777H61.1139V775.672C61.1139 775.144 61.4659 775 62.2659 775C62.5699 775 62.9699 775.032 63.2739 775.096L63.3059 773.816C63.0979 773.768 62.6339 773.72 62.1859 773.72C60.4419 773.72 59.6899 774.344 59.6899 775.64V777H58.0099V778.2H59.6899V785ZM72.0431 778.392C71.3871 777.352 70.1871 776.808 68.9231 776.808C67.7711 776.808 66.7951 777.208 66.0911 778.008C65.4191 778.76 65.0831 779.8 65.0831 780.984C65.0831 782.232 65.3871 783.272 66.0591 784.024C66.7471 784.808 67.7071 785.192 68.9391 785.192C70.9711 785.192 72.2511 784.232 72.6031 782.36L71.2111 782.248C71.0191 783.464 70.2831 784.04 68.9231 784.04C67.4191 784.04 66.6831 783.192 66.6511 781.432H72.7151C72.7791 780.296 72.5231 779.16 72.0431 778.392ZM68.9391 777.976C69.8031 777.976 70.3951 778.232 70.8111 778.84C71.0671 779.224 71.2271 779.832 71.2431 780.264H66.6671C66.6671 779.864 66.7631 779.32 67.0511 778.84C67.3711 778.312 68.0431 777.976 68.9391 777.976ZM81.4025 778.392C80.7465 777.352 79.5465 776.808 78.2825 776.808C77.1305 776.808 76.1545 777.208 75.4505 778.008C74.7785 778.76 74.4425 779.8 74.4425 780.984C74.4425 782.232 74.7465 783.272 75.4185 784.024C76.1065 784.808 77.0665 785.192 78.2985 785.192C80.3305 785.192 81.6105 784.232 81.9625 782.36L80.5705 782.248C80.3785 783.464 79.6425 784.04 78.2825 784.04C76.7785 784.04 76.0425 783.192 76.0105 781.432H82.0745C82.1385 780.296 81.8825 779.16 81.4025 778.392ZM78.2985 777.976C79.1625 777.976 79.7545 778.232 80.1705 778.84C80.4265 779.224 80.5865 779.832 80.6025 780.264H76.0265C76.0265 779.864 76.1225 779.32 76.4105 778.84C76.7305 778.312 77.4025 777.976 78.2985 777.976ZM89.8499 773.8V778.04C89.2419 777.192 88.3939 776.808 87.2739 776.808C85.1139 776.808 83.6419 778.472 83.6419 781C83.6419 783.608 85.1939 785.192 87.3219 785.192C88.3939 785.192 89.2579 784.744 89.8499 783.832V785H91.2899V773.8H89.8499ZM87.5779 784.056C85.7059 784.056 85.2259 782.872 85.2259 781C85.2259 779.08 85.8179 777.96 87.6099 777.96C89.5619 777.96 89.8979 779.528 89.8979 781.016C89.8979 783.032 89.1139 784.056 87.5779 784.056Z" fill="black"/>
<path d="M143.616 785H145.056V779.992H150.096V778.696H145.056V775.096H150.688V773.8H143.616V785ZM155.789 773.672H154.205V775.528H155.789V773.672ZM155.773 783.784V777H152.973V778.216H154.333V783.784H152.749V785H157.245V783.784H155.773ZM162.476 783.784V773.8H159.708V775.016H161.036V783.784H159.436V785H163.932V783.784H162.476ZM173.594 776.808C172.874 776.808 172.394 777 172.026 777.336C171.722 777.592 171.514 777.88 171.37 778.296C171.066 777.352 170.362 776.808 169.322 776.808C168.634 776.808 168.154 777.016 167.802 777.32C167.546 777.56 167.402 777.8 167.306 778.04V777H165.946V785H167.338V780.296C167.338 779.176 167.53 778.696 167.882 778.344C168.106 778.12 168.442 777.992 168.826 777.992C169.13 777.992 169.53 778.024 169.834 778.344C170.202 778.712 170.218 779.32 170.218 780.136V785H171.626V780.296C171.626 779.176 171.834 778.68 172.17 778.344C172.426 778.104 172.746 777.992 173.114 777.992C173.418 777.992 173.818 778.04 174.122 778.328C174.49 778.696 174.506 779.304 174.506 780.136V785H175.914V779.72C175.914 777.752 175.114 776.808 173.594 776.808ZM181.324 785.192C182.94 785.192 184.62 784.632 184.62 782.68C184.62 780.808 182.972 780.536 181.372 780.2C180.412 779.992 179.452 779.784 179.452 779.048C179.452 778.312 180.268 777.944 181.052 777.944C182.316 777.944 183.036 778.536 183.068 779.64L184.412 779.432C184.236 777.48 182.764 776.808 181.068 776.808C179.644 776.808 178.108 777.48 178.108 779.144C178.108 780.728 179.388 781.112 180.684 781.448C181.788 781.736 183.26 781.848 183.26 782.76C183.26 783.608 182.604 784.056 181.292 784.056C180.044 784.056 179.228 783.368 179.244 782.248L177.932 782.376C177.916 784.36 179.532 785.192 181.324 785.192Z" fill="black"/>
<path d="M242.712 779.272C243.56 778.808 244.12 777.96 244.12 776.856C244.12 774.056 241.896 773.8 239.912 773.8H236.424V785H240.024C242.152 785 244.504 784.824 244.504 781.912C244.504 780.552 243.928 779.752 242.712 779.272ZM237.848 775.048H239.8C241.208 775.048 242.712 775.064 242.712 776.872C242.712 778.648 241.24 778.664 239.8 778.664H237.848V775.048ZM240.024 783.768H237.848V779.912H240.104C241.336 779.912 243.096 779.912 243.096 781.912C243.096 783.768 241.624 783.768 240.024 783.768ZM249.522 783.784V773.8H246.754V775.016H248.082V783.784H246.482V785H250.978V783.784H249.522ZM256.753 785.192C259.153 785.192 260.737 783.512 260.737 781C260.737 778.584 259.201 776.808 256.753 776.808C254.273 776.808 252.753 778.568 252.753 781C252.753 783.608 254.257 785.192 256.753 785.192ZM256.753 784.056C254.897 784.056 254.305 782.888 254.305 781C254.305 779.112 254.913 777.944 256.753 777.944C258.561 777.944 259.185 779.112 259.185 781C259.185 782.888 258.561 784.056 256.753 784.056ZM268.492 777V778.12C267.932 777.272 267.116 776.808 265.916 776.808C263.772 776.808 262.3 778.424 262.3 780.792C262.3 783.288 263.756 784.936 265.964 784.936C267.068 784.936 267.9 784.488 268.492 783.56V784.92C268.492 786.376 267.548 787.16 266.252 787.16C264.972 787.16 264.124 786.808 264.06 785.48L262.684 785.576C262.764 787.592 264.508 788.28 266.092 788.28C268.444 788.28 269.932 786.968 269.932 784.824V777H268.492ZM266.188 783.784C264.348 783.784 263.868 782.664 263.868 780.792C263.868 779.064 264.428 777.96 266.22 777.96C267.724 777.96 268.556 778.904 268.556 780.792C268.556 782.264 268.028 783.784 266.188 783.784Z" fill="black"/>
<g clip-path="url(#clip0)">
<path d="M337 763C334.231 763 331.524 763.821 329.222 765.359C326.92 766.898 325.125 769.084 324.066 771.642C323.006 774.201 322.729 777.016 323.269 779.731C323.809 782.447 325.143 784.942 327.101 786.899C329.058 788.857 331.553 790.191 334.269 790.731C336.984 791.271 339.799 790.994 342.358 789.934C344.916 788.875 347.102 787.08 348.641 784.778C350.179 782.476 351 779.769 351 777C351 773.287 349.525 769.726 346.899 767.101C344.274 764.475 340.713 763 337 763ZM337 789C334.627 789 332.307 788.296 330.333 786.978C328.36 785.659 326.822 783.785 325.913 781.592C325.005 779.399 324.768 776.987 325.231 774.659C325.694 772.331 326.836 770.193 328.515 768.515C330.193 766.836 332.331 765.694 334.659 765.231C336.987 764.768 339.399 765.005 341.592 765.913C343.785 766.822 345.659 768.36 346.978 770.333C348.296 772.307 349 774.627 349 777C349 780.183 347.736 783.235 345.485 785.485C343.235 787.736 340.183 789 337 789ZM333 777C333 777.396 332.883 777.782 332.663 778.111C332.443 778.44 332.131 778.696 331.765 778.848C331.4 778.999 330.998 779.039 330.61 778.962C330.222 778.884 329.865 778.694 329.586 778.414C329.306 778.135 329.116 777.778 329.038 777.39C328.961 777.002 329.001 776.6 329.152 776.235C329.304 775.869 329.56 775.557 329.889 775.337C330.218 775.117 330.604 775 331 775C331.53 775 332.039 775.211 332.414 775.586C332.789 775.961 333 776.47 333 777ZM339 777C339 777.396 338.883 777.782 338.663 778.111C338.443 778.44 338.131 778.696 337.765 778.848C337.4 778.999 336.998 779.039 336.61 778.962C336.222 778.884 335.865 778.694 335.586 778.414C335.306 778.135 335.116 777.778 335.038 777.39C334.961 777.002 335.001 776.6 335.152 776.235C335.304 775.869 335.56 775.557 335.889 775.337C336.218 775.117 336.604 775 337 775C337.53 775 338.039 775.211 338.414 775.586C338.789 775.961 339 776.47 339 777ZM345 777C345 777.396 344.883 777.782 344.663 778.111C344.443 778.44 344.131 778.696 343.765 778.848C343.4 778.999 342.998 779.039 342.61 778.962C342.222 778.884 341.865 778.694 341.586 778.414C341.306 778.135 341.116 777.778 341.038 777.39C340.961 777.002 341.001 776.6 341.152 776.235C341.304 775.869 341.56 775.557 341.889 775.337C342.218 775.117 342.604 775 343 775C343.53 775 344.039 775.211 344.414 775.586C344.789 775.961 345 776.47 345 777Z" fill="black"/>
</g>
<line x1="51" y1="379.5" x2="231" y2="379.5" stroke="black" stroke-width="5"/>
<line x1="244" y1="379.5" x2="317" y2="379.5" stroke="#F5F7F9" stroke-width="5"/>
<ellipse cx="46" cy="352.5" rx="1" ry="1.5" fill="#C4C4C4"/>
<circle cx="49.5" cy="376.5" r="17.5" fill="#222222"/>
<circle cx="140.5" cy="376.5" r="17.5" fill="#222222"/>
<circle cx="239.5" cy="376.5" r="17.5" fill="#222222"/>
<circle cx="325.5" cy="376.5" r="17.5" fill="#F5F7F9"/>
<path d="M32.854 420.55C32.854 419.542 32.504 418.828 31.58 418.478C32.434 418.184 33.092 417.288 33.092 416.084C33.092 413.424 30.992 413.2 29.27 413.2H26.12V423H27.38V418.94H29.396C31.09 418.94 31.594 419.388 31.594 420.69C31.594 422.048 31.692 422.51 32.014 423H33.4L33.414 422.958C32.938 422.356 32.854 421.684 32.854 420.55ZM29.256 417.862H27.38V414.292H29.27C30.446 414.292 31.846 414.292 31.846 416.14C31.846 417.764 30.446 417.862 29.256 417.862ZM40.7604 417.218C40.1864 416.308 39.1364 415.832 38.0304 415.832C37.0224 415.832 36.1684 416.182 35.5524 416.882C34.9644 417.54 34.6704 418.45 34.6704 419.486C34.6704 420.578 34.9364 421.488 35.5244 422.146C36.1264 422.832 36.9664 423.168 38.0444 423.168C39.8224 423.168 40.9424 422.328 41.2504 420.69L40.0324 420.592C39.8644 421.656 39.2204 422.16 38.0304 422.16C36.7144 422.16 36.0704 421.418 36.0424 419.878H41.3484C41.4044 418.884 41.1804 417.89 40.7604 417.218ZM38.0444 416.854C38.8004 416.854 39.3184 417.078 39.6824 417.61C39.9064 417.946 40.0464 418.478 40.0604 418.856H36.0564C36.0564 418.506 36.1404 418.03 36.3924 417.61C36.6724 417.148 37.2604 416.854 38.0444 416.854ZM46.3878 423.168C48.0118 423.168 49.2298 422.272 49.4818 420.858L48.2918 420.732C48.0258 421.74 47.4658 422.16 46.3878 422.16C44.6938 422.16 44.3018 421.082 44.3018 419.5C44.3018 417.96 44.6798 416.84 46.3878 416.84C47.6478 416.84 48.0678 417.638 48.2778 418.45L49.4538 418.226C49.1738 416.896 48.1658 415.832 46.3878 415.832C44.2458 415.832 42.9158 417.344 42.9158 419.5C42.9158 421.796 44.2458 423.168 46.3878 423.168ZM57.0163 417.218C56.4423 416.308 55.3923 415.832 54.2863 415.832C53.2783 415.832 52.4243 416.182 51.8083 416.882C51.2203 417.54 50.9263 418.45 50.9263 419.486C50.9263 420.578 51.1923 421.488 51.7803 422.146C52.3823 422.832 53.2223 423.168 54.3003 423.168C56.0783 423.168 57.1983 422.328 57.5063 420.69L56.2883 420.592C56.1203 421.656 55.4763 422.16 54.2863 422.16C52.9703 422.16 52.3263 421.418 52.2983 419.878H57.6043C57.6603 418.884 57.4363 417.89 57.0163 417.218ZM54.3003 416.854C55.0563 416.854 55.5743 417.078 55.9383 417.61C56.1623 417.946 56.3023 418.478 56.3163 418.856H52.3123C52.3123 418.506 52.3963 418.03 52.6483 417.61C52.9283 417.148 53.5163 416.854 54.3003 416.854ZM62.1397 413.088H60.7537V414.712H62.1397V413.088ZM62.1257 421.936V416H59.6757V417.064H60.8657V421.936H59.4797V423H63.4137V421.936H62.1257ZM67.4303 423H68.7743L71.3923 416H70.0763L68.8163 419.626C68.5923 420.27 68.3403 421.068 68.1023 421.838C67.7663 420.718 67.5283 419.99 67.4023 419.626L66.1563 416H64.8123L67.4303 423ZM78.7545 417.218C78.1805 416.308 77.1305 415.832 76.0245 415.832C75.0165 415.832 74.1625 416.182 73.5465 416.882C72.9585 417.54 72.6645 418.45 72.6645 419.486C72.6645 420.578 72.9305 421.488 73.5185 422.146C74.1205 422.832 74.9605 423.168 76.0385 423.168C77.8165 423.168 78.9365 422.328 79.2445 420.69L78.0265 420.592C77.8585 421.656 77.2145 422.16 76.0245 422.16C74.7085 422.16 74.0645 421.418 74.0365 419.878H79.3425C79.3985 418.884 79.1745 417.89 78.7545 417.218ZM76.0385 416.854C76.7945 416.854 77.3125 417.078 77.6765 417.61C77.9005 417.946 78.0405 418.478 78.0545 418.856H74.0505C74.0505 418.506 74.1345 418.03 74.3865 417.61C74.6665 417.148 75.2545 416.854 76.0385 416.854ZM86.146 413.2V416.91C85.614 416.168 84.872 415.832 83.892 415.832C82.002 415.832 80.714 417.288 80.714 419.5C80.714 421.782 82.072 423.168 83.934 423.168C84.872 423.168 85.628 422.776 86.146 421.978V423H87.406V413.2H86.146ZM84.158 422.174C82.52 422.174 82.1 421.138 82.1 419.5C82.1 417.82 82.618 416.84 84.186 416.84C85.894 416.84 86.188 418.212 86.188 419.514C86.188 421.278 85.502 422.174 84.158 422.174Z" fill="black"/>
<path d="M120.668 423H121.984L125.33 413.2H123.958L122.194 418.814C121.704 420.34 121.41 421.376 121.34 421.586H121.326C121.228 421.292 120.934 420.34 120.458 418.814L118.694 413.2H117.322L120.668 423ZM129.435 413.088H128.049V414.712H129.435V413.088ZM129.421 421.936V416H126.971V417.064H128.161V421.936H126.775V423H130.709V421.936H129.421ZM138.393 417.218C137.819 416.308 136.769 415.832 135.663 415.832C134.655 415.832 133.801 416.182 133.185 416.882C132.597 417.54 132.303 418.45 132.303 419.486C132.303 420.578 132.569 421.488 133.157 422.146C133.759 422.832 134.599 423.168 135.677 423.168C137.455 423.168 138.575 422.328 138.883 420.69L137.665 420.592C137.497 421.656 136.853 422.16 135.663 422.16C134.347 422.16 133.703 421.418 133.675 419.878H138.981C139.037 418.884 138.813 417.89 138.393 417.218ZM135.677 416.854C136.433 416.854 136.951 417.078 137.315 417.61C137.539 417.946 137.679 418.478 137.693 418.856H133.689C133.689 418.506 133.773 418.03 134.025 417.61C134.305 417.148 134.893 416.854 135.677 416.854ZM141.81 423H143.21L143.994 419.878C144.106 419.416 144.274 418.688 144.386 418.03H144.414C144.54 418.73 144.736 419.612 144.806 419.878L145.618 423H147.004L148.852 416H147.522L146.682 419.738C146.556 420.298 146.43 420.97 146.276 421.782H146.248C146.122 421.068 145.926 420.2 145.814 419.738L145.002 416.49H143.812L143 419.738C142.916 420.074 142.678 421.096 142.538 421.782H142.51L142.104 419.738L141.306 416H139.962L141.81 423ZM155.948 417.218C155.374 416.308 154.324 415.832 153.218 415.832C152.21 415.832 151.356 416.182 150.74 416.882C150.152 417.54 149.858 418.45 149.858 419.486C149.858 420.578 150.124 421.488 150.712 422.146C151.314 422.832 152.154 423.168 153.232 423.168C155.01 423.168 156.13 422.328 156.438 420.69L155.22 420.592C155.052 421.656 154.408 422.16 153.218 422.16C151.902 422.16 151.258 421.418 151.23 419.878H156.536C156.592 418.884 156.368 417.89 155.948 417.218ZM153.232 416.854C153.988 416.854 154.506 417.078 154.87 417.61C155.094 417.946 155.234 418.478 155.248 418.856H151.244C151.244 418.506 151.328 418.03 151.58 417.61C151.86 417.148 152.448 416.854 153.232 416.854ZM163.339 413.2V416.91C162.807 416.168 162.065 415.832 161.085 415.832C159.195 415.832 157.907 417.288 157.907 419.5C157.907 421.782 159.265 423.168 161.127 423.168C162.065 423.168 162.821 422.776 163.339 421.978V423H164.599V413.2H163.339ZM161.351 422.174C159.713 422.174 159.293 421.138 159.293 419.5C159.293 417.82 159.811 416.84 161.379 416.84C163.087 416.84 163.381 418.212 163.381 419.514C163.381 421.278 162.695 422.174 161.351 422.174Z" fill="black"/>
<path d="M210.295 424.18C212.305 424.18 213.7 423.19 214.48 421.255L212.95 420.865C212.56 422.08 211.765 423.01 210.31 423.01C209.275 423.01 208.51 422.65 208.03 421.975C207.505 421.225 207.325 420.145 207.325 418.75C207.325 417.325 207.52 416.215 208.075 415.48C208.6 414.79 209.365 414.49 210.34 414.49C211.855 414.49 212.665 415.525 212.935 416.815L214.42 416.53C213.895 414.4 212.305 413.32 210.325 413.32C207.325 413.32 205.78 415.57 205.78 418.75C205.78 422.26 207.37 424.18 210.295 424.18ZM220.797 416.335C219.477 416.455 218.442 417.07 218.157 417.91V416.5H216.807V424H218.157V420.565C218.157 418.09 219.372 417.58 220.917 417.58C221.082 417.58 221.262 417.58 221.382 417.595L221.412 416.32C221.277 416.32 220.932 416.32 220.797 416.335ZM226.306 413.38H224.821V415.12H226.306V413.38ZM226.291 422.86V416.5H223.666V417.64H224.941V422.86H223.456V424H227.671V422.86H226.291ZM233.325 424.075C233.76 424.075 234.195 424.015 234.435 423.955L234.405 422.725C234.09 422.8 233.715 422.86 233.43 422.86C232.62 422.86 232.335 422.71 232.335 422.11V417.625H234.465V416.5H232.335V414.415H231V416.5H229.425V417.625H231V422.155C231 423.52 231.705 424.075 233.325 424.075ZM239.578 413.38H238.093V415.12H239.578V413.38ZM239.563 422.86V416.5H236.938V417.64H238.213V422.86H236.728V424H240.943V422.86H239.563ZM248.321 416.5V417.595C247.766 416.74 246.956 416.305 245.951 416.305C243.956 416.305 242.501 417.805 242.501 420.25C242.501 422.62 243.881 424.18 245.906 424.18C246.956 424.18 247.751 423.82 248.321 423.025V427H249.671V416.5H248.321ZM246.221 423.1C244.541 423.1 243.986 422.05 243.986 420.25C243.986 418.495 244.436 417.37 246.191 417.37C247.631 417.37 248.366 418.345 248.366 420.235C248.366 421.63 248.051 423.1 246.221 423.1ZM257.12 416.5V420.715C257.12 422.89 255.86 423.055 255.185 423.055C254.75 423.055 254.255 423.04 253.82 422.62C253.37 422.185 253.385 421.6 253.385 420.91V416.5H251.99V420.985C251.99 421.78 252.005 422.725 252.59 423.34C253.13 423.91 253.835 424.18 254.81 424.18C255.875 424.18 256.715 423.73 257.12 422.875V424H258.47V416.5H257.12ZM267.033 417.805C266.418 416.83 265.293 416.32 264.108 416.32C263.028 416.32 262.113 416.695 261.453 417.445C260.823 418.15 260.508 419.125 260.508 420.235C260.508 421.405 260.793 422.38 261.423 423.085C262.068 423.82 262.968 424.18 264.123 424.18C266.028 424.18 267.228 423.28 267.558 421.525L266.253 421.42C266.073 422.56 265.383 423.1 264.108 423.1C262.698 423.1 262.008 422.305 261.978 420.655H267.663C267.723 419.59 267.483 418.525 267.033 417.805ZM264.123 417.415C264.933 417.415 265.488 417.655 265.878 418.225C266.118 418.585 266.268 419.155 266.283 419.56H261.993C261.993 419.185 262.083 418.675 262.353 418.225C262.653 417.73 263.283 417.415 264.123 417.415ZM274.952 413.5V417.475C274.382 416.68 273.587 416.32 272.537 416.32C270.512 416.32 269.132 417.88 269.132 420.25C269.132 422.695 270.587 424.18 272.582 424.18C273.587 424.18 274.397 423.76 274.952 422.905V424H276.302V413.5H274.952ZM272.822 423.115C271.067 423.115 270.617 422.005 270.617 420.25C270.617 418.45 271.172 417.4 272.852 417.4C274.682 417.4 274.997 418.87 274.997 420.265C274.997 422.155 274.262 423.115 272.822 423.115Z" fill="black"/>
<path d="M302.332 328H303.682V323.305H308.407V322.09H303.682V318.715H308.962V317.5H302.332V328ZM313.744 317.38H312.259V319.12H313.744V317.38ZM313.729 326.86V320.5H311.104V321.64H312.379V326.86H310.894V328H315.109V326.86H313.729ZM323.133 321.16C322.593 320.59 321.888 320.32 320.898 320.32C319.698 320.32 318.963 320.8 318.588 321.64V320.5H317.238V328H318.588V323.86C318.588 321.715 319.878 321.445 320.538 321.445C320.958 321.445 321.453 321.46 321.873 321.88C322.338 322.315 322.323 322.93 322.323 323.62V328H323.718V323.545C323.718 322.75 323.703 321.775 323.133 321.16ZM328.335 328.18C329.61 328.18 330.435 327.745 330.855 326.89C330.93 327.67 331.38 328.06 332.205 328.06C332.505 328.06 332.76 328.045 333.045 328L333.015 326.89C332.82 326.935 332.7 326.95 332.58 326.95C332.145 326.95 332.145 326.77 332.145 326.38V322.795C332.145 321.16 331.185 320.32 329.295 320.32C328.335 320.32 327.54 320.515 327 320.875C326.415 321.265 326.1 321.925 326.07 322.825L327.39 323.005C327.39 321.865 327.915 321.385 329.22 321.385C329.88 321.385 330.375 321.58 330.585 321.88C330.81 322.195 330.84 322.57 330.84 323.245L328.365 323.725C327.18 323.95 325.815 324.4 325.815 326.02C325.815 327.49 327.075 328.18 328.335 328.18ZM328.545 327.1C327.81 327.1 327.195 326.71 327.195 326.005C327.195 325.15 327.78 324.925 328.575 324.745L330.84 324.25V325.165C330.84 326.245 330.18 327.1 328.545 327.1ZM337.562 326.86V317.5H334.967V318.64H336.212V326.86H334.712V328H338.927V326.86H337.562ZM291.802 346H295.177C298.057 346 299.752 344.065 299.752 340.75C299.752 337.57 298.132 335.5 295.192 335.5H291.802V346ZM293.152 344.83V336.67H295.042C296.182 336.67 297.067 336.985 297.547 337.72C298.027 338.47 298.222 339.415 298.222 340.75C298.222 342.07 298.057 342.97 297.532 343.765C297.067 344.47 296.197 344.83 295.042 344.83H293.152ZM307.72 339.805C307.105 338.83 305.98 338.32 304.795 338.32C303.715 338.32 302.8 338.695 302.14 339.445C301.51 340.15 301.195 341.125 301.195 342.235C301.195 343.405 301.48 344.38 302.11 345.085C302.755 345.82 303.655 346.18 304.81 346.18C306.715 346.18 307.915 345.28 308.245 343.525L306.94 343.42C306.76 344.56 306.07 345.1 304.795 345.1C303.385 345.1 302.695 344.305 302.665 342.655H308.35C308.41 341.59 308.17 340.525 307.72 339.805ZM304.81 339.415C305.62 339.415 306.175 339.655 306.565 340.225C306.805 340.585 306.955 341.155 306.97 341.56H302.68C302.68 341.185 302.77 340.675 303.04 340.225C303.34 339.73 303.97 339.415 304.81 339.415ZM313.75 346.18C315.49 346.18 316.795 345.22 317.065 343.705L315.79 343.57C315.505 344.65 314.905 345.1 313.75 345.1C311.935 345.1 311.515 343.945 311.515 342.25C311.515 340.6 311.92 339.4 313.75 339.4C315.1 339.4 315.55 340.255 315.775 341.125L317.035 340.885C316.735 339.46 315.655 338.32 313.75 338.32C311.455 338.32 310.03 339.94 310.03 342.25C310.03 344.71 311.455 346.18 313.75 346.18ZM321.852 335.38H320.367V337.12H321.852V335.38ZM321.837 344.86V338.5H319.212V339.64H320.487V344.86H319.002V346H323.217V344.86H321.837ZM328.316 346.18C329.831 346.18 331.406 345.655 331.406 343.825C331.406 342.07 329.861 341.815 328.361 341.5C327.461 341.305 326.561 341.11 326.561 340.42C326.561 339.73 327.326 339.385 328.061 339.385C329.246 339.385 329.921 339.94 329.951 340.975L331.211 340.78C331.046 338.95 329.666 338.32 328.076 338.32C326.741 338.32 325.301 338.95 325.301 340.51C325.301 341.995 326.501 342.355 327.716 342.67C328.751 342.94 330.131 343.045 330.131 343.9C330.131 344.695 329.516 345.115 328.286 345.115C327.116 345.115 326.351 344.47 326.366 343.42L325.136 343.54C325.121 345.4 326.636 346.18 328.316 346.18ZM336.471 335.38H334.986V337.12H336.471V335.38ZM336.456 344.86V338.5H333.831V339.64H335.106V344.86H333.621V346H337.836V344.86H336.456ZM343.205 346.18C345.455 346.18 346.94 344.605 346.94 342.25C346.94 339.985 345.5 338.32 343.205 338.32C340.88 338.32 339.455 339.97 339.455 342.25C339.455 344.695 340.865 346.18 343.205 346.18ZM343.205 345.115C341.465 345.115 340.91 344.02 340.91 342.25C340.91 340.48 341.48 339.385 343.205 339.385C344.9 339.385 345.485 340.48 345.485 342.25C345.485 344.02 344.9 345.115 343.205 345.115ZM354.795 339.16C354.255 338.59 353.55 338.32 352.56 338.32C351.36 338.32 350.625 338.8 350.25 339.64V338.5H348.9V346H350.25V341.86C350.25 339.715 351.54 339.445 352.2 339.445C352.62 339.445 353.115 339.46 353.535 339.88C354 340.315 353.985 340.93 353.985 341.62V346H355.38V341.545C355.38 340.75 355.365 339.775 354.795 339.16Z" fill="black"/>
<path d="M29.992 440.524C30.616 440.212 31.012 439.66 31.012 438.808C31.012 437.668 30.328 436.636 28.552 436.636C26.752 436.636 26.056 437.668 26.056 438.808C26.056 439.648 26.464 440.212 27.064 440.524C26.188 440.8 25.708 441.436 25.708 442.552C25.708 444.148 26.788 445.144 28.54 445.144C30.172 445.144 31.36 444.244 31.36 442.552C31.36 441.46 30.904 440.812 29.992 440.524ZM28.54 437.536C29.452 437.536 29.98 438.016 29.98 438.88C29.98 439.708 29.44 440.2 28.54 440.2C27.628 440.2 27.088 439.708 27.088 438.88C27.088 438.028 27.604 437.536 28.54 437.536ZM28.54 444.244C27.472 444.244 26.764 443.584 26.764 442.588C26.764 441.604 27.508 441.052 28.54 441.052C29.608 441.052 30.304 441.64 30.304 442.588C30.304 443.584 29.608 444.244 28.54 444.244ZM32.6904 445.288H33.7824L37.6824 436.312H36.5904L32.6904 445.288ZM40.1728 444.052C40.3768 443.08 41.4208 442.444 42.3808 441.856C43.3528 441.256 44.4328 440.512 44.4328 439.096C44.4328 437.596 43.4728 436.636 41.9848 436.636C39.8488 436.636 39.2728 438.148 39.2848 439.18L40.3528 439.348C40.3528 438.724 40.5088 437.536 41.9368 437.536C42.8728 437.536 43.3648 438.088 43.3648 439.084C43.3648 440.284 42.0928 440.872 41.3128 441.376C40.1968 442.084 39.1048 442.996 38.9608 445H44.4448V444.052H40.1728ZM48.6711 436.636C46.6071 436.636 45.9111 438.208 45.9111 439.456C45.9111 441.028 46.8591 442.216 48.4431 442.216C49.2831 442.216 49.9911 441.808 50.4951 441.064C50.4471 443.224 49.7871 444.244 48.5151 444.244C47.5551 444.244 47.1591 443.512 47.1111 442.72L46.1391 442.888C46.2591 444.1 46.9431 445.144 48.4791 445.144C50.8071 445.144 51.5031 443.296 51.5031 440.668C51.5031 438.916 51.0951 436.636 48.6711 436.636ZM48.6231 441.28C47.4951 441.28 46.9311 440.668 46.9311 439.48C46.9311 438.16 47.5071 437.536 48.6831 437.536C49.8471 437.536 50.3631 438.376 50.3631 439.396C50.3631 440.548 49.7031 441.28 48.6231 441.28ZM52.8818 445.288H53.9738L57.8738 436.312H56.7818L52.8818 445.288ZM60.3642 444.052C60.5682 443.08 61.6122 442.444 62.5722 441.856C63.5442 441.256 64.6242 440.512 64.6242 439.096C64.6242 437.596 63.6642 436.636 62.1762 436.636C60.0402 436.636 59.4642 438.148 59.4762 439.18L60.5442 439.348C60.5442 438.724 60.7002 437.536 62.1282 437.536C63.0642 437.536 63.5562 438.088 63.5562 439.084C63.5562 440.284 62.2842 440.872 61.5042 441.376C60.3882 442.084 59.2962 442.996 59.1522 445H64.6362V444.052H60.3642ZM69.0185 436.636C67.0145 436.636 66.0545 438.388 66.0545 440.884C66.0545 443.692 67.0865 445.144 69.0185 445.144C71.0225 445.144 71.9945 443.404 71.9945 440.884C71.9945 438.4 71.0225 436.636 69.0185 436.636ZM69.0185 437.56C69.4265 437.56 69.7505 437.644 70.0025 437.824L67.4585 443.104C67.2785 442.552 67.2065 441.82 67.2065 440.884C67.2065 438.748 67.5545 437.56 69.0185 437.56ZM69.0185 444.244C68.5985 444.244 68.2625 444.148 68.0105 443.944L70.5665 438.616C70.7705 439.168 70.8425 439.936 70.8425 440.884C70.8425 443.032 70.4705 444.244 69.0185 444.244ZM74.5087 444.052C74.7127 443.08 75.7567 442.444 76.7167 441.856C77.6887 441.256 78.7687 440.512 78.7687 439.096C78.7687 437.596 77.8087 436.636 76.3207 436.636C74.1847 436.636 73.6087 438.148 73.6207 439.18L74.6887 439.348C74.6887 438.724 74.8447 437.536 76.2727 437.536C77.2087 437.536 77.7007 438.088 77.7007 439.084C77.7007 440.284 76.4287 440.872 75.6487 441.376C74.5327 442.084 73.4407 442.996 73.2967 445H78.7807V444.052H74.5087ZM83.1631 436.636C81.1591 436.636 80.1991 438.388 80.1991 440.884C80.1991 443.692 81.2311 445.144 83.1631 445.144C85.1671 445.144 86.1391 443.404 86.1391 440.884C86.1391 438.4 85.1671 436.636 83.1631 436.636ZM83.1631 437.56C83.5711 437.56 83.8951 437.644 84.1471 437.824L81.6031 443.104C81.4231 442.552 81.3511 441.82 81.3511 440.884C81.3511 438.748 81.6991 437.56 83.1631 437.56ZM83.1631 444.244C82.7431 444.244 82.4071 444.148 82.1551 443.944L84.7111 438.616C84.9151 439.168 84.9871 439.936 84.9871 440.884C84.9871 443.032 84.6151 444.244 83.1631 444.244Z" fill="black"/>
<path d="M30.96 463.052V455.78H30.12C29.94 456.8 29.184 457.292 27.84 457.292L27.828 457.316V458.204L27.84 458.228C27.948 458.228 28.044 458.24 28.152 458.24C28.896 458.24 29.568 458.084 29.892 457.688V463.052H28.776V464H31.98V463.052H30.96ZM36.8545 463.052V455.78H36.0145C35.8345 456.8 35.0785 457.292 33.7345 457.292L33.7225 457.316V458.204L33.7345 458.228C33.8425 458.228 33.9385 458.24 34.0465 458.24C34.7905 458.24 35.4625 458.084 35.7865 457.688V463.052H34.6705V464H37.8745V463.052H36.8545ZM39.4731 458.324C39.4731 457.956 39.5731 457.7 39.7731 457.556C39.9731 457.404 40.2171 457.328 40.5051 457.328C40.7851 457.328 41.0251 457.404 41.2251 457.556C41.4251 457.7 41.5251 457.956 41.5251 458.324C41.5251 458.676 41.4251 458.932 41.2251 459.092C41.0251 459.244 40.7851 459.32 40.5051 459.32C40.2171 459.32 39.9731 459.244 39.7731 459.092C39.5731 458.932 39.4731 458.676 39.4731 458.324ZM39.4731 463.16C39.4731 462.792 39.5731 462.536 39.7731 462.392C39.9731 462.24 40.2171 462.164 40.5051 462.164C40.7851 462.164 41.0251 462.24 41.2251 462.392C41.4251 462.536 41.5251 462.792 41.5251 463.16C41.5251 463.512 41.4251 463.768 41.2251 463.928C41.0251 464.08 40.7851 464.156 40.5051 464.156C40.2171 464.156 39.9731 464.08 39.7731 463.928C39.5731 463.768 39.4731 463.512 39.4731 463.16ZM45.8349 455.636C43.8309 455.636 42.8709 457.388 42.8709 459.884C42.8709 462.692 43.9029 464.144 45.8349 464.144C47.8389 464.144 48.8109 462.404 48.8109 459.884C48.8109 457.4 47.8389 455.636 45.8349 455.636ZM45.8349 456.56C46.2429 456.56 46.5669 456.644 46.8189 456.824L44.2749 462.104C44.0949 461.552 44.0229 460.82 44.0229 459.884C44.0229 457.748 44.3709 456.56 45.8349 456.56ZM45.8349 463.244C45.4149 463.244 45.0789 463.148 44.8269 462.944L47.3829 457.616C47.5869 458.168 47.6589 458.936 47.6589 459.884C47.6589 462.032 47.2869 463.244 45.8349 463.244ZM50.1148 455.78V456.728H54.1468C52.3108 458.696 51.1828 461.36 51.0148 464H52.1308C52.2628 461.276 53.5228 458.444 55.2628 456.776V455.78H50.1148ZM58.4366 464.144C59.4566 464.144 60.1166 463.796 60.4526 463.112C60.5126 463.736 60.8726 464.048 61.5326 464.048C61.7726 464.048 61.9766 464.036 62.2046 464L62.1806 463.112C62.0246 463.148 61.9286 463.16 61.8326 463.16C61.4846 463.16 61.4846 463.016 61.4846 462.704V459.836C61.4846 458.528 60.7166 457.856 59.2046 457.856C58.4366 457.856 57.8006 458.012 57.3686 458.3C56.9006 458.612 56.6486 459.14 56.6246 459.86L57.6806 460.004C57.6806 459.092 58.1006 458.708 59.1446 458.708C59.6726 458.708 60.0686 458.864 60.2366 459.104C60.4166 459.356 60.4406 459.656 60.4406 460.196L58.4606 460.58C57.5126 460.76 56.4206 461.12 56.4206 462.416C56.4206 463.592 57.4286 464.144 58.4366 464.144ZM58.6046 463.28C58.0166 463.28 57.5246 462.968 57.5246 462.404C57.5246 461.72 57.9926 461.54 58.6286 461.396L60.4406 461V461.732C60.4406 462.596 59.9126 463.28 58.6046 463.28ZM69.1056 457.856C68.5656 457.856 68.2056 458 67.9296 458.252C67.7016 458.444 67.5456 458.66 67.4376 458.972C67.2096 458.264 66.6816 457.856 65.9016 457.856C65.3856 457.856 65.0256 458.012 64.7616 458.24C64.5696 458.42 64.4616 458.6 64.3896 458.78V458H63.3696V464H64.4136V460.472C64.4136 459.632 64.5576 459.272 64.8216 459.008C64.9896 458.84 65.2416 458.744 65.5296 458.744C65.7576 458.744 66.0576 458.768 66.2856 459.008C66.5616 459.284 66.5736 459.74 66.5736 460.352V464H67.6296V460.472C67.6296 459.632 67.7856 459.26 68.0376 459.008C68.2296 458.828 68.4696 458.744 68.7456 458.744C68.9736 458.744 69.2736 458.78 69.5016 458.996C69.7776 459.272 69.7896 459.728 69.7896 460.352V464H70.8456V460.04C70.8456 458.564 70.2456 457.856 69.1056 457.856Z" fill="black"/>
<path d="M125.944 459.572C126.568 459.236 126.94 458.6 126.94 457.94C126.94 456.344 125.788 455.636 124.468 455.636C122.956 455.636 121.888 456.668 121.864 458.132L122.944 458.3C122.92 457.82 123.1 456.524 124.468 456.524C125.368 456.524 125.884 457.064 125.884 457.928C125.884 458.768 125.2 459.224 124.408 459.224H123.88V460.184H124.552C125.476 460.184 126.208 460.568 126.208 461.636C126.208 462.668 125.584 463.244 124.48 463.244C123.316 463.244 122.788 462.38 122.8 461.324L121.756 461.48C121.732 463.016 122.716 464.144 124.48 464.144C126.004 464.144 127.276 463.304 127.276 461.624C127.276 460.76 126.868 459.836 125.944 459.572ZM128.657 458.324C128.657 457.956 128.757 457.7 128.957 457.556C129.157 457.404 129.401 457.328 129.689 457.328C129.969 457.328 130.209 457.404 130.409 457.556C130.609 457.7 130.709 457.956 130.709 458.324C130.709 458.676 130.609 458.932 130.409 459.092C130.209 459.244 129.969 459.32 129.689 459.32C129.401 459.32 129.157 459.244 128.957 459.092C128.757 458.932 128.657 458.676 128.657 458.324ZM128.657 463.16C128.657 462.792 128.757 462.536 128.957 462.392C129.157 462.24 129.401 462.164 129.689 462.164C129.969 462.164 130.209 462.24 130.409 462.392C130.609 462.536 130.709 462.792 130.709 463.16C130.709 463.512 130.609 463.768 130.409 463.928C130.209 464.08 129.969 464.156 129.689 464.156C129.401 464.156 129.157 464.08 128.957 463.928C128.757 463.768 128.657 463.512 128.657 463.16ZM135.355 463.052V455.78H134.515C134.335 456.8 133.579 457.292 132.235 457.292L132.223 457.316V458.204L132.235 458.228C132.343 458.228 132.439 458.24 132.547 458.24C133.291 458.24 133.963 458.084 134.287 457.688V463.052H133.171V464H136.375V463.052H135.355ZM141.153 458.636C140.337 458.636 139.545 458.984 139.089 459.788C139.089 458.192 139.425 456.536 141.081 456.536C142.041 456.536 142.413 457.16 142.485 457.94L143.481 457.772C143.325 456.644 142.653 455.636 141.117 455.636C138.789 455.636 138.093 457.472 138.093 460.136C138.093 461.876 138.501 464.144 140.925 464.144C142.989 464.144 143.685 462.584 143.685 461.348C143.685 459.8 142.725 458.636 141.153 458.636ZM140.913 463.244C139.749 463.244 139.233 462.416 139.233 461.396C139.233 460.268 139.893 459.56 140.973 459.56C142.101 459.56 142.665 460.172 142.665 461.336C142.665 462.656 142.089 463.244 140.913 463.244ZM148.292 457.856C147.488 457.856 146.84 458.192 146.396 458.876V458H145.316V466.4H146.396V463.22C146.852 463.856 147.488 464.144 148.328 464.144C149.948 464.144 151.052 462.896 151.052 461C151.052 459.044 149.888 457.856 148.292 457.856ZM148.076 463.28C146.612 463.28 146.36 462.104 146.36 460.988C146.36 459.476 146.948 458.708 148.1 458.708C149.504 458.708 149.864 459.596 149.864 461C149.864 462.44 149.42 463.28 148.076 463.28ZM158.055 457.856C157.515 457.856 157.155 458 156.879 458.252C156.651 458.444 156.495 458.66 156.387 458.972C156.159 458.264 155.631 457.856 154.851 457.856C154.335 457.856 153.975 458.012 153.711 458.24C153.519 458.42 153.411 458.6 153.339 458.78V458H152.319V464H153.363V460.472C153.363 459.632 153.507 459.272 153.771 459.008C153.939 458.84 154.191 458.744 154.479 458.744C154.707 458.744 155.007 458.768 155.235 459.008C155.511 459.284 155.523 459.74 155.523 460.352V464H156.579V460.472C156.579 459.632 156.735 459.26 156.987 459.008C157.179 458.828 157.419 458.744 157.695 458.744C157.923 458.744 158.223 458.78 158.451 458.996C158.727 459.272 158.739 459.728 158.739 460.352V464H159.795V460.04C159.795 458.564 159.195 457.856 158.055 457.856Z" fill="black"/>
<path d="M227.204 461.204H226.148V455.78H225.26L221.54 461.072V462.128H225.08V464H226.148V462.128H227.204V461.204ZM223.688 461.204C223.436 461.204 222.932 461.216 222.524 461.228C222.824 460.808 223.184 460.292 223.412 459.956L224.156 458.876C224.372 458.564 224.816 457.916 225.104 457.412C225.08 458.012 225.08 458.732 225.08 459.092V461.204H223.688ZM228.551 458.324C228.551 457.956 228.651 457.7 228.851 457.556C229.051 457.404 229.295 457.328 229.583 457.328C229.863 457.328 230.103 457.404 230.303 457.556C230.503 457.7 230.603 457.956 230.603 458.324C230.603 458.676 230.503 458.932 230.303 459.092C230.103 459.244 229.863 459.32 229.583 459.32C229.295 459.32 229.051 459.244 228.851 459.092C228.651 458.932 228.551 458.676 228.551 458.324ZM228.551 463.16C228.551 462.792 228.651 462.536 228.851 462.392C229.051 462.24 229.295 462.164 229.583 462.164C229.863 462.164 230.103 462.24 230.303 462.392C230.503 462.536 230.603 462.792 230.603 463.16C230.603 463.512 230.503 463.768 230.303 463.928C230.103 464.08 229.863 464.156 229.583 464.156C229.295 464.156 229.051 464.08 228.851 463.928C228.651 463.768 228.551 463.512 228.551 463.16ZM236.233 459.572C236.857 459.236 237.229 458.6 237.229 457.94C237.229 456.344 236.077 455.636 234.757 455.636C233.245 455.636 232.177 456.668 232.153 458.132L233.233 458.3C233.209 457.82 233.389 456.524 234.757 456.524C235.657 456.524 236.173 457.064 236.173 457.928C236.173 458.768 235.489 459.224 234.697 459.224H234.169V460.184H234.841C235.765 460.184 236.497 460.568 236.497 461.636C236.497 462.668 235.873 463.244 234.769 463.244C233.605 463.244 233.077 462.38 233.089 461.324L232.045 461.48C232.021 463.016 233.005 464.144 234.769 464.144C236.293 464.144 237.565 463.304 237.565 461.624C237.565 460.76 237.157 459.836 236.233 459.572ZM242.126 458.636C241.31 458.636 240.518 458.984 240.062 459.788C240.062 458.192 240.398 456.536 242.054 456.536C243.014 456.536 243.386 457.16 243.458 457.94L244.454 457.772C244.298 456.644 243.626 455.636 242.09 455.636C239.762 455.636 239.066 457.472 239.066 460.136C239.066 461.876 239.474 464.144 241.898 464.144C243.962 464.144 244.658 462.584 244.658 461.348C244.658 459.8 243.698 458.636 242.126 458.636ZM241.886 463.244C240.722 463.244 240.206 462.416 240.206 461.396C240.206 460.268 240.866 459.56 241.946 459.56C243.074 459.56 243.638 460.172 243.638 461.336C243.638 462.656 243.062 463.244 241.886 463.244ZM249.264 457.856C248.46 457.856 247.812 458.192 247.368 458.876V458H246.288V466.4H247.368V463.22C247.824 463.856 248.46 464.144 249.3 464.144C250.92 464.144 252.024 462.896 252.024 461C252.024 459.044 250.86 457.856 249.264 457.856ZM249.048 463.28C247.584 463.28 247.332 462.104 247.332 460.988C247.332 459.476 247.92 458.708 249.072 458.708C250.476 458.708 250.836 459.596 250.836 461C250.836 462.44 250.392 463.28 249.048 463.28ZM259.027 457.856C258.487 457.856 258.127 458 257.851 458.252C257.623 458.444 257.467 458.66 257.359 458.972C257.131 458.264 256.603 457.856 255.823 457.856C255.307 457.856 254.947 458.012 254.683 458.24C254.491 458.42 254.383 458.6 254.311 458.78V458H253.291V464H254.335V460.472C254.335 459.632 254.479 459.272 254.743 459.008C254.911 458.84 255.163 458.744 255.451 458.744C255.679 458.744 255.979 458.768 256.207 459.008C256.483 459.284 256.495 459.74 256.495 460.352V464H257.551V460.472C257.551 459.632 257.707 459.26 257.959 459.008C258.151 458.828 258.391 458.744 258.667 458.744C258.895 458.744 259.195 458.78 259.423 458.996C259.699 459.272 259.711 459.728 259.711 460.352V464H260.767V460.04C260.767 458.564 260.167 457.856 259.027 457.856Z" fill="black"/>
<path d="M120.468 436.636C118.404 436.636 117.708 438.208 117.708 439.456C117.708 441.028 118.656 442.216 120.24 442.216C121.08 442.216 121.788 441.808 122.292 441.064C122.244 443.224 121.584 444.244 120.312 444.244C119.352 444.244 118.956 443.512 118.908 442.72L117.936 442.888C118.056 444.1 118.74 445.144 120.276 445.144C122.604 445.144 123.3 443.296 123.3 440.668C123.3 438.916 122.892 436.636 120.468 436.636ZM120.42 441.28C119.292 441.28 118.728 440.668 118.728 439.48C118.728 438.16 119.304 437.536 120.48 437.536C121.644 437.536 122.16 438.376 122.16 439.396C122.16 440.548 121.5 441.28 120.42 441.28ZM124.679 445.288H125.771L129.671 436.312H128.579L124.679 445.288ZM135.233 440.572C135.857 440.236 136.229 439.6 136.229 438.94C136.229 437.344 135.077 436.636 133.757 436.636C132.245 436.636 131.177 437.668 131.153 439.132L132.233 439.3C132.209 438.82 132.389 437.524 133.757 437.524C134.657 437.524 135.173 438.064 135.173 438.928C135.173 439.768 134.489 440.224 133.697 440.224H133.169V441.184H133.841C134.765 441.184 135.497 441.568 135.497 442.636C135.497 443.668 134.873 444.244 133.769 444.244C132.605 444.244 132.077 443.38 132.089 442.324L131.045 442.48C131.021 444.016 132.005 445.144 133.769 445.144C135.293 445.144 136.565 444.304 136.565 442.624C136.565 441.76 136.157 440.836 135.233 440.572ZM137.886 445.288H138.978L142.878 436.312H141.786L137.886 445.288ZM145.368 444.052C145.572 443.08 146.616 442.444 147.576 441.856C148.548 441.256 149.628 440.512 149.628 439.096C149.628 437.596 148.668 436.636 147.18 436.636C145.044 436.636 144.468 438.148 144.48 439.18L145.548 439.348C145.548 438.724 145.704 437.536 147.132 437.536C148.068 437.536 148.56 438.088 148.56 439.084C148.56 440.284 147.288 440.872 146.508 441.376C145.392 442.084 144.3 442.996 144.156 445H149.64V444.052H145.368ZM154.022 436.636C152.018 436.636 151.058 438.388 151.058 440.884C151.058 443.692 152.09 445.144 154.022 445.144C156.026 445.144 156.998 443.404 156.998 440.884C156.998 438.4 156.026 436.636 154.022 436.636ZM154.022 437.56C154.43 437.56 154.754 437.644 155.006 437.824L152.462 443.104C152.282 442.552 152.21 441.82 152.21 440.884C152.21 438.748 152.558 437.56 154.022 437.56ZM154.022 444.244C153.602 444.244 153.266 444.148 153.014 443.944L155.57 438.616C155.774 439.168 155.846 439.936 155.846 440.884C155.846 443.032 155.474 444.244 154.022 444.244ZM159.513 444.052C159.717 443.08 160.761 442.444 161.721 441.856C162.693 441.256 163.773 440.512 163.773 439.096C163.773 437.596 162.813 436.636 161.325 436.636C159.189 436.636 158.613 438.148 158.625 439.18L159.693 439.348C159.693 438.724 159.849 437.536 161.277 437.536C162.213 437.536 162.705 438.088 162.705 439.084C162.705 440.284 161.433 440.872 160.653 441.376C159.537 442.084 158.445 442.996 158.301 445H163.785V444.052H159.513ZM168.167 436.636C166.163 436.636 165.203 438.388 165.203 440.884C165.203 443.692 166.235 445.144 168.167 445.144C170.171 445.144 171.143 443.404 171.143 440.884C171.143 438.4 170.171 436.636 168.167 436.636ZM168.167 437.56C168.575 437.56 168.899 437.644 169.151 437.824L166.607 443.104C166.427 442.552 166.355 441.82 166.355 440.884C166.355 438.748 166.703 437.56 168.167 437.56ZM168.167 444.244C167.747 444.244 167.411 444.148 167.159 443.944L169.715 438.616C169.919 439.168 169.991 439.936 169.991 440.884C169.991 443.032 169.619 444.244 168.167 444.244Z" fill="black"/>
<path d="M216.468 436.636C214.404 436.636 213.708 438.208 213.708 439.456C213.708 441.028 214.656 442.216 216.24 442.216C217.08 442.216 217.788 441.808 218.292 441.064C218.244 443.224 217.584 444.244 216.312 444.244C215.352 444.244 214.956 443.512 214.908 442.72L213.936 442.888C214.056 444.1 214.74 445.144 216.276 445.144C218.604 445.144 219.3 443.296 219.3 440.668C219.3 438.916 218.892 436.636 216.468 436.636ZM216.42 441.28C215.292 441.28 214.728 440.668 214.728 439.48C214.728 438.16 215.304 437.536 216.48 437.536C217.644 437.536 218.16 438.376 218.16 439.396C218.16 440.548 217.5 441.28 216.42 441.28ZM220.679 445.288H221.771L225.671 436.312H224.579L220.679 445.288ZM229.913 439.588C229.337 439.588 228.773 439.768 228.413 440.152L228.773 437.728H232.169V436.78H227.897L227.261 441.22L228.173 441.292C228.557 440.776 229.049 440.536 229.757 440.536C230.921 440.536 231.581 441.148 231.581 442.264C231.581 443.584 230.945 444.244 229.745 444.244C228.869 444.244 228.137 443.608 228.137 442.348L227.093 442.504C227.093 444.076 228.137 445.144 229.697 445.144C231.617 445.144 232.601 443.884 232.601 442.348C232.601 440.404 231.353 439.588 229.913 439.588ZM233.839 445.288H234.931L238.831 436.312H237.739L233.839 445.288ZM241.321 444.052C241.525 443.08 242.569 442.444 243.529 441.856C244.501 441.256 245.581 440.512 245.581 439.096C245.581 437.596 244.621 436.636 243.133 436.636C240.997 436.636 240.421 438.148 240.433 439.18L241.501 439.348C241.501 438.724 241.657 437.536 243.085 437.536C244.021 437.536 244.513 438.088 244.513 439.084C244.513 440.284 243.241 440.872 242.461 441.376C241.345 442.084 240.253 442.996 240.109 445H245.593V444.052H241.321ZM249.976 436.636C247.972 436.636 247.012 438.388 247.012 440.884C247.012 443.692 248.044 445.144 249.976 445.144C251.98 445.144 252.952 443.404 252.952 440.884C252.952 438.4 251.98 436.636 249.976 436.636ZM249.976 437.56C250.384 437.56 250.708 437.644 250.96 437.824L248.416 443.104C248.236 442.552 248.164 441.82 248.164 440.884C248.164 438.748 248.512 437.56 249.976 437.56ZM249.976 444.244C249.556 444.244 249.22 444.148 248.968 443.944L251.524 438.616C251.728 439.168 251.8 439.936 251.8 440.884C251.8 443.032 251.428 444.244 249.976 444.244ZM255.466 444.052C255.67 443.08 256.714 442.444 257.674 441.856C258.646 441.256 259.726 440.512 259.726 439.096C259.726 437.596 258.766 436.636 257.278 436.636C255.142 436.636 254.566 438.148 254.578 439.18L255.646 439.348C255.646 438.724 255.802 437.536 257.23 437.536C258.166 437.536 258.658 438.088 258.658 439.084C258.658 440.284 257.386 440.872 256.606 441.376C255.49 442.084 254.398 442.996 254.254 445H259.738V444.052H255.466ZM264.12 436.636C262.116 436.636 261.156 438.388 261.156 440.884C261.156 443.692 262.188 445.144 264.12 445.144C266.124 445.144 267.096 443.404 267.096 440.884C267.096 438.4 266.124 436.636 264.12 436.636ZM264.12 437.56C264.528 437.56 264.852 437.644 265.104 437.824L262.56 443.104C262.38 442.552 262.308 441.82 262.308 440.884C262.308 438.748 262.656 437.56 264.12 437.56ZM264.12 444.244C263.7 444.244 263.364 444.148 263.112 443.944L265.668 438.616C265.872 439.168 265.944 439.936 265.944 440.884C265.944 443.032 265.572 444.244 264.12 444.244Z" fill="black"/>
<path d="M43.0489 268H44.4139V258.685H47.7739V257.5H39.6889V258.685H43.0489V268ZM52.2691 257.38H50.7841V259.12H52.2691V257.38ZM52.2541 266.86V260.5H49.6291V261.64H50.9041V266.86H49.4191V268H53.6341V266.86H52.2541ZM59.2876 268.075C59.7226 268.075 60.1576 268.015 60.3976 267.955L60.3676 266.725C60.0526 266.8 59.6776 266.86 59.3926 266.86C58.5826 266.86 58.2976 266.71 58.2976 266.11V261.625H60.4276V260.5H58.2976V258.415H56.9626V260.5H55.3876V261.625H56.9626V266.155C56.9626 267.52 57.6676 268.075 59.2876 268.075ZM65.4956 266.86V257.5H62.9006V258.64H64.1456V266.86H62.6456V268H66.8606V266.86H65.4956ZM75.1391 261.805C74.5241 260.83 73.3991 260.32 72.2141 260.32C71.1341 260.32 70.2191 260.695 69.5591 261.445C68.9291 262.15 68.6141 263.125 68.6141 264.235C68.6141 265.405 68.8991 266.38 69.5291 267.085C70.1741 267.82 71.0741 268.18 72.2291 268.18C74.1341 268.18 75.3341 267.28 75.6641 265.525L74.3591 265.42C74.1791 266.56 73.4891 267.1 72.2141 267.1C70.8041 267.1 70.1141 266.305 70.0841 264.655H75.7691C75.8291 263.59 75.5891 262.525 75.1391 261.805ZM72.2291 261.415C73.0391 261.415 73.5941 261.655 73.9841 262.225C74.2241 262.585 74.3741 263.155 74.3891 263.56H70.0991C70.0991 263.185 70.1891 262.675 70.4591 262.225C70.7591 261.73 71.3891 261.415 72.2291 261.415ZM77.4185 260.905C77.4185 260.445 77.5435 260.125 77.7935 259.945C78.0435 259.755 78.3485 259.66 78.7085 259.66C79.0585 259.66 79.3585 259.755 79.6085 259.945C79.8585 260.125 79.9835 260.445 79.9835 260.905C79.9835 261.345 79.8585 261.665 79.6085 261.865C79.3585 262.055 79.0585 262.15 78.7085 262.15C78.3485 262.15 78.0435 262.055 77.7935 261.865C77.5435 261.665 77.4185 261.345 77.4185 260.905ZM77.4185 266.95C77.4185 266.49 77.5435 266.17 77.7935 265.99C78.0435 265.8 78.3485 265.705 78.7085 265.705C79.0585 265.705 79.3585 265.8 79.6085 265.99C79.8585 266.17 79.9835 266.49 79.9835 266.95C79.9835 267.39 79.8585 267.71 79.6085 267.91C79.3585 268.1 79.0585 268.195 78.7085 268.195C78.3485 268.195 78.0435 268.1 77.7935 267.91C77.5435 267.71 77.4185 267.39 77.4185 266.95ZM92.0139 268.18C93.9339 268.18 96.0639 267.49 96.0639 264.94C96.0639 262.735 94.3539 262.345 92.3439 262C90.9789 261.76 89.4639 261.415 89.4639 260.215C89.4639 259.03 90.6039 258.445 91.7139 258.445C93.2889 258.445 94.2639 259.33 94.3239 260.845L95.7339 260.59C95.4939 258.16 93.7689 257.32 91.6989 257.32C90.0189 257.32 88.0689 258.145 88.0689 260.275C88.0689 262.255 89.7939 262.855 91.3689 263.23C92.8839 263.605 94.6539 263.59 94.6539 265.045C94.6539 266.53 93.3939 267.04 91.9689 267.04C90.4089 267.04 89.2539 266.14 89.2089 264.505L87.7689 264.655C87.8139 267.055 89.7639 268.18 92.0139 268.18ZM101.552 260.32C100.547 260.32 99.7372 260.74 99.1822 261.595V260.5H97.8322V271H99.1822V267.025C99.7522 267.82 100.547 268.18 101.597 268.18C103.622 268.18 105.002 266.62 105.002 264.25C105.002 261.805 103.547 260.32 101.552 260.32ZM101.282 267.1C99.4522 267.1 99.1372 265.63 99.1372 264.235C99.1372 262.345 99.8722 261.385 101.312 261.385C103.067 261.385 103.517 262.495 103.517 264.25C103.517 266.05 102.962 267.1 101.282 267.1ZM112.976 261.805C112.361 260.83 111.236 260.32 110.051 260.32C108.971 260.32 108.056 260.695 107.396 261.445C106.766 262.15 106.451 263.125 106.451 264.235C106.451 265.405 106.736 266.38 107.366 267.085C108.011 267.82 108.911 268.18 110.066 268.18C111.971 268.18 113.171 267.28 113.501 265.525L112.196 265.42C112.016 266.56 111.326 267.1 110.051 267.1C108.641 267.1 107.951 266.305 107.921 264.655H113.606C113.666 263.59 113.426 262.525 112.976 261.805ZM110.066 261.415C110.876 261.415 111.431 261.655 111.821 262.225C112.061 262.585 112.211 263.155 112.226 263.56H107.936C107.936 263.185 108.026 262.675 108.296 262.225C108.596 261.73 109.226 261.415 110.066 261.415ZM119.005 268.18C120.745 268.18 122.05 267.22 122.32 265.705L121.045 265.57C120.76 266.65 120.16 267.1 119.005 267.1C117.19 267.1 116.77 265.945 116.77 264.25C116.77 262.6 117.175 261.4 119.005 261.4C120.355 261.4 120.805 262.255 121.03 263.125L122.29 262.885C121.99 261.46 120.91 260.32 119.005 260.32C116.71 260.32 115.285 261.94 115.285 264.25C115.285 266.71 116.71 268.18 119.005 268.18ZM127.813 268.075C128.248 268.075 128.683 268.015 128.923 267.955L128.893 266.725C128.578 266.8 128.203 266.86 127.918 266.86C127.108 266.86 126.823 266.71 126.823 266.11V261.625H128.953V260.5H126.823V258.415H125.488V260.5H123.913V261.625H125.488V266.155C125.488 267.52 126.193 268.075 127.813 268.075ZM135.866 260.335C134.546 260.455 133.511 261.07 133.226 261.91V260.5H131.876V268H133.226V264.565C133.226 262.09 134.441 261.58 135.986 261.58C136.151 261.58 136.331 261.58 136.451 261.595L136.481 260.32C136.346 260.32 136.001 260.32 135.866 260.335ZM144.514 261.805C143.899 260.83 142.774 260.32 141.589 260.32C140.509 260.32 139.594 260.695 138.934 261.445C138.304 262.15 137.989 263.125 137.989 264.235C137.989 265.405 138.274 266.38 138.904 267.085C139.549 267.82 140.449 268.18 141.604 268.18C143.509 268.18 144.709 267.28 145.039 265.525L143.734 265.42C143.554 266.56 142.864 267.1 141.589 267.1C140.179 267.1 139.489 266.305 139.459 264.655H145.144C145.204 263.59 144.964 262.525 144.514 261.805ZM141.604 261.415C142.414 261.415 142.969 261.655 143.359 262.225C143.599 262.585 143.749 263.155 143.764 263.56H139.474C139.474 263.185 139.564 262.675 139.834 262.225C140.134 261.73 140.764 261.415 141.604 261.415ZM157.562 268.18C159.572 268.18 160.967 267.19 161.747 265.255L160.217 264.865C159.827 266.08 159.032 267.01 157.577 267.01C156.542 267.01 155.777 266.65 155.297 265.975C154.772 265.225 154.592 264.145 154.592 262.75C154.592 261.325 154.787 260.215 155.342 259.48C155.867 258.79 156.632 258.49 157.607 258.49C159.122 258.49 159.932 259.525 160.202 260.815L161.687 260.53C161.162 258.4 159.572 257.32 157.592 257.32C154.592 257.32 153.047 259.57 153.047 262.75C153.047 266.26 154.637 268.18 157.562 268.18ZM166.263 257.38H164.778V259.12H166.263V257.38ZM166.248 266.86V260.5H163.623V261.64H164.898V266.86H163.413V268H167.628V266.86H166.248ZM173.282 268.075C173.717 268.075 174.152 268.015 174.392 267.955L174.362 266.725C174.047 266.8 173.672 266.86 173.387 266.86C172.577 266.86 172.292 266.71 172.292 266.11V261.625H174.422V260.5H172.292V258.415H170.957V260.5H169.382V261.625H170.957V266.155C170.957 267.52 171.662 268.075 173.282 268.075ZM181.77 260.5L180.33 264.55C180.12 265.15 179.955 265.63 179.655 266.545C179.415 265.795 179.175 265.06 178.995 264.55L177.57 260.5H176.13L179.055 267.925C178.545 269.215 178.29 269.83 177.735 269.83C177.375 269.83 177.045 269.755 176.775 269.665L176.745 270.925C177.12 271.03 177.54 271.075 177.915 271.075C178.95 271.075 179.505 270.34 180.12 268.69L183.18 260.5H181.77Z" fill="black"/>
<path d="M41.6673 290H45.0423C47.9223 290 49.6173 288.065 49.6173 284.75C49.6173 281.57 47.9973 279.5 45.0573 279.5H41.6673V290ZM43.0173 288.83V280.67H44.9073C46.0473 280.67 46.9323 280.985 47.4123 281.72C47.8923 282.47 48.0873 283.415 48.0873 284.75C48.0873 286.07 47.9223 286.97 47.3973 287.765C46.9323 288.47 46.0623 288.83 44.9073 288.83H43.0173ZM56.5204 282.5V286.715C56.5204 288.89 55.2604 289.055 54.5854 289.055C54.1504 289.055 53.6554 289.04 53.2204 288.62C52.7704 288.185 52.7854 287.6 52.7854 286.91V282.5H51.3904V286.985C51.3904 287.78 51.4054 288.725 51.9904 289.34C52.5304 289.91 53.2354 290.18 54.2104 290.18C55.2754 290.18 56.1154 289.73 56.5204 288.875V290H57.8704V282.5H56.5204ZM64.948 282.335C63.628 282.455 62.593 283.07 62.308 283.91V282.5H60.958V290H62.308V286.565C62.308 284.09 63.523 283.58 65.068 283.58C65.233 283.58 65.413 283.58 65.533 283.595L65.563 282.32C65.428 282.32 65.083 282.32 64.948 282.335ZM69.7704 290.18C71.0454 290.18 71.8704 289.745 72.2904 288.89C72.3654 289.67 72.8154 290.06 73.6404 290.06C73.9404 290.06 74.1954 290.045 74.4804 290L74.4504 288.89C74.2554 288.935 74.1354 288.95 74.0154 288.95C73.5804 288.95 73.5804 288.77 73.5804 288.38V284.795C73.5804 283.16 72.6204 282.32 70.7304 282.32C69.7704 282.32 68.9754 282.515 68.4354 282.875C67.8504 283.265 67.5354 283.925 67.5054 284.825L68.8254 285.005C68.8254 283.865 69.3504 283.385 70.6554 283.385C71.3154 283.385 71.8104 283.58 72.0204 283.88C72.2454 284.195 72.2754 284.57 72.2754 285.245L69.8004 285.725C68.6154 285.95 67.2504 286.4 67.2504 288.02C67.2504 289.49 68.5104 290.18 69.7704 290.18ZM69.9804 289.1C69.2454 289.1 68.6304 288.71 68.6304 288.005C68.6304 287.15 69.2154 286.925 70.0104 286.745L72.2754 286.25V287.165C72.2754 288.245 71.6154 289.1 69.9804 289.1ZM79.7026 290.075C80.1376 290.075 80.5726 290.015 80.8126 289.955L80.7826 288.725C80.4676 288.8 80.0926 288.86 79.8076 288.86C78.9976 288.86 78.7126 288.71 78.7126 288.11V283.625H80.8426V282.5H78.7126V280.415H77.3776V282.5H75.8026V283.625H77.3776V288.155C77.3776 289.52 78.0826 290.075 79.7026 290.075ZM85.9556 279.38H84.4706V281.12H85.9556V279.38ZM85.9406 288.86V282.5H83.3156V283.64H84.5906V288.86H83.1056V290H87.3206V288.86H85.9406ZM92.6891 290.18C94.9391 290.18 96.4241 288.605 96.4241 286.25C96.4241 283.985 94.9841 282.32 92.6891 282.32C90.3641 282.32 88.9391 283.97 88.9391 286.25C88.9391 288.695 90.3491 290.18 92.6891 290.18ZM92.6891 289.115C90.9491 289.115 90.3941 288.02 90.3941 286.25C90.3941 284.48 90.9641 283.385 92.6891 283.385C94.3841 283.385 94.9691 284.48 94.9691 286.25C94.9691 288.02 94.3841 289.115 92.6891 289.115ZM104.28 283.16C103.74 282.59 103.035 282.32 102.045 282.32C100.845 282.32 100.11 282.8 99.7346 283.64V282.5H98.3846V290H99.7346V285.86C99.7346 283.715 101.025 283.445 101.685 283.445C102.105 283.445 102.6 283.46 103.02 283.88C103.485 284.315 103.47 284.93 103.47 285.62V290H104.865V285.545C104.865 284.75 104.85 283.775 104.28 283.16ZM106.767 290.36H108.132L113.007 279.14H111.642L106.767 290.36ZM117.769 290H119.134V285.515L122.749 279.5H121.159L119.494 282.5C119.179 283.07 118.849 283.67 118.444 284.45C118.069 283.745 117.484 282.68 117.394 282.5L115.729 279.5H114.154L117.769 285.515V290ZM129.67 283.805C129.055 282.83 127.93 282.32 126.745 282.32C125.665 282.32 124.75 282.695 124.09 283.445C123.46 284.15 123.145 285.125 123.145 286.235C123.145 287.405 123.43 288.38 124.06 289.085C124.705 289.82 125.605 290.18 126.76 290.18C128.665 290.18 129.865 289.28 130.195 287.525L128.89 287.42C128.71 288.56 128.02 289.1 126.745 289.1C125.335 289.1 124.645 288.305 124.615 286.655H130.3C130.36 285.59 130.12 284.525 129.67 283.805ZM126.76 283.415C127.57 283.415 128.125 283.655 128.515 284.225C128.755 284.585 128.905 285.155 128.92 285.56H124.63C124.63 285.185 124.72 284.675 124.99 284.225C125.29 283.73 125.92 283.415 126.76 283.415ZM134.59 290.18C135.865 290.18 136.69 289.745 137.11 288.89C137.185 289.67 137.635 290.06 138.46 290.06C138.76 290.06 139.015 290.045 139.3 290L139.27 288.89C139.075 288.935 138.955 288.95 138.835 288.95C138.4 288.95 138.4 288.77 138.4 288.38V284.795C138.4 283.16 137.44 282.32 135.55 282.32C134.59 282.32 133.795 282.515 133.255 282.875C132.67 283.265 132.355 283.925 132.325 284.825L133.645 285.005C133.645 283.865 134.17 283.385 135.475 283.385C136.135 283.385 136.63 283.58 136.84 283.88C137.065 284.195 137.095 284.57 137.095 285.245L134.62 285.725C133.435 285.95 132.07 286.4 132.07 288.02C132.07 289.49 133.33 290.18 134.59 290.18ZM134.8 289.1C134.065 289.1 133.45 288.71 133.45 288.005C133.45 287.15 134.035 286.925 134.83 286.745L137.095 286.25V287.165C137.095 288.245 136.435 289.1 134.8 289.1ZM145.661 282.335C144.341 282.455 143.306 283.07 143.021 283.91V282.5H141.671V290H143.021V286.565C143.021 284.09 144.236 283.58 145.781 283.58C145.946 283.58 146.126 283.58 146.246 283.595L146.276 282.32C146.141 282.32 145.796 282.32 145.661 282.335ZM147.96 282.905C147.96 282.445 148.085 282.125 148.335 281.945C148.585 281.755 148.89 281.66 149.25 281.66C149.6 281.66 149.9 281.755 150.15 281.945C150.4 282.125 150.525 282.445 150.525 282.905C150.525 283.345 150.4 283.665 150.15 283.865C149.9 284.055 149.6 284.15 149.25 284.15C148.89 284.15 148.585 284.055 148.335 283.865C148.085 283.665 147.96 283.345 147.96 282.905ZM147.96 288.95C147.96 288.49 148.085 288.17 148.335 287.99C148.585 287.8 148.89 287.705 149.25 287.705C149.6 287.705 149.9 287.8 150.15 287.99C150.4 288.17 150.525 288.49 150.525 288.95C150.525 289.39 150.4 289.71 150.15 289.91C149.9 290.1 149.6 290.195 149.25 290.195C148.89 290.195 148.585 290.1 148.335 289.91C148.085 289.71 147.96 289.39 147.96 288.95ZM160.051 288.815C160.306 287.6 161.611 286.805 162.811 286.07C164.026 285.32 165.376 284.39 165.376 282.62C165.376 280.745 164.176 279.545 162.316 279.545C159.646 279.545 158.926 281.435 158.941 282.725L160.276 282.935C160.276 282.155 160.471 280.67 162.256 280.67C163.426 280.67 164.041 281.36 164.041 282.605C164.041 284.105 162.451 284.84 161.476 285.47C160.081 286.355 158.716 287.495 158.536 290H165.391V288.815H160.051ZM170.869 283.235C170.149 283.235 169.444 283.46 168.994 283.94L169.444 280.91H173.689V279.725H168.349L167.554 285.275L168.694 285.365C169.174 284.72 169.789 284.42 170.674 284.42C172.129 284.42 172.954 285.185 172.954 286.58C172.954 288.23 172.159 289.055 170.659 289.055C169.564 289.055 168.649 288.26 168.649 286.685L167.344 286.88C167.344 288.845 168.649 290.18 170.599 290.18C172.999 290.18 174.229 288.605 174.229 286.685C174.229 284.255 172.669 283.235 170.869 283.235ZM183.126 282.32C182.451 282.32 182.001 282.5 181.656 282.815C181.371 283.055 181.176 283.325 181.041 283.715C180.756 282.83 180.096 282.32 179.121 282.32C178.476 282.32 178.026 282.515 177.696 282.8C177.456 283.025 177.321 283.25 177.231 283.475V282.5H175.956V290H177.261V285.59C177.261 284.54 177.441 284.09 177.771 283.76C177.981 283.55 178.296 283.43 178.656 283.43C178.941 283.43 179.316 283.46 179.601 283.76C179.946 284.105 179.961 284.675 179.961 285.44V290H181.281V285.59C181.281 284.54 181.476 284.075 181.791 283.76C182.031 283.535 182.331 283.43 182.676 283.43C182.961 283.43 183.336 283.475 183.621 283.745C183.966 284.09 183.981 284.66 183.981 285.44V290H185.301V285.05C185.301 283.205 184.551 282.32 183.126 282.32ZM190.223 279.38H188.738V281.12H190.223V279.38ZM190.208 288.86V282.5H187.583V283.64H188.858V288.86H187.373V290H191.588V288.86H190.208ZM199.612 283.16C199.072 282.59 198.367 282.32 197.377 282.32C196.177 282.32 195.442 282.8 195.067 283.64V282.5H193.717V290H195.067V285.86C195.067 283.715 196.357 283.445 197.017 283.445C197.437 283.445 197.932 283.46 198.352 283.88C198.817 284.315 198.802 284.93 198.802 285.62V290H200.197V285.545C200.197 284.75 200.182 283.775 199.612 283.16ZM203.659 292.16C204.694 291.965 205.309 291.2 205.309 290.03V288.215H203.644V290H204.409C204.394 290.915 204.019 291.2 203.659 291.335V292.16ZM216.096 288.815C216.351 287.6 217.656 286.805 218.856 286.07C220.071 285.32 221.421 284.39 221.421 282.62C221.421 280.745 220.221 279.545 218.361 279.545C215.691 279.545 214.971 281.435 214.986 282.725L216.321 282.935C216.321 282.155 216.516 280.67 218.301 280.67C219.471 280.67 220.086 281.36 220.086 282.605C220.086 284.105 218.496 284.84 217.521 285.47C216.126 286.355 214.761 287.495 214.581 290H221.436V288.815H216.096ZM226.914 279.545C224.409 279.545 223.209 281.735 223.209 284.855C223.209 288.365 224.499 290.18 226.914 290.18C229.419 290.18 230.634 288.005 230.634 284.855C230.634 281.75 229.419 279.545 226.914 279.545ZM226.914 280.7C227.424 280.7 227.829 280.805 228.144 281.03L224.964 287.63C224.739 286.94 224.649 286.025 224.649 284.855C224.649 282.185 225.084 280.7 226.914 280.7ZM226.914 289.055C226.389 289.055 225.969 288.935 225.654 288.68L228.849 282.02C229.104 282.71 229.194 283.67 229.194 284.855C229.194 287.54 228.729 289.055 226.914 289.055ZM236.387 288.815V279.725H235.337C235.112 281 234.167 281.615 232.487 281.615L232.472 281.645V282.755L232.487 282.785C232.622 282.785 232.742 282.8 232.877 282.8C233.807 282.8 234.647 282.605 235.052 282.11V288.815H233.657V290H237.662V288.815H236.387ZM245.045 284.405C245.825 284.015 246.32 283.325 246.32 282.26C246.32 280.835 245.465 279.545 243.245 279.545C240.995 279.545 240.125 280.835 240.125 282.26C240.125 283.31 240.635 284.015 241.385 284.405C240.29 284.75 239.69 285.545 239.69 286.94C239.69 288.935 241.04 290.18 243.23 290.18C245.27 290.18 246.755 289.055 246.755 286.94C246.755 285.575 246.185 284.765 245.045 284.405ZM243.23 280.67C244.37 280.67 245.03 281.27 245.03 282.35C245.03 283.385 244.355 284 243.23 284C242.09 284 241.415 283.385 241.415 282.35C241.415 281.285 242.06 280.67 243.23 280.67ZM243.23 289.055C241.895 289.055 241.01 288.23 241.01 286.985C241.01 285.755 241.94 285.065 243.23 285.065C244.565 285.065 245.435 285.8 245.435 286.985C245.435 288.23 244.565 289.055 243.23 289.055Z" fill="black"/>
<path d="M39.6903 535H41.0403V530.305H45.7653V529.09H41.0403V525.715H46.3203V524.5H39.6903V535ZM51.1026 524.38H49.6176V526.12H51.1026V524.38ZM51.0876 533.86V527.5H48.4626V528.64H49.7376V533.86H48.2526V535H52.4676V533.86H51.0876ZM60.4911 528.16C59.9511 527.59 59.2461 527.32 58.2561 527.32C57.0561 527.32 56.3211 527.8 55.9461 528.64V527.5H54.5961V535H55.9461V530.86C55.9461 528.715 57.2361 528.445 57.8961 528.445C58.3161 528.445 58.8111 528.46 59.2311 528.88C59.6961 529.315 59.6811 529.93 59.6811 530.62V535H61.0761V530.545C61.0761 529.75 61.0611 528.775 60.4911 528.16ZM65.6937 535.18C66.9687 535.18 67.7937 534.745 68.2137 533.89C68.2887 534.67 68.7387 535.06 69.5637 535.06C69.8637 535.06 70.1187 535.045 70.4037 535L70.3737 533.89C70.1787 533.935 70.0587 533.95 69.9387 533.95C69.5037 533.95 69.5037 533.77 69.5037 533.38V529.795C69.5037 528.16 68.5437 527.32 66.6537 527.32C65.6937 527.32 64.8987 527.515 64.3587 527.875C63.7737 528.265 63.4587 528.925 63.4287 529.825L64.7487 530.005C64.7487 528.865 65.2737 528.385 66.5787 528.385C67.2387 528.385 67.7337 528.58 67.9437 528.88C68.1687 529.195 68.1987 529.57 68.1987 530.245L65.7237 530.725C64.5387 530.95 63.1737 531.4 63.1737 533.02C63.1737 534.49 64.4337 535.18 65.6937 535.18ZM65.9037 534.1C65.1687 534.1 64.5537 533.71 64.5537 533.005C64.5537 532.15 65.1387 531.925 65.9337 531.745L68.1987 531.25V532.165C68.1987 533.245 67.5387 534.1 65.9037 534.1ZM74.9199 533.86V524.5H72.3249V525.64H73.5699V533.86H72.0699V535H76.2849V533.86H74.9199ZM84.8465 535H88.2215C91.1015 535 92.7965 533.065 92.7965 529.75C92.7965 526.57 91.1765 524.5 88.2365 524.5H84.8465V535ZM86.1965 533.83V525.67H88.0865C89.2265 525.67 90.1115 525.985 90.5915 526.72C91.0715 527.47 91.2665 528.415 91.2665 529.75C91.2665 531.07 91.1015 531.97 90.5765 532.765C90.1115 533.47 89.2415 533.83 88.0865 533.83H86.1965ZM100.765 528.805C100.15 527.83 99.0246 527.32 97.8396 527.32C96.7596 527.32 95.8446 527.695 95.1846 528.445C94.5546 529.15 94.2396 530.125 94.2396 531.235C94.2396 532.405 94.5246 533.38 95.1546 534.085C95.7996 534.82 96.6996 535.18 97.8546 535.18C99.7596 535.18 100.96 534.28 101.29 532.525L99.9846 532.42C99.8046 533.56 99.1146 534.1 97.8396 534.1C96.4296 534.1 95.7396 533.305 95.7096 531.655H101.395C101.455 530.59 101.215 529.525 100.765 528.805ZM97.8546 528.415C98.6646 528.415 99.2196 528.655 99.6096 529.225C99.8496 529.585 99.9996 530.155 100.015 530.56H95.7246C95.7246 530.185 95.8146 529.675 96.0846 529.225C96.3846 528.73 97.0146 528.415 97.8546 528.415ZM106.794 535.18C108.534 535.18 109.839 534.22 110.109 532.705L108.834 532.57C108.549 533.65 107.949 534.1 106.794 534.1C104.979 534.1 104.559 532.945 104.559 531.25C104.559 529.6 104.964 528.4 106.794 528.4C108.144 528.4 108.594 529.255 108.819 530.125L110.079 529.885C109.779 528.46 108.699 527.32 106.794 527.32C104.499 527.32 103.074 528.94 103.074 531.25C103.074 533.71 104.499 535.18 106.794 535.18ZM114.897 524.38H113.412V526.12H114.897V524.38ZM114.882 533.86V527.5H112.257V528.64H113.532V533.86H112.047V535H116.262V533.86H114.882ZM121.36 535.18C122.875 535.18 124.45 534.655 124.45 532.825C124.45 531.07 122.905 530.815 121.405 530.5C120.505 530.305 119.605 530.11 119.605 529.42C119.605 528.73 120.37 528.385 121.105 528.385C122.29 528.385 122.965 528.94 122.995 529.975L124.255 529.78C124.09 527.95 122.71 527.32 121.12 527.32C119.785 527.32 118.345 527.95 118.345 529.51C118.345 530.995 119.545 531.355 120.76 531.67C121.795 531.94 123.175 532.045 123.175 532.9C123.175 533.695 122.56 534.115 121.33 534.115C120.16 534.115 119.395 533.47 119.41 532.42L118.18 532.54C118.165 534.4 119.68 535.18 121.36 535.18ZM129.516 524.38H128.031V526.12H129.516V524.38ZM129.501 533.86V527.5H126.876V528.64H128.151V533.86H126.666V535H130.881V533.86H129.501ZM136.249 535.18C138.499 535.18 139.984 533.605 139.984 531.25C139.984 528.985 138.544 527.32 136.249 527.32C133.924 527.32 132.499 528.97 132.499 531.25C132.499 533.695 133.909 535.18 136.249 535.18ZM136.249 534.115C134.509 534.115 133.954 533.02 133.954 531.25C133.954 529.48 134.524 528.385 136.249 528.385C137.944 528.385 138.529 529.48 138.529 531.25C138.529 533.02 137.944 534.115 136.249 534.115ZM147.84 528.16C147.3 527.59 146.595 527.32 145.605 527.32C144.405 527.32 143.67 527.8 143.295 528.64V527.5H141.945V535H143.295V530.86C143.295 528.715 144.585 528.445 145.245 528.445C145.665 528.445 146.16 528.46 146.58 528.88C147.045 529.315 147.03 529.93 147.03 530.62V535H148.425V530.545C148.425 529.75 148.41 528.775 147.84 528.16ZM150.402 527.905C150.402 527.445 150.527 527.125 150.777 526.945C151.027 526.755 151.332 526.66 151.692 526.66C152.042 526.66 152.342 526.755 152.592 526.945C152.842 527.125 152.967 527.445 152.967 527.905C152.967 528.345 152.842 528.665 152.592 528.865C152.342 529.055 152.042 529.15 151.692 529.15C151.332 529.15 151.027 529.055 150.777 528.865C150.527 528.665 150.402 528.345 150.402 527.905ZM150.402 533.95C150.402 533.49 150.527 533.17 150.777 532.99C151.027 532.8 151.332 532.705 151.692 532.705C152.042 532.705 152.342 532.8 152.592 532.99C152.842 533.17 152.967 533.49 152.967 533.95C152.967 534.39 152.842 534.71 152.592 534.91C152.342 535.1 152.042 535.195 151.692 535.195C151.332 535.195 151.027 535.1 150.777 534.91C150.527 534.71 150.402 534.39 150.402 533.95Z" fill="black"/>
<path d="M45.9428 608H47.3528L43.6178 597.5H42.1328L38.3828 608H39.8078L40.8578 604.865H44.8778L45.9428 608ZM41.2628 603.665L42.3128 600.5C42.5378 599.84 42.6728 599.36 42.8528 598.805H42.8678C43.0028 599.255 43.2278 599.945 43.4078 600.5L44.4728 603.665H41.2628ZM54.7596 601.16C54.2196 600.59 53.5146 600.32 52.5246 600.32C51.3246 600.32 50.5896 600.8 50.2146 601.64V600.5H48.8646V608H50.2146V603.86C50.2146 601.715 51.5046 601.445 52.1646 601.445C52.5846 601.445 53.0796 601.46 53.4996 601.88C53.9646 602.315 53.9496 602.93 53.9496 603.62V608H55.3446V603.545C55.3446 602.75 55.3296 601.775 54.7596 601.16ZM59.9623 608.18C61.2373 608.18 62.0623 607.745 62.4823 606.89C62.5573 607.67 63.0073 608.06 63.8323 608.06C64.1323 608.06 64.3873 608.045 64.6723 608L64.6423 606.89C64.4473 606.935 64.3273 606.95 64.2073 606.95C63.7723 606.95 63.7723 606.77 63.7723 606.38V602.795C63.7723 601.16 62.8123 600.32 60.9223 600.32C59.9623 600.32 59.1673 600.515 58.6273 600.875C58.0423 601.265 57.7273 601.925 57.6973 602.825L59.0173 603.005C59.0173 601.865 59.5423 601.385 60.8473 601.385C61.5073 601.385 62.0023 601.58 62.2123 601.88C62.4373 602.195 62.4673 602.57 62.4673 603.245L59.9923 603.725C58.8073 603.95 57.4423 604.4 57.4423 606.02C57.4423 607.49 58.7023 608.18 59.9623 608.18ZM60.1723 607.1C59.4373 607.1 58.8223 606.71 58.8223 606.005C58.8223 605.15 59.4073 604.925 60.2023 604.745L62.4673 604.25V605.165C62.4673 606.245 61.8073 607.1 60.1723 607.1ZM69.1885 606.86V597.5H66.5935V598.64H67.8385V606.86H66.3385V608H70.5535V606.86H69.1885ZM77.7819 600.5L76.3419 604.55C76.1319 605.15 75.9669 605.63 75.6669 606.545C75.4269 605.795 75.1869 605.06 75.0069 604.55L73.5819 600.5H72.1419L75.0669 607.925C74.5569 609.215 74.3019 609.83 73.7469 609.83C73.3869 609.83 73.0569 609.755 72.7869 609.665L72.7569 610.925C73.1319 611.03 73.5519 611.075 73.9269 611.075C74.9619 611.075 75.5169 610.34 76.1319 608.69L79.1919 600.5H77.7819ZM83.9001 608.18C85.4151 608.18 86.9901 607.655 86.9901 605.825C86.9901 604.07 85.4451 603.815 83.9451 603.5C83.0451 603.305 82.1451 603.11 82.1451 602.42C82.1451 601.73 82.9101 601.385 83.6451 601.385C84.8301 601.385 85.5051 601.94 85.5351 602.975L86.7951 602.78C86.6301 600.95 85.2501 600.32 83.6601 600.32C82.3251 600.32 80.8851 600.95 80.8851 602.51C80.8851 603.995 82.0851 604.355 83.3001 604.67C84.3351 604.94 85.7151 605.045 85.7151 605.9C85.7151 606.695 85.1001 607.115 83.8701 607.115C82.7001 607.115 81.9351 606.47 81.9501 605.42L80.7201 605.54C80.7051 607.4 82.2201 608.18 83.9001 608.18ZM92.0557 597.38H90.5707V599.12H92.0557V597.38ZM92.0407 606.86V600.5H89.4157V601.64H90.6907V606.86H89.2057V608H93.4207V606.86H92.0407ZM98.5192 608.18C100.034 608.18 101.609 607.655 101.609 605.825C101.609 604.07 100.064 603.815 98.5642 603.5C97.6642 603.305 96.7642 603.11 96.7642 602.42C96.7642 601.73 97.5292 601.385 98.2642 601.385C99.4492 601.385 100.124 601.94 100.154 602.975L101.414 602.78C101.249 600.95 99.8692 600.32 98.2792 600.32C96.9442 600.32 95.5042 600.95 95.5042 602.51C95.5042 603.995 96.7042 604.355 97.9192 604.67C98.9542 604.94 100.334 605.045 100.334 605.9C100.334 606.695 99.7192 607.115 98.4892 607.115C97.3192 607.115 96.5542 606.47 96.5692 605.42L95.3392 605.54C95.3242 607.4 96.8392 608.18 98.5192 608.18ZM103.465 600.905C103.465 600.445 103.59 600.125 103.84 599.945C104.09 599.755 104.395 599.66 104.755 599.66C105.105 599.66 105.405 599.755 105.655 599.945C105.905 600.125 106.03 600.445 106.03 600.905C106.03 601.345 105.905 601.665 105.655 601.865C105.405 602.055 105.105 602.15 104.755 602.15C104.395 602.15 104.09 602.055 103.84 601.865C103.59 601.665 103.465 601.345 103.465 600.905ZM103.465 606.95C103.465 606.49 103.59 606.17 103.84 605.99C104.09 605.8 104.395 605.705 104.755 605.705C105.105 605.705 105.405 605.8 105.655 605.99C105.905 606.17 106.03 606.49 106.03 606.95C106.03 607.39 105.905 607.71 105.655 607.91C105.405 608.1 105.105 608.195 104.755 608.195C104.395 608.195 104.09 608.1 103.84 607.91C103.59 607.71 103.465 607.39 103.465 606.95Z" fill="black"/>
<defs>
<clipPath id="clip0">
<rect width="32" height="40" fill="white" transform="translate(321 761)"/>
</clipPath>
</defs>
</svg>
