<svg width="19" height="54" viewBox="0 0 19 54" fill="none" xmlns="http://www.w3.org/2000/svg">
<path d="M9.153 53.349C9.164 53.351 9.175 53.351 9.186 53.353C9.222 53.359 9.255 53.374 9.292 53.374C9.329 53.374 9.362 53.358 9.398 53.353C9.409 53.351 9.419 53.351 9.431 53.349C9.443 53.347 9.453 53.342 9.464 53.339C9.513 53.327 9.563 53.319 9.608 53.299C9.617 53.297 9.627 53.296 9.635 53.291L18.176 48.885C18.544 48.695 18.69 48.242 18.499 47.874C18.308 47.506 17.856 47.361 17.488 47.551L10.041 51.393V0.75C10.041 0.336 9.705 0 9.291 0C8.877 0 8.541 0.336 8.541 0.75V51.393L1.094 47.551C0.726002 47.362 0.274 47.506 0.0830002 47.874C0.0260002 47.984 0 48.102 0 48.217C0 48.489 0.148002 48.751 0.406002 48.885L8.947 53.291C8.956 53.296 8.966 53.297 8.975 53.299C9.019 53.32 9.069 53.327 9.118 53.339C9.13 53.342 9.141 53.347 9.153 53.349Z" fill="black"/>
</svg>
